<svg width="374" height="360" viewBox="0 0 374 360" fill="none" xmlns="http://www.w3.org/2000/svg">
<path d="M288.904 42.4454L286.587 40.5498C267.041 24.5861 240.58 20.2007 217.924 29.9573C215.002 31.2121 212.179 32.6847 209.479 34.3628C190.017 46.4576 177.5 69.175 177.38 92.581C177.3 106.351 181.158 120.787 176.134 133.488C169.633 150.004 150.993 157.099 134.293 162.466C117.592 167.833 98.9593 174.987 92.5257 191.527C88.4942 201.889 90.3763 213.909 94.7615 224.3C106.397 251.793 134.743 269.981 163.796 273.679C192.848 277.377 222.158 268.185 247.037 253.128C281.889 232.029 310.045 198.189 319.753 157.961C329.461 117.734 318.848 71.4471 288.904 42.4454Z" fill="#0158A3"/>
<path d="M215.198 48.9521C217.52 47.5299 220.018 46.4284 222.627 45.677L224.168 38.2198L236.581 38.001L238.369 45.3956C241.002 46.0537 243.537 47.0658 245.905 48.405L252.185 44.2309L261.124 52.9856L257.233 59.4968C258.636 61.8509 259.722 64.3852 260.461 67.0321L267.812 68.5955L268.028 81.196L260.739 83.0094C260.086 85.6792 259.089 88.2498 257.772 90.6541L261.887 97.0247L253.256 106.084L246.838 102.137C244.519 103.564 242.02 104.665 239.409 105.412L237.868 112.869L225.447 113.096L223.659 105.693C221.025 105.039 218.49 104.026 216.123 102.684L209.843 106.858L200.912 98.1113L204.803 91.6C203.398 89.2468 202.312 86.7122 201.575 84.0647L194.224 82.5013L194 69.9009L201.297 68.0874C201.945 65.4162 202.943 62.8451 204.264 60.4427L200.149 54.0799L208.772 45.0125L215.191 48.9209L215.198 48.9521ZM221.825 65.7346C219.995 67.6577 218.768 70.0881 218.3 72.7185C217.832 75.3488 218.143 78.061 219.194 80.5121C220.245 82.9631 221.989 85.043 224.205 86.4886C226.422 87.9342 229.011 88.6808 231.645 88.6338C234.28 88.5868 236.841 87.7484 239.006 86.2245C241.171 84.7007 242.842 82.56 243.807 80.073C244.773 77.5859 244.99 74.8643 244.43 72.2523C243.871 69.6403 242.561 67.2551 240.665 65.3984C238.122 62.9103 234.709 61.5481 231.177 61.6111C227.644 61.6741 224.28 63.1572 221.825 65.7346Z" fill="#CDD0D6"/>
<path d="M249.713 177.684C251.526 176.573 253.477 175.713 255.515 175.128L256.71 169.305L266.411 169.125L267.806 174.909C269.862 175.423 271.842 176.211 273.693 177.254L278.601 173.995L285.575 180.834L282.539 185.915C283.634 187.754 284.482 189.734 285.059 191.801L290.799 193.013L290.977 202.854L285.274 204.277C284.767 206.362 283.99 208.37 282.963 210.249L286.176 215.22L279.434 222.302L274.425 219.214C272.611 220.325 270.66 221.187 268.623 221.778L267.428 227.602L257.727 227.774L256.324 221.997C254.268 221.483 252.288 220.695 250.437 219.652L245.536 222.912L238.524 216.064L241.568 210.983C240.473 209.143 239.623 207.164 239.041 205.097L233.331 203.886L233.13 194.045L238.825 192.63C239.331 190.544 240.108 188.536 241.137 186.658L237.923 181.679L244.658 174.597L249.674 177.684H249.713ZM254.883 190.793C253.453 192.295 252.493 194.194 252.126 196.249C251.759 198.304 252.001 200.424 252.822 202.34C253.642 204.255 255.004 205.881 256.736 207.012C258.467 208.142 260.491 208.726 262.549 208.69C264.608 208.654 266.61 207.999 268.302 206.809C269.994 205.619 271.3 203.946 272.055 202.003C272.81 200.059 272.98 197.932 272.543 195.891C272.106 193.85 271.082 191.986 269.601 190.535C267.616 188.59 264.95 187.524 262.19 187.573C259.43 187.621 256.802 188.779 254.883 190.793Z" fill="#CDD0D6"/>
<path d="M307.224 104.754C308.23 104.135 309.313 103.656 310.445 103.331L311.107 100.095L316.501 100.001L317.272 103.206C318.412 103.495 319.511 103.933 320.539 104.511L323.267 102.698L327.12 106.497L325.432 109.318C326.042 110.339 326.514 111.438 326.835 112.586L330.025 113.258L330.117 118.73L326.95 119.511C326.67 120.669 326.24 121.783 325.671 122.826L327.451 125.593L323.706 129.501L320.924 127.789C319.929 128.428 318.853 128.927 317.727 129.274L317.056 132.511L311.662 132.612L310.892 129.4C309.75 129.113 308.652 128.674 307.624 128.094L304.897 129.908L301.044 126.109L302.685 123.248C302.078 122.226 301.607 121.127 301.283 119.98L298.1 119.308L298 113.836L301.167 113.055C301.456 111.893 301.896 110.776 302.477 109.733L300.689 106.973L304.434 103.065L307.224 104.777V104.754ZM310.09 112.078C309.298 112.913 308.768 113.967 308.566 115.108C308.365 116.248 308.501 117.424 308.958 118.486C309.414 119.548 310.171 120.449 311.132 121.075C312.094 121.702 313.216 122.025 314.358 122.004C315.5 121.983 316.611 121.62 317.549 120.959C318.488 120.298 319.212 119.37 319.631 118.292C320.05 117.214 320.145 116.035 319.903 114.902C319.662 113.77 319.095 112.735 318.274 111.929C317.727 111.394 317.081 110.973 316.374 110.691C315.667 110.408 314.912 110.27 314.152 110.284C313.392 110.298 312.642 110.463 311.945 110.771C311.248 111.079 310.618 111.523 310.09 112.078Z" fill="#CDD0D6"/>
<path d="M330.284 359.451C330.284 359.676 256.91 359.868 166.415 359.868C75.9202 359.868 2.53162 359.692 2.53162 359.451C2.53162 359.211 75.8894 359.034 166.415 359.034C256.941 359.034 330.284 359.227 330.284 359.451Z" fill="#263238"/>
<path d="M42.4903 328.259L37.6155 344.932C37.6155 344.932 53.1488 355.399 52.5535 358.556L19.4519 350.404L25.9757 324.179L42.4903 328.259Z" fill="#455A64"/>
<path d="M27.7593 340.952C27.415 340.973 27.0904 341.115 26.8472 341.353C26.604 341.591 26.4591 341.907 26.4401 342.242C26.4437 342.578 26.5787 342.899 26.8178 343.142C27.0569 343.384 27.382 343.529 27.7271 343.547C28.0927 343.525 28.4367 343.372 28.6935 343.118C28.9503 342.864 29.1017 342.527 29.1188 342.171C29.0544 341.499 28.3143 340.804 27.6306 340.968" fill="#E0E0E0"/>
<g opacity="0.6">
<path d="M19.4736 350.406L20.2378 347.787L51.6904 356.581C51.6904 356.581 53.0016 357.581 52.5752 358.558L19.4736 350.406Z" fill="white"/>
</g>
<path d="M38.1961 344.852C38.1478 345.009 37.3273 344.852 36.4022 345.204C35.4772 345.556 34.8819 346.08 34.7451 345.986C34.6084 345.892 35.091 345.024 36.2172 344.657C37.3434 344.29 38.2685 344.719 38.1961 344.852Z" fill="#263238"/>
<path d="M41.3233 347.126C41.3233 347.282 40.5189 347.384 39.8351 347.907C39.1513 348.431 38.7733 349.119 38.6124 349.072C38.4515 349.025 38.6124 348.095 39.4892 347.446C40.366 346.797 41.3554 346.969 41.3233 347.126Z" fill="#263238"/>
<path d="M42.2555 351.698C42.0946 351.698 42.0785 350.846 42.714 350.08C43.3495 349.314 44.1941 349.15 44.2263 349.299C44.2585 349.447 43.6713 349.799 43.1645 350.432C42.6577 351.065 42.4164 351.722 42.2555 351.698Z" fill="#263238"/>
<path d="M38.8805 340.946C38.7759 341.071 38.076 340.672 37.159 340.508C36.242 340.344 35.4456 340.453 35.3973 340.297C35.3491 340.141 36.2018 339.734 37.2716 339.945C38.3415 340.156 38.9931 340.836 38.8805 340.946Z" fill="#263238"/>
<path d="M30.9072 332.172L30.1028 349.462C30.1028 349.462 47.7034 356.044 47.8803 359.257L13.7974 358.999L13.8698 332L30.9072 332.172Z" fill="#455A64"/>
<path d="M19.5905 347.931C19.2595 348.03 18.9776 348.245 18.7982 348.533C18.6188 348.821 18.5544 349.163 18.6172 349.494C18.7014 349.818 18.9097 350.099 19.1997 350.279C19.4897 350.459 19.8395 350.525 20.1777 350.463C20.5218 350.359 20.8151 350.136 21.003 349.837C21.1909 349.538 21.2607 349.183 21.1993 348.837C21.0804 348.507 20.8325 348.234 20.509 348.079C20.1855 347.924 19.8124 347.899 19.4699 348.009" fill="#E0E0E0"/>
<g opacity="0.6">
<path d="M13.7887 359.003L13.9013 356.283L46.5685 357.55C46.5685 357.55 48.0808 358.214 47.9039 359.269L13.7887 359.003Z" fill="white"/>
</g>
<path d="M30.6964 349.299C30.6964 349.463 29.8919 349.533 29.0312 350.08C28.1705 350.628 27.7683 351.292 27.6154 351.222C27.4626 351.151 27.72 350.213 28.7255 349.604C29.7311 348.994 30.7366 349.15 30.6964 349.299Z" fill="#263238"/>
<path d="M34.2644 350.787C34.2644 350.943 33.5726 351.217 33.0014 351.913C32.4303 352.608 32.2614 353.335 32.1005 353.32C31.9396 353.304 31.835 352.389 32.559 351.545C33.283 350.701 34.2563 350.631 34.2644 350.787Z" fill="#263238"/>
<path d="M36.2503 355.023C36.0975 355.023 35.8722 354.241 36.3066 353.334C36.741 352.427 37.5293 352.091 37.5937 352.224C37.658 352.357 37.1834 352.842 36.8375 353.584C36.4916 354.327 36.4193 355.007 36.2503 355.023Z" fill="#263238"/>
<path d="M30.4261 345.335C30.3537 345.484 29.6216 345.257 28.6483 345.335C27.675 345.414 26.9751 345.679 26.8866 345.539C26.7982 345.398 27.5141 344.812 28.6242 344.757C29.7343 344.702 30.5387 345.21 30.4261 345.335Z" fill="#263238"/>
<path d="M9.80314 205.598V219.277L13.5356 272.555C13.5356 272.555 11.235 298.405 9.78706 312.999C8.54826 325.67 10.5915 347.736 10.5915 347.736H32.3106L40.0813 274.142L44.9077 228.243L53.2736 207.356L9.80314 205.598Z" fill="#263238"/>
<path d="M63.1432 205.599L65.2427 261.136C65.0979 271.556 62.1457 291.011 58.3087 300.728L40.861 337.974L39.8554 341.327L26.8802 338.24L36.5252 206.576L63.1432 205.599Z" fill="#263238"/>
<path d="M48.108 220.31C48.1188 220.421 48.1188 220.534 48.108 220.646C48.108 220.88 48.108 221.201 48.108 221.615C48.108 222.498 48.108 223.757 48.108 225.367C48.108 228.627 48.108 233.34 48.0035 239.163C47.8989 244.987 47.7139 251.92 47.2875 259.612C46.8612 267.303 46.2901 275.785 44.4319 284.508C42.7989 293.239 40.989 301.525 39.3802 309.06C37.7713 316.595 36.3395 323.388 35.2696 329.118C34.1997 334.847 33.4195 339.498 32.9448 342.727C32.6955 344.337 32.5668 345.595 32.4461 346.439C32.3898 346.854 32.3415 347.174 32.3094 347.409C32.3 347.52 32.2785 347.63 32.245 347.737C32.2342 347.625 32.2342 347.513 32.245 347.401C32.245 347.166 32.2933 346.846 32.3335 346.432C32.43 345.58 32.5346 344.321 32.7598 342.703C33.154 339.467 33.8699 334.808 34.8996 329.063C35.9292 323.318 37.3128 316.556 38.9216 308.982C40.5305 301.408 42.3324 293.161 44.0458 284.43C45.8959 275.73 46.459 267.233 46.9255 259.588C47.3921 251.944 47.5852 244.979 47.73 239.156C47.8748 233.332 47.9311 228.627 47.9713 225.367C47.9713 223.757 47.9713 222.498 47.9713 221.615C47.9713 221.201 47.9713 220.88 47.9713 220.646C48.009 220.531 48.0547 220.418 48.108 220.31Z" fill="#455A64"/>
<path d="M75.4511 191.405C75.745 192.445 75.8539 193.526 75.7729 194.602C75.612 196.235 75.5316 200.269 71.0429 201.637C66.5543 203.005 62.315 199.737 60.9475 198.26C59.58 196.783 59.7329 191.944 59.7329 191.944L67.1094 188.755L75.4511 191.405Z" fill="#0158A3"/>
<path d="M24.4483 129.862L20.7159 135.693L5.58484 141.946L9.37362 202.299L12.0925 213.242L62.4729 211.616L63.7198 203.143V162.441C62.5775 151.998 57.3891 145.511 52.5706 142.939L49.4254 140.844L48.2187 137.006L43.7784 132.965L29.5483 129.377L24.4483 129.862Z" fill="#0158A3"/>
<g opacity="0.3">
<path d="M7.70801 197.713C9.33143 200.109 11.6281 202.003 14.3257 203.17C17.0233 204.336 20.0086 204.726 22.9275 204.294C27.9873 203.466 32.2587 200.222 37.1093 198.604C45.5476 195.774 55.1765 198.025 63.4941 194.875C63.655 193.484 63.5584 191.748 63.655 190.826C59.4962 190.615 55.0638 190.388 51.3877 188.481L48.0493 187.285L7.70801 197.713Z" fill="black"/>
</g>
<path d="M5.58344 141.954C5.58344 141.954 -1.59997 147.926 0.483461 163.497C2.41405 177.958 5.84085 198.109 10.4099 200.446C14.979 202.783 24.8411 201.611 32.0567 197.64C39.2723 193.669 60.2112 182.913 60.2112 182.913L51.5476 167.952L23.6425 178.474C23.6425 178.474 20.0307 154.476 17.8668 150.334" fill="#0158A3"/>
<path d="M17.8789 150.348C17.8789 150.348 17.9594 150.497 18.0961 150.802C18.1605 150.958 18.257 151.145 18.3455 151.38L18.619 152.201C19.0293 153.436 19.5199 155.327 20.0509 157.727C21.1288 162.581 22.4641 169.648 23.7994 178.449L23.5983 178.332L51.4873 167.779L51.6402 167.717L51.7286 167.858C54.4636 172.587 57.3595 177.613 60.3922 182.811L60.4967 182.991L60.2956 183.124L42.4055 192.504L33.6293 197.092C32.1894 197.874 30.7496 198.655 29.2614 199.249C27.7778 199.867 26.2542 200.389 24.7004 200.813C21.673 201.63 18.5328 201.984 15.3933 201.86C13.8601 201.802 12.348 201.493 10.9208 200.946L10.3979 200.719C10.2227 200.627 10.0534 200.526 9.89112 200.414C9.59651 200.181 9.327 199.919 9.08671 199.632C8.62982 199.058 8.23366 198.44 7.90422 197.788C6.71197 195.277 5.77702 192.659 5.11291 189.971C4.40502 187.368 3.84998 184.812 3.35124 182.342C2.36181 177.386 1.6298 172.743 1.01845 168.498C0.407091 164.254 -0.131865 160.385 0.0290177 156.969C0.111371 154.04 0.65391 151.14 1.63784 148.371C2.26724 146.624 3.15907 144.978 4.28436 143.485C4.57732 143.1 4.89716 142.734 5.24161 142.391C5.35532 142.272 5.4791 142.162 5.61164 142.062L5.26575 142.414C5.04855 142.657 4.72679 143.024 4.34871 143.532C3.26676 145.04 2.40584 146.687 1.79068 148.425C0.847328 151.183 0.340136 154.063 0.28643 156.969C0.149679 160.361 0.704724 164.207 1.33217 168.452C1.95961 172.696 2.71576 177.324 3.74541 182.264C4.25219 184.734 4.81527 187.282 5.52316 189.869C6.18388 192.542 7.11621 195.145 8.30643 197.639C8.62655 198.268 9.00912 198.865 9.44869 199.421C9.67123 199.688 9.92197 199.932 10.1968 200.148C10.3371 200.248 10.485 200.336 10.6392 200.414L11.138 200.633C12.524 201.163 13.9931 201.459 15.4818 201.508C18.5704 201.58 21.6514 201.179 24.6119 200.32C26.1463 199.912 27.6512 199.405 29.1166 198.804C30.5887 198.186 31.9883 197.412 33.4363 196.662L42.2205 192.066L60.1187 182.686L60.0382 182.959L51.3908 168.045L51.6241 168.123L23.7029 178.605L23.534 178.676V178.488C22.1986 169.694 20.9438 162.613 19.9222 157.766C19.4154 155.335 18.9488 153.467 18.5707 152.224C18.4742 151.912 18.3938 151.638 18.3133 151.396L18.0881 150.817C17.9353 150.512 17.8789 150.348 17.8789 150.348Z" fill="#263238"/>
<path d="M20.2983 159.214L38.4218 158.057L42.4277 165.381L22.1163 168.93L20.2983 159.214Z" fill="#0158A3"/>
<path d="M20.2932 159.213C20.363 159.444 20.4194 159.679 20.4621 159.916C20.5586 160.409 20.6954 161.057 20.8643 161.87C21.2022 163.582 21.6687 165.974 22.264 168.905L22.079 168.78L40.3633 165.536L42.3904 165.185L42.2376 165.474C40.8379 162.894 39.4865 160.432 38.2155 158.15L38.4005 158.243L25.4173 158.978L21.6526 159.174H20.6391H20.269C20.3761 159.165 20.4837 159.165 20.5908 159.174L21.5561 159.088L25.2725 158.798L38.3764 157.868H38.5051L38.5614 157.978L42.5835 165.294L42.7202 165.536L42.4387 165.591L40.4196 165.943L22.1112 169.069H21.9583V168.921C21.4435 165.935 21.0171 163.496 20.7115 161.753C20.5747 160.971 20.4701 160.307 20.3897 159.83C20.3455 159.626 20.3132 159.42 20.2932 159.213Z" fill="#263238"/>
<path d="M23.646 178.474C23.7586 178.56 22.1337 180.412 20.7823 183.054C19.4309 185.696 18.8517 188.073 18.7069 188.033C18.729 187.501 18.832 186.974 19.0126 186.47C19.3527 185.23 19.8188 184.025 20.4042 182.874C20.9948 181.726 21.7037 180.64 22.5198 179.63C22.8325 179.192 23.2123 178.801 23.646 178.474Z" fill="#263238"/>
<path d="M41.8592 144.918C41.5012 144.719 41.1644 144.486 40.8536 144.222L38.2232 142.19H38.4484C37.4329 143.785 36.2259 145.257 34.8527 146.575L34.724 146.7L34.5792 146.583L31.804 144.339C28.8277 141.994 26.0444 139.931 24.0173 138.477L21.604 136.749C21.2983 136.555 21.0127 136.333 20.7513 136.085C21.085 136.234 21.4029 136.415 21.7006 136.624C22.2958 136.992 23.1485 137.539 24.1862 138.242C26.2616 139.642 29.077 141.658 32.0614 144.027C33.0347 144.808 33.9759 145.59 34.8366 146.286H34.5551C35.9164 144.994 37.13 143.563 38.1749 142.018L38.2715 141.869L38.4002 141.987L40.9904 144.089C41.3 144.345 41.5903 144.622 41.8592 144.918Z" fill="#263238"/>
<path d="M49.3166 141.219C49.4237 141.534 49.4727 141.865 49.4614 142.196C49.5141 143.067 49.4845 143.941 49.3729 144.807L49.3166 145.268L49.0431 144.878C48.3744 143.939 47.6548 143.037 46.8872 142.173C46.5655 141.806 46.2357 141.462 45.9139 141.133C45.7665 140.972 45.6108 140.818 45.4473 140.672C45.2865 140.571 45.3106 140.571 45.1658 140.719L43.8305 142.525C43.4475 143.106 43.0056 143.648 42.5112 144.143C42.8096 143.516 43.1707 142.919 43.5891 142.361L44.8601 140.492C44.8989 140.426 44.9524 140.37 45.0166 140.327C45.0809 140.283 45.1543 140.255 45.2315 140.243C45.3087 140.231 45.3876 140.236 45.4626 140.257C45.5375 140.279 45.6065 140.316 45.6645 140.367C45.8737 140.539 46.0024 140.68 46.1794 140.852C46.5092 141.18 46.847 141.532 47.1768 141.907C47.957 142.782 48.6721 143.709 49.3166 144.682L48.9787 144.76C49.3407 142.658 49.2281 141.219 49.3166 141.219Z" fill="#263238"/>
<path d="M17.0408 147.95C16.627 147.55 16.2501 147.116 15.9146 146.652C15.0674 145.587 14.0678 144.645 12.9464 143.854C11.7897 143.139 10.4902 142.67 9.13343 142.478C8.55407 142.432 7.97882 142.346 7.41199 142.22C7.99497 142.123 8.59067 142.123 9.17365 142.22C10.6118 142.36 11.9928 142.841 13.1957 143.619C14.3572 144.429 15.3644 145.428 16.172 146.574C16.5261 146.991 16.8185 147.454 17.0408 147.95Z" fill="#263238"/>
<path d="M56.4207 158.783C55.8126 157.584 55.3328 156.326 54.9889 155.031C54.509 153.766 54.1613 152.456 53.9512 151.123C54.5615 152.325 55.044 153.585 55.3911 154.883C55.8693 156.146 56.2143 157.453 56.4207 158.783Z" fill="#263238"/>
<path d="M63.5473 193.287C63.6632 193.8 63.7172 194.325 63.7082 194.85C63.7726 195.804 63.8852 197.117 63.9495 198.579C64.0216 199.832 63.9947 201.089 63.8691 202.339C63.8537 202.876 63.7365 203.406 63.5232 203.902C63.496 203.381 63.5122 202.858 63.5715 202.339C63.5715 201.385 63.5715 200.072 63.5715 198.618C63.5715 197.164 63.4428 195.843 63.4589 194.882C63.3986 194.349 63.4285 193.81 63.5473 193.287Z" fill="#263238"/>
<path d="M30.6542 164.365C30.4855 164.537 30.3899 164.765 30.3866 165.003C30.3832 165.241 30.4723 165.472 30.6361 165.649C30.7999 165.826 31.0264 165.936 31.2703 165.958C31.5142 165.98 31.7576 165.912 31.952 165.767C32.1464 165.622 32.2775 165.411 32.319 165.177C32.3606 164.942 32.3096 164.701 32.1763 164.501C32.0429 164.302 31.837 164.158 31.5996 164.099C31.3622 164.041 31.1108 164.071 30.8955 164.185" fill="#E0E0E0"/>
<g opacity="0.3">
<path d="M19.074 153.938L24.1579 168.571L40.9138 165.648L24.7612 171.8L23.4017 176.873L19.074 153.938Z" fill="black"/>
</g>
<g opacity="0.3">
<path d="M21.1805 136.347L36.1587 149.518L38.4754 143.358L40.8887 144.14L38.2904 142.045C38.2904 142.045 35.4428 146.297 34.6866 146.375L21.1805 136.347Z" fill="black"/>
</g>
<path d="M49.7338 167.89C49.5983 167.608 49.4957 167.311 49.4281 167.007C49.2431 166.35 49.0018 165.529 48.7203 164.56C48.125 162.496 47.2643 159.659 46.2105 156.548C45.1567 153.437 44.0949 150.67 43.3066 148.661C42.9446 147.723 42.6309 146.933 42.3815 146.316C42.2488 146.03 42.1463 145.731 42.0758 145.425C42.2577 145.684 42.4089 145.962 42.5263 146.253C42.7917 146.793 43.1537 147.59 43.5881 148.598C44.4408 150.576 45.5428 153.351 46.6047 156.462C47.6665 159.573 48.487 162.442 49.0179 164.529C49.2834 165.568 49.4764 166.42 49.5971 167.007C49.678 167.295 49.7239 167.591 49.7338 167.89Z" fill="#263238"/>
<path d="M49.5197 151.639C52.3512 154.383 59.5266 161.543 59.5266 161.543L61.4491 160.417L51.3376 149.927C51.1338 149.719 50.8616 149.586 50.568 149.552C50.2743 149.518 49.9775 149.584 49.7288 149.739C49.5703 149.839 49.4367 149.971 49.3377 150.127C49.2388 150.283 49.177 150.458 49.1569 150.641C49.1369 150.823 49.1591 151.007 49.2218 151.18C49.2846 151.352 49.3864 151.509 49.5197 151.639Z" fill="#263238"/>
<path d="M51.5582 167.952L53.9715 161.355C54.217 160.638 54.6823 160.011 55.3049 159.559C55.9274 159.106 56.6775 158.849 57.4546 158.822C57.5749 158.811 57.6962 158.811 57.8166 158.822C59.2645 158.979 66.6651 159.448 66.6651 159.448L69.5208 162.574C69.7524 162.836 69.8798 163.171 69.8798 163.516C69.8798 163.862 69.7524 164.196 69.5208 164.458L70.3252 170.063L68.7164 171.134L68.8772 175.042C68.8772 175.042 67.4293 175.98 66.7938 175.667L66.1503 175.355L65.185 174.417L62.458 178.161L58.6853 180.279L51.5582 167.952Z" fill="#FFBE9D"/>
<path d="M69.5256 164.746C69.2023 164.361 68.8558 163.996 68.4879 163.651C68.0762 163.32 67.6116 163.056 67.1124 162.87C66.4576 162.72 65.7896 162.631 65.1174 162.604C63.3458 162.509 61.5843 162.282 59.8485 161.924C61.6229 161.875 63.3985 161.966 65.1576 162.198C65.8625 162.226 66.5616 162.334 67.2411 162.518C67.7836 162.737 68.2759 163.058 68.689 163.464C69.0999 163.795 69.3926 164.244 69.5256 164.746Z" fill="#EB996E"/>
<path d="M69.3603 169.906C69.1966 169.413 68.9977 168.933 68.765 168.467C68.1119 167.399 67.1095 166.573 65.9174 166.122C64.7064 165.705 63.4297 165.496 62.1447 165.505C61.6082 165.541 61.0692 165.525 60.5359 165.458C61.054 165.289 61.5985 165.21 62.1447 165.223C63.4794 165.121 64.8212 165.299 66.0783 165.747C67.3547 166.221 68.4079 167.133 69.0385 168.311C69.329 168.792 69.4425 169.354 69.3603 169.906Z" fill="#EB996E"/>
<path d="M68.6427 174.722C68.3697 174.245 68.2362 173.704 68.2566 173.159C68.2253 172.606 68.1031 172.063 67.8946 171.548C67.7515 171.257 67.5388 171.004 67.2743 170.81C67.0098 170.615 66.7011 170.485 66.3742 170.431C65.1094 170.166 63.8274 169.986 62.5372 169.891C61.9817 169.876 61.4349 169.754 60.9283 169.532C61.4658 169.524 62.0032 169.55 62.5372 169.61C63.8577 169.617 65.1736 169.761 66.4627 170.04C66.8536 170.131 67.2225 170.296 67.5487 170.524C67.8481 170.754 68.081 171.056 68.2244 171.4C68.4317 171.956 68.5326 172.544 68.522 173.135C68.5542 174.128 68.6909 174.698 68.6427 174.722Z" fill="#EB996E"/>
<path d="M72.6521 162.332L40.8456 194.255L42.0683 195.459L64.8573 192.966L95.5215 164.575L95.4894 163.215L72.6521 162.332Z" fill="#455A64"/>
<g opacity="0.3">
<path d="M74.7033 182.394C74.0868 181.849 73.3598 181.434 72.5689 181.177C71.7779 180.92 70.9405 180.826 70.1101 180.901C68.4437 181.07 66.8669 181.718 65.5813 182.762C64.497 183.535 63.7054 184.634 63.3289 185.888C62.798 188.1 64.3103 190.414 66.3696 191.485L66.6512 191.165L74.4861 185.052C74.913 184.789 75.2339 184.392 75.3951 183.926C75.4176 183.635 75.3663 183.344 75.2457 183.076C75.1251 182.809 74.9389 182.575 74.7033 182.394Z" fill="black"/>
</g>
<path d="M71.3588 179.402C71.3588 179.402 74.4397 179.465 75.4452 179.95C76.4507 180.434 79.2179 183.303 79.2179 183.303C79.2179 183.303 79.2179 185.249 78.4135 185.327C78.508 185.762 78.5618 186.204 78.5743 186.648C78.6548 187.743 78.8157 188.368 77.2873 189.298C77.2873 189.298 77.4482 191.096 76.8851 191.557C76.5062 191.87 76.1057 192.157 75.6865 192.417C75.6865 192.417 73.9248 194.52 72.8791 194.363C71.8334 194.207 70.3291 195.458 70.3291 195.458C70.3291 195.458 64.6982 193.175 65.2613 192.527L67.2241 190.416C67.2241 190.416 63.3388 187.665 63.4192 186.805C63.4996 185.945 63.8214 185.875 63.8214 185.875C63.8214 185.875 63.6605 184.233 65.02 184.077C65.02 184.077 66.0657 182.052 67.1034 181.974C68.1411 181.896 75.2039 184.389 75.2039 184.389L72.5573 182.209C72.5573 182.209 69.9108 181.818 69.9913 180.966C70.0717 180.114 71.3588 179.402 71.3588 179.402Z" fill="#FFBE9D"/>
<path d="M70.8919 189.674C70.8276 189.767 69.2831 188.892 67.3204 187.985C66.0941 187.488 64.8965 186.927 63.7327 186.305C65.0512 186.546 66.322 186.989 67.4973 187.618C68.737 188.118 69.8838 188.813 70.8919 189.674Z" fill="#EB996E"/>
<path d="M74.5709 187.286C72.9961 186.937 71.4563 186.453 69.9696 185.84C68.4312 185.357 66.9399 184.742 65.5132 184.003C67.0867 184.366 68.6259 184.858 70.1144 185.472C71.6497 185.954 73.1405 186.561 74.5709 187.286Z" fill="#EB996E"/>
<path d="M95.4205 164.52C95.2813 164.532 95.1414 164.532 95.0022 164.52H93.7876L89.2265 164.465L73.3715 164.168L73.5163 164.113L65.5446 172.18C59.1093 178.629 53.2773 184.452 49.022 188.713L43.9783 193.684L42.6108 195.013C42.4541 195.174 42.2847 195.323 42.104 195.458C42.2402 195.278 42.3908 195.108 42.5545 194.95L43.8818 193.559L48.8289 188.494L65.2631 171.883L73.2509 163.871L73.3072 163.809H73.3957L89.2507 164.254L93.8036 164.418L95.0183 164.473C95.154 164.47 95.2893 164.486 95.4205 164.52Z" fill="#263238"/>
<path d="M56.4448 100.949C55.4409 99.8431 54.045 99.1453 52.5353 98.9949C51.6933 98.7759 50.7996 98.8421 50.0014 99.1825C49.5324 99.4912 49.1618 99.9213 48.9314 100.424C48.7011 100.927 48.6203 101.483 48.6983 102.028C48.8729 103.109 49.2005 104.161 49.6716 105.154C50.1442 106.159 50.3036 107.276 50.1301 108.367L53.018 115.05C53.5141 114.869 53.9635 114.585 54.3349 114.217C54.7063 113.85 54.9908 113.408 55.1685 112.923C55.3462 112.438 55.4128 111.921 55.3637 111.408C55.3146 110.895 55.151 110.399 54.8842 109.954C55.3415 109.713 55.7383 109.377 56.046 108.969C56.3537 108.562 56.5648 108.093 56.664 107.597C56.7632 107.101 56.7481 106.589 56.6198 106.099C56.4915 105.61 56.2532 105.153 55.9219 104.764C57.2411 104.076 57.3457 102.114 56.4448 100.949Z" fill="#263238"/>
<path d="M29.7946 118.396L29.4568 104.889L20.6565 104.498C20.1199 104.63 19.6324 104.906 19.2503 105.295C18.8682 105.684 18.607 106.17 18.4969 106.697C18.3867 107.224 18.4321 107.77 18.6277 108.273C18.8234 108.776 19.1614 109.215 19.6027 109.54C18.924 109.837 18.3561 110.33 17.9764 110.953C17.5967 111.575 17.4236 112.296 17.4808 113.017C17.5379 113.738 17.8226 114.425 18.2958 114.983C18.7691 115.541 19.408 115.944 20.1256 116.137C19.722 116.623 19.4586 117.205 19.3624 117.822C19.2661 118.44 19.3404 119.071 19.5778 119.652C19.8151 120.232 20.2069 120.741 20.713 121.126C21.2191 121.511 21.8215 121.759 22.4584 121.843C22.4584 123.407 23.3754 125.158 24.952 125.595C26.5287 126.033 28.3788 124.868 29.1189 123.352C29.859 121.835 29.8348 120.077 29.7946 118.396Z" fill="#263238"/>
<path d="M20.4103 103.004C20.4103 103.004 21.279 114.182 22.4052 117.59C23.3237 120.077 24.5328 122.453 26.009 124.672L52.8442 116.574C53.7532 110.54 54.6944 104.474 54.3082 99.7213L45.7493 96.7588L20.4103 103.004Z" fill="#263238"/>
<path d="M26.1033 117.59C24.9653 114.6 24.0907 111.522 23.489 108.389C22.894 105.244 23.1152 102.004 24.1325 98.9624C24.2934 98.5012 25.7413 95.4448 26.224 95.4917C26.5779 95.4917 25.7091 98.3605 25.8941 98.6575C27.5465 101.559 28.256 104.878 27.9293 108.178C27.6768 111.361 27.0645 114.506 26.1033 117.558" fill="#263238"/>
<path d="M44.7151 138.516V130.949C44.7151 130.949 52.6466 130.058 53.0488 122.406C53.2499 118.708 53.0488 111.064 52.719 104.154C52.566 100.569 51.0292 97.1714 48.4146 94.6379C45.7999 92.1045 42.2992 90.6208 38.6096 90.4824H37.8534C29.6404 90.6309 25.1839 97.5174 25.57 105.475V131.395L41.787 142.745L44.7151 138.516Z" fill="#FFBE9D"/>
<path d="M44.7374 130.951C41.1015 130.808 37.5841 129.655 34.6018 127.629C34.6018 127.629 36.8783 133.296 44.7696 132.905L44.7374 130.951Z" fill="#EB996E"/>
<path d="M50.1729 110.695C50.1645 110.981 50.041 111.253 49.829 111.451C49.617 111.65 49.3332 111.76 49.0387 111.758C48.8955 111.764 48.7525 111.742 48.6181 111.694C48.4838 111.646 48.3608 111.571 48.2565 111.476C48.1522 111.38 48.0687 111.266 48.011 111.138C47.9533 111.011 47.9225 110.873 47.9205 110.734C47.9226 110.446 48.0411 110.171 48.2504 109.968C48.4596 109.765 48.7428 109.649 49.0387 109.647C49.1852 109.639 49.3319 109.66 49.4698 109.708C49.6077 109.757 49.7337 109.833 49.8401 109.932C49.9465 110.03 50.0309 110.148 50.0882 110.28C50.1454 110.411 50.1743 110.552 50.1729 110.695Z" fill="#263238"/>
<path d="M50.9434 107.303C50.7986 107.436 49.97 106.795 48.7554 106.748C47.5407 106.701 46.6317 107.264 46.511 107.115C46.3904 106.967 46.5995 106.795 47.0017 106.537C47.5376 106.202 48.1674 106.038 48.8036 106.068C49.4332 106.089 50.0392 106.305 50.5331 106.685C50.8951 106.935 51.0158 107.201 50.9434 107.303Z" fill="#263238"/>
<path d="M39.323 110.885C39.3147 111.17 39.1923 111.44 38.982 111.639C38.7717 111.837 38.49 111.948 38.1969 111.948C38.0529 111.953 37.9093 111.931 37.7745 111.881C37.6396 111.832 37.5162 111.757 37.4114 111.661C37.3066 111.565 37.2225 111.45 37.164 111.322C37.1055 111.194 37.0738 111.056 37.0707 110.916C37.0811 110.631 37.2052 110.36 37.4168 110.162C37.6284 109.964 37.9109 109.853 38.2049 109.853C38.3485 109.848 38.4916 109.871 38.626 109.92C38.7604 109.969 38.8833 110.044 38.9875 110.14C39.0917 110.237 39.175 110.352 39.2326 110.48C39.2903 110.608 39.321 110.745 39.323 110.885Z" fill="#263238"/>
<path d="M39.0526 107.304C38.9078 107.445 38.0793 106.796 36.8646 106.757C35.6499 106.718 34.749 107.265 34.6203 107.117C34.4916 106.968 34.7088 106.796 35.111 106.538C35.6477 106.206 36.2769 106.042 36.9129 106.069C37.5441 106.094 38.1515 106.31 38.6504 106.687C39.0043 106.968 39.125 107.226 39.0526 107.304Z" fill="#263238"/>
<path d="M43.041 116.495C43.6859 116.322 44.3509 116.23 45.0199 116.222C45.3256 116.222 45.6232 116.159 45.6876 115.956C45.7222 115.646 45.6605 115.333 45.5106 115.057C45.2532 114.317 44.985 113.535 44.7062 112.712C43.572 109.405 42.7595 106.693 42.8962 106.646C43.033 106.599 44.0707 109.249 45.2049 112.556C45.4784 113.337 45.7439 114.119 46.0093 114.901C46.1889 115.271 46.2315 115.691 46.13 116.089C46.079 116.193 46.0049 116.284 45.9131 116.357C45.8214 116.43 45.7141 116.483 45.5991 116.511C45.4248 116.548 45.2465 116.564 45.0682 116.558C44.3923 116.617 43.7116 116.596 43.041 116.495Z" fill="#263238"/>
<path d="M39.4505 117.176C39.6435 117.176 39.5952 118.45 40.6812 119.396C41.7672 120.342 43.1749 120.256 43.1829 120.436C43.191 120.616 42.8612 120.67 42.2659 120.663C41.4977 120.652 40.7586 120.375 40.1825 119.881C39.6272 119.405 39.284 118.738 39.2252 118.021C39.2011 117.466 39.3941 117.161 39.4505 117.176Z" fill="#263238"/>
<path d="M39.6072 103.245C39.4785 103.558 38.2719 103.362 36.8481 103.472C35.4243 103.581 34.2579 103.917 34.0809 103.628C34.0005 103.487 34.2096 103.19 34.6842 102.901C35.3157 102.538 36.0271 102.326 36.7596 102.284C37.4897 102.223 38.2241 102.335 38.8993 102.612C39.382 102.831 39.6635 103.097 39.6072 103.245Z" fill="#263238"/>
<path d="M50.5998 103.332C50.3746 103.59 49.5541 103.285 48.5486 103.23C47.543 103.175 46.6904 103.339 46.5053 103.05C46.4249 102.917 46.5697 102.652 46.9558 102.417C47.4614 102.123 48.0499 101.991 48.637 102.042C49.2232 102.075 49.7847 102.283 50.2459 102.636C50.5918 102.925 50.6963 103.207 50.5998 103.332Z" fill="#263238"/>
<path d="M26.0133 111.14C25.8846 111.078 20.664 109.374 20.6238 114.619C20.5835 119.864 26.0053 118.816 26.0214 118.668C26.0375 118.519 26.0133 111.14 26.0133 111.14Z" fill="#FFBE9D"/>
<path d="M24.368 116.684C24.368 116.684 24.2715 116.746 24.1106 116.817C23.9999 116.862 23.8809 116.886 23.7607 116.886C23.6404 116.886 23.5214 116.862 23.4107 116.817C23.0624 116.602 22.7801 116.299 22.5933 115.942C22.4064 115.584 22.322 115.184 22.3489 114.784C22.3397 114.335 22.4331 113.889 22.6224 113.479C22.6744 113.316 22.7659 113.168 22.8891 113.047C23.0123 112.926 23.1636 112.836 23.3303 112.783C23.4392 112.757 23.5543 112.768 23.6556 112.815C23.7569 112.862 23.8382 112.942 23.8853 113.041C23.9577 113.182 23.8853 113.291 23.9497 113.299C24.014 113.307 24.0703 113.213 24.0221 112.994C23.9957 112.864 23.9214 112.747 23.8129 112.666C23.6661 112.557 23.4819 112.507 23.2981 112.525C23.0789 112.564 22.8734 112.657 22.7005 112.793C22.5276 112.93 22.3928 113.106 22.3087 113.307C22.0758 113.76 21.9599 114.262 21.9708 114.769C21.9428 115.236 22.0568 115.7 22.2985 116.105C22.5402 116.509 22.8991 116.836 23.3303 117.043C23.4752 117.083 23.627 117.091 23.7756 117.068C23.9241 117.045 24.0658 116.991 24.191 116.91C24.3519 116.793 24.3841 116.684 24.368 116.684Z" fill="#EB996E"/>
<path d="M49.2281 95.4756C50.1049 95.0066 47.4826 92.263 45.3348 91.3172C42.1171 89.8945 37.1378 89.0191 34.1454 89.8476C30.5497 90.8482 27.5653 92.5913 25.7634 95.7805C24.0267 99.0238 23.2104 102.658 23.3984 106.31C23.368 107.426 23.6457 108.53 24.2028 109.507C24.959 110.663 26.4069 111.39 26.3426 112.993C26.3157 113.565 26.5175 114.125 26.9057 114.556C27.8951 115.58 29.1017 114.619 29.6568 113.657C30.8392 111.601 30.968 109.147 31.0645 106.794C31.2284 105.127 31.1116 103.445 30.7186 101.815C30.4531 100.939 30.0268 100.119 29.8096 99.2276C29.6762 98.7903 29.641 98.3302 29.7062 97.8785C29.7714 97.4268 29.9356 96.9939 30.1877 96.6091C30.3226 96.4541 30.4706 96.3103 30.6301 96.1791C31.3795 95.5552 32.2846 95.1337 33.2545 94.9567C34.2244 94.7797 35.2251 94.8535 36.1564 95.1708C39.1971 96.2104 44.3856 97.7581 45.737 96.7341C46.6985 96.1217 47.52 95.3235 48.1502 94.3891L49.2281 95.4756Z" fill="#263238"/>
<path d="M33.9937 84.4325C33.6157 84.4716 24.389 86.1834 21.8632 92.7416C19.3373 99.2998 19.9487 101.34 19.9487 101.34C19.5834 101.552 19.2526 101.815 18.9673 102.122C18.5731 102.544 19.0558 104.646 20.2544 104.467C29.3362 100.91 39.9384 100.871 51.723 101.606L60.7566 101.793C63.2744 102.161 64.1914 101.535 63.1698 100.887C62.3654 100.386 55.2866 97.3535 55.2866 97.3535L53.8708 96.2904L50.3153 91.147C50.3153 91.147 50.7979 90.4592 49.905 89.8495C49.0121 89.2398 41.4989 83.6665 33.9937 84.4325Z" fill="#0158A3"/>
<path d="M53.8693 96.2901C53.7514 96.297 53.6332 96.297 53.5153 96.2901L52.5098 96.2353C51.633 96.1728 50.3701 96.1415 48.8015 96.1259C44.7273 96.1222 40.6605 96.4622 36.6468 97.1421C32.6323 97.8485 28.6628 98.7776 24.7576 99.9248C23.2533 100.347 22.0467 100.706 21.2101 100.972L20.2448 101.254L19.8989 101.347L20.2287 101.23L21.186 100.918C21.9904 100.652 23.2292 100.261 24.7254 99.8232C28.6283 98.6478 32.6014 97.7055 36.6227 97.0014C40.6471 96.3003 44.729 95.9575 48.8176 95.9774C51.9548 96.0555 53.8693 96.2901 53.8693 96.2901Z" fill="#263238"/>
<g opacity="0.3">
<path d="M25.4846 88.0678C25.4846 88.0678 35.403 86.8406 39.7549 89.0527L39.2481 88.7869L43.3989 90.702C43.7182 90.9123 44.0816 91.0508 44.4629 91.1076C44.8441 91.1644 45.2336 91.138 45.603 91.0303C43.7628 89.4921 41.643 88.3018 39.3527 87.5206C35.2421 86.0276 28.7023 85.2303 25.4846 88.0678Z" fill="black"/>
</g>
<path d="M25.3522 88.114C25.6368 87.9128 25.9381 87.735 26.2531 87.5824C27.1039 87.141 28.0058 86.7999 28.9399 86.5663C30.3258 86.2179 31.7566 86.0678 33.1872 86.1207C34.9492 86.1404 36.6862 86.5297 38.2791 87.262C39.0902 87.6561 39.8748 88.0999 40.628 88.5908C41.3519 89.0598 42.0759 89.4819 42.7275 89.9509C43.3183 90.4116 43.9449 90.8271 44.6018 91.1937C45.1934 91.4737 45.8422 91.6206 46.5002 91.6237C48.9134 91.7409 50.4257 91.2954 50.3292 91.1468C50.2834 91.2259 50.213 91.2888 50.1281 91.3266C49.885 91.426 49.6314 91.4994 49.3719 91.5455C48.4219 91.7096 47.4562 91.7725 46.4921 91.7331C45.818 91.7363 45.152 91.5893 44.5455 91.3032C43.8789 90.9398 43.244 90.5241 42.6471 90.0603C42.0035 89.5991 41.2715 89.177 40.5475 88.708C39.7974 88.2257 39.0185 87.7872 38.2147 87.3948C36.6421 86.6694 34.9277 86.2803 33.1872 86.2536C31.7663 86.1952 30.3442 86.3347 28.964 86.6679C28.0354 86.8935 27.1346 87.2159 26.2772 87.6293C25.9716 87.7779 25.7463 87.9029 25.5935 87.9889L25.3522 88.114Z" fill="#263238"/>
<g opacity="0.3">
<path d="M20.873 95.4802C22.5268 95.437 24.1703 95.2115 25.7718 94.808C27.6542 94.4719 29.5204 94.2218 31.4027 93.7997C32.8185 93.4792 34.4917 93.1978 35.4248 92.2363C35.4816 92.5756 35.4478 92.9234 35.3266 93.2464C35.2055 93.5694 35.0011 93.8568 34.733 94.0811C33.7939 94.6374 32.7664 95.0389 31.6923 95.2692C28.0144 96.2433 24.2382 96.8252 20.4305 97.0045C20.5414 96.4734 20.6919 95.9509 20.881 95.4412" fill="black"/>
</g>
<path d="M22.1761 92.0194C21.0419 92.4571 20.342 92.7542 20.2777 93.6765C20.2214 94.4582 20.3501 95.404 21.1303 95.5604C21.37 95.5993 21.6147 95.5993 21.8543 95.5604L34.1458 93.5671C34.5708 93.5437 34.9745 93.378 35.288 93.0981C35.4616 92.8331 35.521 92.5124 35.4532 92.2053C35.3855 91.8981 35.1961 91.6292 34.926 91.4566C34.3663 91.129 33.7209 90.966 33.0678 90.9876C29.4049 90.8618 25.7413 91.2168 22.1761 92.0429" fill="#0158A3"/>
<path d="M35.085 93.2304C35.2453 93.0943 35.3648 92.9188 35.4309 92.7223C35.5091 92.4539 35.5084 92.1695 35.4288 91.9015C35.3491 91.6335 35.1938 91.3925 34.9804 91.2058C34.2693 90.745 33.4193 90.5302 32.5672 90.5961C31.5858 90.5961 30.5079 90.643 29.3496 90.7134C27.4177 90.8087 25.4984 91.0703 23.6141 91.4951C22.8982 91.6592 22.319 91.839 21.9248 91.9562L21.4663 92.0969L21.3054 92.1438C21.3054 92.1438 21.3537 92.1438 21.4583 92.0735L21.9087 91.9015C22.4593 91.703 23.0206 91.5334 23.59 91.3934C25.4739 90.9291 27.4004 90.6464 29.3415 90.5492C30.4757 90.4789 31.5617 90.4554 32.5592 90.4476C33.4496 90.381 34.3363 90.6158 35.0689 91.112C35.2901 91.3134 35.4482 91.5714 35.525 91.8563C35.6019 92.1412 35.5943 92.4414 35.5033 92.7223C35.4469 92.8729 35.3561 93.0092 35.2379 93.1209L35.085 93.2304Z" fill="#263238"/>
<path d="M51.4261 92.7551L43.752 92.3486L44.3231 94.4748L52.689 94.5764L51.4261 92.7551Z" fill="white"/>
<path d="M39.5952 98.9991C39.5952 98.9991 43.0301 98.6005 47.2774 98.2175C51.5247 97.8344 54.9836 97.514 54.9836 97.553C54.9836 97.5921 51.5488 97.9517 47.2934 98.3347C43.0381 98.7177 39.5952 99.0382 39.5952 98.9991Z" fill="#263238"/>
<path d="M65.2413 204.479H6.14111V214.07H65.2413V204.479Z" fill="#455A64"/>
<path d="M7.95154 209.115H35.3016V236.067C35.3016 237.502 34.7151 238.878 33.6712 239.892C32.6273 240.906 31.2114 241.476 29.7351 241.476H13.5181C12.7871 241.476 12.0632 241.336 11.3879 241.065C10.7125 240.793 10.0988 240.394 9.58194 239.892C9.06504 239.39 8.65501 238.793 8.37527 238.137C8.09552 237.481 7.95154 236.777 7.95154 236.067V209.115Z" fill="#455A64"/>
<path d="M35.3261 217.876C35.247 217.325 35.2093 216.768 35.2135 216.211C35.1918 214.706 34.9893 213.208 34.6102 211.748C34.4779 211.288 34.2354 210.865 33.9023 210.513C33.5104 210.144 33.0789 209.816 32.6153 209.536C31.5681 208.941 30.3973 208.58 29.1885 208.481C26.6143 208.293 23.7265 208.379 20.718 208.403C17.7095 208.426 14.8056 208.168 12.2877 208.707C11.0944 208.882 9.99256 209.431 9.15053 210.271C8.5414 211.102 8.19478 212.088 8.15305 213.108C7.96804 215.008 8.00826 216.563 7.97608 217.634C7.97608 218.134 7.97608 218.541 7.97608 218.869C7.98793 219.012 7.98793 219.156 7.97608 219.299C7.93958 219.159 7.92333 219.014 7.92782 218.869C7.92782 218.541 7.92782 218.134 7.8876 217.634C7.8876 216.563 7.79107 215.015 7.93586 213.085C7.96692 212.001 8.3219 210.95 8.95747 210.06C9.84329 209.151 11.0148 208.554 12.2877 208.364C13.6425 208.096 15.0244 207.981 16.4063 208.02C17.8221 208.02 19.2942 208.02 20.7984 208.02C23.815 208.02 26.6706 207.918 29.3091 208.129C30.5699 208.245 31.7878 208.635 32.8727 209.27C33.3563 209.57 33.8042 209.922 34.208 210.318C34.5896 210.701 34.8662 211.171 35.0124 211.686C35.376 213.173 35.5382 214.699 35.4951 216.227C35.4951 216.727 35.4951 217.134 35.4951 217.462C35.4517 217.605 35.3952 217.744 35.3261 217.876Z" fill="#263238"/>
<path d="M35.1185 220.716C35.1185 220.833 29.1015 220.919 21.6767 220.919C14.252 220.919 8.23499 220.833 8.23499 220.716C8.23499 220.599 14.252 220.513 21.6767 220.513C29.1015 220.513 35.1185 220.646 35.1185 220.716Z" fill="#263238"/>
<path d="M15.7809 241.75C15.6603 241.75 15.5718 237.02 15.5718 231.189C15.5718 225.358 15.6603 220.621 15.7809 220.621C15.9016 220.621 15.9901 225.35 15.9901 231.189C15.9901 237.028 15.8935 241.75 15.7809 241.75Z" fill="#263238"/>
<path d="M28.1257 241.681C28.013 241.681 27.9165 236.991 27.9165 231.222C27.9165 225.454 28.013 220.756 28.1257 220.756C28.2383 220.756 28.3348 225.446 28.3348 231.222C28.3348 236.999 28.2383 241.681 28.1257 241.681Z" fill="#263238"/>
<path d="M65.2236 204.479L68.6343 209.115C68.6343 209.115 71.683 236.739 70.3236 238.036C68.9641 239.334 64.395 239.303 64.395 239.303L63.1482 206.23L65.2236 204.479Z" fill="#455A64"/>
<path d="M54.5266 213.688C53.9907 210.607 53.9473 207.464 54.3979 204.37C54.5223 205.93 54.5599 207.496 54.5105 209.06C54.6014 210.601 54.6068 212.146 54.5266 213.688Z" fill="#263238"/>
<path d="M65.2882 204.637C65.4859 205.138 65.6078 205.665 65.6501 206.2C65.811 207.169 65.9719 208.545 66.0604 210.022C66.1291 210.737 66.0993 211.457 65.9719 212.164C65.8561 212.773 65.5297 213.324 65.0468 213.728C64.7265 214 64.3214 214.159 63.8965 214.181C63.5908 214.181 63.446 214.111 63.446 214.095C63.9673 214.058 64.4606 213.852 64.8457 213.509C65.2468 213.132 65.5096 212.638 65.5938 212.102C65.6921 211.421 65.7083 210.731 65.6421 210.046C65.4812 207.052 65.1675 204.652 65.2882 204.637Z" fill="#263238"/>
<path d="M226.459 359.031L128.273 358.972C122.602 358.968 117.164 356.732 113.156 352.754C109.147 348.776 106.895 343.383 106.895 337.76L106.941 93.6684C106.942 90.8823 107.497 88.1235 108.573 85.5499C109.649 82.9762 111.226 80.638 113.214 78.6688C115.202 76.6996 117.561 75.138 120.158 74.0732C122.754 73.0083 125.537 72.4612 128.347 72.4629L226.532 72.5157C232.204 72.5192 237.641 74.7555 241.65 78.7332C245.659 82.7109 247.911 88.1043 247.911 93.7278L247.864 337.826C247.864 340.612 247.309 343.37 246.233 345.944C245.157 348.518 243.58 350.856 241.592 352.825C239.604 354.794 237.245 356.356 234.648 357.421C232.052 358.486 229.269 359.033 226.459 359.031Z" fill="#263238"/>
<path d="M226.426 81.1499H207.402C206.781 81.1628 206.169 81.2969 205.6 81.5446C205.032 81.7923 204.518 82.1488 204.089 82.5935C203.659 83.0383 203.323 83.5627 203.098 84.1367C202.873 84.7106 202.765 85.3229 202.779 85.9385V89.3287C202.806 90.5715 202.334 91.7739 201.467 92.6718C200.6 93.5697 199.409 94.0896 198.156 94.1173H161.053C160.429 94.107 159.814 93.9746 159.242 93.7278C158.67 93.481 158.152 93.1246 157.72 92.679C157.287 92.2335 156.948 91.7076 156.72 91.1315C156.493 90.5554 156.383 89.9405 156.397 89.3221V85.9055C156.411 85.2896 156.302 84.677 156.078 84.1027C155.853 83.5283 155.516 83.0035 155.087 82.5582C154.658 82.1129 154.144 81.7558 153.576 81.5074C153.007 81.259 152.395 81.1241 151.774 81.1104H128.446C124.478 81.1086 120.672 82.6671 117.861 85.4442C115.051 88.2213 113.465 91.9902 113.453 95.9245L113.406 334.178C113.406 338.117 114.984 341.894 117.792 344.679C120.599 347.465 124.408 349.03 128.38 349.032L226.373 349.091C228.34 349.093 230.289 348.71 232.108 347.964C233.927 347.219 235.579 346.125 236.971 344.745C238.363 343.366 239.467 341.728 240.22 339.925C240.973 338.122 241.36 336.189 241.359 334.238L241.405 95.9905C241.402 92.0533 239.822 88.2786 237.013 85.4958C234.204 82.7131 230.396 81.1499 226.426 81.1499Z" fill="white"/>
<path d="M168.296 330.904C168.3 331.273 168.193 331.635 167.99 331.944C167.786 332.253 167.495 332.495 167.152 332.64C166.81 332.785 166.432 332.826 166.066 332.758C165.7 332.69 165.363 332.515 165.097 332.257C164.831 331.999 164.648 331.668 164.571 331.307C164.495 330.945 164.528 330.57 164.667 330.227C164.806 329.885 165.044 329.591 165.351 329.382C165.658 329.174 166.021 329.061 166.393 329.057C166.892 329.053 167.372 329.245 167.728 329.591C168.085 329.937 168.289 330.409 168.296 330.904Z" fill="#263238"/>
<path d="M178.833 330.815C178.837 331.184 178.73 331.546 178.527 331.856C178.323 332.165 178.031 332.407 177.688 332.552C177.345 332.697 176.967 332.737 176.601 332.668C176.235 332.6 175.897 332.425 175.632 332.166C175.366 331.907 175.183 331.576 175.108 331.214C175.032 330.852 175.066 330.476 175.206 330.134C175.346 329.791 175.585 329.498 175.893 329.29C176.201 329.083 176.565 328.97 176.937 328.968C177.435 328.964 177.915 329.157 178.27 329.503C178.625 329.849 178.828 330.321 178.833 330.815Z" fill="#263238"/>
<path d="M189.376 330.736C189.38 331.105 189.273 331.467 189.069 331.777C188.866 332.086 188.574 332.328 188.231 332.473C187.888 332.617 187.51 332.658 187.144 332.589C186.777 332.521 186.44 332.346 186.174 332.087C185.909 331.828 185.726 331.497 185.651 331.135C185.575 330.773 185.609 330.397 185.749 330.055C185.889 329.712 186.128 329.419 186.436 329.211C186.744 329.004 187.108 328.891 187.48 328.889C187.978 328.885 188.458 329.078 188.813 329.424C189.168 329.77 189.371 330.242 189.376 330.736Z" fill="#263238"/>
<path d="M233.067 207.251C233.067 207.343 208.456 207.422 178.064 207.422C147.672 207.422 123.048 207.343 123.048 207.251C123.048 207.158 147.659 207.079 178.064 207.079C208.469 207.079 233.067 207.138 233.067 207.251Z" fill="#E0E0E0"/>
<path d="M230.502 286.037C230.502 286.136 205.891 286.208 175.493 286.208C145.094 286.208 120.483 286.136 120.483 286.037C120.483 285.938 145.094 285.865 175.493 285.865C205.891 285.865 230.502 285.944 230.502 286.037Z" fill="#E0E0E0"/>
<path d="M205.622 293.582C205.622 293.674 191.939 293.753 175.064 293.753C158.188 293.753 144.506 293.674 144.506 293.582C144.506 293.489 158.182 293.41 175.064 293.41C191.946 293.41 205.622 293.483 205.622 293.582Z" fill="#E0E0E0"/>
<path d="M164.263 256.498H167.303C169.491 256.498 170.995 257.817 170.995 259.796C170.995 261.775 169.491 263.094 167.303 263.094H164.263V256.498ZM167.223 261.874C167.773 261.874 168.301 261.657 168.691 261.271C169.08 260.885 169.298 260.362 169.298 259.816C169.298 259.27 169.08 258.747 168.691 258.361C168.301 257.975 167.773 257.758 167.223 257.758H165.806V261.874H167.223Z" fill="white"/>
<path d="M171.675 260.589C171.641 260.027 171.777 259.468 172.067 258.984C172.356 258.5 172.786 258.113 173.299 257.874C173.813 257.635 174.388 257.554 174.948 257.642C175.509 257.73 176.03 257.984 176.443 258.369C176.857 258.754 177.145 259.254 177.269 259.803C177.393 260.352 177.348 260.926 177.139 261.449C176.931 261.973 176.569 262.422 176.1 262.739C175.631 263.056 175.077 263.226 174.509 263.227C174.145 263.251 173.781 263.2 173.438 263.078C173.095 262.956 172.781 262.765 172.515 262.518C172.249 262.27 172.038 261.971 171.893 261.64C171.749 261.308 171.675 260.95 171.675 260.589ZM175.819 260.589C175.819 260.239 175.679 259.903 175.43 259.656C175.18 259.409 174.842 259.27 174.489 259.27C174.136 259.27 173.798 259.409 173.548 259.656C173.299 259.903 173.159 260.239 173.159 260.589C173.159 260.939 173.299 261.274 173.548 261.522C173.798 261.769 174.136 261.908 174.489 261.908C174.842 261.908 175.18 261.769 175.43 261.522C175.679 261.274 175.819 260.939 175.819 260.589Z" fill="white"/>
<path d="M183.572 260.221V263.137H182.082V260.446C182.082 259.621 181.696 259.245 181.038 259.245C180.379 259.245 179.807 259.681 179.807 260.617V263.137H178.317V258.038H179.741V258.638C179.963 258.417 180.229 258.243 180.522 258.13C180.815 258.016 181.129 257.965 181.444 257.979C182.654 257.966 183.572 258.665 183.572 260.221Z" fill="white"/>
<path d="M189.992 261.005H186.101C186.182 261.322 186.375 261.599 186.645 261.786C186.915 261.974 187.243 262.06 187.571 262.027C187.809 262.038 188.047 261.999 188.269 261.914C188.491 261.829 188.693 261.699 188.862 261.533L189.66 262.39C189.388 262.673 189.058 262.893 188.691 263.036C188.324 263.178 187.931 263.239 187.538 263.215C185.755 263.215 184.598 262.107 184.598 260.576C184.591 260.221 184.658 259.867 184.795 259.538C184.932 259.21 185.135 258.912 185.393 258.665C185.65 258.417 185.957 258.225 186.293 258.1C186.628 257.975 186.987 257.92 187.345 257.938C187.699 257.921 188.053 257.978 188.383 258.104C188.714 258.231 189.014 258.425 189.264 258.673C189.515 258.921 189.71 259.219 189.838 259.547C189.966 259.875 190.023 260.225 190.006 260.576C190.019 260.721 189.999 260.88 189.992 261.005ZM186.081 260.161H188.615C188.567 259.862 188.412 259.591 188.18 259.395C187.948 259.199 187.653 259.092 187.348 259.092C187.044 259.092 186.749 259.199 186.517 259.395C186.284 259.591 186.13 259.862 186.081 260.161Z" fill="white"/>
<path d="M143.953 144.546L208.454 144.122L210.251 183.902L143.46 183.342L143.953 144.546Z" fill="#0158A3"/>
<path d="M143.945 144.547L174.474 122.139C175.102 121.68 175.885 121.43 176.691 121.433C177.498 121.435 178.278 121.69 178.902 122.154L208.449 144.123" fill="#0158A3"/>
<g opacity="0.3">
<path d="M143.945 144.549L174.474 122.141C175.102 121.681 175.885 121.432 176.691 121.435C177.498 121.437 178.278 121.692 178.902 122.156L208.449 144.125" fill="black"/>
</g>
<path d="M143.46 183.344C143.381 183.274 148.544 178.159 154.995 171.92C161.446 165.681 166.737 160.678 166.819 160.745C166.901 160.812 161.736 165.927 155.285 172.168C148.834 178.41 143.542 183.411 143.46 183.344Z" fill="#263238"/>
<path d="M210.251 183.906C210.169 183.973 205.14 178.962 199.02 172.715C192.9 166.469 188.005 161.349 188.082 161.282C188.158 161.215 193.193 166.226 199.313 172.475C205.433 178.724 210.339 183.839 210.251 183.906Z" fill="#263238"/>
<g opacity="0.5">
<path d="M208.454 144.126L176.063 167.598L143.953 144.55" fill="black"/>
</g>
<path d="M147.198 146.72L147.1 128.448L203.578 127.84L204.215 147.068L176.059 167.288L147.198 146.72Z" fill="#FAFAFA"/>
<path d="M147.203 146.723C147.203 146.723 147.386 146.847 147.733 147.092L149.265 148.174L155.103 152.309L176.108 167.248H176.036L204.184 147.02L204.157 147.072C204.036 143.406 203.908 139.556 203.776 135.642C203.692 133.005 203.604 130.4 203.519 127.845L203.59 127.907L147.112 128.49L147.156 128.45C147.178 134.198 147.197 138.765 147.208 141.895C147.208 143.461 147.208 144.666 147.208 145.482V146.408C147.208 146.616 147.208 146.723 147.208 146.723C147.208 146.723 147.208 146.619 147.208 146.413C147.208 146.207 147.208 145.897 147.208 145.492C147.208 144.676 147.189 143.473 147.175 141.91C147.153 138.775 147.121 134.205 147.08 128.45V128.408H147.123L203.604 127.78H203.673V127.845C203.757 130.397 203.842 133.002 203.93 135.639C204.061 139.556 204.187 143.404 204.31 147.072V147.105L204.282 147.125L176.116 167.335L176.08 167.359L176.045 167.335L155.054 152.346L149.251 148.191L147.719 147.1C147.375 146.852 147.203 146.723 147.203 146.723Z" fill="#263238"/>
<path d="M194.655 137.045C194.655 137.08 186.016 137.157 175.365 137.214C164.713 137.271 156.072 137.293 156.072 137.256C156.072 137.219 164.708 137.144 175.365 137.085C186.021 137.025 194.655 137.008 194.655 137.045Z" fill="#263238"/>
<path d="M194.654 142.205C194.654 142.242 186.015 142.319 175.364 142.376C164.712 142.433 156.071 142.453 156.071 142.419C156.071 142.384 164.707 142.307 175.364 142.247C186.02 142.188 194.654 142.171 194.654 142.205Z" fill="#263238"/>
<path d="M194.654 148.158C194.654 148.193 186.015 148.27 175.364 148.329C164.712 148.389 156.071 148.406 156.071 148.369C156.071 148.332 164.707 148.257 175.364 148.2C186.02 148.143 194.654 148.121 194.654 148.158Z" fill="#263238"/>
<path d="M194.648 154.102C194.648 154.139 186.409 154.211 176.244 154.268C166.08 154.325 157.84 154.34 157.838 154.305C157.835 154.27 166.077 154.196 176.244 154.139C186.412 154.082 194.648 154.067 194.648 154.102Z" fill="#263238"/>
<path d="M187.434 159.326C187.36 159.337 187.284 159.342 187.209 159.341L186.559 159.358L184.174 159.393L176.301 159.495C173.227 159.542 170.441 159.557 168.425 159.559H166.041H165.39C165.315 159.56 165.24 159.556 165.166 159.547C165.24 159.535 165.315 159.53 165.39 159.532L166.041 159.517L168.425 159.48L176.298 159.378C179.372 159.331 182.159 159.316 184.171 159.313H186.559H187.209C187.284 159.313 187.359 159.317 187.434 159.326Z" fill="#263238"/>
<path d="M180.148 164.344C180.148 164.378 178.308 164.408 176.046 164.408C173.785 164.408 171.944 164.378 171.944 164.344C171.944 164.309 173.787 164.279 176.046 164.279C178.305 164.279 180.148 164.307 180.148 164.344Z" fill="#263238"/>
<path d="M199.161 160.29C202.929 160.29 205.984 157.519 205.984 154.1C205.984 150.682 202.929 147.911 199.161 147.911C195.392 147.911 192.338 150.682 192.338 154.1C192.338 157.519 195.392 160.29 199.161 160.29Z" fill="#263238"/>
<path d="M198.209 160.29C201.977 160.29 205.032 157.519 205.032 154.1C205.032 150.682 201.977 147.911 198.209 147.911C194.441 147.911 191.386 150.682 191.386 154.1C191.386 157.519 194.441 160.29 198.209 160.29Z" fill="#455A64"/>
<path d="M199.076 151.223V156.368H198.029V152.014H196.829V151.213L199.076 151.223Z" fill="#EBEBEB"/>
<path d="M159.355 261.442C159.35 261.147 159.405 260.854 159.516 260.581C159.627 260.308 159.792 260.061 160 259.855C160.209 259.649 160.457 259.489 160.729 259.384C161.001 259.279 161.292 259.231 161.582 259.244C161.871 259.234 162.159 259.284 162.427 259.393C162.695 259.502 162.937 259.667 163.139 259.877L162.85 260.163C162.687 259.995 162.491 259.863 162.275 259.776C162.06 259.688 161.828 259.646 161.596 259.653C161.364 259.653 161.135 259.699 160.921 259.789C160.707 259.879 160.512 260.011 160.348 260.177C160.184 260.343 160.054 260.54 159.966 260.757C159.877 260.975 159.831 261.207 159.831 261.442C159.831 261.677 159.877 261.91 159.966 262.127C160.054 262.344 160.184 262.542 160.348 262.708C160.512 262.874 160.707 263.006 160.921 263.096C161.135 263.186 161.364 263.232 161.596 263.232C161.829 263.239 162.061 263.197 162.277 263.108C162.493 263.019 162.688 262.885 162.85 262.715L163.139 263.001C162.937 263.212 162.693 263.378 162.424 263.488C162.155 263.599 161.866 263.65 161.576 263.64C161.285 263.653 160.996 263.604 160.725 263.499C160.453 263.393 160.206 263.233 159.998 263.027C159.79 262.821 159.626 262.575 159.515 262.302C159.405 262.03 159.35 261.737 159.355 261.442Z" fill="#263238"/>
<path d="M167.649 259.245V263.566H167.207V261.573H164.523V263.566H164.073V259.245H164.523V261.178H167.207V259.245H167.649Z" fill="#263238"/>
<path d="M172.074 263.169V263.563H169.068V259.242H171.98V259.637H169.517V261.175H171.718V261.57H169.517V263.169H172.074Z" fill="#263238"/>
<path d="M172.705 261.441C172.7 261.146 172.755 260.853 172.866 260.58C172.977 260.307 173.142 260.06 173.35 259.854C173.559 259.648 173.807 259.488 174.079 259.383C174.351 259.278 174.642 259.23 174.932 259.243C175.221 259.233 175.509 259.283 175.777 259.392C176.045 259.501 176.287 259.666 176.489 259.876L176.2 260.162C176.037 259.994 175.841 259.862 175.625 259.775C175.41 259.687 175.178 259.645 174.946 259.652C174.714 259.652 174.485 259.698 174.271 259.788C174.056 259.878 173.862 260.01 173.698 260.176C173.534 260.342 173.404 260.539 173.316 260.756C173.227 260.974 173.181 261.206 173.181 261.441C173.181 261.676 173.227 261.909 173.316 262.126C173.404 262.343 173.534 262.541 173.698 262.707C173.862 262.873 174.056 263.005 174.271 263.095C174.485 263.185 174.714 263.231 174.946 263.231C175.179 263.238 175.411 263.196 175.627 263.107C175.843 263.018 176.038 262.884 176.2 262.714L176.489 263C176.287 263.211 176.043 263.377 175.774 263.487C175.505 263.598 175.216 263.649 174.926 263.639C174.635 263.652 174.346 263.603 174.075 263.498C173.803 263.392 173.556 263.232 173.348 263.026C173.14 262.82 172.976 262.574 172.865 262.301C172.755 262.029 172.7 261.736 172.705 261.441Z" fill="#263238"/>
<path d="M178.784 261.537L177.912 262.435V263.564H177.442V259.243H177.892V261.856L180.387 259.243H180.904L179.066 261.203L181.031 263.564H180.501L178.784 261.537Z" fill="#263238"/>
<path d="M181.767 259.242H182.217V263.563H181.767V259.242Z" fill="#263238"/>
<path d="M187.147 259.242V263.563H186.778L184.048 260.079V263.584H183.598V259.263H183.967L186.705 262.774V259.263L187.147 259.242Z" fill="#263238"/>
<path d="M191.541 261.44H191.97V263.087C191.535 263.458 190.982 263.654 190.414 263.639C190.129 263.639 189.848 263.582 189.585 263.471C189.322 263.361 189.083 263.199 188.882 262.995C188.68 262.791 188.521 262.548 188.412 262.282C188.303 262.015 188.247 261.729 188.247 261.44C188.247 261.152 188.303 260.866 188.412 260.599C188.521 260.333 188.68 260.09 188.882 259.886C189.083 259.682 189.322 259.52 189.585 259.41C189.848 259.299 190.129 259.242 190.414 259.242C190.706 259.229 190.998 259.278 191.271 259.386C191.543 259.494 191.791 259.658 191.997 259.868L191.715 260.154C191.51 259.934 191.254 259.769 190.971 259.674C190.687 259.58 190.385 259.558 190.091 259.611C189.797 259.665 189.521 259.792 189.287 259.981C189.054 260.17 188.87 260.415 188.753 260.693C188.637 260.972 188.59 261.276 188.618 261.578C188.646 261.879 188.748 262.169 188.914 262.421C189.08 262.673 189.306 262.879 189.57 263.02C189.834 263.161 190.129 263.233 190.427 263.23C190.824 263.243 191.214 263.126 191.541 262.897V261.44Z" fill="#263238"/>
<path d="M192.906 263.258C192.905 263.215 192.913 263.172 192.929 263.131C192.945 263.091 192.968 263.054 192.998 263.023C193.028 262.992 193.064 262.967 193.104 262.95C193.143 262.933 193.186 262.925 193.228 262.925C193.316 262.925 193.399 262.96 193.461 263.022C193.523 263.085 193.557 263.17 193.557 263.258C193.557 263.347 193.523 263.433 193.461 263.496C193.4 263.56 193.316 263.597 193.228 263.599C193.185 263.598 193.143 263.588 193.103 263.571C193.064 263.553 193.028 263.528 192.998 263.496C192.968 263.464 192.945 263.427 192.929 263.386C192.913 263.346 192.905 263.302 192.906 263.258Z" fill="#263238"/>
<path d="M194.212 263.258C194.211 263.215 194.218 263.172 194.234 263.131C194.25 263.091 194.274 263.054 194.304 263.023C194.334 262.992 194.369 262.967 194.409 262.95C194.448 262.933 194.491 262.925 194.534 262.925C194.577 262.925 194.62 262.933 194.66 262.95C194.699 262.967 194.736 262.992 194.766 263.022C194.797 263.053 194.821 263.09 194.837 263.131C194.854 263.171 194.862 263.214 194.862 263.258C194.862 263.347 194.828 263.433 194.767 263.496C194.705 263.56 194.622 263.597 194.534 263.599C194.49 263.599 194.447 263.59 194.407 263.572C194.367 263.555 194.331 263.53 194.301 263.498C194.271 263.466 194.248 263.429 194.232 263.387C194.217 263.346 194.21 263.302 194.212 263.258Z" fill="#263238"/>
<path d="M195.489 263.259C195.488 263.216 195.495 263.173 195.511 263.132C195.527 263.092 195.55 263.055 195.58 263.024C195.61 262.993 195.646 262.968 195.686 262.951C195.725 262.934 195.768 262.926 195.811 262.926C195.853 262.926 195.896 262.934 195.935 262.951C195.975 262.968 196.011 262.993 196.041 263.024C196.071 263.055 196.094 263.092 196.11 263.132C196.126 263.173 196.134 263.216 196.133 263.259C196.134 263.303 196.126 263.347 196.11 263.387C196.094 263.428 196.071 263.465 196.041 263.497C196.011 263.529 195.975 263.554 195.936 263.572C195.896 263.589 195.854 263.599 195.811 263.6C195.767 263.6 195.724 263.591 195.684 263.573C195.644 263.556 195.608 263.531 195.578 263.499C195.548 263.467 195.524 263.43 195.509 263.388C195.494 263.347 195.487 263.303 195.489 263.259Z" fill="#263238"/>
<path d="M221.196 233.941H132.777C127.278 233.941 122.82 237.357 122.82 241.571V242.836C122.82 247.05 127.278 250.466 132.777 250.466H221.196C226.696 250.466 231.154 247.05 231.154 242.836V241.571C231.154 237.357 226.696 233.941 221.196 233.941Z" fill="#F5F5F5"/>
<path d="M172.45 233.941H132.651C127.221 233.941 122.82 237.357 122.82 241.571V242.836C122.82 247.05 127.221 250.466 132.651 250.466H172.45C177.88 250.466 182.281 247.05 182.281 242.836V241.571C182.281 237.357 177.88 233.941 172.45 233.941Z" fill="#0158A3"/>
<path d="M201.943 243.749C201.943 244.607 201.359 245.26 200.178 245.26C199.853 245.274 199.528 245.221 199.224 245.104C198.919 244.987 198.642 244.809 198.407 244.579L198.595 244.294C198.801 244.504 199.047 244.669 199.318 244.777C199.589 244.886 199.88 244.937 200.172 244.926C201.104 244.926 201.581 244.45 201.581 243.77C201.581 243.089 201.138 242.592 199.769 242.592H198.749L199.018 240.108H201.701V240.449H199.34L199.145 242.252H199.863C201.386 242.218 201.943 242.81 201.943 243.749Z" fill="#0158A3"/>
<path d="M205.924 243.749C205.924 244.607 205.341 245.26 204.16 245.26C203.835 245.274 203.51 245.221 203.205 245.104C202.901 244.987 202.623 244.809 202.389 244.579L202.577 244.294C202.782 244.504 203.028 244.669 203.3 244.777C203.571 244.886 203.861 244.937 204.153 244.926C205.086 244.926 205.555 244.45 205.555 243.77C205.555 243.089 205.119 242.592 203.751 242.592H202.731L202.992 240.108H205.676V240.449H203.308L203.12 242.252H203.838C205.361 242.218 205.924 242.81 205.924 243.749Z" fill="#0158A3"/>
<path d="M206.478 241.426C206.478 240.596 206.935 240.065 207.585 240.065C208.236 240.065 208.706 240.617 208.706 241.426C208.706 242.236 208.243 242.788 207.585 242.788C206.928 242.788 206.478 242.264 206.478 241.426ZM208.431 241.426C208.431 240.746 208.088 240.297 207.585 240.297C207.082 240.297 206.753 240.726 206.753 241.426C206.753 242.127 207.089 242.563 207.585 242.563C208.082 242.563 208.431 242.134 208.431 241.426ZM210.658 240.065H210.987L207.545 245.19H207.236L210.658 240.065ZM209.491 243.836C209.491 242.998 209.947 242.474 210.604 242.474C211.262 242.474 211.711 243.019 211.711 243.836C211.711 244.652 211.262 245.197 210.604 245.197C209.947 245.197 209.491 244.679 209.491 243.842V243.836ZM211.436 243.836C211.436 243.155 211.101 242.699 210.604 242.699C210.108 242.699 209.759 243.128 209.759 243.836C209.759 244.543 210.101 244.972 210.604 244.972C211.108 244.972 211.436 244.543 211.436 243.842V243.836Z" fill="#0158A3"/>
<g opacity="0.2">
<path d="M145.231 233.938L139.112 250.278H143.607L149.317 233.938H145.231Z" fill="white"/>
</g>
<g opacity="0.2">
<path d="M156.64 233.941L150.515 250.281H155.017L160.719 233.941H156.64Z" fill="white"/>
</g>
<g opacity="0.2">
<path d="M134.151 233.943L128.523 248.969C129.725 249.763 131.115 250.216 132.548 250.283L138.257 233.95L134.151 233.943Z" fill="white"/>
</g>
<path d="M220.883 250.413C221.696 250.376 222.504 250.287 223.297 250.146C225.575 249.708 227.578 248.684 228.957 247.25C229.955 246.225 230.585 245.023 230.788 243.762C230.888 243.038 230.911 242.31 230.858 241.585C230.82 240.804 230.617 240.033 230.257 239.301C229.65 238.045 228.609 236.934 227.241 236.083C225.873 235.232 224.227 234.672 222.475 234.461C221.156 234.356 219.829 234.323 218.504 234.361L133.161 234.414C132.146 234.426 131.137 234.542 130.163 234.76C129.204 235.001 128.296 235.344 127.466 235.779C125.839 236.658 124.606 237.889 123.928 239.308C122.734 242.11 123.124 245.493 125.697 247.663C126.949 248.756 128.596 249.551 130.437 249.953C132.206 250.366 134.178 250.213 136.071 250.246H147.161L185.525 250.28L211.393 250.339H218.468L211.393 250.373L185.525 250.426L147.161 250.466H133.232C132.251 250.46 131.276 250.357 130.331 250.16C128.385 249.739 126.646 248.898 125.328 247.741C124.011 246.583 123.174 245.161 122.92 243.648C122.817 242.885 122.793 242.117 122.849 241.351C122.892 240.571 123.098 239.8 123.46 239.068C124.183 237.575 125.494 236.283 127.218 235.366C128.087 234.914 129.037 234.557 130.039 234.308C131.058 234.077 132.115 233.953 133.179 233.941L218.521 233.988C219.871 233.989 221.219 234.064 222.554 234.214C224.354 234.437 226.043 235.018 227.443 235.899C228.843 236.78 229.903 237.927 230.514 239.221C231.805 242.39 231.044 245.486 229.116 247.317C227.704 248.765 225.654 249.789 223.332 250.206C222.987 250.273 222.635 250.32 222.28 250.346C222.026 250.379 221.768 250.395 221.511 250.393C221.095 250.419 220.883 250.413 220.883 250.413Z" fill="#263238"/>
<g opacity="0.2">
<path d="M168.048 233.939L161.922 250.279H166.424L172.127 233.939H168.048Z" fill="white"/>
</g>
<g opacity="0.2">
<path d="M179.446 233.939L173.321 250.279H177.823L183.525 233.939H179.446Z" fill="white"/>
</g>
<path d="M15.688 217.39C12.6737 220.182 12.6423 224.773 15.6178 227.645C18.5933 230.517 23.4491 230.583 26.4634 227.792C29.4777 225.001 29.5091 220.41 26.5336 217.537C23.5581 214.665 18.7024 214.599 15.688 217.39Z" fill="#0158A3"/>
<path d="M22.47 218.768C22.8771 218.751 19.0504 223.026 19.0504 223.026H20.661L19.3125 226.393L23.3579 222.011H21.6176L22.47 218.768Z" fill="white"/>
<path d="M26.9042 217.715C26.8696 217.693 26.838 217.667 26.8101 217.638L26.5557 217.397C26.4176 217.262 26.2687 217.136 26.1104 217.022C25.9054 216.854 25.6877 216.699 25.4591 216.561C24.8444 216.165 24.1702 215.86 23.4592 215.654C22.5206 215.376 21.5344 215.27 20.5536 215.342C19.0935 215.454 17.697 215.956 16.5265 216.788C15.356 217.621 14.4594 218.75 13.9409 220.045C13.8151 220.376 13.7139 220.715 13.6382 221.06C13.5592 221.411 13.5048 221.767 13.4753 222.125C13.4593 222.491 13.4686 222.857 13.5033 223.221C13.5706 223.967 13.7656 224.698 14.0809 225.385C14.7233 226.822 15.8445 228.021 17.274 228.8C17.9613 229.179 18.7087 229.452 19.4876 229.608C19.866 229.684 20.2493 229.737 20.635 229.767C21.0151 229.785 21.396 229.777 21.7749 229.745C22.5105 229.692 23.2326 229.53 23.9147 229.264C25.5709 228.646 26.9484 227.503 27.812 226.031C28.6757 224.559 28.9717 222.849 28.6496 221.194C28.5208 220.501 28.2815 219.831 27.9398 219.206C27.8224 218.975 27.6881 218.752 27.5378 218.54C27.4369 218.378 27.3229 218.223 27.1968 218.078L26.9755 217.799C26.9473 217.769 26.9234 217.736 26.9042 217.7C26.9354 217.727 26.9643 217.756 26.9907 217.787L27.2274 218.054C27.3606 218.196 27.4806 218.349 27.5861 218.511C27.7453 218.721 27.8865 218.943 28.0085 219.174C28.3649 219.801 28.6172 220.476 28.7565 221.175C28.9697 222.204 28.9476 223.265 28.6918 224.285C28.4359 225.306 27.9523 226.263 27.2732 227.093C26.4118 228.139 25.2697 228.947 23.9656 229.435C23.2667 229.703 22.5274 229.865 21.7749 229.916C21.3874 229.948 20.9982 229.956 20.6096 229.94C20.2136 229.911 19.82 229.857 19.4316 229.779C18.632 229.62 17.8648 229.341 17.1595 228.951C15.6915 228.155 14.541 226.925 13.885 225.45C13.5707 224.749 13.3766 224.005 13.31 223.245C13.2757 222.872 13.268 222.497 13.2871 222.122C13.3161 221.756 13.3714 221.392 13.4524 221.033C13.5321 220.68 13.6375 220.333 13.7679 219.994C13.9004 219.664 14.0569 219.343 14.2361 219.033C14.9063 217.871 15.8939 216.902 17.0959 216.224C18.0487 215.689 19.111 215.353 20.2122 215.237C21.3134 215.121 22.4281 215.228 23.4821 215.551C24.2005 215.772 24.8784 216.096 25.4921 216.513C25.7198 216.658 25.9358 216.818 26.1384 216.993C26.2945 217.113 26.44 217.244 26.5735 217.385L26.8279 217.64C26.8553 217.663 26.8808 217.688 26.9042 217.715Z" fill="#0158A3"/>
</svg>
