<svg width="281" height="420" viewBox="0 0 281 420" fill="none" xmlns="http://www.w3.org/2000/svg">
<path fill-rule="evenodd" clip-rule="evenodd" d="M135.171 246.773L3.55124 172.12L281 -3.05176e-05L178.384 174.607L145.339 172.861L277.565 247.858L0.0795288 420L102.887 245.067L135.171 246.773Z" fill="#0158A3"/>
<path d="M221.137 332L134.799 331.948C129.812 331.945 125.03 329.978 121.505 326.48C117.98 322.982 116 318.24 116 313.294L116.041 98.6476C116.042 96.1975 116.529 93.7715 117.476 91.5083C118.422 89.2451 119.809 87.189 121.557 85.4573C123.305 83.7256 125.379 82.3524 127.662 81.416C129.946 80.4796 132.392 79.9985 134.863 80L221.201 80.0464C226.188 80.0495 230.97 82.0161 234.495 85.5139C238.02 89.0118 240 93.7546 240 98.6998L239.959 313.352C239.958 315.803 239.471 318.228 238.524 320.492C237.578 322.755 236.191 324.811 234.443 326.543C232.696 328.274 230.621 329.648 228.338 330.584C226.054 331.52 223.608 332.002 221.137 332Z" fill="#263238"/>
<path d="M221.102 87.6383H204.373C203.828 87.6496 203.289 87.7676 202.789 87.9854C202.29 88.2032 201.838 88.5167 201.46 88.9078C201.083 89.2989 200.787 89.76 200.589 90.2648C200.391 90.7695 200.296 91.3079 200.308 91.8492V94.8305C200.332 95.9233 199.917 96.9807 199.155 97.7703C198.392 98.5599 197.345 99.0171 196.243 99.0415H163.617C163.069 99.0324 162.528 98.916 162.025 98.699C161.522 98.4819 161.067 98.1685 160.687 97.7767C160.306 97.3849 160.007 96.9224 159.808 96.4158C159.608 95.9092 159.511 95.3685 159.523 94.8247V91.8202C159.535 91.2786 159.44 90.7399 159.242 90.2349C159.045 89.7298 158.749 89.2683 158.371 88.8767C157.994 88.4851 157.542 88.1711 157.042 87.9527C156.542 87.7342 156.004 87.6156 155.458 87.6035H134.945C131.456 87.602 128.109 88.9725 125.638 91.4146C123.166 93.8566 121.772 97.1709 121.761 100.631L121.72 310.144C121.72 313.608 123.107 316.929 125.576 319.379C128.045 321.828 131.394 323.205 134.887 323.206L221.055 323.259C222.785 323.26 224.499 322.923 226.098 322.268C227.698 321.612 229.151 320.65 230.375 319.437C231.598 318.223 232.569 316.783 233.231 315.198C233.893 313.612 234.234 311.913 234.233 310.197L234.274 100.689C234.271 97.2265 232.882 93.9071 230.412 91.46C227.942 89.0129 224.593 87.6383 221.102 87.6383Z" fill="white"/>
<path d="M169.999 307.263C170.002 307.587 169.908 307.906 169.729 308.178C169.55 308.449 169.294 308.662 168.993 308.79C168.692 308.917 168.359 308.953 168.038 308.893C167.716 308.833 167.419 308.68 167.185 308.453C166.951 308.226 166.791 307.935 166.723 307.617C166.656 307.3 166.685 306.969 166.807 306.668C166.929 306.367 167.139 306.108 167.409 305.925C167.679 305.742 167.998 305.642 168.326 305.639C168.764 305.636 169.186 305.805 169.5 306.109C169.813 306.413 169.992 306.828 169.999 307.263Z" fill="#263238"/>
<path d="M179.263 307.187C179.267 307.511 179.173 307.83 178.994 308.102C178.814 308.374 178.558 308.587 178.256 308.714C177.955 308.842 177.622 308.877 177.3 308.817C176.978 308.756 176.682 308.603 176.448 308.375C176.214 308.147 176.054 307.856 175.987 307.538C175.921 307.22 175.951 306.889 176.074 306.588C176.197 306.287 176.407 306.029 176.678 305.846C176.949 305.664 177.269 305.565 177.596 305.563C178.034 305.559 178.456 305.729 178.768 306.033C179.081 306.337 179.259 306.752 179.263 307.187Z" fill="#263238"/>
<path d="M188.534 307.117C188.538 307.442 188.444 307.761 188.264 308.033C188.085 308.305 187.829 308.518 187.527 308.645C187.226 308.772 186.893 308.808 186.571 308.747C186.249 308.687 185.953 308.533 185.719 308.306C185.485 308.078 185.325 307.786 185.258 307.468C185.192 307.15 185.222 306.82 185.345 306.519C185.468 306.217 185.678 305.959 185.949 305.777C186.22 305.594 186.54 305.496 186.867 305.493C187.305 305.49 187.727 305.659 188.039 305.964C188.351 306.268 188.529 306.683 188.534 307.117Z" fill="#263238"/>
<path d="M226.951 198.527C226.951 198.608 205.309 198.678 178.585 198.678C151.861 198.678 130.207 198.608 130.207 198.527C130.207 198.446 151.849 198.376 178.585 198.376C205.321 198.376 226.951 198.428 226.951 198.527Z" fill="#E0E0E0"/>
<path d="M224.699 267.809C224.699 267.896 203.057 267.96 176.327 267.96C149.597 267.96 127.955 267.896 127.955 267.809C127.955 267.722 149.597 267.658 176.327 267.658C203.057 267.658 224.699 267.728 224.699 267.809Z" fill="#E0E0E0"/>
<path d="M202.817 274.445C202.817 274.526 190.786 274.596 175.947 274.596C161.108 274.596 149.076 274.526 149.076 274.445C149.076 274.364 161.102 274.294 175.947 274.294C190.792 274.294 202.817 274.358 202.817 274.445Z" fill="#E0E0E0"/>
<path d="M166.442 241.836H169.115C171.04 241.836 172.362 242.996 172.362 244.736C172.362 246.476 171.04 247.636 169.115 247.636H166.442V241.836ZM169.045 246.563C169.529 246.563 169.993 246.372 170.335 246.033C170.678 245.694 170.87 245.233 170.87 244.753C170.87 244.273 170.678 243.813 170.335 243.474C169.993 243.134 169.529 242.944 169.045 242.944H167.799V246.563H169.045Z" fill="white"/>
<path d="M172.958 245.432C172.928 244.938 173.048 244.447 173.302 244.021C173.557 243.595 173.934 243.255 174.386 243.045C174.838 242.834 175.343 242.764 175.836 242.841C176.329 242.919 176.787 243.141 177.151 243.48C177.515 243.819 177.767 244.258 177.877 244.741C177.986 245.224 177.946 245.728 177.763 246.189C177.58 246.649 177.261 247.044 176.849 247.323C176.436 247.602 175.949 247.751 175.45 247.752C175.13 247.773 174.809 247.728 174.508 247.621C174.206 247.514 173.93 247.346 173.696 247.128C173.463 246.911 173.277 246.648 173.15 246.356C173.023 246.065 172.957 245.75 172.958 245.432ZM176.602 245.432C176.602 245.125 176.479 244.83 176.259 244.612C176.04 244.394 175.743 244.272 175.432 244.272C175.122 244.272 174.824 244.394 174.605 244.612C174.386 244.83 174.262 245.125 174.262 245.432C174.262 245.74 174.386 246.035 174.605 246.252C174.824 246.47 175.122 246.592 175.432 246.592C175.743 246.592 176.04 246.47 176.259 246.252C176.479 246.035 176.602 245.74 176.602 245.432Z" fill="white"/>
<path d="M183.428 245.108V247.672H182.118V245.305C182.118 244.58 181.778 244.249 181.199 244.249C180.62 244.249 180.117 244.632 180.117 245.456V247.672H178.807V243.188H180.059V243.716C180.254 243.521 180.488 243.368 180.746 243.269C181.003 243.169 181.28 243.123 181.556 243.136C182.621 243.124 183.428 243.739 183.428 245.108Z" fill="white"/>
<path d="M189.072 245.798H185.651C185.722 246.076 185.892 246.32 186.129 246.485C186.366 246.65 186.655 246.725 186.943 246.697C187.152 246.706 187.361 246.672 187.557 246.597C187.752 246.522 187.929 246.408 188.078 246.262L188.78 247.016C188.541 247.264 188.25 247.458 187.928 247.584C187.606 247.709 187.259 247.762 186.914 247.741C185.346 247.741 184.329 246.766 184.329 245.421C184.323 245.108 184.382 244.797 184.502 244.508C184.622 244.219 184.801 243.957 185.028 243.74C185.254 243.522 185.524 243.353 185.819 243.243C186.114 243.133 186.429 243.085 186.744 243.101C187.056 243.086 187.366 243.136 187.657 243.247C187.948 243.358 188.212 243.529 188.432 243.747C188.652 243.965 188.824 244.227 188.937 244.516C189.049 244.804 189.099 245.112 189.084 245.421C189.096 245.548 189.078 245.688 189.072 245.798ZM185.633 245.055H187.861C187.818 244.793 187.683 244.554 187.479 244.382C187.275 244.21 187.015 244.115 186.747 244.115C186.479 244.115 186.22 244.21 186.016 244.382C185.812 244.554 185.676 244.793 185.633 245.055Z" fill="white"/>
<path d="M148.588 140.226L205.306 139.856L206.886 174.556L148.155 174.067L148.588 140.226Z" fill="#0158A3"/>
<path d="M148.585 140.227L175.431 120.681C175.982 120.28 176.671 120.062 177.38 120.064C178.089 120.067 178.776 120.289 179.324 120.694L205.306 139.857" fill="#0158A3"/>
<g opacity="0.3">
<path d="M148.585 140.227L175.431 120.681C175.982 120.28 176.671 120.062 177.38 120.064C178.089 120.067 178.776 120.289 179.324 120.694L205.306 139.857" fill="black"/>
</g>
<path d="M148.155 174.067C148.085 174.006 152.625 169.544 158.297 164.102C163.97 158.66 168.623 154.296 168.695 154.354C168.767 154.413 164.225 158.874 158.552 164.319C152.88 169.763 148.227 174.125 148.155 174.067Z" fill="#263238"/>
<path d="M206.886 174.556C206.814 174.614 202.391 170.243 197.01 164.795C191.628 159.346 187.324 154.88 187.391 154.822C187.459 154.763 191.886 159.134 197.267 164.585C202.649 170.036 206.963 174.498 206.886 174.556Z" fill="#263238"/>
<g opacity="0.5">
<path d="M205.306 139.856L176.823 160.331L148.588 140.226" fill="black"/>
</g>
<path d="M151.442 142.122L151.355 126.183L201.018 125.653L201.579 142.425L176.821 160.062L151.442 142.122Z" fill="#FAFAFA"/>
<path d="M151.442 142.123C151.442 142.123 151.603 142.231 151.908 142.445L153.255 143.388L158.389 146.996L176.859 160.026H176.796L201.547 142.382L201.523 142.428C201.417 139.23 201.304 135.871 201.189 132.457C201.115 130.157 201.038 127.885 200.963 125.656L201.026 125.71L151.363 126.218L151.401 126.184C151.42 131.197 151.437 135.181 151.447 137.912C151.447 139.277 151.447 140.329 151.447 141.041V141.848C151.447 142.03 151.447 142.123 151.447 142.123C151.447 142.123 151.447 142.032 151.447 141.852C151.447 141.673 151.447 141.402 151.447 141.049C151.447 140.337 151.43 139.288 151.418 137.925C151.399 135.19 151.37 131.204 151.334 126.184V126.147H151.372L201.038 125.6H201.098V125.656C201.172 127.882 201.247 130.154 201.324 132.455C201.439 135.871 201.55 139.227 201.658 142.428V142.456L201.634 142.473L176.866 160.102L176.835 160.123L176.804 160.102L158.346 147.028L153.243 143.404L151.896 142.451C151.593 142.235 151.442 142.123 151.442 142.123Z" fill="#263238"/>
<path d="M193.17 133.681C193.17 133.711 185.573 133.778 176.207 133.828C166.841 133.878 159.243 133.897 159.243 133.865C159.243 133.833 166.836 133.768 176.207 133.716C185.578 133.664 193.17 133.649 193.17 133.681Z" fill="#263238"/>
<path d="M193.17 138.182C193.17 138.215 185.573 138.282 176.207 138.332C166.841 138.382 159.243 138.399 159.243 138.369C159.243 138.338 166.836 138.271 176.207 138.219C185.578 138.167 193.17 138.152 193.17 138.182Z" fill="#263238"/>
<path d="M193.17 143.373C193.17 143.404 185.573 143.471 176.207 143.523C166.841 143.575 159.243 143.59 159.243 143.557C159.243 143.525 166.836 143.46 176.207 143.41C185.578 143.36 193.17 143.341 193.17 143.373Z" fill="#263238"/>
<path d="M193.17 148.562C193.17 148.595 185.924 148.657 176.986 148.707C168.048 148.757 160.803 148.77 160.801 148.74C160.798 148.709 168.046 148.644 176.986 148.595C185.927 148.545 193.17 148.532 193.17 148.562Z" fill="#263238"/>
<path d="M186.816 153.116C186.751 153.126 186.685 153.131 186.619 153.129L186.047 153.144L183.95 153.175L177.027 153.263C174.324 153.305 171.874 153.318 170.102 153.32H168.005H167.433C167.367 153.321 167.301 153.317 167.235 153.309C167.301 153.299 167.367 153.295 167.433 153.296L168.005 153.283L170.102 153.25L177.025 153.162C179.728 153.121 182.178 153.108 183.948 153.105H186.047H186.619C186.685 153.105 186.751 153.109 186.816 153.116Z" fill="#263238"/>
<path d="M180.423 157.497C180.423 157.527 178.804 157.554 176.816 157.554C174.827 157.554 173.209 157.527 173.209 157.497C173.209 157.467 174.829 157.44 176.816 157.44C178.802 157.44 180.423 157.464 180.423 157.497Z" fill="#263238"/>
<path d="M197.14 153.961C200.453 153.961 203.139 151.543 203.139 148.562C203.139 145.58 200.453 143.163 197.14 143.163C193.826 143.163 191.14 145.58 191.14 148.562C191.14 151.543 193.826 153.961 197.14 153.961Z" fill="#263238"/>
<path d="M196.295 153.961C199.609 153.961 202.295 151.543 202.295 148.562C202.295 145.58 199.609 143.163 196.295 143.163C192.982 143.163 190.296 145.58 190.296 148.562C190.296 151.543 192.982 153.961 196.295 153.961Z" fill="#455A64"/>
<path d="M197.058 146.05V150.537H196.137V146.74H195.081V146.041L197.058 146.05Z" fill="#EBEBEB"/>
<path d="M162.136 246.183C162.132 245.923 162.18 245.665 162.277 245.425C162.375 245.185 162.52 244.968 162.703 244.787C162.887 244.606 163.105 244.465 163.344 244.373C163.583 244.28 163.839 244.238 164.094 244.25C164.348 244.24 164.601 244.285 164.837 244.381C165.073 244.477 165.286 244.622 165.463 244.806L165.209 245.058C165.066 244.91 164.894 244.794 164.704 244.717C164.514 244.64 164.311 244.603 164.106 244.609C163.903 244.609 163.701 244.65 163.513 244.729C163.324 244.808 163.153 244.924 163.009 245.07C162.865 245.216 162.751 245.39 162.673 245.581C162.595 245.771 162.555 245.976 162.555 246.183C162.555 246.39 162.595 246.594 162.673 246.785C162.751 246.976 162.865 247.15 163.009 247.296C163.153 247.442 163.324 247.558 163.513 247.637C163.701 247.716 163.903 247.757 164.106 247.757C164.311 247.763 164.515 247.726 164.705 247.647C164.895 247.569 165.067 247.451 165.209 247.302L165.463 247.553C165.285 247.739 165.071 247.885 164.835 247.982C164.598 248.079 164.344 248.125 164.089 248.116C163.833 248.126 163.579 248.084 163.34 247.991C163.102 247.899 162.884 247.757 162.701 247.576C162.519 247.395 162.374 247.178 162.277 246.939C162.18 246.699 162.132 246.442 162.136 246.183Z" fill="#263238"/>
<path d="M169.428 244.25V248.05H169.038V246.297H166.678V248.05H166.283V244.25H166.678V245.95H169.038V244.25H169.428Z" fill="#263238"/>
<path d="M173.309 247.703V248.05H170.667V244.25H173.227V244.597H171.062V245.95H172.997V246.297H171.062V247.703H173.309Z" fill="#263238"/>
<path d="M173.864 246.183C173.86 245.923 173.908 245.665 174.005 245.425C174.103 245.185 174.248 244.968 174.431 244.787C174.615 244.606 174.833 244.465 175.072 244.373C175.311 244.28 175.567 244.238 175.822 244.25C176.076 244.24 176.329 244.285 176.565 244.381C176.801 244.477 177.014 244.622 177.191 244.806L176.937 245.058C176.794 244.91 176.621 244.794 176.432 244.717C176.242 244.64 176.039 244.603 175.834 244.609C175.63 244.609 175.429 244.65 175.24 244.729C175.052 244.808 174.881 244.924 174.737 245.07C174.593 245.216 174.479 245.39 174.401 245.581C174.323 245.771 174.283 245.976 174.283 246.183C174.283 246.39 174.323 246.594 174.401 246.785C174.479 246.976 174.593 247.15 174.737 247.296C174.881 247.442 175.052 247.558 175.24 247.637C175.429 247.716 175.63 247.757 175.834 247.757C176.039 247.763 176.243 247.726 176.433 247.647C176.623 247.569 176.795 247.451 176.937 247.302L177.191 247.553C177.013 247.739 176.799 247.885 176.562 247.982C176.326 248.079 176.072 248.125 175.816 248.116C175.561 248.126 175.307 248.084 175.068 247.991C174.829 247.899 174.612 247.757 174.429 247.576C174.246 247.395 174.102 247.178 174.005 246.939C173.908 246.699 173.86 246.442 173.864 246.183Z" fill="#263238"/>
<path d="M179.209 246.267L178.442 247.057V248.05H178.029V244.25H178.424V246.548L180.619 244.25H181.073L179.457 245.973L181.185 248.05H180.719L179.209 246.267Z" fill="#263238"/>
<path d="M181.828 244.25H182.223V248.05H181.828V244.25Z" fill="#263238"/>
<path d="M186.559 244.25V248.05H186.235L183.834 244.986V248.068H183.439V244.268H183.763L186.17 247.356V244.268L186.559 244.25Z" fill="#263238"/>
<path d="M190.418 246.183H190.795V247.631C190.413 247.957 189.926 248.129 189.427 248.116C189.176 248.116 188.928 248.066 188.697 247.969C188.466 247.872 188.256 247.729 188.079 247.55C187.902 247.37 187.762 247.157 187.666 246.923C187.57 246.688 187.521 246.437 187.521 246.183C187.521 245.929 187.57 245.678 187.666 245.443C187.762 245.209 187.902 244.996 188.079 244.816C188.256 244.637 188.466 244.494 188.697 244.397C188.928 244.3 189.176 244.25 189.427 244.25C189.684 244.238 189.94 244.281 190.18 244.376C190.42 244.471 190.637 244.615 190.819 244.8L190.571 245.052C190.391 244.858 190.166 244.713 189.916 244.63C189.667 244.546 189.401 244.527 189.142 244.574C188.884 244.622 188.641 244.733 188.436 244.899C188.23 245.065 188.069 245.281 187.966 245.526C187.864 245.771 187.823 246.038 187.848 246.304C187.872 246.569 187.962 246.824 188.108 247.045C188.254 247.267 188.452 247.448 188.684 247.572C188.917 247.696 189.176 247.76 189.438 247.757C189.787 247.768 190.13 247.665 190.418 247.464V246.183Z" fill="#263238"/>
<path d="M191.633 247.781C191.632 247.742 191.639 247.704 191.653 247.669C191.667 247.633 191.687 247.601 191.714 247.574C191.74 247.546 191.772 247.525 191.806 247.51C191.841 247.495 191.878 247.487 191.916 247.487C191.993 247.487 192.066 247.518 192.12 247.573C192.175 247.628 192.205 247.703 192.205 247.781C192.205 247.859 192.175 247.934 192.121 247.99C192.067 248.046 191.993 248.078 191.916 248.08C191.878 248.079 191.841 248.071 191.806 248.055C191.771 248.04 191.74 248.017 191.713 247.99C191.687 247.962 191.666 247.929 191.653 247.893C191.639 247.857 191.632 247.819 191.633 247.781Z" fill="#263238"/>
<path d="M192.777 247.781C192.777 247.742 192.783 247.704 192.797 247.669C192.811 247.633 192.832 247.601 192.858 247.574C192.885 247.546 192.916 247.525 192.951 247.51C192.986 247.495 193.023 247.487 193.061 247.487C193.098 247.487 193.136 247.495 193.171 247.51C193.206 247.524 193.238 247.546 193.265 247.573C193.292 247.6 193.313 247.633 193.328 247.668C193.342 247.704 193.35 247.742 193.35 247.781C193.35 247.859 193.319 247.934 193.265 247.99C193.211 248.046 193.138 248.078 193.061 248.08C193.022 248.08 192.984 248.072 192.949 248.057C192.914 248.042 192.882 248.019 192.856 247.991C192.83 247.963 192.809 247.93 192.795 247.894C192.782 247.858 192.776 247.819 192.777 247.781Z" fill="#263238"/>
<path d="M193.898 247.781C193.897 247.742 193.904 247.704 193.918 247.669C193.932 247.633 193.953 247.601 193.979 247.574C194.005 247.546 194.037 247.525 194.072 247.51C194.106 247.495 194.144 247.487 194.181 247.487C194.219 247.487 194.256 247.495 194.291 247.51C194.326 247.525 194.357 247.546 194.384 247.574C194.41 247.601 194.431 247.633 194.445 247.669C194.459 247.704 194.465 247.742 194.465 247.781C194.465 247.819 194.459 247.857 194.445 247.893C194.431 247.929 194.41 247.962 194.384 247.99C194.358 248.017 194.326 248.04 194.292 248.055C194.257 248.071 194.219 248.079 194.181 248.08C194.143 248.08 194.105 248.072 194.07 248.057C194.035 248.042 194.003 248.019 193.977 247.991C193.95 247.963 193.93 247.93 193.916 247.894C193.903 247.858 193.897 247.819 193.898 247.781Z" fill="#263238"/>
<path d="M216.506 222H138.756C133.92 222 130 225.004 130 228.709V229.822C130 233.527 133.92 236.531 138.756 236.531H216.506C221.341 236.531 225.261 233.527 225.261 229.822V228.709C225.261 225.004 221.341 222 216.506 222Z" fill="#F5F5F5"/>
<path d="M173.641 222H138.645C133.871 222 130 225.004 130 228.709V229.822C130 233.527 133.871 236.531 138.645 236.531H173.641C178.416 236.531 182.286 233.527 182.286 229.822V228.709C182.286 225.004 178.416 222 173.641 222Z" fill="#0158A3"/>
<path d="M199.573 230.623C199.573 231.378 199.06 231.952 198.022 231.952C197.736 231.965 197.45 231.918 197.182 231.815C196.915 231.712 196.67 231.555 196.464 231.354L196.63 231.102C196.81 231.287 197.027 231.432 197.265 231.528C197.504 231.624 197.759 231.668 198.016 231.659C198.836 231.659 199.255 231.24 199.255 230.641C199.255 230.043 198.865 229.606 197.662 229.606H196.765L197.001 227.422H199.361V227.721H197.284L197.113 229.307H197.745C199.084 229.277 199.573 229.798 199.573 230.623Z" fill="#0158A3"/>
<path d="M203.078 230.623C203.078 231.378 202.564 231.952 201.526 231.952C201.24 231.965 200.955 231.918 200.687 231.815C200.419 231.712 200.175 231.555 199.969 231.354L200.134 231.102C200.315 231.287 200.531 231.432 200.77 231.528C201.008 231.624 201.264 231.668 201.52 231.659C202.34 231.659 202.753 231.24 202.753 230.641C202.753 230.043 202.37 229.606 201.166 229.606H200.27L200.5 227.422H202.859V227.721H200.777L200.612 229.307H201.243C202.582 229.277 203.078 229.798 203.078 230.623Z" fill="#0158A3"/>
<path d="M203.561 228.583C203.561 227.853 203.963 227.386 204.535 227.386C205.107 227.386 205.52 227.87 205.52 228.583C205.52 229.295 205.113 229.779 204.535 229.779C203.957 229.779 203.561 229.319 203.561 228.583ZM205.278 228.583C205.278 227.984 204.977 227.589 204.535 227.589C204.092 227.589 203.803 227.966 203.803 228.583C203.803 229.199 204.098 229.582 204.535 229.582C204.971 229.582 205.278 229.205 205.278 228.583ZM207.237 227.386H207.526L204.499 231.892H204.228L207.237 227.386ZM206.21 230.701C206.21 229.965 206.611 229.504 207.19 229.504C207.768 229.504 208.163 229.983 208.163 230.701C208.163 231.419 207.768 231.898 207.19 231.898C206.611 231.898 206.21 231.443 206.21 230.707V230.701ZM207.921 230.701C207.921 230.103 207.626 229.702 207.19 229.702C206.753 229.702 206.446 230.079 206.446 230.701C206.446 231.323 206.747 231.7 207.19 231.7C207.632 231.7 207.921 231.323 207.921 230.707V230.701Z" fill="#0158A3"/>
<g opacity="0.2">
<path d="M149.705 222L144.325 236.368H148.278L153.298 222H149.705Z" fill="white"/>
</g>
<g opacity="0.2">
<path d="M159.739 222L154.352 236.368H158.311L163.325 222H159.739Z" fill="white"/>
</g>
<g opacity="0.2">
<path d="M139.963 222L135.014 235.213C136.071 235.911 137.293 236.31 138.553 236.368L143.574 222.006L139.963 222Z" fill="white"/>
</g>
<path d="M216.23 236.484C216.945 236.452 217.655 236.374 218.353 236.25C220.356 235.865 222.117 234.964 223.33 233.703C224.207 232.802 224.761 231.745 224.94 230.636C225.027 230 225.048 229.36 225.002 228.721C224.968 228.035 224.79 227.357 224.473 226.713C223.94 225.609 223.024 224.632 221.821 223.884C220.618 223.135 219.171 222.643 217.63 222.457C216.47 222.365 215.303 222.335 214.138 222.369L139.094 222.416C138.2 222.426 137.313 222.528 136.457 222.72C135.614 222.932 134.815 223.234 134.085 223.616C132.655 224.389 131.57 225.471 130.975 226.719C129.925 229.184 130.267 232.158 132.53 234.066C133.631 235.027 135.079 235.727 136.698 236.08C138.254 236.443 139.988 236.309 141.652 236.338H151.404L185.139 236.367L207.885 236.42H214.107L207.885 236.449L185.139 236.496L151.404 236.531H139.156C138.293 236.526 137.436 236.435 136.605 236.262C134.894 235.892 133.364 235.153 132.206 234.135C131.048 233.117 130.311 231.866 130.088 230.536C129.998 229.865 129.977 229.19 130.026 228.516C130.064 227.83 130.245 227.152 130.563 226.508C131.199 225.195 132.352 224.06 133.868 223.253C134.631 222.855 135.467 222.542 136.348 222.322C137.244 222.119 138.173 222.011 139.109 222L214.153 222.041C215.34 222.042 216.526 222.108 217.7 222.24C219.283 222.435 220.767 222.947 221.998 223.721C223.229 224.496 224.162 225.505 224.698 226.643C225.834 229.43 225.165 232.152 223.47 233.762C222.228 235.036 220.426 235.936 218.384 236.303C218.08 236.362 217.771 236.403 217.458 236.426C217.235 236.455 217.009 236.468 216.782 236.467C216.416 236.49 216.23 236.484 216.23 236.484Z" fill="#263238"/>
<g opacity="0.2">
<path d="M169.766 222L164.38 236.368H168.339L173.353 222H169.766Z" fill="white"/>
</g>
<g opacity="0.2">
<path d="M179.794 222L174.408 236.368H178.366L183.381 222H179.794Z" fill="white"/>
</g>
<path d="M77.6029 311.573L73.29 326.453C73.29 326.453 87.0328 335.794 86.5062 338.612L57.22 331.336L62.9918 307.932L77.6029 311.573Z" fill="#455A64"/>
<path d="M64.5504 322.901C64.2457 322.92 63.9586 323.047 63.7434 323.259C63.5282 323.471 63.4 323.754 63.3832 324.052C63.3864 324.352 63.5059 324.639 63.7174 324.856C63.9289 325.072 64.2166 325.201 64.5219 325.217C64.8453 325.197 65.1497 325.061 65.3769 324.834C65.6041 324.608 65.738 324.307 65.7531 323.99C65.6962 323.39 65.0414 322.769 64.4365 322.915" fill="#E0E0E0"/>
<g opacity="0.6">
<path d="M57.22 331.336L57.8961 328.999L85.7233 336.847C85.7233 336.847 86.8834 337.74 86.5062 338.612L57.22 331.336Z" fill="white"/>
</g>
<path d="M73.8025 326.383C73.7598 326.523 73.0339 326.383 72.2155 326.697C71.397 327.011 70.8704 327.478 70.7494 327.395C70.6284 327.311 71.0554 326.537 72.0518 326.209C73.0481 325.881 73.8666 326.264 73.8025 326.383Z" fill="#263238"/>
<path d="M76.5567 328.413C76.5567 328.553 75.845 328.643 75.24 329.111C74.6351 329.578 74.3006 330.192 74.1583 330.15C74.0159 330.108 74.1583 329.278 74.934 328.699C75.7098 328.12 76.5851 328.273 76.5567 328.413Z" fill="#263238"/>
<path d="M77.3822 332.493C77.2399 332.493 77.2257 331.733 77.7879 331.049C78.3501 330.366 79.0974 330.219 79.1259 330.352C79.1544 330.484 78.6348 330.798 78.1865 331.363C77.7381 331.928 77.5246 332.514 77.3822 332.493Z" fill="#263238"/>
<path d="M74.4075 322.895C74.3149 323.007 73.6958 322.651 72.8844 322.505C72.0731 322.358 71.3685 322.456 71.3258 322.316C71.2831 322.177 72.0375 321.814 72.9841 322.002C73.9306 322.191 74.5071 322.798 74.4075 322.895Z" fill="#263238"/>
<path d="M67.3402 315.068L66.6285 330.498C66.6285 330.498 82.2004 336.372 82.357 339.239L52.2025 339.009L52.2666 314.914L67.3402 315.068Z" fill="#455A64"/>
<path d="M57.3338 329.132C57.0409 329.221 56.7915 329.412 56.6328 329.669C56.4741 329.926 56.4171 330.231 56.4726 330.527C56.5471 330.816 56.7315 331.067 56.988 331.228C57.2446 331.389 57.5541 331.447 57.8533 331.392C58.1577 331.299 58.4172 331.1 58.5834 330.833C58.7497 330.566 58.8114 330.249 58.7572 329.941C58.6519 329.646 58.4326 329.403 58.1464 329.265C57.8602 329.126 57.5301 329.104 57.227 329.202" fill="#E0E0E0"/>
<g opacity="0.6">
<path d="M52.2025 339.01L52.3022 336.582L81.204 337.712C81.204 337.712 82.542 338.305 82.3854 339.247L52.2025 339.01Z" fill="white"/>
</g>
<path d="M67.1482 330.353C67.1482 330.499 66.4365 330.562 65.675 331.05C64.9135 331.539 64.5576 332.132 64.4224 332.069C64.2872 332.006 64.5149 331.169 65.4045 330.625C66.2941 330.081 67.1838 330.22 67.1482 330.353Z" fill="#263238"/>
<path d="M70.308 331.677C70.308 331.817 69.696 332.061 69.1907 332.682C68.6854 333.303 68.5359 333.952 68.3936 333.938C68.2512 333.924 68.1587 333.107 68.7992 332.354C69.4397 331.601 70.3009 331.538 70.308 331.677Z" fill="#263238"/>
<path d="M72.0729 335.459C71.9377 335.459 71.7384 334.761 72.1227 333.952C72.507 333.143 73.2045 332.843 73.2614 332.961C73.3184 333.08 72.8985 333.513 72.5924 334.175C72.2864 334.838 72.2224 335.445 72.0729 335.459Z" fill="#263238"/>
<path d="M66.9134 326.816C66.8493 326.948 66.2017 326.746 65.3405 326.816C64.4794 326.886 63.8602 327.123 63.7819 326.997C63.7036 326.872 64.337 326.348 65.3192 326.3C66.3013 326.251 67.013 326.704 66.9134 326.816Z" fill="#263238"/>
<path d="M48.6655 202.106V214.314L51.9677 261.862C51.9677 261.862 49.9323 284.932 48.6513 297.956C47.5552 309.264 49.3629 328.957 49.3629 328.957H68.5787L75.4536 263.278L79.7238 222.316L87.1254 203.676L48.6655 202.106Z" fill="#263238"/>
<path d="M95.8578 202.106L97.7153 251.67C97.5872 260.969 94.9753 278.332 91.5805 287.004L76.1439 320.244L75.2543 323.237L63.7747 320.481L72.3079 202.978L95.8578 202.106Z" fill="#263238"/>
<path d="M82.5633 215.235C82.5729 215.335 82.5729 215.436 82.5633 215.535C82.5633 215.745 82.5633 216.031 82.5633 216.4C82.5633 217.189 82.5633 218.312 82.5633 219.749C82.5633 222.658 82.5633 226.864 82.4708 232.061C82.3783 237.258 82.2146 243.446 81.8374 250.31C81.4602 257.175 80.9549 264.744 79.3109 272.529C77.8662 280.321 76.2649 287.715 74.8415 294.44C73.4181 301.165 72.1513 307.227 71.2047 312.34C70.2582 317.454 69.5678 321.604 69.1479 324.485C68.9273 325.922 68.8134 327.046 68.7067 327.799C68.6568 328.169 68.6141 328.455 68.5857 328.664C68.5774 328.763 68.5583 328.862 68.5287 328.957C68.5192 328.857 68.5192 328.757 68.5287 328.657C68.5287 328.448 68.5714 328.162 68.607 327.792C68.6924 327.032 68.785 325.909 68.9842 324.465C69.333 321.576 69.9664 317.419 70.8773 312.292C71.7883 307.164 73.0124 301.13 74.4358 294.37C75.8592 287.611 77.4534 280.251 78.9693 272.459C80.6062 264.695 81.1044 257.112 81.5171 250.289C81.9299 243.467 82.1007 237.251 82.2288 232.054C82.3569 226.857 82.4068 222.658 82.4424 219.749C82.4424 218.312 82.4424 217.189 82.4424 216.4C82.4424 216.031 82.4424 215.745 82.4424 215.535C82.4757 215.433 82.5162 215.333 82.5633 215.235Z" fill="#455A64"/>
<path d="M106.754 189.438C107.014 190.366 107.11 191.331 107.039 192.291C106.896 193.749 106.825 197.349 102.854 198.57C98.8826 199.79 95.1319 196.874 93.9221 195.556C92.7122 194.238 92.8474 189.919 92.8474 189.919L99.3736 187.073L106.754 189.438Z" fill="#0158A3"/>
<path d="M61.6396 134.516L58.3374 139.721L44.9504 145.301L48.3025 199.162L50.708 208.929L95.2814 207.478L96.3845 199.916V163.592C95.3739 154.272 90.7835 148.482 86.5205 146.187L83.7377 144.318L82.6702 140.892L78.7416 137.286L66.1518 134.084L61.6396 134.516Z" fill="#0158A3"/>
<g opacity="0.3">
<path d="M46.8221 195.068C48.2584 197.206 50.2904 198.897 52.677 199.938C55.0637 200.979 57.7049 201.327 60.2874 200.941C64.7639 200.202 68.543 197.307 72.8345 195.863C80.3002 193.338 88.8192 195.347 96.1781 192.535C96.3204 191.294 96.235 189.745 96.3204 188.922C92.641 188.733 88.7195 188.531 85.4671 186.829L82.5136 185.762L46.8221 195.068Z" fill="black"/>
</g>
<path d="M44.9504 145.309C44.9504 145.309 38.595 150.638 40.4383 164.534C42.1464 177.44 45.1782 195.424 49.2206 197.51C53.263 199.595 61.9884 198.549 68.3723 195.005C74.7562 191.461 93.2815 181.862 93.2815 181.862L85.6166 168.511L60.928 177.9C60.928 177.9 57.7325 156.484 55.818 152.787" fill="#0158A3"/>
<path d="M55.8179 152.801C55.8179 152.801 55.8891 152.933 56.0101 153.205C56.067 153.345 56.1524 153.512 56.2307 153.722L56.4727 154.454C56.8357 155.556 57.2698 157.244 57.7395 159.386C58.6932 163.718 59.8746 170.024 61.056 177.879L60.8781 177.775L85.5525 168.357L85.6877 168.301L85.766 168.427C88.1857 172.647 90.7478 177.133 93.4309 181.772L93.5235 181.932L93.3455 182.051L77.5175 190.422L69.7529 194.517C68.479 195.214 67.205 195.912 65.8884 196.442C64.5759 196.993 63.2279 197.459 61.8531 197.837C59.1747 198.567 56.3965 198.882 53.6188 198.772C52.2623 198.72 50.9245 198.444 49.6618 197.956L49.1992 197.754C49.0442 197.672 48.8944 197.581 48.7508 197.482C48.4902 197.273 48.2517 197.039 48.0391 196.784C47.6349 196.271 47.2844 195.719 46.9929 195.138C45.9381 192.897 45.1109 190.561 44.5234 188.162C43.8971 185.839 43.406 183.558 42.9647 181.353C42.0894 176.93 41.4417 172.787 40.9008 168.999C40.36 165.211 39.8831 161.758 40.0255 158.709C40.0983 156.095 40.5783 153.508 41.4488 151.036C42.0057 149.477 42.7947 148.008 43.7903 146.676C44.0495 146.332 44.3325 146.005 44.6372 145.699C44.7378 145.593 44.8473 145.495 44.9646 145.406L44.6586 145.72C44.4664 145.936 44.1817 146.264 43.8472 146.718C42.89 148.064 42.1283 149.533 41.5841 151.085C40.7494 153.546 40.3007 156.116 40.2532 158.709C40.1322 161.737 40.6233 165.169 41.1784 168.957C41.7335 172.745 42.4025 176.875 43.3135 181.283C43.7618 183.488 44.26 185.762 44.8863 188.071C45.4709 190.457 46.2958 192.779 47.3488 195.005C47.632 195.566 47.9705 196.099 48.3594 196.596C48.5563 196.834 48.7781 197.051 49.0213 197.244C49.1454 197.333 49.2763 197.412 49.4127 197.482L49.8539 197.677C51.0803 198.15 52.38 198.414 53.6971 198.458C56.4297 198.522 59.1556 198.164 61.7748 197.398C63.1324 197.034 64.4638 196.582 65.7603 196.045C67.0627 195.493 68.301 194.803 69.5821 194.133L77.3538 190.031L93.189 181.66L93.1178 181.904L85.4671 168.594L85.6735 168.664L60.9706 178.019L60.8211 178.082V177.914C59.6397 170.066 58.5295 163.746 57.6256 159.421C57.1773 157.251 56.7645 155.584 56.43 154.475C56.3446 154.196 56.2734 153.952 56.2022 153.736L56.003 153.219C55.8678 152.947 55.8179 152.801 55.8179 152.801Z" fill="#263238"/>
<path d="M57.9458 160.711L73.9803 159.679L77.5245 166.215L59.5542 169.382L57.9458 160.711Z" fill="#0158A3"/>
<path d="M57.9459 160.712C58.0077 160.918 58.0576 161.128 58.0954 161.339C58.1808 161.779 58.3018 162.358 58.4512 163.083C58.7501 164.611 59.1629 166.746 59.6896 169.362L59.5259 169.25L75.7027 166.355L77.4961 166.041L77.3609 166.299C76.1226 163.997 74.9269 161.8 73.8024 159.763L73.9661 159.847L62.4794 160.502L59.1487 160.677H58.2519H57.9246C58.0193 160.669 58.1145 160.669 58.2092 160.677L59.0633 160.6L62.3513 160.342L73.9448 159.512H74.0587L74.1085 159.609L77.6669 166.139L77.7879 166.355L77.5388 166.404L75.7525 166.718L59.5543 169.508H59.4191V169.376C58.9636 166.711 58.5864 164.534 58.316 162.979C58.195 162.281 58.1025 161.688 58.0313 161.263C57.9922 161.081 57.9636 160.897 57.9459 160.712Z" fill="#263238"/>
<path d="M60.928 177.9C61.0277 177.977 59.59 179.63 58.3944 181.988C57.1988 184.346 56.6863 186.467 56.5582 186.432C56.5778 185.956 56.6689 185.486 56.8287 185.037C57.1295 183.93 57.542 182.855 58.0599 181.828C58.5824 180.803 59.2096 179.833 59.9317 178.933C60.2083 178.541 60.5443 178.193 60.928 177.9Z" fill="#263238"/>
<path d="M77.0335 147.952C76.7168 147.774 76.4188 147.566 76.1439 147.331L73.8166 145.518H74.0159C73.1174 146.941 72.0495 148.255 70.8346 149.431L70.7208 149.543L70.5927 149.438L68.1373 147.436C65.504 145.343 63.0416 143.501 61.2481 142.204L59.113 140.662C58.8426 140.489 58.5899 140.29 58.3586 140.069C58.6538 140.203 58.9351 140.364 59.1984 140.551C59.7251 140.879 60.4795 141.367 61.3976 141.995C63.2337 143.243 65.7247 145.043 68.3651 147.157C69.2262 147.854 70.0589 148.552 70.8204 149.173H70.5713C71.7757 148.02 72.8494 146.743 73.7739 145.364L73.8593 145.232L73.9732 145.336L76.2649 147.213C76.5387 147.441 76.7956 147.688 77.0335 147.952Z" fill="#263238"/>
<path d="M83.6238 144.653C83.7186 144.934 83.762 145.229 83.7519 145.525C83.7986 146.302 83.7724 147.082 83.6737 147.855L83.6238 148.266L83.3819 147.917C82.7903 147.08 82.1536 146.275 81.4745 145.504C81.1898 145.176 80.898 144.869 80.6134 144.576C80.4829 144.432 80.3452 144.295 80.2006 144.164C80.0582 144.074 80.0796 144.074 79.9515 144.206L78.7701 145.818C78.4313 146.336 78.0403 146.82 77.6029 147.262C77.8669 146.702 78.1863 146.169 78.5566 145.671L79.6811 144.004C79.7154 143.945 79.7627 143.894 79.8195 143.856C79.8764 143.817 79.9414 143.792 80.0096 143.781C80.0779 143.77 80.1478 143.775 80.2141 143.794C80.2804 143.813 80.3414 143.847 80.3927 143.892C80.5778 144.046 80.6917 144.171 80.8482 144.325C81.14 144.618 81.4389 144.932 81.7307 145.267C82.421 146.047 83.0536 146.874 83.6238 147.743L83.3249 147.813C83.6452 145.936 83.5455 144.653 83.6238 144.653Z" fill="#263238"/>
<path d="M55.085 150.659C54.7189 150.302 54.3855 149.915 54.0886 149.501C53.339 148.55 52.4547 147.709 51.4625 147.003C50.4392 146.365 49.2894 145.947 48.0891 145.776C47.5765 145.734 47.0675 145.657 46.566 145.545C47.0818 145.459 47.6089 145.459 48.1246 145.545C49.397 145.67 50.6188 146.099 51.6831 146.794C52.7107 147.516 53.6018 148.409 54.3164 149.431C54.6296 149.803 54.8884 150.216 55.085 150.659Z" fill="#263238"/>
<path d="M89.9222 160.328C89.3841 159.257 88.9597 158.135 88.6554 156.979C88.2308 155.85 87.9232 154.681 87.7373 153.491C88.2773 154.564 88.7042 155.689 89.0112 156.847C89.4344 157.974 89.7396 159.14 89.9222 160.328Z" fill="#263238"/>
<path d="M96.2279 191.12C96.3304 191.578 96.3782 192.046 96.3702 192.515C96.4271 193.366 96.5268 194.538 96.5837 195.843C96.6474 196.961 96.6236 198.083 96.5125 199.198C96.499 199.678 96.3952 200.151 96.2065 200.593C96.1825 200.128 96.1968 199.661 96.2492 199.198C96.2492 198.347 96.2492 197.175 96.2492 195.878C96.2492 194.58 96.1353 193.401 96.1496 192.543C96.0963 192.068 96.1227 191.587 96.2279 191.12Z" fill="#263238"/>
<path d="M67.1338 165.309C66.9846 165.463 66.9 165.666 66.8971 165.878C66.8941 166.091 66.9729 166.297 67.1179 166.454C67.2628 166.612 67.4631 166.711 67.6789 166.73C67.8947 166.75 68.1101 166.689 68.2821 166.56C68.4541 166.431 68.57 166.243 68.6068 166.033C68.6436 165.824 68.5985 165.609 68.4805 165.43C68.3625 165.252 68.1803 165.124 67.9703 165.072C67.7603 165.02 67.5378 165.047 67.3474 165.148" fill="#E0E0E0"/>
<g opacity="0.3">
<path d="M56.8783 156.003L61.3762 169.062L76.2008 166.453L61.91 171.943L60.7072 176.47L56.8783 156.003Z" fill="black"/>
</g>
<g opacity="0.3">
<path d="M58.743 140.3L71.9948 152.054L74.0444 146.557L76.1795 147.255L73.8808 145.385C73.8808 145.385 71.3614 149.18 70.6924 149.25L58.743 140.3Z" fill="black"/>
</g>
<path d="M84.001 168.455C83.8811 168.203 83.7904 167.939 83.7306 167.667C83.5669 167.081 83.3534 166.348 83.1043 165.483C82.5776 163.642 81.8161 161.109 80.8838 158.333C79.9515 155.557 79.0121 153.087 78.3146 151.294C77.9943 150.457 77.7168 149.753 77.4962 149.202C77.3787 148.946 77.2881 148.68 77.2257 148.406C77.3867 148.637 77.5204 148.885 77.6243 149.146C77.8591 149.627 78.1794 150.339 78.5637 151.238C79.3181 153.003 80.2931 155.48 81.2325 158.256C82.172 161.033 82.8979 163.593 83.3676 165.455C83.6025 166.383 83.7733 167.144 83.88 167.667C83.9517 167.924 83.9923 168.189 84.001 168.455Z" fill="#263238"/>
<path d="M83.8088 153.952C86.314 156.4 92.6623 162.79 92.6623 162.79L94.3632 161.785L85.4172 152.424C85.2369 152.238 84.9961 152.119 84.7363 152.089C84.4765 152.058 84.2139 152.118 83.9939 152.256C83.8536 152.345 83.7354 152.463 83.6479 152.602C83.5603 152.741 83.5057 152.898 83.4879 153.061C83.4702 153.223 83.4898 153.388 83.5453 153.542C83.6008 153.696 83.6909 153.836 83.8088 153.952Z" fill="#263238"/>
<path d="M85.6166 168.51L87.7517 162.623C87.9689 161.983 88.3806 161.423 88.9314 161.019C89.4822 160.615 90.1458 160.386 90.8333 160.362C90.9398 160.352 91.0471 160.352 91.1536 160.362C92.4346 160.502 98.9822 160.92 98.9822 160.92L101.509 163.711C101.714 163.945 101.826 164.243 101.826 164.551C101.826 164.86 101.714 165.158 101.509 165.392L102.22 170.394L100.797 171.349L100.939 174.837C100.939 174.837 99.6583 175.675 99.0961 175.395L98.5267 175.116L97.6727 174.279L95.26 177.621L91.9222 179.511L85.6166 168.51Z" fill="#FFBE9D"/>
<path d="M101.516 165.65C101.23 165.307 100.923 164.981 100.598 164.673C100.233 164.377 99.8224 164.142 99.3807 163.976C98.8014 163.842 98.2104 163.762 97.6157 163.738C96.0483 163.654 94.4898 163.451 92.9541 163.132C94.524 163.088 96.0949 163.169 97.6513 163.376C98.2749 163.401 98.8934 163.497 99.4946 163.662C99.9746 163.857 100.41 164.144 100.776 164.506C101.139 164.801 101.398 165.202 101.516 165.65Z" fill="#EB996E"/>
<path d="M101.373 170.254C101.229 169.815 101.053 169.386 100.847 168.971C100.269 168.017 99.382 167.28 98.3274 166.878C97.2559 166.506 96.1264 166.319 94.9895 166.327C94.5148 166.359 94.038 166.345 93.5662 166.285C94.0245 166.135 94.5063 166.064 94.9895 166.076C96.1704 165.984 97.3575 166.144 98.4697 166.543C99.599 166.966 100.531 167.78 101.089 168.831C101.346 169.26 101.446 169.762 101.373 170.254Z" fill="#EB996E"/>
<path d="M100.733 174.552C100.491 174.126 100.373 173.644 100.391 173.157C100.364 172.664 100.255 172.179 100.071 171.72C99.9444 171.46 99.7562 171.234 99.5222 171.061C99.2882 170.887 99.0151 170.771 98.7259 170.722C97.6068 170.486 96.4726 170.325 95.3311 170.241C94.8397 170.227 94.3559 170.118 93.9077 169.92C94.3832 169.913 94.8587 169.937 95.3311 169.99C96.4994 169.997 97.6636 170.125 98.8042 170.374C99.15 170.455 99.4764 170.602 99.7649 170.806C100.03 171.011 100.236 171.281 100.363 171.587C100.546 172.084 100.635 172.608 100.626 173.136C100.655 174.022 100.776 174.531 100.733 174.552Z" fill="#EB996E"/>
<path d="M104.284 163.495L76.1439 191.985L77.2257 193.059L97.388 190.834L124.518 165.497L124.489 164.283L104.284 163.495Z" fill="#455A64"/>
<g opacity="0.3">
<path d="M106.106 181.395C105.561 180.908 104.917 180.538 104.218 180.308C103.518 180.079 102.777 179.995 102.042 180.063C100.568 180.213 99.1729 180.791 98.0355 181.723C97.0762 182.413 96.3758 183.394 96.0428 184.513C95.5731 186.487 96.9111 188.552 98.733 189.508L98.9821 189.222L105.914 183.767C106.292 183.532 106.576 183.178 106.718 182.762C106.738 182.503 106.693 182.242 106.586 182.004C106.479 181.765 106.315 181.556 106.106 181.395Z" fill="black"/>
</g>
<path d="M103.139 178.73C103.139 178.73 105.864 178.786 106.754 179.219C107.644 179.651 110.092 182.211 110.092 182.211C110.092 182.211 110.092 183.948 109.38 184.018C109.464 184.406 109.511 184.801 109.522 185.197C109.594 186.174 109.736 186.732 108.384 187.562C108.384 187.562 108.526 189.166 108.028 189.578C107.693 189.857 107.338 190.114 106.967 190.345C106.967 190.345 105.409 192.222 104.484 192.082C103.558 191.943 102.228 193.059 102.228 193.059C102.228 193.059 97.2457 191.022 97.7439 190.443L99.4804 188.56C99.4804 188.56 96.043 186.104 96.1141 185.337C96.1853 184.569 96.47 184.507 96.47 184.507C96.47 184.507 96.3276 183.042 97.5304 182.902C97.5304 182.902 98.4556 181.095 99.3737 181.026C100.292 180.956 106.54 183.181 106.54 183.181L104.199 181.235C104.199 181.235 101.857 180.886 101.929 180.126C102 179.365 103.139 178.73 103.139 178.73Z" fill="#FFBE9D"/>
<path d="M102.718 187.896C102.662 187.98 101.295 187.199 99.5586 186.389C98.4737 185.946 97.4141 185.445 96.3844 184.89C97.551 185.105 98.6752 185.5 99.7151 186.062C100.812 186.508 101.827 187.128 102.718 187.896Z" fill="#EB996E"/>
<path d="M105.971 185.762C104.578 185.451 103.215 185.019 101.9 184.471C100.539 184.04 99.2196 183.492 97.9574 182.832C99.3496 183.156 100.711 183.595 102.028 184.144C103.387 184.573 104.706 185.115 105.971 185.762Z" fill="#EB996E"/>
<path d="M124.411 165.448C124.288 165.459 124.164 165.459 124.041 165.448H122.966L118.931 165.399L104.903 165.134L105.031 165.086L97.9786 172.285C92.2851 178.04 87.1253 183.237 83.3604 187.039L78.8981 191.475L77.6882 192.661C77.5496 192.805 77.3997 192.938 77.2399 193.059C77.3604 192.898 77.4936 192.746 77.6384 192.606L78.8127 191.364L83.1896 186.843L97.7295 172.02L104.797 164.869L104.846 164.813H104.925L118.952 165.211L122.98 165.358L124.055 165.406C124.175 165.404 124.295 165.418 124.411 165.448Z" fill="#263238"/>
<path d="M89.9294 108.713C89.0413 107.726 87.8063 107.103 86.4706 106.969C85.7256 106.773 84.9349 106.832 84.2287 107.136C83.8138 107.411 83.4859 107.795 83.2821 108.244C83.0783 108.693 83.0069 109.189 83.0758 109.675C83.2303 110.64 83.5201 111.579 83.9369 112.466C84.3551 113.362 84.4961 114.359 84.3426 115.333L86.8976 121.297C87.3365 121.135 87.7341 120.882 88.0627 120.554C88.3914 120.226 88.643 119.832 88.8002 119.399C88.9574 118.966 89.0164 118.504 88.9729 118.047C88.9295 117.589 88.7847 117.146 88.5487 116.749C88.9533 116.534 89.3044 116.234 89.5766 115.87C89.8489 115.506 90.0356 115.088 90.1234 114.645C90.2111 114.202 90.1978 113.746 90.0843 113.309C89.9707 112.872 89.7599 112.465 89.4668 112.117C90.634 111.503 90.7265 109.752 89.9294 108.713Z" fill="#263238"/>
<path d="M66.3582 124.283L66.0593 112.229L58.2733 111.88C57.7986 111.997 57.3673 112.244 57.0292 112.591C56.6912 112.938 56.4601 113.372 56.3627 113.842C56.2652 114.312 56.3053 114.8 56.4784 115.249C56.6515 115.698 56.9506 116.09 57.341 116.379C56.7405 116.645 56.2381 117.085 55.9022 117.64C55.5662 118.195 55.4131 118.839 55.4637 119.482C55.5143 120.126 55.7661 120.739 56.1848 121.237C56.6035 121.735 57.1688 122.095 57.8036 122.267C57.4466 122.701 57.2135 123.22 57.1284 123.771C57.0432 124.322 57.109 124.886 57.3189 125.404C57.5289 125.922 57.8755 126.376 58.3233 126.72C58.7711 127.063 59.304 127.284 59.8675 127.359C59.8675 128.755 60.6789 130.317 62.0738 130.708C63.4687 131.099 65.1056 130.059 65.7603 128.706C66.4151 127.352 66.3938 125.783 66.3582 124.283Z" fill="#263238"/>
<path d="M58.0597 110.547C58.0597 110.547 58.8283 120.523 59.8247 123.565C60.6373 125.784 61.7071 127.904 63.0131 129.885L86.7552 122.658C87.5594 117.272 88.3921 111.859 88.0505 107.618L80.478 104.974L58.0597 110.547Z" fill="#263238"/>
<path d="M63.0843 123.564C62.0775 120.896 61.3037 118.15 60.7713 115.354C60.245 112.546 60.4406 109.655 61.3407 106.941C61.483 106.529 62.764 103.801 63.1911 103.843C63.5042 103.843 62.7356 106.403 62.8993 106.669C64.3612 109.257 64.9889 112.22 64.6998 115.165C64.4765 118.005 63.9347 120.813 63.0843 123.536" fill="#263238"/>
<path d="M79.5672 142.239V135.486C79.5672 135.486 86.5845 134.691 86.9403 127.862C87.1183 124.562 86.9403 117.74 86.6485 111.573C86.5132 108.374 85.1535 105.342 82.8403 103.081C80.527 100.82 77.4298 99.4956 74.1654 99.3721H73.4965C66.2301 99.5046 62.2873 105.65 62.6289 112.752V135.884L76.9766 146.013L79.5672 142.239Z" fill="#FFBE9D"/>
<path d="M79.5815 135.486C76.3647 135.359 73.2526 134.33 70.6141 132.521C70.6141 132.521 72.6282 137.579 79.6099 137.23L79.5815 135.486Z" fill="#EB996E"/>
<path d="M84.3854 117.412C84.378 117.667 84.2688 117.91 84.0812 118.087C83.8936 118.264 83.6426 118.363 83.382 118.361C83.2553 118.366 83.1288 118.347 83.0099 118.304C82.891 118.261 82.7822 118.194 82.69 118.109C82.5977 118.024 82.5238 117.921 82.4728 117.808C82.4217 117.694 82.3945 117.571 82.3927 117.447C82.3946 117.19 82.4994 116.945 82.6845 116.763C82.8696 116.582 83.1202 116.479 83.382 116.477C83.5116 116.47 83.6414 116.488 83.7634 116.532C83.8854 116.575 83.9969 116.643 84.091 116.731C84.1851 116.819 84.2598 116.924 84.3105 117.041C84.3611 117.159 84.3867 117.285 84.3854 117.412Z" fill="#263238"/>
<path d="M85.0614 114.384C84.9333 114.503 84.2002 113.931 83.1256 113.889C82.0509 113.847 81.2467 114.35 81.1399 114.217C81.0332 114.085 81.2182 113.931 81.5741 113.701C82.0482 113.402 82.6054 113.256 83.1683 113.282C83.7252 113.301 84.2614 113.494 84.6984 113.833C85.0187 114.057 85.1254 114.294 85.0614 114.384Z" fill="#263238"/>
<path d="M74.7846 117.58C74.7772 117.834 74.669 118.075 74.4829 118.252C74.2968 118.429 74.0476 118.529 73.7882 118.528C73.6609 118.533 73.5339 118.513 73.4145 118.469C73.2952 118.425 73.186 118.358 73.0933 118.273C73.0006 118.187 72.9262 118.084 72.8744 117.97C72.8227 117.856 72.7946 117.732 72.7919 117.608C72.8011 117.353 72.9109 117.112 73.0981 116.935C73.2853 116.758 73.5353 116.659 73.7954 116.659C73.9224 116.654 74.049 116.674 74.1679 116.718C74.2869 116.762 74.3956 116.829 74.4877 116.915C74.5799 117.001 74.6536 117.104 74.7046 117.218C74.7556 117.332 74.7828 117.455 74.7846 117.58Z" fill="#263238"/>
<path d="M74.5498 114.384C74.4217 114.51 73.6886 113.931 72.614 113.896C71.5393 113.861 70.7422 114.349 70.6283 114.217C70.5145 114.084 70.7066 113.931 71.0625 113.7C71.5374 113.404 72.094 113.258 72.6567 113.282C73.2151 113.304 73.7526 113.497 74.1939 113.833C74.5071 114.084 74.6138 114.314 74.5498 114.384Z" fill="#263238"/>
<path d="M78.0725 122.588C78.6431 122.434 79.2315 122.351 79.8233 122.344C80.0938 122.344 80.3571 122.288 80.414 122.107C80.4446 121.83 80.3901 121.551 80.2574 121.304C80.0297 120.644 79.7925 119.947 79.5458 119.212C78.5423 116.261 77.8235 113.84 77.9444 113.798C78.0654 113.757 78.9835 116.121 79.987 119.072C80.229 119.77 80.4638 120.467 80.6987 121.165C80.8576 121.496 80.8953 121.87 80.8054 122.225C80.7603 122.318 80.6948 122.4 80.6136 122.465C80.5324 122.53 80.4375 122.577 80.3357 122.602C80.1816 122.635 80.0238 122.649 79.866 122.644C79.2681 122.697 78.6658 122.678 78.0725 122.588Z" fill="#263238"/>
<path d="M74.8913 123.195C75.0621 123.195 75.0194 124.332 75.9802 125.176C76.941 126.02 78.1864 125.943 78.1936 126.104C78.2007 126.264 77.9089 126.313 77.3822 126.306C76.7025 126.297 76.0487 126.049 75.5389 125.609C75.0477 125.184 74.744 124.588 74.692 123.948C74.6707 123.453 74.8415 123.181 74.8913 123.195Z" fill="#263238"/>
<path d="M75.0408 110.764C74.9269 111.043 73.8594 110.869 72.5997 110.966C71.34 111.064 70.3081 111.364 70.1515 111.106C70.0803 110.98 70.2654 110.715 70.6853 110.457C71.2439 110.133 71.8734 109.944 72.5214 109.906C73.1674 109.852 73.8171 109.952 74.4145 110.199C74.8415 110.394 75.0906 110.631 75.0408 110.764Z" fill="#263238"/>
<path d="M84.7554 110.84C84.5561 111.07 83.8302 110.798 82.9406 110.749C82.051 110.701 81.2966 110.847 81.1329 110.589C81.0617 110.47 81.1898 110.233 81.5314 110.024C81.9787 109.761 82.4994 109.644 83.0189 109.689C83.5375 109.719 84.0342 109.904 84.4423 110.219C84.7483 110.477 84.8408 110.729 84.7554 110.84Z" fill="#263238"/>
<path d="M63.0061 117.81C62.8922 117.754 58.2733 116.233 58.2377 120.914C58.2022 125.595 62.999 124.66 63.0132 124.528C63.0274 124.395 63.0061 117.81 63.0061 117.81Z" fill="#FFBE9D"/>
<path d="M61.5684 122.756C61.5684 122.756 61.483 122.811 61.3406 122.874C61.2427 122.915 61.1374 122.936 61.031 122.936C60.9246 122.936 60.8193 122.915 60.7215 122.874C60.4133 122.682 60.1635 122.413 59.9982 122.094C59.8329 121.774 59.7583 121.418 59.782 121.06C59.7738 120.659 59.8565 120.262 60.024 119.895C60.07 119.75 60.151 119.618 60.2599 119.51C60.3689 119.402 60.5028 119.321 60.6503 119.275C60.7467 119.251 60.8485 119.261 60.9381 119.303C61.0277 119.345 61.0996 119.416 61.1414 119.505C61.2054 119.63 61.1414 119.728 61.1983 119.735C61.2552 119.742 61.305 119.658 61.2623 119.463C61.239 119.347 61.1733 119.242 61.0773 119.17C60.9474 119.073 60.7844 119.028 60.6218 119.044C60.4279 119.079 60.246 119.162 60.0931 119.283C59.9401 119.405 59.8209 119.563 59.7464 119.742C59.5404 120.147 59.4378 120.594 59.4475 121.047C59.4228 121.463 59.5236 121.878 59.7374 122.239C59.9513 122.6 60.2688 122.891 60.6503 123.077C60.7785 123.112 60.9128 123.119 61.0442 123.099C61.1757 123.078 61.301 123.03 61.4118 122.958C61.5541 122.853 61.5826 122.756 61.5684 122.756Z" fill="#EB996E"/>
<path d="M83.5599 103.83C84.3356 103.411 82.0155 100.963 80.1153 100.119C77.2685 98.8491 72.8631 98.0678 70.2156 98.8072C67.0343 99.7001 64.394 101.256 62.7998 104.102C61.2632 106.996 60.541 110.24 60.7074 113.499C60.6805 114.495 60.9262 115.48 61.4191 116.352C62.0881 117.384 63.3691 118.033 63.3122 119.463C63.2884 119.974 63.4669 120.473 63.8104 120.858C64.6858 121.772 65.7533 120.914 66.2444 120.056C67.2906 118.221 67.4044 116.031 67.4898 113.931C67.6349 112.443 67.5315 110.942 67.1838 109.487C66.9489 108.706 66.5717 107.974 66.3796 107.178C66.2616 106.788 66.2304 106.377 66.2881 105.974C66.3458 105.571 66.4911 105.185 66.7141 104.841C66.8335 104.703 66.9644 104.575 67.1055 104.458C67.7686 103.901 68.5693 103.525 69.4274 103.367C70.2855 103.209 71.1709 103.275 71.9949 103.558C74.6851 104.486 79.2755 105.867 80.4711 104.953C81.3218 104.406 82.0486 103.694 82.6062 102.86L83.5599 103.83Z" fill="#263238"/>
<path d="M70.066 93.9726C69.7315 94.0075 61.5684 95.5352 59.3337 101.388C57.099 107.241 57.6399 109.062 57.6399 109.062C57.3167 109.25 57.024 109.486 56.7716 109.759C56.4229 110.136 56.8499 112.012 57.9103 111.852C65.9453 108.678 75.3254 108.643 85.7518 109.299L93.7441 109.466C95.9717 109.794 96.783 109.236 95.8791 108.657C95.1675 108.21 88.9046 105.504 88.9046 105.504L87.652 104.555L84.5063 99.9649C84.5063 99.9649 84.9333 99.351 84.1433 98.8069C83.3533 98.2628 76.7061 93.2889 70.066 93.9726Z" fill="#0158A3"/>
<path d="M87.652 104.555C87.5477 104.561 87.4431 104.561 87.3388 104.555L86.4492 104.506C85.6735 104.451 84.5561 104.423 83.1683 104.409C79.5637 104.405 75.9657 104.709 72.4146 105.316C68.8629 105.946 65.3509 106.775 61.8958 107.799C60.5649 108.176 59.4974 108.497 58.7572 108.734L57.9032 108.985L57.5972 109.069L57.889 108.964L58.7359 108.685C59.4476 108.448 60.5436 108.099 61.8673 107.708C65.3203 106.659 68.8355 105.818 72.3933 105.19C75.9538 104.564 79.5653 104.258 83.1825 104.276C85.9582 104.346 87.652 104.555 87.652 104.555Z" fill="#263238"/>
<g opacity="0.3">
<path d="M62.5507 97.2161C62.5507 97.2161 71.3258 96.1209 75.1761 98.0951L74.7277 97.8579L78.4001 99.567C78.6825 99.7546 79.0041 99.8783 79.3414 99.9289C79.6787 99.9796 80.0233 99.9561 80.3501 99.86C78.7221 98.4872 76.8466 97.4249 74.8203 96.7278C71.1835 95.3954 65.3974 94.6838 62.5507 97.2161Z" fill="black"/>
</g>
<path d="M62.4225 97.2578C62.6743 97.0783 62.9409 96.9196 63.2196 96.7835C63.9723 96.3895 64.7703 96.0851 65.5966 95.8766C66.8228 95.5657 68.0887 95.4317 69.3544 95.479C70.9134 95.4965 72.4501 95.8439 73.8594 96.4975C74.5771 96.8492 75.2712 97.2453 75.9375 97.6834C76.5781 98.1019 77.2186 98.4786 77.7951 98.8972C78.3177 99.3084 78.8722 99.6792 79.4533 100.006C79.9767 100.256 80.5508 100.387 81.1329 100.39C83.268 100.495 84.606 100.097 84.5206 99.9645C84.48 100.035 84.4177 100.091 84.3426 100.125C84.1275 100.214 83.9032 100.279 83.6737 100.32C82.8331 100.467 81.9788 100.523 81.1258 100.488C80.5293 100.491 79.9401 100.359 79.4035 100.104C78.8138 99.7797 78.252 99.4088 77.7239 98.9949C77.1545 98.5833 76.5069 98.2066 75.8664 97.788C75.2027 97.3576 74.5136 96.9662 73.8025 96.6161C72.4111 95.9687 70.8943 95.6214 69.3544 95.5976C68.0973 95.5455 66.8391 95.67 65.618 95.9673C64.7965 96.1687 63.9995 96.4563 63.2409 96.8253C62.9705 96.9579 62.7712 97.0695 62.636 97.1462L62.4225 97.2578Z" fill="#263238"/>
<g opacity="0.3">
<path d="M58.4725 103.83C59.9357 103.791 61.3898 103.59 62.8067 103.23C64.4721 102.93 66.1232 102.706 67.7886 102.33C69.0411 102.044 70.5215 101.793 71.347 100.935C71.3972 101.237 71.3673 101.548 71.2602 101.836C71.153 102.124 70.9722 102.381 70.735 102.581C69.9041 103.077 68.995 103.436 68.0448 103.641C64.7908 104.511 61.4498 105.03 58.0811 105.19C58.1791 104.716 58.3123 104.25 58.4796 103.795" fill="black"/>
</g>
<path d="M59.6112 100.747C58.6077 101.137 57.9885 101.402 57.9316 102.225C57.8818 102.923 57.9957 103.767 58.686 103.907C58.898 103.941 59.1145 103.941 59.3265 103.907L70.2012 102.128C70.5773 102.107 70.9344 101.959 71.2118 101.709C71.3654 101.473 71.4179 101.187 71.358 100.912C71.298 100.638 71.1305 100.398 70.8915 100.244C70.3964 99.9519 69.8253 99.8065 69.2475 99.8258C66.0068 99.7135 62.7655 100.03 59.6112 100.768" fill="#0158A3"/>
<path d="M71.041 101.827C71.1828 101.706 71.2885 101.549 71.3471 101.374C71.4163 101.134 71.4156 100.881 71.3452 100.641C71.2747 100.402 71.1373 100.187 70.9485 100.021C70.3194 99.6093 69.5673 99.4176 68.8134 99.4764C67.9452 99.4764 66.9915 99.5183 65.9667 99.5811C64.2575 99.6661 62.5594 99.8996 60.8923 100.279C60.2589 100.425 59.7465 100.586 59.3977 100.69L58.9921 100.816L58.8497 100.858C58.8497 100.858 58.8924 100.858 58.985 100.795L59.3835 100.641C59.8707 100.464 60.3672 100.313 60.8709 100.188C62.5378 99.7736 64.2422 99.5213 65.9595 99.4346C66.963 99.3718 67.9238 99.3509 68.8063 99.3439C69.5941 99.2844 70.3786 99.4939 71.0268 99.9368C71.2225 100.117 71.3623 100.347 71.4303 100.601C71.4983 100.855 71.4917 101.123 71.4111 101.374C71.3612 101.508 71.2809 101.63 71.1763 101.73L71.041 101.827Z" fill="#263238"/>
<path d="M85.5026 101.402L78.713 101.039L79.2183 102.937L86.6199 103.027L85.5026 101.402Z" fill="white"/>
<path d="M75.0195 106.976C75.0195 106.976 78.0585 106.62 81.8162 106.278C85.5739 105.937 88.6342 105.651 88.6342 105.686C88.6342 105.72 85.5953 106.041 81.8304 106.383C78.0656 106.725 75.0195 107.011 75.0195 106.976Z" fill="#263238"/>
<path d="M97.7154 201.109H45.4272V209.669H97.7154V201.109Z" fill="#455A64"/>
<path d="M47.0284 205.246H71.226V229.299C71.226 230.579 70.7072 231.807 69.7836 232.713C68.8599 233.618 67.6073 234.126 66.3011 234.126H51.9534C51.3066 234.126 50.6662 234.002 50.0687 233.759C49.4712 233.516 48.9282 233.161 48.4709 232.713C48.0136 232.264 47.6508 231.732 47.4033 231.146C47.1558 230.561 47.0284 229.933 47.0284 229.299V205.246Z" fill="#455A64"/>
<path d="M71.2404 213.066C71.1704 212.573 71.1371 212.077 71.1408 211.58C71.1215 210.236 70.9424 208.899 70.607 207.596C70.49 207.186 70.2753 206.808 69.9807 206.494C69.6339 206.165 69.2522 205.872 68.842 205.622C67.9155 205.091 66.8797 204.769 65.8102 204.68C63.5328 204.513 60.9778 204.59 58.316 204.611C55.6543 204.632 53.0851 204.401 50.8575 204.883C49.8017 205.038 48.8269 205.528 48.0819 206.278C47.543 207.02 47.2363 207.9 47.1994 208.81C47.0357 210.505 47.0713 211.894 47.0428 212.849C47.0428 213.296 47.0428 213.659 47.0428 213.951C47.0533 214.079 47.0533 214.207 47.0428 214.335C47.0105 214.21 46.9961 214.081 47.0001 213.951C47.0001 213.659 47.0001 213.296 46.9645 212.849C46.9645 211.894 46.8791 210.512 47.0072 208.789C47.0347 207.822 47.3488 206.884 47.9111 206.09C48.6948 205.279 49.7313 204.746 50.8575 204.576C52.0561 204.337 53.2788 204.234 54.5014 204.269C55.7539 204.269 57.0563 204.269 58.3872 204.269C61.0561 204.269 63.5826 204.178 65.9169 204.367C67.0324 204.47 68.1099 204.818 69.0697 205.385C69.4976 205.653 69.8939 205.966 70.2511 206.32C70.5888 206.662 70.8335 207.082 70.9628 207.541C71.2845 208.868 71.428 210.23 71.3899 211.594C71.3899 212.04 71.3899 212.403 71.3899 212.696C71.3515 212.823 71.3015 212.947 71.2404 213.066Z" fill="#263238"/>
<path d="M71.0624 215.598C71.0624 215.703 65.7389 215.78 59.17 215.78C52.6011 215.78 47.2776 215.703 47.2776 215.598C47.2776 215.494 52.6011 215.417 59.17 215.417C65.7389 215.417 71.0624 215.536 71.0624 215.598Z" fill="#263238"/>
<path d="M53.9603 234.371C53.8536 234.371 53.7753 230.15 53.7753 224.946C53.7753 219.742 53.8536 215.515 53.9603 215.515C54.0671 215.515 54.1453 219.735 54.1453 224.946C54.1453 230.157 54.0599 234.371 53.9603 234.371Z" fill="#263238"/>
<path d="M64.8778 234.307C64.7782 234.307 64.6927 230.122 64.6927 224.974C64.6927 219.825 64.7782 215.633 64.8778 215.633C64.9774 215.633 65.0628 219.818 65.0628 224.974C65.0628 230.129 64.9774 234.307 64.8778 234.307Z" fill="#263238"/>
<path d="M97.7153 201.109L100.733 205.246C100.733 205.246 103.43 229.899 102.227 231.057C101.025 232.215 96.9823 232.187 96.9823 232.187L95.8792 202.672L97.7153 201.109Z" fill="#455A64"/>
<path d="M88.2427 209.327C87.7685 206.578 87.7301 203.773 88.1288 201.012C88.2389 202.404 88.2722 203.801 88.2285 205.197C88.3089 206.573 88.3136 207.951 88.2427 209.327Z" fill="#263238"/>
<path d="M97.7722 201.248C97.9472 201.696 98.0551 202.165 98.0925 202.643C98.2348 203.508 98.3772 204.736 98.4555 206.054C98.5162 206.692 98.4899 207.335 98.3772 207.966C98.2747 208.509 97.9859 209.001 97.5587 209.361C97.2753 209.604 96.9169 209.746 96.541 209.766C96.2706 209.766 96.1425 209.703 96.1425 209.689C96.6036 209.656 97.04 209.472 97.3808 209.166C97.7356 208.829 97.9681 208.388 98.0427 207.91C98.1296 207.302 98.1439 206.687 98.0854 206.075C97.943 203.404 97.6655 201.262 97.7722 201.248Z" fill="#263238"/>
<path d="M54.7827 213.427C52.1322 215.882 52.1045 219.919 54.721 222.445C57.3375 224.971 61.6073 225.029 64.2578 222.574C66.9084 220.12 66.9361 216.082 64.3196 213.556C61.7031 211.031 57.4333 210.973 54.7827 213.427Z" fill="#0158A3"/>
<path d="M60.7475 214.64C61.1055 214.625 57.7406 218.384 57.7406 218.384H59.1568L57.971 221.345L61.5283 217.492H59.998L60.7475 214.64Z" fill="white"/>
<path d="M64.6494 213.712C64.6189 213.693 64.5911 213.67 64.5666 213.645L64.3429 213.433C64.2214 213.314 64.0905 213.204 63.9513 213.103C63.771 212.955 63.5796 212.819 63.3786 212.697C62.8381 212.35 62.2453 212.081 61.6201 211.9C60.7947 211.656 59.9275 211.562 59.0651 211.625C57.7811 211.724 56.5532 212.165 55.5239 212.897C54.4946 213.629 53.7062 214.622 53.2503 215.761C53.1397 216.052 53.0507 216.351 52.9841 216.653C52.9147 216.962 52.8668 217.275 52.8409 217.59C52.8268 217.912 52.835 218.234 52.8655 218.554C52.9247 219.211 53.0962 219.853 53.3734 220.457C53.9383 221.721 54.9242 222.775 56.1812 223.46C56.7856 223.794 57.4428 224.034 58.1276 224.171C58.4604 224.238 58.7975 224.285 59.1367 224.31C59.4708 224.326 59.8058 224.32 60.139 224.291C60.7858 224.244 61.4208 224.102 62.0205 223.868C63.4769 223.324 64.6882 222.319 65.4476 221.025C66.207 219.731 66.4674 218.227 66.1842 216.772C66.0709 216.163 65.8604 215.573 65.5599 215.023C65.4568 214.82 65.3386 214.625 65.2065 214.437C65.1178 214.295 65.0175 214.159 64.9067 214.032L64.712 213.786C64.6873 213.76 64.6662 213.731 64.6494 213.7C64.6767 213.723 64.7022 213.748 64.7254 213.776L64.9335 214.01C65.0506 214.135 65.1562 214.27 65.249 214.412C65.3889 214.597 65.5131 214.792 65.6204 214.996C65.9338 215.547 66.1556 216.14 66.2781 216.755C66.4656 217.66 66.4461 218.593 66.2212 219.49C65.9962 220.388 65.5709 221.229 64.9738 221.959C64.2164 222.879 63.212 223.59 62.0653 224.018C61.4508 224.254 60.8006 224.397 60.139 224.441C59.7983 224.469 59.456 224.477 59.1143 224.462C58.766 224.437 58.42 224.39 58.0784 224.321C57.3754 224.181 56.7007 223.936 56.0805 223.593C54.7896 222.893 53.778 221.811 53.2011 220.515C52.9248 219.898 52.7541 219.243 52.6955 218.576C52.6653 218.247 52.6586 217.917 52.6754 217.588C52.7009 217.266 52.7495 216.946 52.8208 216.63C52.8908 216.32 52.9835 216.015 53.0982 215.717C53.2147 215.426 53.3523 215.144 53.5099 214.871C54.0992 213.85 54.9676 212.997 56.0246 212.401C56.8624 211.931 57.7966 211.635 58.7649 211.533C59.7332 211.431 60.7134 211.525 61.6402 211.809C62.2719 212.004 62.868 212.289 63.4077 212.655C63.6079 212.783 63.7978 212.924 63.9759 213.078C64.1132 213.183 64.2411 213.298 64.3585 213.423L64.5822 213.647C64.6063 213.667 64.6287 213.689 64.6494 213.712Z" fill="#0158A3"/>
<path d="M71.4418 218.984C71.4695 219.013 71.503 219.037 71.5405 219.055C71.5779 219.072 71.6187 219.082 71.6603 219.085C71.702 219.087 71.7437 219.082 71.7832 219.069C71.8227 219.056 71.8591 219.036 71.8904 219.01C71.9217 218.984 71.9473 218.952 71.9656 218.917C71.9839 218.881 71.9947 218.843 71.9973 218.803C71.9999 218.764 71.9943 218.725 71.9807 218.687C71.9672 218.65 71.946 218.616 71.9184 218.586C71.8626 218.526 71.784 218.49 71.6999 218.485C71.6158 218.48 71.533 218.507 71.4698 218.56C71.4066 218.612 71.3682 218.687 71.3629 218.766C71.3577 218.846 71.3861 218.924 71.4418 218.984Z" fill="white"/>
</svg>
