<svg width="402" height="328" viewBox="0 0 402 328" fill="none" xmlns="http://www.w3.org/2000/svg">
<g filter="url(#filter0_dd_2710_87123)">
<rect x="6" y="2" width="390" height="316" rx="8" fill="white"/>
<rect x="6.5" y="2.5" width="389" height="315" rx="7.5" stroke="#E8E9ED"/>
</g>
<path d="M34.4964 29.326H32.1058C32.0376 28.9339 31.9119 28.5866 31.7287 28.2841C31.5455 27.9773 31.3175 27.7173 31.0447 27.5043C30.772 27.2912 30.4609 27.1314 30.1115 27.0249C29.7663 26.9141 29.3935 26.8587 28.9929 26.8587C28.2813 26.8587 27.6506 27.0376 27.1009 27.3956C26.5511 27.7493 26.1207 28.2692 25.8097 28.9553C25.4986 29.6371 25.343 30.4702 25.343 31.4545C25.343 32.456 25.4986 33.2997 25.8097 33.9858C26.125 34.6676 26.5554 35.1832 27.1009 35.5327C27.6506 35.8778 28.2791 36.0504 28.9865 36.0504C29.3786 36.0504 29.745 35.9993 30.0859 35.897C30.4311 35.7905 30.7401 35.6349 31.0128 35.4304C31.2898 35.2259 31.522 34.9744 31.7095 34.6761C31.9013 34.3778 32.0334 34.0369 32.1058 33.6534L34.4964 33.6662C34.407 34.2884 34.2131 34.8722 33.9148 35.4176C33.6207 35.9631 33.2351 36.4446 32.7578 36.8622C32.2805 37.2756 31.7223 37.5994 31.0831 37.8338C30.4439 38.0639 29.7344 38.179 28.9545 38.179C27.804 38.179 26.777 37.9126 25.8736 37.38C24.9702 36.8473 24.2585 36.0781 23.7386 35.0724C23.2188 34.0668 22.9588 32.8608 22.9588 31.4545C22.9588 30.044 23.2209 28.8381 23.745 27.8366C24.2692 26.831 24.983 26.0618 25.8864 25.5291C26.7898 24.9964 27.8125 24.7301 28.9545 24.7301C29.6832 24.7301 30.3608 24.8324 30.9872 25.0369C31.6136 25.2415 32.1719 25.5419 32.6619 25.9382C33.152 26.3303 33.5547 26.8118 33.87 27.3828C34.1896 27.9496 34.3984 28.5973 34.4964 29.326ZM40.8485 38.1918C39.8897 38.1918 39.0588 37.9808 38.3556 37.5589C37.6525 37.1371 37.1071 36.5469 36.7193 35.7884C36.3358 35.0298 36.144 34.1435 36.144 33.1293C36.144 32.1151 36.3358 31.2266 36.7193 30.4638C37.1071 29.701 37.6525 29.1087 38.3556 28.6868C39.0588 28.2649 39.8897 28.054 40.8485 28.054C41.8074 28.054 42.6383 28.2649 43.3414 28.6868C44.0446 29.1087 44.5879 29.701 44.9714 30.4638C45.3592 31.2266 45.5531 32.1151 45.5531 33.1293C45.5531 34.1435 45.3592 35.0298 44.9714 35.7884C44.5879 36.5469 44.0446 37.1371 43.3414 37.5589C42.6383 37.9808 41.8074 38.1918 40.8485 38.1918ZM40.8613 36.3381C41.3812 36.3381 41.8159 36.1953 42.1653 35.9098C42.5147 35.62 42.7747 35.2322 42.9451 34.7464C43.1199 34.2607 43.2072 33.7195 43.2072 33.1229C43.2072 32.522 43.1199 31.9787 42.9451 31.4929C42.7747 31.0028 42.5147 30.6129 42.1653 30.3232C41.8159 30.0334 41.3812 29.8885 40.8613 29.8885C40.3287 29.8885 39.8855 30.0334 39.5318 30.3232C39.1824 30.6129 38.9203 31.0028 38.7456 31.4929C38.5751 31.9787 38.4899 32.522 38.4899 33.1229C38.4899 33.7195 38.5751 34.2607 38.7456 34.7464C38.9203 35.2322 39.1824 35.62 39.5318 35.9098C39.8855 36.1953 40.3287 36.3381 40.8613 36.3381ZM49.831 32.2472V38H47.517V28.1818H49.7287V29.8501H49.8438C50.0696 29.3004 50.4297 28.8636 50.924 28.5398C51.4226 28.2159 52.0384 28.054 52.7713 28.054C53.4489 28.054 54.0391 28.1989 54.5419 28.4886C55.049 28.7784 55.4411 29.1982 55.718 29.7479C55.9993 30.2976 56.1378 30.9645 56.1335 31.7486V38H53.8196V32.1065C53.8196 31.4503 53.6491 30.9368 53.3082 30.5661C52.9716 30.1953 52.505 30.0099 51.9084 30.0099C51.5036 30.0099 51.1435 30.0994 50.8281 30.2784C50.517 30.4531 50.272 30.7067 50.093 31.0391C49.9183 31.3714 49.831 31.7741 49.831 32.2472ZM66.2457 30.777L64.1364 31.0071C64.0767 30.794 63.9723 30.5938 63.8232 30.4062C63.6783 30.2188 63.4822 30.0675 63.2351 29.9524C62.9879 29.8374 62.6854 29.7798 62.3274 29.7798C61.8459 29.7798 61.4411 29.8842 61.1129 30.093C60.7891 30.3018 60.6293 30.5724 60.6335 30.9048C60.6293 31.1903 60.7337 31.4226 60.9467 31.6016C61.1641 31.7805 61.522 31.9276 62.0206 32.0426L63.6953 32.4006C64.6243 32.6009 65.3146 32.9183 65.7663 33.353C66.2223 33.7876 66.4524 34.3565 66.4567 35.0597C66.4524 35.6776 66.2713 36.223 65.9134 36.696C65.5597 37.1648 65.0675 37.5312 64.4368 37.7955C63.8061 38.0597 63.0817 38.1918 62.2635 38.1918C61.0618 38.1918 60.0945 37.9403 59.3615 37.4375C58.6286 36.9304 58.1918 36.2251 58.0511 35.3217L60.3075 35.1044C60.4098 35.5476 60.6271 35.8821 60.9595 36.108C61.2919 36.3338 61.7244 36.4467 62.2571 36.4467C62.8068 36.4467 63.2479 36.3338 63.5803 36.108C63.9169 35.8821 64.0852 35.603 64.0852 35.2706C64.0852 34.9893 63.9766 34.7571 63.7592 34.5739C63.5462 34.3906 63.2138 34.25 62.7621 34.152L61.0874 33.8004C60.1456 33.6044 59.4489 33.2741 58.9972 32.8097C58.5455 32.3409 58.3217 31.7486 58.326 31.0327C58.3217 30.4276 58.4858 29.9034 58.8182 29.4602C59.1548 29.0128 59.6214 28.6676 60.218 28.4247C60.8189 28.1776 61.5114 28.054 62.2955 28.054C63.446 28.054 64.3516 28.299 65.0121 28.7891C65.6768 29.2791 66.0881 29.9418 66.2457 30.777ZM74.6225 33.8707V28.1818H76.9364V38H74.6928V36.255H74.5906C74.369 36.8047 74.0046 37.2543 73.4975 37.6037C72.9947 37.9531 72.3746 38.1278 71.6374 38.1278C70.994 38.1278 70.4251 37.9851 69.9308 37.6996C69.4407 37.4098 69.0572 36.9901 68.7802 36.4403C68.5032 35.8864 68.3647 35.2173 68.3647 34.4332V28.1818H70.6786V34.0753C70.6786 34.6974 70.8491 35.1918 71.19 35.5582C71.5309 35.9247 71.9783 36.108 72.5323 36.108C72.8732 36.108 73.2035 36.0249 73.5231 35.8587C73.8427 35.6925 74.1048 35.4453 74.3093 35.1172C74.5181 34.7848 74.6225 34.3693 74.6225 33.8707ZM79.3159 38V28.1818H81.5275V29.8501H81.6426C81.8471 29.2876 82.1859 28.8487 82.6589 28.5334C83.1319 28.2138 83.6966 28.054 84.3528 28.054C85.0176 28.054 85.5779 28.2159 86.0339 28.5398C86.4941 28.8594 86.818 29.2962 87.0055 29.8501H87.1078C87.3251 29.3047 87.6916 28.87 88.2072 28.5462C88.7271 28.218 89.3429 28.054 90.0545 28.054C90.9579 28.054 91.6951 28.3395 92.2662 28.9105C92.8372 29.4815 93.1227 30.3146 93.1227 31.4098V38H90.8024V31.7678C90.8024 31.1584 90.6404 30.7131 90.3166 30.4318C89.9927 30.1463 89.5964 30.0036 89.1277 30.0036C88.5694 30.0036 88.1326 30.1783 87.8173 30.5277C87.5062 30.8729 87.3507 31.3224 87.3507 31.8764V38H85.0815V31.6719C85.0815 31.1648 84.9281 30.7599 84.6213 30.4574C84.3187 30.1548 83.9224 30.0036 83.4324 30.0036C83.1 30.0036 82.7974 30.0888 82.5247 30.2592C82.252 30.4254 82.0346 30.6619 81.8727 30.9688C81.7108 31.2713 81.6298 31.625 81.6298 32.0298V38H79.3159ZM99.7528 38.1918C98.794 38.1918 97.9631 37.9808 97.2599 37.5589C96.5568 37.1371 96.0114 36.5469 95.6236 35.7884C95.2401 35.0298 95.0483 34.1435 95.0483 33.1293C95.0483 32.1151 95.2401 31.2266 95.6236 30.4638C96.0114 29.701 96.5568 29.1087 97.2599 28.6868C97.9631 28.2649 98.794 28.054 99.7528 28.054C100.712 28.054 101.543 28.2649 102.246 28.6868C102.949 29.1087 103.492 29.701 103.876 30.4638C104.263 31.2266 104.457 32.1151 104.457 33.1293C104.457 34.1435 104.263 35.0298 103.876 35.7884C103.492 36.5469 102.949 37.1371 102.246 37.5589C101.543 37.9808 100.712 38.1918 99.7528 38.1918ZM99.7656 36.3381C100.286 36.3381 100.72 36.1953 101.07 35.9098C101.419 35.62 101.679 35.2322 101.849 34.7464C102.024 34.2607 102.112 33.7195 102.112 33.1229C102.112 32.522 102.024 31.9787 101.849 31.4929C101.679 31.0028 101.419 30.6129 101.07 30.3232C100.72 30.0334 100.286 29.8885 99.7656 29.8885C99.233 29.8885 98.7898 30.0334 98.4361 30.3232C98.0866 30.6129 97.8246 31.0028 97.6499 31.4929C97.4794 31.9787 97.3942 32.522 97.3942 33.1229C97.3942 33.7195 97.4794 34.2607 97.6499 34.7464C97.8246 35.2322 98.0866 35.62 98.4361 35.9098C98.7898 36.1953 99.233 36.3381 99.7656 36.3381ZM115.233 38.1918C114.248 38.1918 113.398 37.9872 112.682 37.5781C111.971 37.1648 111.423 36.581 111.04 35.8267C110.656 35.0682 110.464 34.1754 110.464 33.1484C110.464 32.1385 110.656 31.2521 111.04 30.4893C111.427 29.7223 111.969 29.1257 112.663 28.6996C113.358 28.2692 114.174 28.054 115.111 28.054C115.716 28.054 116.287 28.152 116.824 28.348C117.366 28.5398 117.843 28.8381 118.256 29.2429C118.674 29.6477 119.002 30.1634 119.241 30.7898C119.479 31.4119 119.599 32.1534 119.599 33.0142V33.7237H111.551V32.1641H117.381C117.376 31.7209 117.28 31.3267 117.093 30.9815C116.905 30.6321 116.643 30.3572 116.307 30.157C115.974 29.9567 115.586 29.8565 115.143 29.8565C114.67 29.8565 114.255 29.9716 113.897 30.2017C113.539 30.4276 113.26 30.7259 113.059 31.0966C112.863 31.4631 112.763 31.8658 112.759 32.3047V33.6662C112.759 34.2372 112.863 34.7273 113.072 35.1364C113.281 35.5412 113.573 35.8523 113.948 36.0696C114.323 36.2827 114.762 36.3892 115.265 36.3892C115.601 36.3892 115.906 36.3423 116.179 36.2486C116.452 36.1506 116.688 36.0078 116.888 35.8203C117.089 35.6328 117.24 35.4006 117.342 35.1236L119.503 35.3665C119.366 35.9375 119.106 36.4361 118.723 36.8622C118.344 37.2841 117.858 37.6122 117.265 37.8466C116.673 38.0767 115.996 38.1918 115.233 38.1918ZM123.87 32.2472V38H121.556V28.1818H123.768V29.8501H123.883C124.109 29.3004 124.469 28.8636 124.963 28.5398C125.462 28.2159 126.077 28.054 126.81 28.054C127.488 28.054 128.078 28.1989 128.581 28.4886C129.088 28.7784 129.48 29.1982 129.757 29.7479C130.038 30.2976 130.177 30.9645 130.173 31.7486V38H127.859V32.1065C127.859 31.4503 127.688 30.9368 127.347 30.5661C127.011 30.1953 126.544 30.0099 125.947 30.0099C125.543 30.0099 125.183 30.0994 124.867 30.2784C124.556 30.4531 124.311 30.7067 124.132 31.0391C123.957 31.3714 123.87 31.7741 123.87 32.2472ZM136.871 38.1918C135.887 38.1918 135.037 37.9872 134.321 37.5781C133.609 37.1648 133.062 36.581 132.678 35.8267C132.295 35.0682 132.103 34.1754 132.103 33.1484C132.103 32.1385 132.295 31.2521 132.678 30.4893C133.066 29.7223 133.607 29.1257 134.302 28.6996C134.996 28.2692 135.812 28.054 136.75 28.054C137.355 28.054 137.926 28.152 138.463 28.348C139.004 28.5398 139.482 28.8381 139.895 29.2429C140.313 29.6477 140.641 30.1634 140.879 30.7898C141.118 31.4119 141.237 32.1534 141.237 33.0142V33.7237H133.19V32.1641H139.019C139.015 31.7209 138.919 31.3267 138.732 30.9815C138.544 30.6321 138.282 30.3572 137.945 30.157C137.613 29.9567 137.225 29.8565 136.782 29.8565C136.309 29.8565 135.893 29.9716 135.536 30.2017C135.178 30.4276 134.898 30.7259 134.698 31.0966C134.502 31.4631 134.402 31.8658 134.398 32.3047V33.6662C134.398 34.2372 134.502 34.7273 134.711 35.1364C134.92 35.5412 135.212 35.8523 135.587 36.0696C135.962 36.2827 136.401 36.3892 136.903 36.3892C137.24 36.3892 137.545 36.3423 137.817 36.2486C138.09 36.1506 138.327 36.0078 138.527 35.8203C138.727 35.6328 138.879 35.4006 138.981 35.1236L141.141 35.3665C141.005 35.9375 140.745 36.4361 140.362 36.8622C139.982 37.2841 139.496 37.6122 138.904 37.8466C138.312 38.0767 137.634 38.1918 136.871 38.1918ZM143.195 38V28.1818H145.438V29.8182H145.541C145.72 29.2514 146.026 28.8146 146.461 28.5078C146.9 28.1967 147.401 28.0412 147.963 28.0412C148.091 28.0412 148.234 28.0476 148.392 28.0604C148.553 28.0689 148.688 28.0838 148.794 28.1051V30.2337C148.696 30.1996 148.541 30.1697 148.328 30.1442C148.119 30.1143 147.916 30.0994 147.72 30.0994C147.298 30.0994 146.919 30.1911 146.583 30.3743C146.25 30.5533 145.988 30.8026 145.796 31.1222C145.605 31.4418 145.509 31.8104 145.509 32.228V38H143.195ZM154.197 41.8864C153.366 41.8864 152.652 41.7734 152.056 41.5476C151.459 41.326 150.98 41.0277 150.618 40.6527C150.255 40.2777 150.004 39.8622 149.863 39.4062L151.947 38.9013C152.041 39.093 152.177 39.2827 152.356 39.4702C152.535 39.6619 152.776 39.8196 153.078 39.9432C153.385 40.071 153.771 40.1349 154.235 40.1349C154.892 40.1349 155.435 39.9751 155.865 39.6555C156.296 39.3402 156.511 38.8203 156.511 38.0959V36.2358H156.396C156.277 36.4744 156.102 36.7195 155.872 36.9709C155.646 37.2223 155.346 37.4332 154.971 37.6037C154.6 37.7741 154.133 37.8594 153.571 37.8594C152.816 37.8594 152.132 37.6825 151.519 37.3288C150.909 36.9709 150.424 36.4382 150.061 35.7308C149.703 35.0192 149.525 34.1286 149.525 33.0589C149.525 31.9808 149.703 31.071 150.061 30.3295C150.424 29.5838 150.912 29.0192 151.525 28.6357C152.139 28.2479 152.823 28.054 153.577 28.054C154.152 28.054 154.625 28.152 154.996 28.348C155.371 28.5398 155.669 28.772 155.891 29.0447C156.113 29.3132 156.281 29.5668 156.396 29.8054H156.524V28.1818H158.806V38.1598C158.806 38.9993 158.605 39.6939 158.205 40.2436C157.804 40.7933 157.257 41.2045 156.562 41.4773C155.868 41.75 155.079 41.8864 154.197 41.8864ZM154.216 36.044C154.706 36.044 155.124 35.9247 155.469 35.6861C155.814 35.4474 156.076 35.1044 156.255 34.657C156.434 34.2095 156.524 33.6726 156.524 33.0462C156.524 32.4283 156.434 31.8871 156.255 31.4226C156.081 30.9581 155.821 30.598 155.475 30.3423C155.135 30.0824 154.715 29.9524 154.216 29.9524C153.701 29.9524 153.27 30.0866 152.925 30.3551C152.58 30.6236 152.32 30.9922 152.145 31.4609C151.971 31.9254 151.883 32.4538 151.883 33.0462C151.883 33.647 151.971 34.1733 152.145 34.625C152.324 35.0724 152.586 35.4219 152.931 35.6733C153.281 35.9205 153.709 36.044 154.216 36.044ZM165.524 38.1918C164.539 38.1918 163.689 37.9872 162.973 37.5781C162.262 37.1648 161.714 36.581 161.331 35.8267C160.947 35.0682 160.755 34.1754 160.755 33.1484C160.755 32.1385 160.947 31.2521 161.331 30.4893C161.718 29.7223 162.26 29.1257 162.954 28.6996C163.649 28.2692 164.465 28.054 165.402 28.054C166.007 28.054 166.578 28.152 167.115 28.348C167.657 28.5398 168.134 28.8381 168.547 29.2429C168.965 29.6477 169.293 30.1634 169.532 30.7898C169.77 31.4119 169.89 32.1534 169.89 33.0142V33.7237H161.842V32.1641H167.672C167.667 31.7209 167.571 31.3267 167.384 30.9815C167.196 30.6321 166.934 30.3572 166.598 30.157C166.265 29.9567 165.877 29.8565 165.434 29.8565C164.961 29.8565 164.546 29.9716 164.188 30.2017C163.83 30.4276 163.551 30.7259 163.35 31.0966C163.154 31.4631 163.054 31.8658 163.05 32.3047V33.6662C163.05 34.2372 163.154 34.7273 163.363 35.1364C163.572 35.5412 163.864 35.8523 164.239 36.0696C164.614 36.2827 165.053 36.3892 165.556 36.3892C165.892 36.3892 166.197 36.3423 166.47 36.2486C166.743 36.1506 166.979 36.0078 167.179 35.8203C167.38 35.6328 167.531 35.4006 167.633 35.1236L169.794 35.3665C169.657 35.9375 169.397 36.4361 169.014 36.8622C168.635 37.2841 168.149 37.6122 167.556 37.8466C166.964 38.0767 166.287 38.1918 165.524 38.1918ZM164.45 26.8906L165.882 23.9695H168.145L166.182 26.8906H164.45ZM176.75 28.1818V29.9716H171.106V28.1818H176.75ZM172.499 25.8295H174.813V35.0469C174.813 35.358 174.86 35.5966 174.954 35.7628C175.052 35.9247 175.18 36.0355 175.337 36.0952C175.495 36.1548 175.67 36.1847 175.861 36.1847C176.006 36.1847 176.138 36.174 176.258 36.1527C176.381 36.1314 176.475 36.1122 176.539 36.0952L176.929 37.9041C176.805 37.9467 176.628 37.9936 176.398 38.0447C176.172 38.0959 175.895 38.1257 175.567 38.1342C174.988 38.1513 174.466 38.0639 174.001 37.8722C173.537 37.6761 173.168 37.3736 172.895 36.9645C172.627 36.5554 172.495 36.044 172.499 35.4304V25.8295ZM178.685 38V28.1818H180.999V38H178.685ZM179.848 26.7884C179.482 26.7884 179.167 26.6669 178.902 26.424C178.638 26.1768 178.506 25.8807 178.506 25.5355C178.506 25.1861 178.638 24.8899 178.902 24.647C179.167 24.3999 179.482 24.2763 179.848 24.2763C180.219 24.2763 180.534 24.3999 180.794 24.647C181.059 24.8899 181.191 25.1861 181.191 25.5355C181.191 25.8807 181.059 26.1768 180.794 26.424C180.534 26.6669 180.219 26.7884 179.848 26.7884ZM187.661 38.1918C186.681 38.1918 185.839 37.9766 185.136 37.5462C184.437 37.1158 183.898 36.5213 183.519 35.7628C183.144 35 182.956 34.1222 182.956 33.1293C182.956 32.1321 183.148 31.2521 183.532 30.4893C183.915 29.7223 184.456 29.1257 185.155 28.6996C185.858 28.2692 186.689 28.054 187.648 28.054C188.445 28.054 189.15 28.201 189.764 28.495C190.382 28.7848 190.874 29.196 191.241 29.7287C191.607 30.2571 191.816 30.875 191.867 31.5824H189.655C189.566 31.1094 189.353 30.7152 189.016 30.3999C188.684 30.0803 188.238 29.9205 187.68 29.9205C187.207 29.9205 186.792 30.0483 186.434 30.304C186.076 30.5554 185.797 30.9176 185.596 31.3906C185.4 31.8636 185.302 32.4304 185.302 33.0909C185.302 33.7599 185.4 34.3352 185.596 34.8168C185.792 35.294 186.067 35.6626 186.421 35.9226C186.779 36.1783 187.199 36.3061 187.68 36.3061C188.021 36.3061 188.326 36.2422 188.594 36.1143C188.867 35.9822 189.095 35.7926 189.278 35.5455C189.461 35.2983 189.587 34.9979 189.655 34.6442H191.867C191.812 35.3388 191.607 35.9545 191.253 36.4915C190.9 37.0241 190.418 37.4418 189.809 37.7443C189.199 38.0426 188.483 38.1918 187.661 38.1918ZM198.05 38.1918C197.091 38.1918 196.26 37.9808 195.557 37.5589C194.854 37.1371 194.308 36.5469 193.92 35.7884C193.537 35.0298 193.345 34.1435 193.345 33.1293C193.345 32.1151 193.537 31.2266 193.92 30.4638C194.308 29.701 194.854 29.1087 195.557 28.6868C196.26 28.2649 197.091 28.054 198.05 28.054C199.009 28.054 199.839 28.2649 200.543 28.6868C201.246 29.1087 201.789 29.701 202.173 30.4638C202.56 31.2266 202.754 32.1151 202.754 33.1293C202.754 34.1435 202.56 35.0298 202.173 35.7884C201.789 36.5469 201.246 37.1371 200.543 37.5589C199.839 37.9808 199.009 38.1918 198.05 38.1918ZM198.062 36.3381C198.582 36.3381 199.017 36.1953 199.366 35.9098C199.716 35.62 199.976 35.2322 200.146 34.7464C200.321 34.2607 200.408 33.7195 200.408 33.1229C200.408 32.522 200.321 31.9787 200.146 31.4929C199.976 31.0028 199.716 30.6129 199.366 30.3232C199.017 30.0334 198.582 29.8885 198.062 29.8885C197.53 29.8885 197.087 30.0334 196.733 30.3232C196.384 30.6129 196.121 31.0028 195.947 31.4929C195.776 31.9787 195.691 32.522 195.691 33.1229C195.691 33.7195 195.776 34.2607 195.947 34.7464C196.121 35.2322 196.384 35.62 196.733 35.9098C197.087 36.1953 197.53 36.3381 198.062 36.3381ZM209.758 32.6626C209.758 31.0646 209.969 29.5966 210.391 28.2585C210.817 26.9162 211.45 25.6761 212.29 24.5384H214.469C214.145 24.9602 213.843 25.478 213.562 26.0916C213.28 26.701 213.035 27.37 212.827 28.0987C212.622 28.8232 212.46 29.5753 212.341 30.3551C212.226 31.1349 212.168 31.9041 212.168 32.6626C212.168 33.6726 212.268 34.6953 212.469 35.7308C212.673 36.7663 212.948 37.7251 213.293 38.6072C213.643 39.4936 214.035 40.218 214.469 40.7805H212.29C211.45 39.6428 210.817 38.4048 210.391 37.0668C209.969 35.7244 209.758 34.2564 209.758 32.6626ZM218.376 34.919L218.37 32.1257H218.741L222.269 28.1818H224.973L220.633 33.0142H220.153L218.376 34.919ZM216.267 38V24.9091H218.581V38H216.267ZM222.429 38L219.233 33.532L220.793 31.902L225.197 38H222.429ZM229.372 38L225.678 24.9091H228.228L230.587 34.5291H230.708L233.227 24.9091H235.547L238.072 34.5355H238.187L240.546 24.9091H243.096L239.401 38H237.062L234.441 28.8146H234.339L231.712 38H229.372ZM246.952 32.2472V38H244.638V24.9091H246.901V29.8501H247.016C247.246 29.2962 247.602 28.8594 248.083 28.5398C248.569 28.2159 249.187 28.054 249.937 28.054C250.619 28.054 251.213 28.1967 251.721 28.4822C252.228 28.7678 252.62 29.1854 252.897 29.7351C253.178 30.2848 253.319 30.956 253.319 31.7486V38H251.005V32.1065C251.005 31.446 250.834 30.9325 250.493 30.5661C250.157 30.1953 249.684 30.0099 249.074 30.0099C248.665 30.0099 248.299 30.0994 247.975 30.2784C247.655 30.4531 247.404 30.7067 247.221 31.0391C247.042 31.3714 246.952 31.7741 246.952 32.2472ZM259.806 32.6626C259.806 34.2564 259.593 35.7244 259.167 37.0668C258.745 38.4048 258.115 39.6428 257.275 40.7805H255.096C255.424 40.3587 255.726 39.843 256.003 39.2337C256.284 38.6243 256.527 37.9553 256.732 37.2266C256.941 36.4979 257.103 35.7436 257.218 34.9638C257.337 34.1839 257.397 33.4169 257.397 32.6626C257.397 31.6527 257.294 30.63 257.09 29.5945C256.89 28.5589 256.615 27.598 256.265 26.7116C255.92 25.8253 255.53 25.1009 255.096 24.5384H257.275C258.115 25.6761 258.745 26.9162 259.167 28.2585C259.593 29.5966 259.806 31.0646 259.806 32.6626Z" fill="#25272C"/>
<circle cx="29" cy="67" r="7" fill="white"/>
<circle cx="29" cy="67" r="6.5" stroke="#93CFE2" stroke-opacity="0.25"/>
<circle cx="29" cy="67" r="4" fill="#01D4AD"/>
<path d="M47.1186 72V61.8182H53.4325V63.1406H48.6548V66.2429H52.9801V67.5604H48.6548V72H47.1186ZM57.3974 72.169C56.9135 72.169 56.476 72.0795 56.0849 71.9006C55.6938 71.7183 55.3839 71.4548 55.1552 71.1101C54.9298 70.7654 54.8171 70.3428 54.8171 69.8423C54.8171 69.4115 54.9 69.0568 55.0657 68.7784C55.2314 68.5 55.4551 68.2796 55.7369 68.1172C56.0186 67.9548 56.3335 67.8321 56.6815 67.7493C57.0295 67.6664 57.3841 67.6035 57.7454 67.5604C58.2028 67.5073 58.574 67.4643 58.859 67.4311C59.1441 67.3946 59.3512 67.3366 59.4805 67.2571C59.6097 67.1776 59.6744 67.0483 59.6744 66.8693V66.8345C59.6744 66.4003 59.5517 66.0639 59.3065 65.8253C59.0645 65.5866 58.7032 65.4673 58.2227 65.4673C57.7222 65.4673 57.3278 65.5784 57.0394 65.8004C56.7544 66.0192 56.5572 66.2628 56.4478 66.5312L55.0508 66.2131C55.2165 65.7491 55.4585 65.3745 55.7766 65.0895C56.0981 64.8011 56.4677 64.5923 56.8853 64.4631C57.3029 64.3305 57.7421 64.2642 58.2028 64.2642C58.5077 64.2642 58.8308 64.3007 59.1722 64.3736C59.5169 64.4432 59.8384 64.5724 60.1367 64.7614C60.4383 64.9503 60.6853 65.2204 60.8775 65.5717C61.0697 65.9197 61.1658 66.3722 61.1658 66.929V72H59.7141V70.956H59.6545C59.5584 71.1482 59.4142 71.3371 59.2219 71.5227C59.0297 71.7083 58.7828 71.8625 58.4812 71.9851C58.1796 72.1077 57.8183 72.169 57.3974 72.169ZM57.7205 70.9759C58.1315 70.9759 58.4828 70.8946 58.7745 70.7322C59.0695 70.5698 59.2932 70.3577 59.4457 70.0959C59.6014 69.8307 59.6793 69.5473 59.6793 69.2457V68.2614C59.6263 68.3144 59.5236 68.3641 59.3711 68.4105C59.2219 68.4536 59.0513 68.4917 58.859 68.5249C58.6668 68.5547 58.4795 68.5829 58.2972 68.6094C58.1149 68.6326 57.9625 68.6525 57.8398 68.669C57.5515 68.7055 57.288 68.7668 57.0494 68.853C56.814 68.9392 56.6251 69.0634 56.4826 69.2259C56.3434 69.3849 56.2738 69.5971 56.2738 69.8622C56.2738 70.2301 56.4097 70.5085 56.6815 70.6974C56.9532 70.883 57.2996 70.9759 57.7205 70.9759ZM66.3624 72.1541C65.6233 72.1541 64.9869 71.9867 64.4533 71.652C63.923 71.3139 63.5153 70.8482 63.2303 70.255C62.9453 69.6617 62.8027 68.9822 62.8027 68.2166C62.8027 67.4411 62.9486 66.7566 63.2402 66.1634C63.5319 65.5668 63.9429 65.1011 64.4732 64.7663C65.0035 64.4316 65.6283 64.2642 66.3475 64.2642C66.9275 64.2642 67.4445 64.3719 67.8986 64.5874C68.3527 64.7995 68.7189 65.0978 68.9973 65.4822C69.2791 65.8667 69.4464 66.3158 69.4995 66.8295H68.0527C67.9732 66.4716 67.7909 66.1634 67.5059 65.9048C67.2241 65.6463 66.8463 65.517 66.3723 65.517C65.958 65.517 65.5951 65.6264 65.2836 65.8452C64.9753 66.0606 64.735 66.3688 64.5627 66.7699C64.3903 67.1676 64.3042 67.6383 64.3042 68.1818C64.3042 68.7386 64.3887 69.2192 64.5577 69.6236C64.7267 70.0279 64.9654 70.3411 65.2736 70.5632C65.5852 70.7853 65.9514 70.8963 66.3723 70.8963C66.6541 70.8963 66.9093 70.8449 67.138 70.7422C67.37 70.6361 67.5639 70.4853 67.7196 70.2898C67.8787 70.0942 67.9898 69.8589 68.0527 69.5838H69.4995C69.4464 70.0777 69.2857 70.5185 69.0172 70.9062C68.7488 71.294 68.3891 71.599 67.9384 71.821C67.4909 72.0431 66.9656 72.1541 66.3624 72.1541ZM74.6538 64.3636V65.5568H70.4826V64.3636H74.6538ZM71.6012 62.5341H73.0877V69.7578C73.0877 70.0462 73.1308 70.2633 73.217 70.4091C73.3031 70.5516 73.4142 70.6494 73.5501 70.7024C73.6893 70.7521 73.8401 70.777 74.0025 70.777C74.1218 70.777 74.2262 70.7687 74.3157 70.7521C74.4052 70.7356 74.4748 70.7223 74.5245 70.7124L74.793 71.9403C74.7068 71.9735 74.5842 72.0066 74.4251 72.0398C74.266 72.0762 74.0671 72.0961 73.8285 72.0994C73.4374 72.1061 73.0728 72.0365 72.7347 71.8906C72.3967 71.7448 72.1232 71.5194 71.9144 71.2145C71.7056 70.9096 71.6012 70.5268 71.6012 70.0661V62.5341ZM81.1355 68.8331V64.3636H82.627V72H81.1653V70.6776H81.0858C80.9101 71.0852 80.6284 71.425 80.2406 71.6967C79.8561 71.9652 79.3772 72.0994 78.8038 72.0994C78.3133 72.0994 77.8791 71.9917 77.5012 71.7763C77.1267 71.5575 76.8317 71.2344 76.6163 70.8068C76.4042 70.3793 76.2981 69.8506 76.2981 69.2209V64.3636H77.7846V69.0419C77.7846 69.5623 77.9288 69.9766 78.2172 70.2848C78.5055 70.593 78.88 70.7472 79.3407 70.7472C79.6191 70.7472 79.8959 70.6776 80.171 70.5384C80.4494 70.3991 80.6797 70.1887 80.862 69.907C81.0476 69.6252 81.1388 69.2673 81.1355 68.8331ZM84.6243 72V64.3636H86.0611V65.5767H86.1406C86.2798 65.1657 86.5251 64.8426 86.8764 64.6072C87.2311 64.3686 87.6321 64.2493 88.0795 64.2493C88.1723 64.2493 88.2817 64.2526 88.4077 64.2592C88.5369 64.2659 88.638 64.2741 88.7109 64.2841V65.706C88.6513 65.6894 88.5452 65.6712 88.3928 65.6513C88.2403 65.6281 88.0878 65.6165 87.9354 65.6165C87.584 65.6165 87.2708 65.6911 86.9957 65.8402C86.724 65.986 86.5085 66.1899 86.3494 66.4517C86.1903 66.7102 86.1108 67.0052 86.1108 67.3366V72H84.6243ZM92.1513 72.169C91.6674 72.169 91.2299 72.0795 90.8388 71.9006C90.4477 71.7183 90.1378 71.4548 89.9091 71.1101C89.6837 70.7654 89.571 70.3428 89.571 69.8423C89.571 69.4115 89.6539 69.0568 89.8196 68.7784C89.9853 68.5 90.209 68.2796 90.4908 68.1172C90.7725 67.9548 91.0874 67.8321 91.4354 67.7493C91.7834 67.6664 92.138 67.6035 92.4993 67.5604C92.9567 67.5073 93.3279 67.4643 93.6129 67.4311C93.898 67.3946 94.1051 67.3366 94.2344 67.2571C94.3636 67.1776 94.4283 67.0483 94.4283 66.8693V66.8345C94.4283 66.4003 94.3056 66.0639 94.0604 65.8253C93.8184 65.5866 93.4571 65.4673 92.9766 65.4673C92.4761 65.4673 92.0817 65.5784 91.7933 65.8004C91.5083 66.0192 91.3111 66.2628 91.2017 66.5312L89.8047 66.2131C89.9704 65.7491 90.2124 65.3745 90.5305 65.0895C90.852 64.8011 91.2216 64.5923 91.6392 64.4631C92.0568 64.3305 92.496 64.2642 92.9567 64.2642C93.2616 64.2642 93.5848 64.3007 93.9261 64.3736C94.2708 64.4432 94.5923 64.5724 94.8906 64.7614C95.1922 64.9503 95.4392 65.2204 95.6314 65.5717C95.8236 65.9197 95.9197 66.3722 95.9197 66.929V72H94.468V70.956H94.4084C94.3123 71.1482 94.1681 71.3371 93.9759 71.5227C93.7836 71.7083 93.5367 71.8625 93.2351 71.9851C92.9335 72.1077 92.5722 72.169 92.1513 72.169ZM92.4744 70.9759C92.8854 70.9759 93.2367 70.8946 93.5284 70.7322C93.8234 70.5698 94.0471 70.3577 94.1996 70.0959C94.3554 69.8307 94.4332 69.5473 94.4332 69.2457V68.2614C94.3802 68.3144 94.2775 68.3641 94.125 68.4105C93.9759 68.4536 93.8052 68.4917 93.6129 68.5249C93.4207 68.5547 93.2334 68.5829 93.0511 68.6094C92.8688 68.6326 92.7164 68.6525 92.5938 68.669C92.3054 68.7055 92.0419 68.7668 91.8033 68.853C91.5679 68.9392 91.379 69.0634 91.2365 69.2259C91.0973 69.3849 91.0277 69.5971 91.0277 69.8622C91.0277 70.2301 91.1636 70.5085 91.4354 70.6974C91.7071 70.883 92.0535 70.9759 92.4744 70.9759ZM103.622 66.228L102.275 66.4666C102.218 66.2943 102.129 66.1302 102.006 65.9744C101.887 65.8187 101.724 65.6911 101.519 65.5916C101.314 65.4922 101.057 65.4425 100.748 65.4425C100.327 65.4425 99.9761 65.5369 99.6944 65.7259C99.4127 65.9115 99.2718 66.1518 99.2718 66.4467C99.2718 66.7019 99.3663 66.9074 99.5552 67.0632C99.7441 67.219 100.049 67.3466 100.47 67.446L101.683 67.7244C102.386 67.8868 102.909 68.1371 103.254 68.4751C103.599 68.8132 103.771 69.2524 103.771 69.7926C103.771 70.25 103.639 70.6577 103.373 71.0156C103.112 71.3703 102.745 71.6487 102.275 71.8509C101.807 72.053 101.265 72.1541 100.649 72.1541C99.7939 72.1541 99.0962 71.9718 98.5559 71.6072C98.0157 71.2393 97.6842 70.7173 97.5616 70.0412L98.9984 69.8224C99.0879 70.197 99.2718 70.4804 99.5502 70.6726C99.8287 70.8615 100.192 70.956 100.639 70.956C101.126 70.956 101.516 70.8549 101.807 70.6527C102.099 70.4472 102.245 70.197 102.245 69.902C102.245 69.6634 102.155 69.4628 101.976 69.3004C101.801 69.138 101.531 69.0154 101.166 68.9325L99.8734 68.6491C99.1608 68.4867 98.6338 68.2282 98.2924 67.8736C97.9544 67.5189 97.7853 67.0698 97.7853 66.5263C97.7853 66.0755 97.9113 65.6811 98.1632 65.343C98.4151 65.005 98.7631 64.7415 99.2072 64.5526C99.6513 64.3603 100.16 64.2642 100.733 64.2642C101.559 64.2642 102.208 64.4432 102.682 64.8011C103.156 65.1558 103.47 65.6314 103.622 66.228Z" fill="#25272C"/>
<circle cx="134" cy="67" r="7" fill="white"/>
<circle cx="134" cy="67" r="6.5" stroke="#0158A3" stroke-opacity="0.25"/>
<circle cx="134" cy="67" r="4" fill="#0158A3"/>
<path d="M152.119 61.8182H153.983L157.224 69.733H157.344L160.585 61.8182H162.45V72H160.988V64.6321H160.893L157.891 71.9851H156.678L153.675 64.6271H153.58V72H152.119V61.8182ZM167.855 72.1541C167.103 72.1541 166.455 71.9934 165.911 71.6719C165.371 71.3471 164.953 70.8913 164.658 70.3047C164.367 69.7147 164.221 69.0237 164.221 68.2315C164.221 67.4493 164.367 66.7599 164.658 66.1634C164.953 65.5668 165.364 65.1011 165.891 64.7663C166.421 64.4316 167.041 64.2642 167.751 64.2642C168.181 64.2642 168.599 64.3355 169.003 64.478C169.408 64.6205 169.771 64.8442 170.092 65.1491C170.414 65.4541 170.667 65.8501 170.853 66.3374C171.038 66.8213 171.131 67.4096 171.131 68.1023V68.6293H165.061V67.5156H169.675C169.675 67.1245 169.595 66.7782 169.436 66.4766C169.277 66.1716 169.053 65.9313 168.765 65.7557C168.48 65.58 168.145 65.4922 167.76 65.4922C167.343 65.4922 166.978 65.5949 166.667 65.8004C166.358 66.0026 166.12 66.2678 165.951 66.5959C165.785 66.9207 165.702 67.2737 165.702 67.6548V68.5249C165.702 69.0353 165.792 69.4695 165.971 69.8274C166.153 70.1854 166.407 70.4588 166.731 70.6477C167.056 70.8333 167.436 70.9261 167.87 70.9261C168.152 70.9261 168.408 70.8864 168.64 70.8068C168.872 70.724 169.073 70.6013 169.242 70.4389C169.411 70.2765 169.54 70.076 169.63 69.8374L171.037 70.0909C170.924 70.5052 170.722 70.8681 170.43 71.1797C170.142 71.4879 169.779 71.7282 169.341 71.9006C168.907 72.0696 168.412 72.1541 167.855 72.1541ZM175.639 72.1491C175.023 72.1491 174.473 71.9917 173.989 71.6768C173.508 71.3587 173.13 70.9062 172.855 70.3196C172.583 69.7296 172.447 69.022 172.447 68.1967C172.447 67.3714 172.585 66.6655 172.86 66.0788C173.138 65.4922 173.52 65.0431 174.004 64.7315C174.487 64.42 175.036 64.2642 175.649 64.2642C176.123 64.2642 176.504 64.3438 176.793 64.5028C177.084 64.6586 177.31 64.8409 177.469 65.0497C177.631 65.2585 177.757 65.4425 177.847 65.6016H177.936V61.8182H179.423V72H177.971V70.8118H177.847C177.757 70.9742 177.628 71.1598 177.459 71.3686C177.293 71.5774 177.064 71.7597 176.773 71.9155C176.481 72.0713 176.103 72.1491 175.639 72.1491ZM175.967 70.8814C176.395 70.8814 176.756 70.7687 177.051 70.5433C177.349 70.3146 177.575 69.9981 177.727 69.5938C177.883 69.1894 177.961 68.7187 177.961 68.1818C177.961 67.6515 177.885 67.1875 177.732 66.7898C177.58 66.392 177.356 66.0821 177.061 65.8601C176.766 65.638 176.402 65.527 175.967 65.527C175.52 65.527 175.147 65.643 174.849 65.875C174.55 66.107 174.325 66.4235 174.173 66.8246C174.023 67.2256 173.949 67.678 173.949 68.1818C173.949 68.6922 174.025 69.1513 174.178 69.5589C174.33 69.9666 174.555 70.2898 174.854 70.5284C175.155 70.7637 175.527 70.8814 175.967 70.8814ZM181.544 72V64.3636H183.031V72H181.544ZM182.295 63.1854C182.036 63.1854 181.814 63.0992 181.629 62.9268C181.446 62.7512 181.355 62.5424 181.355 62.3004C181.355 62.0552 181.446 61.8464 181.629 61.674C181.814 61.4983 182.036 61.4105 182.295 61.4105C182.553 61.4105 182.774 61.4983 182.956 61.674C183.142 61.8464 183.235 62.0552 183.235 62.3004C183.235 62.5424 183.142 62.7512 182.956 62.9268C182.774 63.0992 182.553 63.1854 182.295 63.1854ZM188.247 72.1541C187.508 72.1541 186.872 71.9867 186.338 71.652C185.808 71.3139 185.4 70.8482 185.115 70.255C184.83 69.6617 184.688 68.9822 184.688 68.2166C184.688 67.4411 184.833 66.7566 185.125 66.1634C185.417 65.5668 185.828 65.1011 186.358 64.7663C186.888 64.4316 187.513 64.2642 188.232 64.2642C188.812 64.2642 189.329 64.3719 189.783 64.5874C190.237 64.7995 190.604 65.0978 190.882 65.4822C191.164 65.8667 191.331 66.3158 191.384 66.8295H189.938C189.858 66.4716 189.676 66.1634 189.391 65.9048C189.109 65.6463 188.731 65.517 188.257 65.517C187.843 65.517 187.48 65.6264 187.168 65.8452C186.86 66.0606 186.62 66.3688 186.447 66.7699C186.275 67.1676 186.189 67.6383 186.189 68.1818C186.189 68.7386 186.273 69.2192 186.442 69.6236C186.612 70.0279 186.85 70.3411 187.158 70.5632C187.47 70.7853 187.836 70.8963 188.257 70.8963C188.539 70.8963 188.794 70.8449 189.023 70.7422C189.255 70.6361 189.449 70.4853 189.604 70.2898C189.763 70.0942 189.875 69.8589 189.938 69.5838H191.384C191.331 70.0777 191.17 70.5185 190.902 70.9062C190.634 71.294 190.274 71.599 189.823 71.821C189.376 72.0431 188.85 72.1541 188.247 72.1541ZM192.974 72V64.3636H194.46V72H192.974ZM193.725 63.1854C193.466 63.1854 193.244 63.0992 193.058 62.9268C192.876 62.7512 192.785 62.5424 192.785 62.3004C192.785 62.0552 192.876 61.8464 193.058 61.674C193.244 61.4983 193.466 61.4105 193.725 61.4105C193.983 61.4105 194.204 61.4983 194.386 61.674C194.571 61.8464 194.664 62.0552 194.664 62.3004C194.664 62.5424 194.571 62.7512 194.386 62.9268C194.204 63.0992 193.983 63.1854 193.725 63.1854ZM199.677 72.1541C198.961 72.1541 198.336 71.9901 197.803 71.6619C197.269 71.3338 196.855 70.8748 196.56 70.2848C196.265 69.6948 196.117 69.0054 196.117 68.2166C196.117 67.4245 196.265 66.7318 196.56 66.1385C196.855 65.5452 197.269 65.0845 197.803 64.7564C198.336 64.4283 198.961 64.2642 199.677 64.2642C200.393 64.2642 201.018 64.4283 201.551 64.7564C202.085 65.0845 202.499 65.5452 202.794 66.1385C203.089 66.7318 203.237 67.4245 203.237 68.2166C203.237 69.0054 203.089 69.6948 202.794 70.2848C202.499 70.8748 202.085 71.3338 201.551 71.6619C201.018 71.9901 200.393 72.1541 199.677 72.1541ZM199.682 70.9062C200.146 70.9062 200.53 70.7836 200.835 70.5384C201.14 70.2931 201.366 69.9666 201.511 69.5589C201.661 69.1513 201.735 68.7022 201.735 68.2116C201.735 67.7244 201.661 67.277 201.511 66.8693C201.366 66.4583 201.14 66.1286 200.835 65.88C200.53 65.6314 200.146 65.5071 199.682 65.5071C199.214 65.5071 198.827 65.6314 198.518 65.88C198.214 66.1286 197.987 66.4583 197.837 66.8693C197.692 67.277 197.619 67.7244 197.619 68.2116C197.619 68.7022 197.692 69.1513 197.837 69.5589C197.987 69.9666 198.214 70.2931 198.518 70.5384C198.827 70.7836 199.214 70.9062 199.682 70.9062ZM206.382 67.4659V72H204.896V64.3636H206.323V65.6065H206.417C206.593 65.2022 206.868 64.8774 207.242 64.6321C207.62 64.3868 208.096 64.2642 208.669 64.2642C209.19 64.2642 209.645 64.3736 210.036 64.5923C210.427 64.8078 210.731 65.1293 210.946 65.5568C211.162 65.9844 211.269 66.513 211.269 67.1428V72H209.783V67.3217C209.783 66.7682 209.639 66.3357 209.35 66.0241C209.062 65.7093 208.666 65.5518 208.162 65.5518C207.817 65.5518 207.511 65.6264 207.242 65.7756C206.977 65.9247 206.767 66.1435 206.611 66.4318C206.459 66.7169 206.382 67.0616 206.382 67.4659ZM216.554 72.1541C215.802 72.1541 215.154 71.9934 214.61 71.6719C214.07 71.3471 213.652 70.8913 213.357 70.3047C213.066 69.7147 212.92 69.0237 212.92 68.2315C212.92 67.4493 213.066 66.7599 213.357 66.1634C213.652 65.5668 214.063 65.1011 214.59 64.7663C215.121 64.4316 215.74 64.2642 216.45 64.2642C216.881 64.2642 217.298 64.3355 217.703 64.478C218.107 64.6205 218.47 64.8442 218.791 65.1491C219.113 65.4541 219.366 65.8501 219.552 66.3374C219.738 66.8213 219.83 67.4096 219.83 68.1023V68.6293H213.76V67.5156H218.374C218.374 67.1245 218.294 66.7782 218.135 66.4766C217.976 66.1716 217.752 65.9313 217.464 65.7557C217.179 65.58 216.844 65.4922 216.46 65.4922C216.042 65.4922 215.677 65.5949 215.366 65.8004C215.058 66.0026 214.819 66.2678 214.65 66.5959C214.484 66.9207 214.401 67.2737 214.401 67.6548V68.5249C214.401 69.0353 214.491 69.4695 214.67 69.8274C214.852 70.1854 215.106 70.4588 215.431 70.6477C215.755 70.8333 216.135 70.9261 216.569 70.9261C216.851 70.9261 217.108 70.8864 217.34 70.8068C217.572 70.724 217.772 70.6013 217.941 70.4389C218.11 70.2765 218.24 70.076 218.329 69.8374L219.736 70.0909C219.623 70.5052 219.421 70.8681 219.129 71.1797C218.841 71.4879 218.478 71.7282 218.041 71.9006C217.606 72.0696 217.111 72.1541 216.554 72.1541ZM227.202 66.228L225.855 66.4666C225.798 66.2943 225.709 66.1302 225.586 65.9744C225.467 65.8187 225.305 65.6911 225.099 65.5916C224.894 65.4922 224.637 65.4425 224.328 65.4425C223.908 65.4425 223.556 65.5369 223.275 65.7259C222.993 65.9115 222.852 66.1518 222.852 66.4467C222.852 66.7019 222.946 66.9074 223.135 67.0632C223.324 67.219 223.629 67.3466 224.05 67.446L225.263 67.7244C225.966 67.8868 226.489 68.1371 226.834 68.4751C227.179 68.8132 227.351 69.2524 227.351 69.7926C227.351 70.25 227.219 70.6577 226.953 71.0156C226.692 71.3703 226.325 71.6487 225.855 71.8509C225.387 72.053 224.846 72.1541 224.229 72.1541C223.374 72.1541 222.676 71.9718 222.136 71.6072C221.596 71.2393 221.264 70.7173 221.142 70.0412L222.578 69.8224C222.668 70.197 222.852 70.4804 223.13 70.6726C223.409 70.8615 223.772 70.956 224.219 70.956C224.706 70.956 225.096 70.8549 225.387 70.6527C225.679 70.4472 225.825 70.197 225.825 69.902C225.825 69.6634 225.735 69.4628 225.556 69.3004C225.381 69.138 225.111 69.0154 224.746 68.9325L223.453 68.6491C222.741 68.4867 222.214 68.2282 221.873 67.8736C221.534 67.5189 221.365 67.0698 221.365 66.5263C221.365 66.0755 221.491 65.6811 221.743 65.343C221.995 65.005 222.343 64.7415 222.787 64.5526C223.231 64.3603 223.74 64.2642 224.314 64.2642C225.139 64.2642 225.788 64.4432 226.262 64.8011C226.736 65.1558 227.05 65.6314 227.202 66.228Z" fill="#25272C"/>
<path d="M22.8153 99.9119V98.8977L27.2898 91.8182H28.0256V93.3892H27.5284L24.1477 98.7386V98.8182H30.1733V99.9119H22.8153ZM27.608 102V99.6037V99.1314V91.8182H28.7812V102H27.608ZM35.3574 102.139C34.6084 102.139 33.9703 101.935 33.4434 101.528C32.9164 101.117 32.5137 100.522 32.2353 99.7429C31.9569 98.9607 31.8176 98.0161 31.8176 96.9091C31.8176 95.8087 31.9569 94.8691 32.2353 94.0902C32.517 93.308 32.9213 92.7114 33.4483 92.3004C33.9786 91.8861 34.615 91.679 35.3574 91.679C36.0998 91.679 36.7346 91.8861 37.2615 92.3004C37.7918 92.7114 38.1962 93.308 38.4746 94.0902C38.7563 94.8691 38.8972 95.8087 38.8972 96.9091C38.8972 98.0161 38.758 98.9607 38.4796 99.7429C38.2012 100.522 37.7985 101.117 37.2715 101.528C36.7445 101.935 36.1065 102.139 35.3574 102.139ZM35.3574 101.045C36.0998 101.045 36.6766 100.687 37.0875 99.9716C37.4985 99.2557 37.704 98.2348 37.704 96.9091C37.704 96.0275 37.6096 95.2768 37.4206 94.657C37.235 94.0372 36.9666 93.5649 36.6152 93.2401C36.2672 92.9152 35.848 92.7528 35.3574 92.7528C34.6216 92.7528 34.0466 93.1158 33.6323 93.8416C33.218 94.5642 33.0108 95.5866 33.0108 96.9091C33.0108 97.7907 33.1036 98.5398 33.2892 99.1562C33.4748 99.7727 33.7417 100.242 34.0897 100.563C34.441 100.885 34.8636 101.045 35.3574 101.045ZM44.1074 102.139C43.3584 102.139 42.7203 101.935 42.1934 101.528C41.6664 101.117 41.2637 100.522 40.9853 99.7429C40.7069 98.9607 40.5676 98.0161 40.5676 96.9091C40.5676 95.8087 40.7069 94.8691 40.9853 94.0902C41.267 93.308 41.6713 92.7114 42.1983 92.3004C42.7286 91.8861 43.365 91.679 44.1074 91.679C44.8498 91.679 45.4846 91.8861 46.0115 92.3004C46.5418 92.7114 46.9462 93.308 47.2246 94.0902C47.5063 94.8691 47.6472 95.8087 47.6472 96.9091C47.6472 98.0161 47.508 98.9607 47.2296 99.7429C46.9512 100.522 46.5485 101.117 46.0215 101.528C45.4945 101.935 44.8565 102.139 44.1074 102.139ZM44.1074 101.045C44.8498 101.045 45.4266 100.687 45.8375 99.9716C46.2485 99.2557 46.454 98.2348 46.454 96.9091C46.454 96.0275 46.3596 95.2768 46.1706 94.657C45.985 94.0372 45.7166 93.5649 45.3652 93.2401C45.0172 92.9152 44.598 92.7528 44.1074 92.7528C43.3716 92.7528 42.7966 93.1158 42.3823 93.8416C41.968 94.5642 41.7608 95.5866 41.7608 96.9091C41.7608 97.7907 41.8536 98.5398 42.0392 99.1562C42.2248 99.7727 42.4917 100.242 42.8397 100.563C43.191 100.885 43.6136 101.045 44.1074 101.045Z" fill="#5B616E"/>
<line opacity="0.7" x1="65.5742" y1="95.5" x2="380" y2="95.5" stroke="#DFE4EA" stroke-dasharray="4 4"/>
<path d="M26.4943 146.666C25.8381 146.666 25.2531 146.553 24.7393 146.328C24.2289 146.102 23.8229 145.789 23.5213 145.388C23.223 144.984 23.0606 144.515 23.0341 143.981H24.2869C24.3134 144.309 24.4261 144.592 24.625 144.831C24.8239 145.066 25.084 145.249 25.4055 145.378C25.727 145.507 26.0833 145.572 26.4744 145.572C26.9119 145.572 27.2997 145.496 27.6378 145.343C27.9759 145.191 28.241 144.979 28.4332 144.707C28.6255 144.435 28.7216 144.12 28.7216 143.762C28.7216 143.388 28.6288 143.058 28.4432 142.773C28.2576 142.484 27.9858 142.259 27.6278 142.097C27.2699 141.934 26.8324 141.853 26.3153 141.853H25.5V140.759H26.3153C26.7197 140.759 27.0743 140.686 27.3793 140.541C27.6875 140.395 27.9278 140.189 28.1001 139.924C28.2758 139.659 28.3636 139.347 28.3636 138.989C28.3636 138.645 28.2874 138.345 28.1349 138.09C27.9825 137.834 27.767 137.636 27.4886 137.493C27.2135 137.35 26.8887 137.279 26.5142 137.279C26.1629 137.279 25.8314 137.344 25.5199 137.473C25.2116 137.599 24.9598 137.783 24.7642 138.025C24.5687 138.264 24.4626 138.552 24.446 138.89H23.2528C23.2727 138.356 23.4335 137.889 23.7351 137.488C24.0367 137.084 24.4311 136.769 24.9183 136.543C25.4089 136.318 25.9474 136.205 26.5341 136.205C27.1638 136.205 27.7041 136.333 28.1548 136.588C28.6056 136.84 28.9519 137.173 29.1939 137.587C29.4358 138.002 29.5568 138.449 29.5568 138.93C29.5568 139.503 29.406 139.992 29.1044 140.396C28.8061 140.801 28.4001 141.081 27.8864 141.237V141.316C28.5294 141.422 29.0315 141.696 29.3928 142.136C29.754 142.574 29.9347 143.116 29.9347 143.762C29.9347 144.316 29.7839 144.813 29.4822 145.254C29.1839 145.691 28.7763 146.036 28.2592 146.288C27.7422 146.54 27.1539 146.666 26.4943 146.666ZM35.2891 146.666C34.54 146.666 33.902 146.462 33.375 146.054C32.848 145.643 32.4453 145.048 32.1669 144.269C31.8885 143.487 31.7493 142.542 31.7493 141.435C31.7493 140.335 31.8885 139.395 32.1669 138.617C32.4486 137.834 32.853 137.238 33.38 136.827C33.9103 136.412 34.5466 136.205 35.2891 136.205C36.0315 136.205 36.6662 136.412 37.1932 136.827C37.7235 137.238 38.1278 137.834 38.4062 138.617C38.688 139.395 38.8288 140.335 38.8288 141.435C38.8288 142.542 38.6896 143.487 38.4112 144.269C38.1328 145.048 37.7301 145.643 37.2031 146.054C36.6761 146.462 36.0381 146.666 35.2891 146.666ZM35.2891 145.572C36.0315 145.572 36.6082 145.214 37.0192 144.498C37.4302 143.782 37.6357 142.761 37.6357 141.435C37.6357 140.554 37.5412 139.803 37.3523 139.183C37.1667 138.564 36.8982 138.091 36.5469 137.766C36.1989 137.442 35.7796 137.279 35.2891 137.279C34.5533 137.279 33.9782 137.642 33.5639 138.368C33.1496 139.091 32.9425 140.113 32.9425 141.435C32.9425 142.317 33.0353 143.066 33.2209 143.683C33.4065 144.299 33.6733 144.768 34.0213 145.09C34.3726 145.411 34.7952 145.572 35.2891 145.572ZM44.0391 146.666C43.29 146.666 42.652 146.462 42.125 146.054C41.598 145.643 41.1953 145.048 40.9169 144.269C40.6385 143.487 40.4993 142.542 40.4993 141.435C40.4993 140.335 40.6385 139.395 40.9169 138.617C41.1986 137.834 41.603 137.238 42.13 136.827C42.6603 136.412 43.2966 136.205 44.0391 136.205C44.7815 136.205 45.4162 136.412 45.9432 136.827C46.4735 137.238 46.8778 137.834 47.1562 138.617C47.438 139.395 47.5788 140.335 47.5788 141.435C47.5788 142.542 47.4396 143.487 47.1612 144.269C46.8828 145.048 46.4801 145.643 45.9531 146.054C45.4261 146.462 44.7881 146.666 44.0391 146.666ZM44.0391 145.572C44.7815 145.572 45.3582 145.214 45.7692 144.498C46.1802 143.782 46.3857 142.761 46.3857 141.435C46.3857 140.554 46.2912 139.803 46.1023 139.183C45.9167 138.564 45.6482 138.091 45.2969 137.766C44.9489 137.442 44.5296 137.279 44.0391 137.279C43.3033 137.279 42.7282 137.642 42.3139 138.368C41.8996 139.091 41.6925 140.113 41.6925 141.435C41.6925 142.317 41.7853 143.066 41.9709 143.683C42.1565 144.299 42.4233 144.768 42.7713 145.09C43.1226 145.411 43.5452 145.572 44.0391 145.572Z" fill="#5B616E"/>
<line opacity="0.7" x1="65.5742" y1="140.5" x2="380" y2="140.5" stroke="#DFE4EA" stroke-dasharray="4 4"/>
<path d="M23.054 191.053V190.158L26.4148 186.479C26.8092 186.048 27.134 185.673 27.3892 185.355C27.6444 185.034 27.8333 184.732 27.956 184.45C28.0819 184.165 28.1449 183.867 28.1449 183.556C28.1449 183.198 28.0587 182.888 27.8864 182.626C27.7173 182.364 27.4853 182.162 27.1903 182.019C26.8954 181.877 26.5639 181.806 26.196 181.806C25.8049 181.806 25.4635 181.887 25.1719 182.049C24.8835 182.208 24.6598 182.432 24.5007 182.72C24.3449 183.009 24.267 183.347 24.267 183.735H23.0938C23.0938 183.138 23.2313 182.614 23.5064 182.164C23.7815 181.713 24.156 181.361 24.63 181.11C25.1072 180.858 25.6425 180.732 26.2358 180.732C26.8324 180.732 27.361 180.858 27.8217 181.11C28.2824 181.361 28.6437 181.701 28.9055 182.129C29.1674 182.556 29.2983 183.032 29.2983 183.556C29.2983 183.93 29.2304 184.296 29.0945 184.654C28.9619 185.009 28.7299 185.405 28.3984 185.843C28.0703 186.277 27.6146 186.807 27.0312 187.433L24.7443 189.879V189.959H29.4773V191.053H23.054ZM34.8516 191.192C34.1025 191.192 33.4645 190.988 32.9375 190.58C32.4105 190.169 32.0078 189.575 31.7294 188.796C31.451 188.013 31.3118 187.069 31.3118 185.962C31.3118 184.861 31.451 183.922 31.7294 183.143C32.0111 182.361 32.4155 181.764 32.9425 181.353C33.4728 180.939 34.1091 180.732 34.8516 180.732C35.594 180.732 36.2287 180.939 36.7557 181.353C37.286 181.764 37.6903 182.361 37.9688 183.143C38.2505 183.922 38.3913 184.861 38.3913 185.962C38.3913 187.069 38.2521 188.013 37.9737 188.796C37.6953 189.575 37.2926 190.169 36.7656 190.58C36.2386 190.988 35.6006 191.192 34.8516 191.192ZM34.8516 190.098C35.594 190.098 36.1707 189.74 36.5817 189.024C36.9927 188.308 37.1982 187.288 37.1982 185.962C37.1982 185.08 37.1037 184.329 36.9148 183.71C36.7292 183.09 36.4607 182.618 36.1094 182.293C35.7614 181.968 35.3421 181.806 34.8516 181.806C34.1158 181.806 33.5407 182.169 33.1264 182.894C32.7121 183.617 32.505 184.639 32.505 185.962C32.505 186.843 32.5978 187.593 32.7834 188.209C32.969 188.825 33.2358 189.294 33.5838 189.616C33.9351 189.937 34.3577 190.098 34.8516 190.098ZM43.6016 191.192C42.8525 191.192 42.2145 190.988 41.6875 190.58C41.1605 190.169 40.7578 189.575 40.4794 188.796C40.201 188.013 40.0618 187.069 40.0618 185.962C40.0618 184.861 40.201 183.922 40.4794 183.143C40.7611 182.361 41.1655 181.764 41.6925 181.353C42.2228 180.939 42.8591 180.732 43.6016 180.732C44.344 180.732 44.9787 180.939 45.5057 181.353C46.036 181.764 46.4403 182.361 46.7188 183.143C47.0005 183.922 47.1413 184.861 47.1413 185.962C47.1413 187.069 47.0021 188.013 46.7237 188.796C46.4453 189.575 46.0426 190.169 45.5156 190.58C44.9886 190.988 44.3506 191.192 43.6016 191.192ZM43.6016 190.098C44.344 190.098 44.9207 189.74 45.3317 189.024C45.7427 188.308 45.9482 187.288 45.9482 185.962C45.9482 185.08 45.8537 184.329 45.6648 183.71C45.4792 183.09 45.2107 182.618 44.8594 182.293C44.5114 181.968 44.0921 181.806 43.6016 181.806C42.8658 181.806 42.2907 182.169 41.8764 182.894C41.4621 183.617 41.255 184.639 41.255 185.962C41.255 186.843 41.3478 187.593 41.5334 188.209C41.719 188.825 41.9858 189.294 42.3338 189.616C42.6851 189.937 43.1077 190.098 43.6016 190.098Z" fill="#5B616E"/>
<line opacity="0.7" x1="65.5742" y1="184.5" x2="380" y2="184.5" stroke="#DFE4EA" stroke-dasharray="4 4"/>
<path d="M26.6335 225.397V235.579H25.4006V226.69H25.3409L22.8551 228.34V227.088L25.4006 225.397H26.6335ZM32.8828 235.718C32.1338 235.718 31.4957 235.514 30.9688 235.107C30.4418 234.696 30.0391 234.101 29.7607 233.322C29.4822 232.54 29.343 231.595 29.343 230.488C29.343 229.388 29.4822 228.448 29.7607 227.669C30.0424 226.887 30.4467 226.291 30.9737 225.88C31.504 225.465 32.1404 225.258 32.8828 225.258C33.6252 225.258 34.2599 225.465 34.7869 225.88C35.3172 226.291 35.7216 226.887 36 227.669C36.2817 228.448 36.4226 229.388 36.4226 230.488C36.4226 231.595 36.2834 232.54 36.005 233.322C35.7266 234.101 35.3239 234.696 34.7969 235.107C34.2699 235.514 33.6319 235.718 32.8828 235.718ZM32.8828 234.625C33.6252 234.625 34.2019 234.267 34.6129 233.551C35.0239 232.835 35.2294 231.814 35.2294 230.488C35.2294 229.607 35.1349 228.856 34.946 228.236C34.7604 227.616 34.492 227.144 34.1406 226.819C33.7926 226.494 33.3733 226.332 32.8828 226.332C32.147 226.332 31.572 226.695 31.1577 227.421C30.7434 228.143 30.5362 229.166 30.5362 230.488C30.5362 231.37 30.629 232.119 30.8146 232.735C31.0002 233.352 31.267 233.821 31.6151 234.142C31.9664 234.464 32.389 234.625 32.8828 234.625ZM41.6328 235.718C40.8838 235.718 40.2457 235.514 39.7188 235.107C39.1918 234.696 38.7891 234.101 38.5107 233.322C38.2322 232.54 38.093 231.595 38.093 230.488C38.093 229.388 38.2322 228.448 38.5107 227.669C38.7924 226.887 39.1967 226.291 39.7237 225.88C40.254 225.465 40.8904 225.258 41.6328 225.258C42.3752 225.258 43.0099 225.465 43.5369 225.88C44.0672 226.291 44.4716 226.887 44.75 227.669C45.0317 228.448 45.1726 229.388 45.1726 230.488C45.1726 231.595 45.0334 232.54 44.755 233.322C44.4766 234.101 44.0739 234.696 43.5469 235.107C43.0199 235.514 42.3819 235.718 41.6328 235.718ZM41.6328 234.625C42.3752 234.625 42.9519 234.267 43.3629 233.551C43.7739 232.835 43.9794 231.814 43.9794 230.488C43.9794 229.607 43.8849 228.856 43.696 228.236C43.5104 227.616 43.242 227.144 42.8906 226.819C42.5426 226.494 42.1233 226.332 41.6328 226.332C40.897 226.332 40.322 226.695 39.9077 227.421C39.4934 228.143 39.2862 229.166 39.2862 230.488C39.2862 231.37 39.379 232.119 39.5646 232.735C39.7502 233.352 40.017 233.821 40.3651 234.142C40.7164 234.464 41.139 234.625 41.6328 234.625Z" fill="#5B616E"/>
<line opacity="0.7" x1="65.5742" y1="229.5" x2="380" y2="229.5" stroke="#DFE4EA" stroke-dasharray="4 4"/>
<path d="M26.375 280.245C25.6259 280.245 24.9879 280.041 24.4609 279.633C23.9339 279.222 23.5313 278.627 23.2528 277.848C22.9744 277.066 22.8352 276.122 22.8352 275.015C22.8352 273.914 22.9744 272.975 23.2528 272.196C23.5346 271.413 23.9389 270.817 24.4659 270.406C24.9962 269.992 25.6326 269.784 26.375 269.784C27.1174 269.784 27.7521 269.992 28.2791 270.406C28.8094 270.817 29.2138 271.413 29.4922 272.196C29.7739 272.975 29.9148 273.914 29.9148 275.015C29.9148 276.122 29.7756 277.066 29.4972 277.848C29.2188 278.627 28.8161 279.222 28.2891 279.633C27.7621 280.041 27.1241 280.245 26.375 280.245ZM26.375 279.151C27.1174 279.151 27.6941 278.793 28.1051 278.077C28.5161 277.361 28.7216 276.34 28.7216 275.015C28.7216 274.133 28.6271 273.382 28.4382 272.762C28.2526 272.143 27.9841 271.67 27.6328 271.346C27.2848 271.021 26.8655 270.858 26.375 270.858C25.6392 270.858 25.0642 271.221 24.6499 271.947C24.2356 272.67 24.0284 273.692 24.0284 275.015C24.0284 275.896 24.1212 276.645 24.3068 277.262C24.4924 277.878 24.7592 278.347 25.1072 278.669C25.4586 278.99 25.8812 279.151 26.375 279.151Z" fill="#5B616E"/>
<line opacity="0.7" x1="65.5742" y1="273.5" x2="380" y2="273.5" stroke="#DFE4EA" stroke-dasharray="4 4"/>
<rect x="79" y="121" width="10" height="154" rx="2" fill="#0158A3"/>
<rect x="97" y="90" width="10" height="185" rx="2" fill="#01D4AD"/>
<path d="M81.8804 296V285.818H88.0253V286.912H83.1134V290.352H87.7071V291.446H83.1134V294.906H88.1048V296H81.8804ZM91.2618 291.406V296H90.0885V288.364H91.222V289.557H91.3215C91.5004 289.169 91.7722 288.857 92.1368 288.622C92.5014 288.384 92.972 288.264 93.5487 288.264C94.0658 288.264 94.5182 288.37 94.906 288.582C95.2938 288.791 95.5954 289.109 95.8108 289.537C96.0262 289.961 96.134 290.498 96.134 291.148V296H94.9607V291.227C94.9607 290.627 94.8049 290.16 94.4933 289.825C94.1818 289.487 93.7542 289.318 93.2107 289.318C92.8361 289.318 92.5014 289.399 92.2064 289.562C91.9147 289.724 91.6844 289.961 91.5154 290.273C91.3463 290.584 91.2618 290.962 91.2618 291.406ZM101.48 296.159C100.744 296.159 100.109 295.997 99.5756 295.672C99.0452 295.344 98.6359 294.886 98.3476 294.3C98.0625 293.71 97.92 293.024 97.92 292.241C97.92 291.459 98.0625 290.77 98.3476 290.173C98.6359 289.573 99.037 289.106 99.5507 288.771C100.068 288.433 100.671 288.264 101.36 288.264C101.758 288.264 102.151 288.33 102.539 288.463C102.926 288.596 103.279 288.811 103.598 289.109C103.916 289.404 104.169 289.795 104.358 290.283C104.547 290.77 104.642 291.37 104.642 292.082V292.58H98.7552V291.565H103.448C103.448 291.134 103.362 290.75 103.19 290.412C103.021 290.074 102.779 289.807 102.464 289.612C102.152 289.416 101.785 289.318 101.36 289.318C100.893 289.318 100.489 289.434 100.147 289.666C99.8092 289.895 99.549 290.193 99.3667 290.561C99.1845 290.929 99.0933 291.323 99.0933 291.744V292.42C99.0933 292.997 99.1927 293.486 99.3916 293.887C99.5938 294.285 99.8738 294.588 100.232 294.797C100.59 295.002 101.006 295.105 101.48 295.105C101.788 295.105 102.066 295.062 102.315 294.976C102.567 294.886 102.784 294.754 102.966 294.578C103.148 294.399 103.289 294.177 103.389 293.912L104.522 294.23C104.403 294.615 104.202 294.953 103.921 295.244C103.639 295.533 103.291 295.758 102.877 295.92C102.462 296.08 101.997 296.159 101.48 296.159Z" fill="#5B616E"/>
<rect x="131" y="210" width="10" height="65" rx="2" fill="#0158A3"/>
<rect x="149" y="155" width="10" height="120" rx="2" fill="#01D4AD"/>
<path d="M133.983 296V285.818H140.088V286.912H135.216V290.352H139.631V291.446H135.216V296H133.983ZM144.682 296.159C143.946 296.159 143.311 295.997 142.778 295.672C142.247 295.344 141.838 294.886 141.55 294.3C141.265 293.71 141.122 293.024 141.122 292.241C141.122 291.459 141.265 290.77 141.55 290.173C141.838 289.573 142.239 289.106 142.753 288.771C143.27 288.433 143.873 288.264 144.562 288.264C144.96 288.264 145.353 288.33 145.741 288.463C146.129 288.596 146.482 288.811 146.8 289.109C147.118 289.404 147.371 289.795 147.56 290.283C147.749 290.77 147.844 291.37 147.844 292.082V292.58H141.957V291.565H146.651C146.651 291.134 146.564 290.75 146.392 290.412C146.223 290.074 145.981 289.807 145.666 289.612C145.355 289.416 144.987 289.318 144.562 289.318C144.095 289.318 143.691 289.434 143.349 289.666C143.011 289.895 142.751 290.193 142.569 290.561C142.387 290.929 142.295 291.323 142.295 291.744V292.42C142.295 292.997 142.395 293.486 142.594 293.887C142.796 294.285 143.076 294.588 143.434 294.797C143.792 295.002 144.208 295.105 144.682 295.105C144.99 295.105 145.268 295.062 145.517 294.976C145.769 294.886 145.986 294.754 146.168 294.578C146.351 294.399 146.491 294.177 146.591 293.912L147.724 294.23C147.605 294.615 147.405 294.953 147.123 295.244C146.841 295.533 146.493 295.758 146.079 295.92C145.665 296.08 145.199 296.159 144.682 296.159ZM149.788 296V285.818H150.961V289.577H151.06C151.147 289.444 151.266 289.275 151.418 289.07C151.574 288.861 151.796 288.675 152.085 288.513C152.376 288.347 152.771 288.264 153.268 288.264C153.911 288.264 154.478 288.425 154.968 288.746C155.459 289.068 155.841 289.524 156.116 290.114C156.392 290.704 156.529 291.4 156.529 292.202C156.529 293.01 156.392 293.711 156.116 294.305C155.841 294.895 155.46 295.352 154.973 295.677C154.486 295.998 153.924 296.159 153.288 296.159C152.797 296.159 152.404 296.078 152.109 295.915C151.814 295.75 151.587 295.562 151.428 295.354C151.269 295.142 151.147 294.966 151.06 294.827H150.921V296H149.788ZM150.941 292.182C150.941 292.759 151.026 293.267 151.195 293.708C151.364 294.146 151.611 294.489 151.935 294.737C152.26 294.982 152.658 295.105 153.129 295.105C153.619 295.105 154.028 294.976 154.357 294.717C154.688 294.455 154.937 294.104 155.102 293.663C155.271 293.219 155.356 292.725 155.356 292.182C155.356 291.645 155.273 291.161 155.107 290.73C154.945 290.296 154.698 289.953 154.366 289.701C154.038 289.446 153.626 289.318 153.129 289.318C152.651 289.318 152.25 289.439 151.925 289.681C151.601 289.92 151.355 290.254 151.19 290.685C151.024 291.113 150.941 291.612 150.941 292.182Z" fill="#5B616E"/>
<rect x="183" y="159" width="10" height="116" rx="2" fill="#0158A3"/>
<rect x="201" y="198" width="10" height="77" rx="2" fill="#01D4AD"/>
<path d="M185.457 285.818H186.928L190.388 294.27H190.508L193.968 285.818H195.44V296H194.286V288.264H194.187L191.005 296H189.891L186.709 288.264H186.61V296H185.457V285.818ZM200 296.179C199.516 296.179 199.077 296.088 198.682 295.906C198.288 295.72 197.975 295.453 197.743 295.105C197.511 294.754 197.395 294.33 197.395 293.832C197.395 293.395 197.481 293.04 197.653 292.768C197.825 292.493 198.056 292.278 198.344 292.122C198.633 291.966 198.951 291.85 199.299 291.774C199.65 291.695 200.003 291.632 200.358 291.585C200.822 291.526 201.198 291.481 201.486 291.451C201.778 291.418 201.99 291.363 202.123 291.287C202.258 291.211 202.326 291.078 202.326 290.889V290.849C202.326 290.359 202.192 289.978 201.924 289.706C201.659 289.434 201.256 289.298 200.716 289.298C200.156 289.298 199.716 289.421 199.398 289.666C199.08 289.911 198.856 290.173 198.727 290.452L197.613 290.054C197.812 289.59 198.077 289.229 198.409 288.97C198.744 288.708 199.108 288.526 199.503 288.423C199.9 288.317 200.291 288.264 200.676 288.264C200.921 288.264 201.203 288.294 201.521 288.354C201.843 288.41 202.152 288.528 202.451 288.707C202.752 288.886 203.003 289.156 203.201 289.517C203.4 289.878 203.5 290.362 203.5 290.969V296H202.326V294.966H202.267C202.187 295.132 202.055 295.309 201.869 295.498C201.683 295.687 201.437 295.848 201.128 295.98C200.82 296.113 200.444 296.179 200 296.179ZM200.179 295.125C200.643 295.125 201.034 295.034 201.352 294.852C201.674 294.669 201.915 294.434 202.078 294.146C202.244 293.857 202.326 293.554 202.326 293.236V292.162C202.277 292.222 202.167 292.276 201.998 292.326C201.833 292.372 201.64 292.414 201.422 292.45C201.206 292.483 200.996 292.513 200.79 292.54C200.588 292.563 200.424 292.583 200.298 292.599C199.993 292.639 199.708 292.704 199.443 292.793C199.181 292.879 198.969 293.01 198.807 293.186C198.647 293.358 198.568 293.594 198.568 293.892C198.568 294.3 198.719 294.608 199.02 294.817C199.325 295.022 199.711 295.125 200.179 295.125ZM205.641 296V288.364H206.775V289.517H206.854C206.994 289.139 207.245 288.833 207.61 288.597C207.975 288.362 208.386 288.244 208.843 288.244C208.929 288.244 209.037 288.246 209.166 288.249C209.295 288.253 209.393 288.258 209.459 288.264V289.457C209.42 289.447 209.329 289.433 209.186 289.413C209.047 289.389 208.899 289.378 208.744 289.378C208.372 289.378 208.041 289.456 207.749 289.612C207.461 289.764 207.232 289.976 207.063 290.248C206.897 290.516 206.815 290.823 206.815 291.168V296H205.641Z" fill="#5B616E"/>
<rect x="235" y="193" width="10" height="82" rx="2" fill="#0158A3"/>
<rect x="253" y="242" width="10" height="33" rx="2" fill="#01D4AD"/>
<path d="M238.968 296H237.675L241.414 285.818H242.687L246.425 296H245.133L242.09 287.429H242.011L238.968 296ZM239.445 292.023H244.655V293.116H239.445V292.023ZM248.011 296V285.818H249.185V289.577H249.284C249.37 289.444 249.489 289.275 249.642 289.07C249.798 288.861 250.02 288.675 250.308 288.513C250.6 288.347 250.994 288.264 251.491 288.264C252.134 288.264 252.701 288.425 253.192 288.746C253.682 289.068 254.065 289.524 254.34 290.114C254.615 290.704 254.753 291.4 254.753 292.202C254.753 293.01 254.615 293.711 254.34 294.305C254.065 294.895 253.684 295.352 253.197 295.677C252.709 295.998 252.148 296.159 251.511 296.159C251.021 296.159 250.628 296.078 250.333 295.915C250.038 295.75 249.811 295.562 249.652 295.354C249.493 295.142 249.37 294.966 249.284 294.827H249.145V296H248.011ZM249.165 292.182C249.165 292.759 249.249 293.267 249.418 293.708C249.587 294.146 249.834 294.489 250.159 294.737C250.484 294.982 250.882 295.105 251.352 295.105C251.843 295.105 252.252 294.976 252.58 294.717C252.912 294.455 253.16 294.104 253.326 293.663C253.495 293.219 253.579 292.725 253.579 292.182C253.579 291.645 253.497 291.161 253.331 290.73C253.168 290.296 252.922 289.953 252.59 289.701C252.262 289.446 251.849 289.318 251.352 289.318C250.875 289.318 250.474 289.439 250.149 289.681C249.824 289.92 249.579 290.254 249.413 290.685C249.248 291.113 249.165 291.612 249.165 292.182ZM256.547 296V288.364H257.681V289.517H257.761C257.9 289.139 258.152 288.833 258.516 288.597C258.881 288.362 259.292 288.244 259.749 288.244C259.835 288.244 259.943 288.246 260.072 288.249C260.202 288.253 260.299 288.258 260.366 288.264V289.457C260.326 289.447 260.235 289.433 260.092 289.413C259.953 289.389 259.806 289.378 259.65 289.378C259.279 289.378 258.947 289.456 258.655 289.612C258.367 289.764 258.138 289.976 257.969 290.248C257.804 290.516 257.721 290.823 257.721 291.168V296H256.547Z" fill="#5B616E"/>
<rect x="287" y="171" width="10" height="104" rx="2" fill="#0158A3"/>
<rect x="305" y="131" width="10" height="144" rx="2" fill="#01D4AD"/>
<path d="M288.301 285.818H289.773L293.233 294.27H293.352L296.813 285.818H298.284V296H297.131V288.264H297.031L293.85 296H292.736L289.554 288.264H289.455V296H288.301V285.818ZM302.844 296.179C302.361 296.179 301.921 296.088 301.527 295.906C301.133 295.72 300.819 295.453 300.587 295.105C300.355 294.754 300.239 294.33 300.239 293.832C300.239 293.395 300.326 293.04 300.498 292.768C300.67 292.493 300.901 292.278 301.189 292.122C301.477 291.966 301.795 291.85 302.143 291.774C302.495 291.695 302.848 291.632 303.202 291.585C303.666 291.526 304.043 291.481 304.331 291.451C304.623 291.418 304.835 291.363 304.967 291.287C305.103 291.211 305.171 291.078 305.171 290.889V290.849C305.171 290.359 305.037 289.978 304.768 289.706C304.503 289.434 304.101 289.298 303.56 289.298C303 289.298 302.561 289.421 302.243 289.666C301.925 289.911 301.701 290.173 301.572 290.452L300.458 290.054C300.657 289.59 300.922 289.229 301.254 288.97C301.588 288.708 301.953 288.526 302.347 288.423C302.745 288.317 303.136 288.264 303.521 288.264C303.766 288.264 304.048 288.294 304.366 288.354C304.687 288.41 304.997 288.528 305.295 288.707C305.597 288.886 305.847 289.156 306.046 289.517C306.245 289.878 306.344 290.362 306.344 290.969V296H305.171V294.966H305.112C305.032 295.132 304.899 295.309 304.714 295.498C304.528 295.687 304.281 295.848 303.973 295.98C303.665 296.113 303.289 296.179 302.844 296.179ZM303.023 295.125C303.487 295.125 303.879 295.034 304.197 294.852C304.518 294.669 304.76 294.434 304.923 294.146C305.088 293.857 305.171 293.554 305.171 293.236V292.162C305.121 292.222 305.012 292.276 304.843 292.326C304.677 292.372 304.485 292.414 304.266 292.45C304.051 292.483 303.84 292.513 303.635 292.54C303.433 292.563 303.269 292.583 303.143 292.599C302.838 292.639 302.553 292.704 302.288 292.793C302.026 292.879 301.814 293.01 301.651 293.186C301.492 293.358 301.413 293.594 301.413 293.892C301.413 294.3 301.563 294.608 301.865 294.817C302.17 295.022 302.556 295.125 303.023 295.125ZM308.968 298.864C308.769 298.864 308.592 298.847 308.436 298.814C308.28 298.784 308.173 298.754 308.113 298.724L308.411 297.69C308.696 297.763 308.948 297.79 309.167 297.77C309.386 297.75 309.58 297.652 309.749 297.477C309.921 297.304 310.079 297.024 310.221 296.636L310.44 296.04L307.616 288.364H308.889L310.997 294.449H311.076L313.184 288.364H314.457L311.215 297.114C311.07 297.508 310.889 297.835 310.673 298.093C310.458 298.355 310.208 298.549 309.923 298.675C309.641 298.801 309.323 298.864 308.968 298.864Z" fill="#5B616E"/>
<rect x="339" y="155" width="10" height="120" rx="2" fill="#0158A3"/>
<rect x="357" y="90" width="10" height="185" rx="2" fill="#01D4AD"/>
<path d="M346.168 285.818H347.401V293.097C347.401 293.746 347.281 294.298 347.043 294.752C346.804 295.206 346.468 295.551 346.034 295.786C345.599 296.022 345.087 296.139 344.497 296.139C343.941 296.139 343.445 296.038 343.011 295.836C342.577 295.63 342.235 295.339 341.987 294.961C341.738 294.583 341.614 294.134 341.614 293.614H342.827C342.827 293.902 342.898 294.154 343.041 294.369C343.186 294.581 343.385 294.747 343.637 294.866C343.889 294.986 344.176 295.045 344.497 295.045C344.852 295.045 345.154 294.971 345.402 294.822C345.651 294.673 345.84 294.454 345.969 294.165C346.102 293.874 346.168 293.518 346.168 293.097V285.818ZM354.525 292.878V288.364H355.698V296H354.525V294.707H354.445C354.267 295.095 353.988 295.425 353.61 295.697C353.232 295.965 352.755 296.099 352.178 296.099C351.701 296.099 351.277 295.995 350.906 295.786C350.535 295.574 350.243 295.256 350.031 294.832C349.819 294.404 349.713 293.866 349.713 293.216V288.364H350.886V293.136C350.886 293.693 351.042 294.137 351.353 294.469C351.668 294.8 352.069 294.966 352.556 294.966C352.848 294.966 353.145 294.891 353.446 294.742C353.751 294.593 354.006 294.364 354.212 294.056C354.421 293.748 354.525 293.355 354.525 292.878ZM359.021 291.406V296H357.847V288.364H358.981V289.557H359.08C359.259 289.169 359.531 288.857 359.896 288.622C360.26 288.384 360.731 288.264 361.308 288.264C361.825 288.264 362.277 288.37 362.665 288.582C363.053 288.791 363.354 289.109 363.57 289.537C363.785 289.961 363.893 290.498 363.893 291.148V296H362.719V291.227C362.719 290.627 362.564 290.16 362.252 289.825C361.941 289.487 361.513 289.318 360.969 289.318C360.595 289.318 360.26 289.399 359.965 289.562C359.674 289.724 359.443 289.961 359.274 290.273C359.105 290.584 359.021 290.962 359.021 291.406Z" fill="#5B616E"/>
<defs>
<filter id="filter0_dd_2710_87123" x="0" y="0" width="402" height="328" filterUnits="userSpaceOnUse" color-interpolation-filters="sRGB">
<feFlood flood-opacity="0" result="BackgroundImageFix"/>
<feColorMatrix in="SourceAlpha" type="matrix" values="0 0 0 0 0 0 0 0 0 0 0 0 0 0 0 0 0 0 127 0" result="hardAlpha"/>
<feOffset dy="4"/>
<feGaussianBlur stdDeviation="3"/>
<feComposite in2="hardAlpha" operator="out"/>
<feColorMatrix type="matrix" values="0 0 0 0 0.145098 0 0 0 0 0.152941 0 0 0 0 0.172549 0 0 0 0.06 0"/>
<feBlend mode="normal" in2="BackgroundImageFix" result="effect1_dropShadow_2710_87123"/>
<feColorMatrix in="SourceAlpha" type="matrix" values="0 0 0 0 0 0 0 0 0 0 0 0 0 0 0 0 0 0 127 0" result="hardAlpha"/>
<feOffset dy="2"/>
<feGaussianBlur stdDeviation="2"/>
<feComposite in2="hardAlpha" operator="out"/>
<feColorMatrix type="matrix" values="0 0 0 0 0 0 0 0 0 0 0 0 0 0 0 0 0 0 0.08 0"/>
<feBlend mode="normal" in2="effect1_dropShadow_2710_87123" result="effect2_dropShadow_2710_87123"/>
<feBlend mode="normal" in="SourceGraphic" in2="effect2_dropShadow_2710_87123" result="shape"/>
</filter>
</defs>
</svg>
