<svg width="281" height="420" viewBox="0 0 281 420" fill="none" xmlns="http://www.w3.org/2000/svg">
<path fill-rule="evenodd" clip-rule="evenodd" d="M135.171 246.773L3.55124 172.12L281 -3.05176e-05L178.384 174.607L145.339 172.861L277.565 247.858L0.0795288 420L102.887 245.067L135.171 246.773Z" fill="#0158A3"/>
<path d="M144.939 339.942L58.7635 339.89C53.786 339.887 49.0135 337.923 45.495 334.431C41.9765 330.938 40 326.203 40 321.266L40.0409 106.955C40.0416 104.509 40.5282 102.087 41.4728 99.8272C42.4174 97.5675 43.8016 95.5146 45.5462 93.7856C47.2908 92.0567 49.3617 90.6856 51.6405 89.7507C53.9194 88.8158 56.3616 88.3354 58.8277 88.3369L145.003 88.3832C149.981 88.3863 154.753 90.3499 158.272 93.8422C161.79 97.3346 163.767 102.07 163.767 107.007L163.726 321.324C163.725 323.77 163.238 326.192 162.294 328.452C161.349 330.711 159.965 332.764 158.221 334.493C156.476 336.222 154.405 337.593 152.126 338.528C149.847 339.463 147.405 339.943 144.939 339.942Z" fill="#263238"/>
<path d="M144.904 95.9635H128.207C127.662 95.9747 127.125 96.0925 126.626 96.31C126.127 96.5275 125.676 96.8404 125.299 97.2309C124.922 97.6215 124.627 98.0819 124.43 98.5858C124.232 99.0897 124.137 99.6273 124.15 100.168V103.144C124.173 104.236 123.759 105.291 122.998 106.08C122.237 106.868 121.192 107.324 120.092 107.349H87.5274C86.9801 107.34 86.4399 107.223 85.9379 107.007C85.4359 106.79 84.982 106.477 84.6023 106.086C84.2225 105.695 83.9245 105.233 83.7251 104.727C83.5258 104.221 83.4292 103.682 83.4408 103.139V100.139C83.4532 99.5981 83.3581 99.0602 83.1609 98.5559C82.9637 98.0517 82.6682 97.5909 82.2914 97.1999C81.9146 96.8089 81.4639 96.4954 80.9649 96.2773C80.4659 96.0592 79.9285 95.9407 79.3834 95.9287H58.9093C55.4269 95.9272 52.0861 97.2955 49.6193 99.7338C47.1525 102.172 45.7612 105.481 45.7503 108.935L45.7095 318.121C45.7095 321.579 47.0938 324.895 49.5582 327.341C52.0225 329.786 55.3651 331.161 58.8509 331.162L144.857 331.214C146.584 331.216 148.295 330.88 149.891 330.225C151.487 329.57 152.938 328.61 154.159 327.398C155.381 326.187 156.35 324.749 157.01 323.166C157.671 321.583 158.011 319.886 158.01 318.173L158.051 108.993C158.048 105.537 156.662 102.222 154.196 99.7791C151.731 97.3359 148.389 95.9635 144.904 95.9635Z" fill="white"/>
<path d="M93.897 315.243C93.9005 315.567 93.8069 315.885 93.6283 316.156C93.4496 316.427 93.1939 316.64 92.8933 316.767C92.5928 316.895 92.2609 316.93 91.9398 316.871C91.6187 316.811 91.3226 316.658 91.0891 316.431C90.8556 316.204 90.6952 315.914 90.628 315.597C90.5609 315.279 90.5901 314.95 90.7119 314.649C90.8337 314.348 91.0427 314.09 91.3125 313.907C91.5822 313.724 91.9006 313.625 92.2273 313.621C92.6651 313.618 93.0863 313.787 93.3991 314.091C93.7119 314.394 93.8909 314.808 93.897 315.243Z" fill="#263238"/>
<path d="M103.144 315.167C103.148 315.492 103.054 315.81 102.875 316.081C102.696 316.353 102.44 316.566 102.139 316.693C101.838 316.82 101.506 316.855 101.185 316.795C100.864 316.735 100.568 316.581 100.334 316.354C100.101 316.127 99.9411 315.836 99.8746 315.518C99.8081 315.2 99.8381 314.87 99.9609 314.57C100.084 314.269 100.293 314.011 100.564 313.829C100.835 313.647 101.153 313.548 101.48 313.546C101.918 313.543 102.338 313.712 102.65 314.016C102.962 314.32 103.14 314.734 103.144 315.167Z" fill="#263238"/>
<path d="M112.398 315.098C112.401 315.422 112.307 315.741 112.128 316.012C111.949 316.284 111.693 316.496 111.392 316.623C111.092 316.75 110.759 316.786 110.438 316.726C110.117 316.665 109.821 316.512 109.588 316.285C109.354 316.057 109.194 315.766 109.128 315.449C109.061 315.131 109.091 314.801 109.214 314.5C109.337 314.2 109.547 313.942 109.817 313.76C110.088 313.577 110.407 313.479 110.734 313.477C111.171 313.474 111.591 313.642 111.903 313.946C112.215 314.25 112.393 314.664 112.398 315.098Z" fill="#263238"/>
<path d="M79.2083 174.491C79.2083 176.5 77.6904 177.751 75.2618 177.751H73.4345V180.23H71.3445V171.225H75.2735C77.6904 171.225 79.2083 172.475 79.2083 174.491ZM77.0775 174.491C77.0775 173.501 76.4294 172.921 75.1451 172.921H73.4345V176.049H75.1451C76.4294 176.049 77.0775 175.469 77.0775 174.491Z" fill="#263238"/>
<path d="M86.6638 176.28V180.23H84.7723V179.367C84.538 179.702 84.2171 179.969 83.8432 180.139C83.4694 180.309 83.0563 180.377 82.6472 180.334C81.0126 180.334 80.0376 179.437 80.0376 178.238C80.0376 177.039 80.9075 176.165 83.0325 176.165H84.6438C84.6438 175.302 84.1242 174.804 83.0325 174.804C82.3107 174.797 81.6062 175.023 81.0242 175.447L80.2945 174.045C81.1921 173.474 82.2409 173.182 83.3069 173.205C85.432 173.217 86.6638 174.184 86.6638 176.28ZM84.6438 178.047V177.34H83.2544C82.3086 177.34 82.0109 177.682 82.0109 178.145C82.0109 178.609 82.437 179.008 83.1493 179.008C83.4696 179.029 83.7882 178.947 84.0575 178.774C84.3268 178.6 84.5325 178.345 84.6438 178.047Z" fill="#263238"/>
<path d="M87.8193 179.587L88.4966 178.145C89.2284 178.581 90.0655 178.813 90.9193 178.817C91.8534 178.817 92.2037 178.574 92.2037 178.186C92.2037 177.027 87.9886 178.186 87.9886 175.446C87.9886 174.132 89.1562 173.205 91.2171 173.205C92.1489 173.187 93.071 173.396 93.9026 173.813L93.2312 175.238C92.6159 174.897 91.922 174.719 91.2171 174.722C90.3122 174.722 89.921 175.006 89.921 175.371C89.921 176.529 94.1361 175.406 94.1361 178.133C94.1361 179.419 92.9276 180.334 90.8434 180.334C89.7865 180.355 88.7427 180.098 87.8193 179.587Z" fill="#263238"/>
<path d="M94.6968 179.587L95.3681 178.145C96.1025 178.58 96.9412 178.812 97.7968 178.817C98.7309 178.817 99.0812 178.573 99.0812 178.185C99.0812 177.027 94.8661 178.185 94.8661 175.446C94.8661 174.132 96.0337 173.205 98.0945 173.205C99.0263 173.188 99.9482 173.396 100.78 173.813L100.103 175.238C99.4902 174.895 98.7978 174.717 98.0945 174.722C97.1838 174.722 96.7985 175.006 96.7985 175.371C96.7985 176.529 101.014 175.406 101.014 178.133C101.014 179.419 99.8051 180.334 97.7209 180.334C96.6638 180.356 95.6199 180.098 94.6968 179.587Z" fill="#263238"/>
<path d="M113.343 173.31L110.816 180.259H108.871L107.301 175.962L105.678 180.259H103.734L101.218 173.31H103.127L104.773 177.995L106.484 173.31H108.194L109.858 177.995L111.557 173.31H113.343Z" fill="#263238"/>
<path d="M113.583 176.772C113.583 174.688 115.2 173.205 117.418 173.205C119.637 173.205 121.248 174.688 121.248 176.772C121.248 178.857 119.637 180.334 117.418 180.334C115.2 180.334 113.583 178.857 113.583 176.772ZM119.199 176.772C119.171 176.429 119.042 176.102 118.829 175.83C118.616 175.558 118.328 175.354 118 175.241C117.671 175.129 117.317 175.115 116.981 175.199C116.644 175.283 116.34 175.463 116.105 175.716C115.87 175.97 115.714 176.285 115.657 176.625C115.599 176.964 115.643 177.313 115.782 177.629C115.922 177.944 116.151 178.212 116.441 178.401C116.732 178.589 117.071 178.689 117.418 178.689C117.668 178.697 117.917 178.652 118.148 178.557C118.379 178.461 118.586 178.318 118.757 178.136C118.927 177.955 119.056 177.739 119.136 177.504C119.215 177.268 119.242 177.019 119.216 176.772H119.199Z" fill="#263238"/>
<path d="M126.929 173.217V175.07C126.759 175.07 126.631 175.07 126.473 175.07C125.358 175.07 124.617 175.649 124.617 176.999V180.265H122.597V173.316H124.529V174.231C124.816 173.881 125.185 173.607 125.603 173.43C126.021 173.254 126.476 173.181 126.929 173.217Z" fill="#263238"/>
<path d="M135.178 170.687V180.23H133.228V179.437C132.957 179.741 132.621 179.979 132.243 180.135C131.866 180.29 131.458 180.359 131.05 180.334C130.122 180.297 129.245 179.906 128.601 179.241C127.958 178.577 127.599 177.691 127.599 176.77C127.599 175.849 127.958 174.963 128.601 174.299C129.245 173.635 130.122 173.243 131.05 173.206C131.438 173.187 131.826 173.252 132.186 173.397C132.546 173.542 132.87 173.763 133.134 174.045V170.687H135.178ZM133.193 176.773C133.164 176.429 133.035 176.1 132.821 175.828C132.606 175.555 132.316 175.351 131.987 175.24C131.657 175.129 131.301 175.116 130.964 175.203C130.627 175.289 130.323 175.472 130.089 175.728C129.855 175.984 129.701 176.302 129.647 176.644C129.594 176.985 129.641 177.334 129.785 177.649C129.929 177.964 130.162 178.23 130.456 178.415C130.751 178.6 131.093 178.695 131.441 178.69C131.687 178.691 131.931 178.641 132.156 178.543C132.381 178.444 132.583 178.3 132.748 178.119C132.914 177.938 133.039 177.725 133.115 177.493C133.192 177.261 133.218 177.016 133.193 176.773Z" fill="#263238"/>
<path d="M150.742 187.695C150.742 187.776 129.141 187.845 102.467 187.845C75.7931 187.845 54.1807 187.776 54.1807 187.695C54.1807 187.613 75.7815 187.544 102.467 187.544C129.153 187.544 150.742 187.596 150.742 187.695Z" fill="#E0E0E0"/>
<path d="M148.494 275.852C148.494 275.939 126.893 276.002 100.214 276.002C73.5337 276.002 51.9329 275.939 51.9329 275.852C51.9329 275.765 73.5337 275.701 100.214 275.701C126.893 275.701 148.494 275.771 148.494 275.852Z" fill="#E0E0E0"/>
<path d="M126.654 282.477C126.654 282.558 114.645 282.627 99.8342 282.627C85.023 282.627 73.0142 282.558 73.0142 282.477C73.0142 282.396 85.0172 282.326 99.8342 282.326C114.651 282.326 126.654 282.39 126.654 282.477Z" fill="#E0E0E0"/>
<path d="M62.8793 213.349L64.7066 214.328L63.8834 215.694L62.0386 214.611L62.0736 216.627H60.4974V214.594L58.6467 215.694L57.8586 214.333L59.6684 213.349L57.8352 212.347L58.6409 210.986L60.4915 212.081V210.054H62.0678L62.0328 212.081L63.8776 210.986L64.7008 212.347L62.8793 213.349Z" fill="#0158A3"/>
<path d="M83.8496 213.349L85.6769 214.328L84.8537 215.694L83.0206 214.611V216.65H81.4385V214.617L79.5936 215.717L78.8289 214.333L80.6854 213.349L78.858 212.347L79.6637 210.986L81.5085 212.081V210.054H83.0206L82.9855 212.081L84.8304 210.986L85.6535 212.347L83.8496 213.349Z" fill="#0158A3"/>
<path d="M104.259 213.349L106.087 214.328L105.264 215.694L103.419 214.611L103.454 216.65H101.878V214.617L100.027 215.717L99.2388 214.333L101.072 213.355L99.2388 212.353L100.044 210.992L101.895 212.086V210.06H103.454L103.419 212.086L105.264 210.992L106.087 212.353L104.259 213.349Z" fill="#0158A3"/>
<path d="M124.033 213.349L125.86 214.328L125.055 215.694L123.21 214.611L123.245 216.627H121.669V214.594L119.824 215.694L119.012 214.333L120.845 213.355L119.012 212.353L119.818 210.992L121.663 212.086V210.06H123.239L123.204 212.086L125.049 210.992L125.872 212.353L124.033 213.349Z" fill="#0158A3"/>
<path d="M143.649 213.349L145.488 214.333L144.664 215.7L142.82 214.617L142.849 216.632H141.273V214.6L139.428 215.7L138.634 214.333L140.461 213.355L138.634 212.353L139.439 210.992L141.284 212.086V210.06H142.861L142.831 212.086L144.676 210.992L145.499 212.353L143.649 213.349Z" fill="#0158A3"/>
<path d="M66.1311 225.962H57.2864C56.1922 225.96 55.1433 225.529 54.3696 224.761C53.5958 223.994 53.1605 222.953 53.1589 221.868V206.29C53.1605 205.205 53.596 204.165 54.3699 203.398C55.1438 202.632 56.1928 202.201 57.2864 202.201H66.1311C67.2248 202.201 68.2737 202.632 69.0476 203.398C69.8215 204.165 70.257 205.205 70.2586 206.29V221.862C70.2586 222.948 69.8239 223.99 69.05 224.759C68.2761 225.528 67.2263 225.96 66.1311 225.962ZM57.2864 202.491C56.2702 202.491 55.2955 202.891 54.5763 203.603C53.8572 204.315 53.4524 205.282 53.4508 206.29V221.862C53.4524 222.87 53.857 223.837 54.576 224.551C55.2949 225.264 56.2696 225.665 57.2864 225.667H66.1311C67.1484 225.667 68.124 225.266 68.8433 224.552C69.5626 223.839 69.9667 222.871 69.9667 221.862V206.284C69.9651 205.276 69.5603 204.31 68.8412 203.597C68.1221 202.885 67.1473 202.485 66.1311 202.485L57.2864 202.491Z" fill="#263238"/>
<path d="M86.6752 225.962H77.8305C77.2863 225.964 76.7469 225.86 76.2434 225.655C75.7399 225.45 75.2822 225.148 74.8965 224.767C74.5108 224.386 74.2048 223.933 73.996 223.435C73.7872 222.936 73.6797 222.402 73.6797 221.862V206.284C73.6812 205.199 74.1168 204.159 74.8907 203.392C75.6646 202.626 76.7135 202.195 77.8072 202.195H86.6518C87.7455 202.195 88.7945 202.626 89.5684 203.392C90.3423 204.159 90.7778 205.199 90.7793 206.284V221.862C90.7794 222.944 90.3479 223.983 89.5791 224.751C88.8102 225.519 87.7664 225.954 86.6752 225.962ZM77.8305 202.491C76.8143 202.491 75.8396 202.891 75.1204 203.603C74.4013 204.315 73.9965 205.282 73.9949 206.29V221.862C73.9965 222.87 74.4011 223.837 75.1201 224.55C75.839 225.264 76.8138 225.665 77.8305 225.667H86.6752C87.6925 225.667 88.6681 225.266 89.3874 224.552C90.1067 223.839 90.5108 222.871 90.5108 221.862V206.284C90.5092 205.276 90.1045 204.309 89.3853 203.597C88.6662 202.885 87.6914 202.485 86.6752 202.485L77.8305 202.491Z" fill="#263238"/>
<path d="M106.659 225.962H97.8084C96.7142 225.96 95.6653 225.529 94.8915 224.761C94.1178 223.994 93.6825 222.953 93.6809 221.868V206.29C93.6825 205.205 94.118 204.165 94.8919 203.398C95.6658 202.632 96.7147 202.201 97.8084 202.201H106.659C107.752 202.203 108.799 202.634 109.572 203.4C110.344 204.167 110.779 205.206 110.781 206.29V221.862C110.781 222.4 110.675 222.932 110.469 223.429C110.262 223.926 109.959 224.378 109.576 224.759C109.193 225.139 108.738 225.442 108.238 225.648C107.738 225.855 107.201 225.961 106.659 225.962ZM97.8084 202.491C96.7922 202.491 95.8174 202.891 95.0983 203.603C94.3791 204.315 93.9744 205.282 93.9728 206.29V221.862C93.9744 222.87 94.379 223.837 95.0979 224.551C95.8169 225.264 96.7916 225.665 97.8084 225.667H106.659C107.675 225.665 108.649 225.264 109.367 224.55C110.085 223.837 110.489 222.87 110.489 221.862V206.284C110.489 205.276 110.085 204.31 109.367 203.598C108.649 202.885 107.675 202.485 106.659 202.485L97.8084 202.491Z" fill="#263238"/>
<path d="M126.864 225.962H118.014C116.92 225.96 115.871 225.529 115.097 224.761C114.323 223.994 113.888 222.953 113.886 221.868V206.29C113.888 205.205 114.324 204.165 115.097 203.398C115.871 202.632 116.92 202.201 118.014 202.201H126.864C127.957 202.203 129.005 202.634 129.777 203.4C130.55 204.167 130.985 205.206 130.986 206.29V221.862C130.987 222.4 130.881 222.932 130.674 223.429C130.467 223.926 130.164 224.378 129.781 224.759C129.399 225.139 128.944 225.442 128.444 225.648C127.943 225.855 127.407 225.961 126.864 225.962ZM118.014 202.491C116.998 202.491 116.023 202.891 115.304 203.603C114.585 204.315 114.18 205.282 114.178 206.29V221.862C114.18 222.87 114.585 223.837 115.304 224.551C116.022 225.264 116.997 225.665 118.014 225.667H126.864C127.881 225.665 128.855 225.264 129.573 224.55C130.291 223.837 130.694 222.87 130.694 221.862V206.284C130.694 205.276 130.291 204.31 129.573 203.598C128.854 202.885 127.88 202.485 126.864 202.485L118.014 202.491Z" fill="#263238"/>
<path d="M146.48 225.962H137.636C136.542 225.96 135.493 225.529 134.719 224.761C133.945 223.994 133.51 222.953 133.508 221.868V206.29C133.51 205.205 133.945 204.165 134.719 203.398C135.493 202.632 136.542 202.201 137.636 202.201H146.48C147.574 202.201 148.623 202.632 149.397 203.398C150.171 204.165 150.606 205.205 150.608 206.29V221.862C150.608 222.948 150.173 223.99 149.399 224.759C148.626 225.528 147.576 225.96 146.48 225.962ZM137.636 202.491C136.62 202.491 135.645 202.891 134.926 203.603C134.207 204.315 133.802 205.282 133.8 206.29V221.862C133.8 222.871 134.204 223.839 134.924 224.552C135.643 225.266 136.619 225.667 137.636 225.667H146.48C147.497 225.665 148.472 225.264 149.191 224.551C149.91 223.837 150.314 222.87 150.316 221.862V206.284C150.314 205.276 149.91 204.31 149.191 203.597C148.471 202.885 147.497 202.485 146.48 202.485L137.636 202.491Z" fill="#263238"/>
<path d="M145.832 244.771H59.8902C56.25 244.771 53.2991 247.699 53.2991 251.31V255.456C53.2991 259.067 56.25 261.994 59.8902 261.994H145.832C149.472 261.994 152.423 259.067 152.423 255.456V251.31C152.423 247.699 149.472 244.771 145.832 244.771Z" fill="#0158A3"/>
<path d="M90.3474 249.92H93.0154C94.9361 249.92 96.2555 251.078 96.2555 252.815C96.2555 254.553 94.9361 255.711 93.0154 255.711H90.3474V249.92ZM92.9453 254.64C93.4284 254.64 93.8917 254.449 94.2333 254.11C94.5749 253.772 94.7668 253.312 94.7668 252.833C94.7668 252.354 94.5749 251.894 94.2333 251.555C93.8917 251.216 93.4284 251.026 92.9453 251.026H91.7018V254.64H92.9453Z" fill="white"/>
<path d="M96.8508 253.51C96.8204 253.017 96.94 252.526 97.1942 252.101C97.4483 251.676 97.8253 251.337 98.2762 251.126C98.7271 250.916 99.2313 250.846 99.7232 250.923C100.215 251.001 100.672 251.223 101.036 251.561C101.399 251.899 101.651 252.338 101.76 252.82C101.869 253.302 101.829 253.806 101.646 254.266C101.463 254.725 101.146 255.12 100.734 255.398C100.322 255.676 99.836 255.826 99.3378 255.827C99.0186 255.847 98.6986 255.803 98.3975 255.695C98.0964 255.588 97.8207 255.421 97.5876 255.204C97.3544 254.987 97.1687 254.724 97.0419 254.433C96.9152 254.141 96.8502 253.827 96.8508 253.51ZM100.488 253.51C100.488 253.203 100.365 252.908 100.146 252.691C99.927 252.474 99.63 252.352 99.3203 252.352C99.0107 252.352 98.7137 252.474 98.4947 252.691C98.2757 252.908 98.1527 253.203 98.1527 253.51C98.1527 253.817 98.2757 254.112 98.4947 254.329C98.7137 254.546 99.0107 254.668 99.3203 254.668C99.63 254.668 99.927 254.546 100.146 254.329C100.365 254.112 100.488 253.817 100.488 253.51Z" fill="white"/>
<path d="M107.301 253.186V255.745H105.993V253.383C105.993 252.659 105.655 252.329 105.077 252.329C104.499 252.329 103.997 252.711 103.997 253.533V255.745H102.689V251.269H103.938V251.796C104.133 251.601 104.366 251.449 104.624 251.349C104.881 251.25 105.157 251.205 105.433 251.217C106.495 251.205 107.301 251.819 107.301 253.186Z" fill="white"/>
<path d="M112.935 253.875H109.52C109.591 254.153 109.76 254.396 109.997 254.561C110.234 254.725 110.522 254.8 110.81 254.772C111.019 254.781 111.227 254.747 111.422 254.673C111.617 254.598 111.794 254.484 111.942 254.338L112.643 255.091C112.405 255.339 112.114 255.533 111.793 255.658C111.471 255.783 111.125 255.836 110.781 255.815C109.216 255.815 108.2 254.842 108.2 253.498C108.194 253.186 108.253 252.876 108.373 252.587C108.493 252.298 108.672 252.037 108.898 251.82C109.124 251.602 109.393 251.434 109.688 251.324C109.982 251.214 110.297 251.166 110.611 251.182C110.922 251.167 111.232 251.217 111.522 251.328C111.812 251.439 112.076 251.609 112.296 251.827C112.516 252.045 112.687 252.307 112.799 252.594C112.911 252.882 112.961 253.19 112.946 253.498C112.958 253.626 112.941 253.764 112.935 253.875ZM109.502 253.133H111.726C111.683 252.871 111.548 252.633 111.344 252.461C111.14 252.289 110.882 252.195 110.614 252.195C110.347 252.195 110.088 252.289 109.884 252.461C109.68 252.633 109.545 252.871 109.502 253.133Z" fill="white"/>
<path d="M101.883 162.544C111.572 162.544 119.427 154.752 119.427 145.141C119.427 135.53 111.572 127.739 101.883 127.739C92.1945 127.739 84.3401 135.53 84.3401 145.141C84.3401 154.752 92.1945 162.544 101.883 162.544Z" fill="#0158A3"/>
<path d="M98.7834 141.974H98.4915V140.353C98.4915 139.453 98.8519 138.589 99.4935 137.953C100.135 137.317 101.005 136.959 101.913 136.959C102.82 136.959 103.69 137.317 104.332 137.953C104.973 138.589 105.334 139.453 105.334 140.353V141.673H105.042V140.353C105.042 139.529 104.712 138.74 104.125 138.158C103.538 137.576 102.742 137.249 101.913 137.249C101.083 137.249 100.287 137.576 99.6999 138.158C99.113 138.74 98.7834 139.529 98.7834 140.353V141.974Z" fill="white"/>
<path d="M106.232 153.324H97.5338C97.1518 153.323 96.7859 153.172 96.5158 152.904C96.2457 152.636 96.0933 152.273 96.0918 151.894V143.259C96.0933 142.881 96.2457 142.518 96.5158 142.25C96.7859 141.982 97.1518 141.831 97.5338 141.829H106.232C106.614 141.831 106.98 141.982 107.25 142.25C107.521 142.518 107.673 142.881 107.674 143.259V151.894C107.673 152.273 107.521 152.636 107.25 152.904C106.98 153.172 106.614 153.323 106.232 153.324ZM97.5338 142.119C97.2241 142.119 96.9271 142.241 96.7082 142.458C96.4892 142.675 96.3662 142.97 96.3662 143.277V151.911C96.3662 152.219 96.4892 152.513 96.7082 152.73C96.9271 152.948 97.2241 153.07 97.5338 153.07H106.232C106.542 153.07 106.839 152.948 107.058 152.73C107.277 152.513 107.4 152.219 107.4 151.911V143.259C107.4 142.952 107.277 142.658 107.058 142.441C106.839 142.223 106.542 142.101 106.232 142.101L97.5338 142.119Z" fill="white"/>
<path d="M101.924 147.858C101.654 147.858 101.39 147.778 101.165 147.629C100.941 147.48 100.765 147.269 100.662 147.021C100.559 146.774 100.532 146.501 100.584 146.238C100.637 145.975 100.767 145.734 100.958 145.544C101.149 145.355 101.393 145.226 101.658 145.174C101.923 145.121 102.197 145.148 102.447 145.251C102.697 145.353 102.91 145.527 103.06 145.75C103.21 145.973 103.29 146.235 103.29 146.503C103.29 146.862 103.146 147.207 102.89 147.461C102.634 147.715 102.287 147.858 101.924 147.858ZM101.924 145.443C101.712 145.443 101.504 145.505 101.327 145.623C101.15 145.74 101.012 145.907 100.931 146.102C100.85 146.297 100.829 146.512 100.871 146.718C100.913 146.925 101.016 147.115 101.167 147.264C101.318 147.413 101.509 147.514 101.718 147.554C101.927 147.595 102.143 147.573 102.339 147.491C102.536 147.41 102.703 147.272 102.82 147.096C102.938 146.92 103 146.714 102.998 146.503C103.001 146.361 102.975 146.221 102.922 146.089C102.869 145.958 102.79 145.839 102.69 145.738C102.59 145.637 102.471 145.557 102.339 145.502C102.208 145.448 102.067 145.42 101.924 145.42V145.443Z" fill="white"/>
<path d="M102.029 147.655H101.737V150.099H102.029V147.655Z" fill="white"/>
<path d="M203.473 101.267L206.205 98.7078C209.163 99.1485 212.18 98.4762 214.664 96.823C217.148 95.1699 218.918 92.6552 219.628 89.7731C220.338 86.891 219.937 83.8496 218.501 81.2465C217.066 78.6433 214.702 76.6664 211.873 75.7042C209.043 74.7419 205.954 74.8638 203.21 76.0459C200.467 77.228 198.268 79.3849 197.046 82.0929C195.824 84.8009 195.667 87.8643 196.605 90.6814C197.544 93.4985 199.51 95.8657 202.119 97.318L203.473 101.267Z" fill="white"/>
<path d="M203.473 101.268L203.385 101.001C203.327 100.827 203.245 100.573 203.14 100.243C202.918 99.5708 202.591 98.5863 202.171 97.3007L202.124 97.347C202.131 97.3527 202.139 97.3559 202.148 97.3559C202.156 97.3559 202.165 97.3527 202.171 97.347C202.175 97.3411 202.178 97.3341 202.178 97.3268C202.178 97.3195 202.175 97.3124 202.171 97.3065C200.433 96.3294 198.97 94.9356 197.915 93.2528C197.588 92.7334 197.303 92.1893 197.063 91.6255C196.823 91.0187 196.628 90.3955 196.479 89.7607C195.742 86.7818 196.203 83.6352 197.765 80.9878C199.327 78.3403 201.866 76.4 204.845 75.5778C207.824 74.7557 211.009 75.1163 213.724 76.5833C216.44 78.0503 218.473 80.5084 219.393 83.4369C219.924 85.0811 220.078 86.8223 219.843 88.533C219.44 91.578 217.859 94.3483 215.435 96.2583L215.026 96.5653C214.899 96.6715 214.762 96.7665 214.618 96.849L213.783 97.3644C213.231 97.6476 212.664 97.9008 212.084 98.1231C210.217 98.7953 208.21 98.9943 206.246 98.7022H206.217C205.341 99.5361 204.664 100.173 204.208 100.613L203.683 101.111L203.508 101.285L203.683 101.129L204.203 100.648L206.263 98.7543H206.234C208.213 99.0666 210.24 98.8773 212.125 98.2041C212.711 97.988 213.282 97.7346 213.835 97.4455L214.682 96.9359C214.83 96.8534 214.971 96.7585 215.102 96.6521L215.511 96.3394C217.429 94.8374 218.843 92.7929 219.564 90.4765C220.286 88.1601 220.281 85.6811 219.551 83.3674C218.977 81.5974 218.002 79.981 216.702 78.6419C215.333 77.2423 213.639 76.1965 211.769 75.5958C211.539 75.5107 211.303 75.443 211.062 75.3931L210.356 75.2251L209.644 75.1209C209.407 75.0758 209.167 75.0506 208.926 75.0456L208.213 75.0109C207.974 74.9964 207.734 74.9964 207.495 75.0109C207.262 75.0109 207.022 75.0109 206.789 75.0514L206.094 75.1556C204.279 75.4448 202.556 76.1486 201.062 77.2115C199.099 78.5941 197.601 80.53 196.762 82.7678C195.923 85.0057 195.782 87.4421 196.356 89.7607C196.516 90.4023 196.723 91.0313 196.975 91.6428C197.221 92.2101 197.51 92.758 197.839 93.2817C198.914 94.971 200.399 96.3651 202.159 97.3355V97.266C202.149 97.2642 202.139 97.2661 202.13 97.2715C202.122 97.2768 202.115 97.2852 202.113 97.2949L203.134 100.248L203.391 100.995C203.438 101.21 203.473 101.268 203.473 101.268Z" fill="#263238"/>
<path d="M201.774 86.7609L203.578 85.1568L206.719 88.2377L212.417 82.9678L213.911 84.7456L206.299 91.498L201.774 86.7609Z" fill="#263238"/>
<path d="M223.898 327.706L212.882 302.497L200.243 310.547L213.647 333.589L220.366 330.601L223.898 327.706Z" fill="#FFBE9D"/>
<path d="M223.653 326.298L224.015 327.016C224.015 327.016 238.698 325.771 240 328.006L215.69 340L211.995 331.811C216.443 331.695 220.32 330.016 223.653 326.298Z" fill="#0158A3"/>
<g opacity="0.6">
<path d="M215.743 333.172C215.544 333.357 215.422 333.609 215.399 333.878C215.377 334.148 215.455 334.416 215.62 334.631C215.8 334.835 216.051 334.963 216.323 334.987C216.595 335.012 216.866 334.932 217.08 334.764C217.289 334.567 217.418 334.3 217.441 334.015C217.463 333.729 217.378 333.445 217.202 333.218C216.996 333.022 216.721 332.912 216.435 332.912C216.149 332.912 215.874 333.022 215.667 333.218" fill="white"/>
</g>
<g opacity="0.6">
<path d="M215.69 340L214.803 338.031L238.424 327.26C238.424 327.26 239.743 327.196 240 328.013L215.69 340Z" fill="white"/>
</g>
<path d="M224.138 327.039C224.19 327.161 223.624 327.503 223.233 328.198C222.842 328.892 222.772 329.512 222.649 329.518C222.527 329.524 222.351 328.759 222.842 327.96C223.332 327.161 224.109 326.918 224.138 327.039Z" fill="#263238"/>
<path d="M227.22 326.826C227.308 326.93 226.893 327.405 226.742 328.077C226.59 328.748 226.742 329.362 226.613 329.414C226.485 329.466 226.082 328.835 226.292 327.972C226.502 327.109 227.15 326.716 227.22 326.826Z" fill="#263238"/>
<path d="M230.18 329.136C230.081 329.217 229.597 328.708 229.597 327.914C229.597 327.121 230.005 326.588 230.105 326.663C230.204 326.739 230.035 327.242 230.058 327.903C230.081 328.563 230.291 329.067 230.18 329.136Z" fill="#263238"/>
<path d="M203.179 332.083L203.6 304.604L188.742 306.782L191.392 333.259L198.76 333.276L203.179 332.083Z" fill="#FFBE9D"/>
<path d="M203.535 330.699L203.576 331.498C203.576 331.498 217.471 336.363 217.728 338.928L190.593 339.936L190.622 330.966C194.726 332.668 198.958 332.72 203.535 330.699Z" fill="#0158A3"/>
<g opacity="0.6">
<path d="M193.477 333.728C193.219 333.818 193.004 333.999 192.871 334.236C192.739 334.473 192.699 334.75 192.759 335.014C192.839 335.273 193.016 335.492 193.254 335.626C193.491 335.759 193.772 335.797 194.037 335.732C194.311 335.638 194.541 335.446 194.68 335.193C194.819 334.94 194.858 334.645 194.79 334.365C194.676 334.107 194.465 333.902 194.201 333.794C193.938 333.686 193.643 333.683 193.377 333.786" fill="white"/>
</g>
<g opacity="0.6">
<path d="M190.593 339.936V337.782L216.595 337.603C216.595 337.603 217.827 338.077 217.722 338.929L190.593 339.936Z" fill="white"/>
</g>
<path d="M203.67 331.568C203.67 331.701 203.01 331.788 202.374 332.234C201.737 332.68 201.416 333.241 201.288 333.195C201.159 333.149 201.335 332.384 202.111 331.857C202.887 331.33 203.693 331.446 203.67 331.568Z" fill="#263238"/>
<path d="M206.559 332.634C206.594 332.755 206.034 333.004 205.602 333.578C205.17 334.151 205.065 334.736 204.931 334.736C204.796 334.736 204.691 333.995 205.234 333.288C205.777 332.582 206.554 332.506 206.559 332.634Z" fill="#263238"/>
<path d="M208.305 335.946C208.188 335.975 207.978 335.326 208.305 334.596C208.632 333.867 209.228 333.554 209.292 333.658C209.356 333.762 208.982 334.168 208.708 334.77C208.434 335.372 208.44 335.946 208.305 335.946Z" fill="#263238"/>
<path d="M192.49 220.061L191.935 198.426L170.708 199.532L170.008 202.092C168.866 206.055 167.939 210.076 167.229 214.137C165.804 223.2 165.973 231.447 169.564 241.135C173.154 250.823 178.765 269.245 178.765 269.245L199.822 326.941L224.342 318.944L192.49 220.061Z" fill="#263238"/>
<path d="M205.328 197.725L207.178 203.718C209.899 205.456 214.295 213.969 214.698 217.455C215.101 220.941 215.865 232.876 215.066 246.868C214.383 258.375 208.644 325.725 208.644 325.725L185.443 326.941L187.86 218.034L188.882 198.587L205.328 197.725Z" fill="#263238"/>
<path d="M165.571 216.129C165.829 216.238 166.1 216.318 166.376 216.366C167.12 216.531 167.875 216.631 168.636 216.667C171.169 216.803 173.694 216.288 175.968 215.172C178.241 214.056 180.186 212.377 181.614 210.297C182.048 209.676 182.425 209.017 182.741 208.328C182.871 208.082 182.971 207.822 183.038 207.552C182.98 207.523 182.542 208.635 181.427 210.17C179.976 212.173 178.053 213.793 175.825 214.888C173.597 215.984 171.133 216.521 168.647 216.453C167.617 216.397 166.59 216.289 165.571 216.129Z" fill="#455A64"/>
<path d="M204.452 204.558C204.469 204.732 204.514 204.902 204.586 205.062C204.737 205.505 204.917 205.938 205.124 206.359C206.478 209.175 208.597 211.562 211.242 213.25C211.638 213.505 212.049 213.735 212.474 213.939C212.624 214.029 212.788 214.095 212.958 214.136C212.987 214.084 212.339 213.737 211.37 213.059C208.837 211.305 206.765 208.974 205.328 206.261C204.762 205.224 204.493 204.541 204.452 204.558Z" fill="#455A64"/>
<path d="M193.517 222.95C193.517 222.95 193.576 223.095 193.675 223.396L194.101 224.722C194.475 225.88 195.018 227.618 195.712 229.824C197.102 234.272 199.11 240.688 201.591 248.616C206.624 264.461 213.016 286.53 221.587 310.419C222.567 313.279 223.54 316.104 224.506 318.891L224.552 319.042L224.406 319.088L199.887 327.074L199.752 327.12L199.706 326.987L185.607 288.187L181.596 277.074C181.135 275.788 180.784 274.792 180.539 274.114C180.422 273.782 180.335 273.528 180.277 273.35L180.189 273.089C180.189 273.089 180.23 273.17 180.294 273.344C180.358 273.518 180.458 273.773 180.586 274.097L181.684 277.039C182.635 279.627 184.019 283.409 185.77 288.129L199.968 326.871L199.793 326.784L224.313 318.781L224.214 318.972C223.256 316.185 222.283 313.361 221.295 310.5C212.724 286.606 206.367 264.53 201.387 248.668C198.947 240.723 196.973 234.295 195.601 229.847C194.93 227.624 194.405 225.904 194.048 224.722C193.873 224.143 193.739 223.697 193.652 223.39C193.564 223.083 193.517 222.95 193.517 222.95Z" fill="#455A64"/>
<path d="M214.377 160.158C214.377 160.158 213.268 154.002 210.086 151.055C206.904 148.107 193.646 144.771 193.646 144.771C193.646 144.771 193.804 149.34 190.838 150.562C187.697 151.865 184.556 151.425 182.081 148.825C180.589 147.209 179.549 145.235 179.062 143.098C179.062 143.098 163.346 145.374 161.11 149.601C158.875 153.829 156.533 169.87 156.533 169.87L170.772 172.099L170.311 199.538L207.733 197.586L205.62 171.984L215.883 172.893L214.377 160.158Z" fill="#455A64"/>
<path d="M173.609 172.869C173.632 172.665 173.632 172.459 173.609 172.255C173.609 171.856 173.574 171.282 173.534 170.57C173.458 169.157 173.335 167.2 173.172 165.04C173.008 162.88 172.851 160.922 172.716 159.509C172.646 158.803 172.588 158.229 172.541 157.836C172.532 157.629 172.494 157.424 172.43 157.228C172.4 157.431 172.4 157.638 172.43 157.841C172.43 158.241 172.465 158.814 172.506 159.521C172.582 160.94 172.705 162.897 172.868 165.057C173.031 167.217 173.189 169.175 173.323 170.588C173.388 171.294 173.452 171.867 173.499 172.261C173.504 172.468 173.541 172.673 173.609 172.869Z" fill="#263238"/>
<path d="M208.457 159.765C208.369 159.765 207.64 162.562 206.822 166.06C206.276 168.16 205.835 170.286 205.503 172.43C206.154 170.36 206.7 168.259 207.138 166.135C207.684 164.035 208.125 161.909 208.457 159.765Z" fill="#263238"/>
<path d="M162.617 148.558C162.617 148.616 163.294 148.703 164.368 149.039C165.731 149.478 167.007 150.148 168.139 151.02C169.265 151.901 170.23 152.966 170.994 154.17C171.578 155.102 171.823 155.739 171.882 155.716C171.861 155.556 171.816 155.4 171.747 155.253C171.596 154.839 171.41 154.438 171.193 154.054C169.723 151.498 167.292 149.624 164.432 148.842C164.007 148.722 163.571 148.638 163.13 148.593C162.963 148.55 162.789 148.538 162.617 148.558Z" fill="#263238"/>
<path d="M210.383 152.294C210.086 152.914 209.888 153.576 209.8 154.257C209.613 154.914 209.532 155.596 209.56 156.278C209.846 155.658 210.033 154.998 210.115 154.321C210.311 153.663 210.402 152.979 210.383 152.294Z" fill="#263238"/>
<path d="M159.055 170.28C159.055 170.28 164.403 191.308 164.981 193.103C165.559 194.898 166.598 199.751 171.759 200.492C178.729 201.5 205.76 199.131 205.76 199.131L200.313 192.981L176.266 187.63L172.179 172.342L159.055 170.28Z" fill="#FFBE9D"/>
<path d="M200.57 189.374C200.478 189.529 200.419 189.7 200.395 189.878C200.277 190.346 200.21 190.826 200.196 191.308C200.137 192.919 200.56 194.51 201.41 195.883C201.865 196.641 202.425 197.331 203.074 197.933C203.613 198.425 204.249 198.8 204.942 199.034C205.409 199.182 205.895 199.264 206.384 199.277C206.563 199.296 206.743 199.281 206.916 199.23C206.274 199.151 205.641 199.014 205.024 198.819C204.372 198.57 203.777 198.194 203.273 197.713C202.66 197.117 202.127 196.445 201.685 195.715C200.871 194.386 200.435 192.863 200.424 191.308C200.418 190.115 200.628 189.386 200.57 189.374Z" fill="#EB996E"/>
<path d="M173.44 167.756C173.225 167.757 173.009 167.736 172.798 167.692L171.047 167.443C169.587 167.235 167.544 166.997 165.331 166.708C163.418 166.477 161.519 166.15 159.639 165.729C158.921 165.555 158.343 165.399 157.952 165.271C157.749 165.22 157.554 165.147 157.368 165.051C157.368 164.999 158.267 165.231 159.703 165.515C161.14 165.798 163.16 166.094 165.39 166.401C167.62 166.708 169.646 166.98 171.099 167.223C171.829 167.356 172.413 167.478 172.816 167.576C173.031 167.606 173.242 167.666 173.44 167.756Z" fill="#0158A3"/>
<path d="M172.343 160.754C172.162 160.787 171.977 160.797 171.794 160.783C171.438 160.783 170.924 160.783 170.288 160.737C169.021 160.673 167.27 160.534 165.343 160.297C163.416 160.059 161.682 159.764 160.439 159.515C159.814 159.387 159.312 159.277 158.968 159.19C158.785 159.166 158.607 159.112 158.442 159.028C159.127 159.071 159.808 159.162 160.48 159.301C161.729 159.492 163.463 159.752 165.378 159.99C167.293 160.227 169.038 160.401 170.305 160.517C170.989 160.547 171.67 160.626 172.343 160.754Z" fill="#0158A3"/>
<path d="M171.123 155.427C170.57 155.49 170.011 155.49 169.459 155.427C166.785 155.245 164.142 154.754 161.583 153.962C161.044 153.825 160.521 153.631 160.024 153.383C160.573 153.463 161.114 153.589 161.642 153.759C162.628 154.014 164.006 154.338 165.536 154.628C167.065 154.917 168.455 155.097 169.482 155.207C170.034 155.237 170.582 155.311 171.123 155.427Z" fill="#0158A3"/>
<path d="M181.1 147.835C180.491 148.081 179.862 148.274 179.22 148.414C178.052 148.715 176.424 149.086 174.62 149.445C172.816 149.804 171.163 150.076 169.949 150.25C169.306 150.374 168.654 150.442 167.999 150.453C168.625 150.268 169.263 150.129 169.908 150.036L174.532 149.144L179.15 148.2C179.789 148.028 180.441 147.906 181.1 147.835Z" fill="#0158A3"/>
<path d="M210.109 154.106C209.88 154.053 209.656 153.975 209.444 153.874L207.657 153.145C206.157 152.531 204.079 151.68 201.767 150.782C199.455 149.884 197.347 149.114 195.818 148.558L194.014 147.898C193.785 147.83 193.565 147.735 193.36 147.614C193.595 147.645 193.826 147.702 194.049 147.782C194.492 147.904 195.117 148.101 195.894 148.361C197.441 148.865 199.566 149.606 201.883 150.504C204.201 151.402 206.268 152.282 207.721 152.954C208.463 153.29 209.058 153.567 209.473 153.77C209.697 153.857 209.911 153.97 210.109 154.106Z" fill="#0158A3"/>
<path d="M208.457 159.504C208.335 159.503 208.214 159.49 208.095 159.463L207.056 159.301L203.261 158.641C200.056 158.062 195.625 157.315 190.698 156.724C188.234 156.44 185.881 156.238 183.733 156.11C181.585 155.983 179.646 155.954 178.029 155.983C177.218 155.983 176.482 156.018 175.834 156.035C175.186 156.052 174.637 156.075 174.182 156.11L173.137 156.162C173.015 156.176 172.891 156.176 172.769 156.162C172.887 156.13 173.009 156.11 173.131 156.104L174.17 155.994C174.626 155.942 175.18 155.896 175.828 155.867C176.476 155.838 177.212 155.774 178.023 155.769C179.652 155.716 181.596 155.74 183.75 155.832C185.905 155.925 188.263 156.139 190.756 156.411C195.689 156.99 200.097 157.807 203.32 158.421C204.913 158.728 206.239 159 207.097 159.174L208.124 159.4C208.239 159.42 208.351 159.455 208.457 159.504Z" fill="#0158A3"/>
<path d="M193.36 168.966C193.094 168.991 192.826 168.991 192.56 168.966C192.04 168.937 191.299 168.874 190.376 168.781C188.543 168.59 186.01 168.26 183.237 167.756C180.463 167.252 177.982 166.679 176.19 166.216C175.297 165.978 174.579 165.781 174.088 165.637C173.828 165.573 173.574 165.486 173.329 165.376C173.597 165.394 173.861 165.443 174.117 165.521L176.243 166.013C178.041 166.424 180.528 166.963 183.295 167.467C186.062 167.97 188.578 168.329 190.406 168.573L192.572 168.862C192.837 168.869 193.101 168.904 193.36 168.966Z" fill="#0158A3"/>
<path d="M206.058 169.163C204.084 169.333 202.102 169.402 200.12 169.371C198.143 169.437 196.163 169.405 194.189 169.273C196.161 169.099 198.141 169.029 200.12 169.064C202.1 168.991 204.082 169.024 206.058 169.163Z" fill="#0158A3"/>
<path d="M189.378 177.479C189.162 177.499 188.944 177.489 188.73 177.45C188.322 177.415 187.72 177.34 186.979 177.236C185.508 177.027 183.476 176.657 181.275 176.164C179.074 175.672 177.095 175.076 175.688 174.618C174.982 174.386 174.415 174.19 174.024 174.039C173.82 173.977 173.625 173.891 173.44 173.784C173.656 173.802 173.868 173.849 174.071 173.923L175.758 174.41C177.177 174.815 179.15 175.348 181.351 175.863C183.552 176.379 185.56 176.761 187.02 177.021L188.771 177.334C188.979 177.357 189.183 177.406 189.378 177.479Z" fill="#0158A3"/>
<path d="M203.127 178.081C202.502 178.143 201.872 178.143 201.247 178.081C200.08 178.041 198.486 177.925 196.729 177.699C194.971 177.473 193.389 177.178 192.257 176.929C191.638 176.823 191.032 176.656 190.447 176.431C191.072 176.478 191.693 176.573 192.303 176.714C193.442 176.911 195.018 177.166 196.769 177.392C198.521 177.618 200.109 177.768 201.259 177.867C201.886 177.894 202.51 177.966 203.127 178.081Z" fill="#0158A3"/>
<path d="M200.26 185.645C200.186 185.69 200.106 185.724 200.021 185.743C199.863 185.789 199.63 185.87 199.32 185.952C198.456 186.182 197.579 186.362 196.693 186.49C193.764 186.895 190.795 186.92 187.86 186.565C184.93 186.214 182.027 185.675 179.167 184.95C178.07 184.683 177.188 184.452 176.575 184.284C176.253 184.217 175.939 184.12 175.635 183.994C175.962 184.03 176.286 184.088 176.604 184.168L179.22 184.747C182.081 185.404 184.975 185.913 187.889 186.27C190.798 186.61 193.737 186.61 196.646 186.27C197.761 186.131 198.661 185.963 199.279 185.83C199.601 185.744 199.929 185.683 200.26 185.645Z" fill="#0158A3"/>
<path d="M213.752 163.911C212.773 164.068 211.784 164.148 210.792 164.148C209.801 164.253 208.8 164.229 207.815 164.079C208.793 163.921 209.783 163.842 210.775 163.841C211.766 163.737 212.767 163.76 213.752 163.911Z" fill="#0158A3"/>
<path d="M212.964 156.857C211.884 156.996 210.788 156.926 209.735 156.648C210.815 156.517 211.91 156.587 212.964 156.857Z" fill="#0158A3"/>
<path d="M188.246 177.983C188.216 177.931 188.859 177.612 189.734 176.894C190.24 176.471 190.705 176.001 191.124 175.492C192.144 174.236 192.861 172.764 193.22 171.19C193.361 170.546 193.441 169.891 193.459 169.232C193.488 168.109 193.336 167.414 193.395 167.402C193.467 167.554 193.515 167.716 193.535 167.883C193.581 168.073 193.612 168.267 193.628 168.462C193.659 168.718 193.677 168.975 193.681 169.232C193.694 169.909 193.634 170.584 193.5 171.248C193.163 172.877 192.423 174.397 191.346 175.672C190.906 176.19 190.411 176.658 189.869 177.068C189.664 177.227 189.449 177.374 189.226 177.508C189.062 177.615 188.891 177.709 188.713 177.792C188.569 177.881 188.411 177.946 188.246 177.983Z" fill="#263238"/>
<g opacity="0.3">
<path d="M193.249 172.343L190.978 175.69C189.442 177.595 187.295 178.921 184.895 179.448C185.947 179.814 187.077 179.9 188.173 179.695C189.268 179.491 190.291 179.005 191.137 178.285C191.983 177.565 192.624 176.637 192.995 175.594C193.365 174.551 193.453 173.43 193.249 172.343Z" fill="black"/>
</g>
<path d="M199.98 137.451C202.147 137.639 204.323 137.201 206.244 136.189C203.419 134.451 201.638 131.405 200.774 128.226C199.91 125.047 198.801 119.626 198.772 116.337L193.599 139.136C196.325 139.747 199.174 139.527 201.772 138.505C201.41 138.486 201.058 138.379 200.746 138.196C200.434 138.013 200.171 137.757 199.98 137.451Z" fill="#263238"/>
<path d="M185.221 140.207C184.097 137.646 183.666 134.837 183.972 132.059L173.545 128.139C173.065 130.952 171.926 133.614 170.218 135.91C169.581 136.767 168.822 137.763 169.12 138.806C169.25 139.152 169.467 139.459 169.75 139.699C170.033 139.94 170.373 140.104 170.737 140.178C171.471 140.303 172.222 140.303 172.956 140.178L171.625 141.62C176.108 140.765 180.657 140.292 185.221 140.207Z" fill="#263238"/>
<path d="M186.103 106.133C182.816 105.797 180.037 107.227 177.416 109.22C174.804 111.269 172.885 114.062 171.917 117.223C170.827 120.534 170.852 124.107 171.987 127.404C172.567 129.038 173.475 130.538 174.656 131.814C175.837 133.09 177.266 134.115 178.858 134.828C183.225 136.681 188.59 135.586 192.186 132.511C195.782 129.436 197.633 124.595 197.505 119.875C197.464 116.601 196.383 113.424 194.416 110.795C193.425 109.499 192.175 108.419 190.745 107.622C189.315 106.825 187.735 106.328 186.103 106.162" fill="#263238"/>
<path d="M177.597 117.703C177.988 116.441 177.714 115.074 177.813 113.754C178.041 110.858 180.23 108.386 182.857 107.088C185.309 105.878 188.397 105.93 191.491 106.683C193.639 107.178 195.6 108.271 197.143 109.833C198.13 110.897 198.847 112.179 199.232 113.574C199.617 114.968 199.659 116.434 199.355 117.848L184.357 116.69C183.109 117.994 181.654 119.086 180.049 119.921C179.578 120.167 179.051 120.287 178.519 120.269C178.246 120.255 177.983 120.161 177.763 119.999C177.542 119.837 177.375 119.615 177.282 119.36C177.107 118.827 177.404 118.254 177.597 117.703Z" fill="#263238"/>
<path d="M192.064 110.731L179.273 114.298C178.67 114.377 178.12 114.677 177.729 115.139C177.339 115.601 177.138 116.192 177.165 116.794L179.162 144.632C179.299 146.532 180.062 148.335 181.333 149.762L182.676 151.262C185.735 154.691 191.433 153.955 193.313 149.78C193.427 149.542 193.509 149.291 193.558 149.033C193.6 148.823 193.628 148.61 193.64 148.396C193.772 146.987 193.755 145.568 193.587 144.162C193.552 141.678 193.523 140.659 193.523 140.688C193.523 140.717 198.777 139.674 199.7 132.806C200.155 129.384 199.834 123.813 199.42 119.255C199.052 115.155 196.174 110.186 192.064 110.731Z" fill="#FFBE9D"/>
<path d="M196.962 123.633C196.968 123.862 196.885 124.085 196.729 124.255C196.574 124.424 196.358 124.527 196.127 124.542C196.015 124.554 195.902 124.544 195.794 124.512C195.687 124.479 195.587 124.426 195.5 124.355C195.413 124.284 195.342 124.196 195.29 124.097C195.239 123.998 195.207 123.889 195.199 123.778C195.189 123.55 195.27 123.327 195.424 123.157C195.578 122.987 195.792 122.884 196.022 122.869C196.135 122.856 196.249 122.866 196.357 122.897C196.466 122.929 196.567 122.982 196.655 123.054C196.743 123.125 196.815 123.213 196.868 123.313C196.92 123.412 196.952 123.521 196.962 123.633Z" fill="#263238"/>
<path d="M198.281 122.186C198.17 122.302 197.487 121.827 196.53 121.856C195.572 121.885 194.895 122.377 194.778 122.261C194.662 122.146 194.831 122.001 195.129 121.775C195.532 121.482 196.018 121.32 196.518 121.312C197.015 121.296 197.504 121.438 197.913 121.717C198.229 121.931 198.334 122.134 198.281 122.186Z" fill="#263238"/>
<path d="M187.948 124.102C187.956 124.331 187.874 124.554 187.719 124.724C187.564 124.893 187.349 124.997 187.119 125.011C187.007 125.023 186.893 125.013 186.785 124.981C186.677 124.949 186.576 124.896 186.489 124.824C186.402 124.753 186.331 124.665 186.278 124.566C186.226 124.467 186.194 124.359 186.185 124.247C186.177 124.018 186.259 123.795 186.413 123.626C186.568 123.456 186.783 123.353 187.014 123.338C187.126 123.326 187.239 123.336 187.347 123.368C187.455 123.401 187.556 123.454 187.643 123.525C187.73 123.596 187.802 123.684 187.854 123.783C187.906 123.882 187.938 123.991 187.948 124.102Z" fill="#263238"/>
<path d="M188.923 122.609C188.818 122.725 188.135 122.256 187.171 122.279C186.208 122.302 185.537 122.8 185.42 122.684C185.303 122.568 185.473 122.429 185.776 122.198C186.18 121.904 186.665 121.742 187.166 121.734C187.66 121.72 188.147 121.862 188.555 122.14C188.87 122.354 188.975 122.557 188.923 122.609Z" fill="#263238"/>
<path d="M192.566 129.523C193.064 129.353 193.582 129.246 194.107 129.205C194.352 129.205 194.58 129.118 194.615 128.956C194.628 128.706 194.565 128.457 194.434 128.243L193.663 126.425C192.595 123.836 191.819 121.705 191.912 121.665C192.005 121.624 192.969 123.686 194.037 126.298L194.773 128.127C194.935 128.414 194.988 128.749 194.924 129.071C194.893 129.159 194.842 129.238 194.774 129.301C194.706 129.365 194.623 129.411 194.533 129.436C194.4 129.475 194.263 129.496 194.125 129.5C193.608 129.573 193.084 129.581 192.566 129.523Z" fill="#263238"/>
<path d="M193.523 140.683C190.278 140.816 187.059 140.054 184.223 138.482C184.223 138.482 186.669 143.156 193.564 142.333L193.523 140.683Z" fill="#EB996E"/>
<path d="M192.227 131.81C192.039 131.591 191.798 131.423 191.526 131.321C191.255 131.22 190.962 131.189 190.674 131.231C190.466 131.251 190.264 131.312 190.08 131.412C189.896 131.511 189.735 131.647 189.606 131.81C189.477 131.974 189.404 132.174 189.395 132.382C189.387 132.59 189.444 132.795 189.559 132.968C189.718 133.132 189.922 133.245 190.145 133.294C190.368 133.344 190.601 133.327 190.815 133.246C191.262 133.078 191.671 132.822 192.017 132.494C192.12 132.414 192.208 132.318 192.28 132.21C192.314 132.157 192.333 132.096 192.333 132.033C192.333 131.97 192.314 131.909 192.28 131.857" fill="#EB996E"/>
<path d="M189.787 130.247C189.939 130.247 189.968 131.261 190.873 131.984C191.778 132.708 192.875 132.563 192.887 132.691C192.899 132.818 192.648 132.894 192.18 132.917C191.575 132.942 190.98 132.756 190.499 132.39C190.04 132.036 189.739 131.519 189.658 130.948C189.606 130.502 189.711 130.247 189.787 130.247Z" fill="#263238"/>
<path d="M189.01 119.748C188.923 120.009 187.965 119.91 186.856 120.078C185.747 120.246 184.848 120.565 184.69 120.339C184.62 120.229 184.772 119.986 185.128 119.725C185.607 119.412 186.153 119.214 186.722 119.146C187.293 119.064 187.875 119.117 188.421 119.302C188.835 119.43 189.045 119.627 189.01 119.748Z" fill="#263238"/>
<path d="M197.89 118.062C197.733 118.282 197.067 118.062 196.279 118.062C195.491 118.062 194.825 118.248 194.668 118.028C194.598 117.918 194.697 117.703 194.983 117.489C195.367 117.234 195.819 117.098 196.282 117.098C196.744 117.098 197.196 117.234 197.581 117.489C197.867 117.738 197.966 117.958 197.89 118.062Z" fill="#263238"/>
<path d="M175.069 115.885C176.155 111.877 181.672 106.162 185.852 106.26L192.688 109.92C192.523 111.056 192.052 112.126 191.325 113.018C190.597 113.91 189.64 114.59 188.555 114.987C187.387 115.398 185.986 115.566 185.332 116.591C184.679 117.616 185.152 119.122 184.533 120.211C183.68 121.716 181.158 121.763 180.539 123.378C180.265 124.079 180.464 124.902 180.177 125.602C179.804 126.535 177.521 127.803 176.54 127.542C175.56 127.282 175.484 125.649 175.128 124.809C174.685 123.862 174.586 122.792 174.847 121.78C175.18 119.823 174.55 117.784 175.069 115.885Z" fill="#263238"/>
<path d="M179.43 128.209C179.43 127.699 178.788 126.512 178.263 126.472C176.902 126.298 174.468 126.472 174.532 129.883C174.631 134.55 179.331 133.496 179.337 133.357C179.343 133.218 179.477 129.97 179.43 128.209Z" fill="#FFBE9D"/>
<path d="M177.877 131.596C177.877 131.596 177.796 131.654 177.661 131.724C177.465 131.802 177.245 131.802 177.048 131.724C176.546 131.556 176.114 130.78 176.073 129.94C176.052 129.544 176.122 129.148 176.278 128.782C176.316 128.637 176.389 128.503 176.491 128.392C176.592 128.281 176.72 128.196 176.862 128.145C176.956 128.117 177.057 128.123 177.146 128.163C177.236 128.202 177.309 128.272 177.352 128.359C177.416 128.486 177.393 128.579 177.416 128.591C177.44 128.602 177.515 128.51 177.475 128.318C177.444 128.204 177.377 128.102 177.282 128.029C177.218 127.98 177.144 127.946 177.066 127.927C176.987 127.908 176.906 127.905 176.827 127.919C176.635 127.962 176.457 128.053 176.31 128.183C176.163 128.312 176.052 128.476 175.986 128.66C175.793 129.067 175.705 129.514 175.729 129.963C175.776 130.907 176.278 131.776 176.961 131.955C177.088 131.99 177.221 131.996 177.351 131.972C177.48 131.948 177.602 131.894 177.708 131.816C177.872 131.712 177.895 131.608 177.877 131.596Z" fill="#EB996E"/>
<path d="M173.983 114.727C173.902 113.267 172.01 112.41 170.556 112.196C169.079 112.041 167.596 112.424 166.382 113.273C165.658 113.73 164.934 114.362 164.823 115.207C164.712 116.053 165.588 116.997 166.371 116.643C165.99 116.799 165.65 117.035 165.373 117.337C165.096 117.638 164.889 117.996 164.768 118.386C164.646 118.775 164.613 119.187 164.671 119.59C164.728 119.994 164.875 120.38 165.101 120.721C165.326 121.062 165.625 121.349 165.975 121.562C166.326 121.776 166.719 121.909 167.128 121.954C167.536 121.999 167.95 121.953 168.339 121.821C168.727 121.689 169.082 121.473 169.377 121.189C169.057 122.566 168.272 123.792 167.153 124.664C168.378 124.754 169.605 124.522 170.711 123.993C171.817 123.463 172.764 122.655 173.456 121.648C174.148 120.642 174.561 119.472 174.653 118.257C174.746 117.043 174.515 115.825 173.983 114.727Z" fill="#263238"/>
<path d="M165.792 134.718C165.792 134.498 166.405 134.393 167.24 134.139C168.306 133.845 169.307 133.354 170.188 132.691C171.052 132.003 171.776 131.158 172.319 130.201C172.769 129.454 173.008 128.915 173.23 128.95C173.452 128.985 173.58 129.604 173.347 130.6C172.999 131.912 172.228 133.075 171.152 133.911C170.076 134.748 168.753 135.212 167.386 135.233C166.353 135.216 165.769 134.92 165.792 134.718Z" fill="#263238"/>
<path d="M171.216 122.343C171.047 121.9 170.957 121.432 170.947 120.959C170.783 118.659 171.4 116.372 172.699 114.461C172.944 114.054 173.258 113.691 173.627 113.39C172.727 114.688 172.032 116.116 171.566 117.623C171.209 119.169 171.091 120.761 171.216 122.343Z" fill="#0158A3"/>
<path d="M191.235 108.588C191.789 110.453 194.854 112.694 196.226 114.09C198.842 116.742 199.385 117.645 199.776 123.934C200.78 121.687 201.527 119.498 201.265 117.055C201.046 114.58 199.925 112.27 198.112 110.557C197.199 109.721 196.102 109.107 194.908 108.764C193.715 108.422 192.457 108.359 191.235 108.582" fill="#263238"/>
<path d="M221.908 163.042C221.908 163.042 218.767 175.991 217.477 181.573C216.128 187.521 213.128 201.014 205.164 199.045C199.105 197.563 200.453 189.779 200.453 189.779L205.62 171.983L210.407 172.522L214.803 161.785L219.544 156.834L221.908 163.042Z" fill="#FFBE9D"/>
<path d="M202.566 190.243C202.3 189.301 202.246 188.312 202.409 187.347C202.609 186.314 202.988 185.322 203.53 184.417C204.226 183.313 205.007 182.264 205.865 181.278C206.727 180.278 207.508 179.211 208.2 178.088C208.751 177.163 209.223 176.194 209.613 175.192C209.873 174.517 210.091 173.826 210.267 173.125C210.345 172.87 210.394 172.608 210.413 172.343C210.303 172.584 210.213 172.834 210.144 173.09C209.986 173.57 209.753 174.248 209.397 175.105C208.983 176.083 208.497 177.03 207.943 177.937C207.241 179.037 206.46 180.086 205.608 181.076C204.741 182.075 203.96 183.144 203.273 184.272C202.724 185.211 202.354 186.242 202.181 187.313C202.069 188.038 202.1 188.777 202.274 189.49C202.323 189.688 202.387 189.882 202.467 190.069C202.52 190.185 202.555 190.249 202.566 190.243Z" fill="#EB996E"/>
<path d="M214.435 162.793C214.435 162.561 214.552 158.791 214.628 157.807C214.689 157.184 214.865 156.577 215.147 156.018C215.256 155.813 215.411 155.635 215.599 155.498C215.788 155.362 216.005 155.27 216.235 155.23C216.465 155.189 216.701 155.202 216.926 155.266C217.15 155.331 217.356 155.445 217.529 155.601L217.617 155.676C218.067 154.801 218.707 154.035 219.491 153.435C220.606 152.711 221.522 152.219 222.48 152.786C222.741 152.915 222.964 153.109 223.126 153.35C223.288 153.591 223.383 153.87 223.402 154.159C223.402 154.159 224.821 153.967 225.434 154.535C226.047 155.103 225.434 156.817 225.434 156.817C225.434 156.817 226.695 156.434 227.004 157.349C227.159 157.982 227.063 158.65 226.736 159.214C226.736 159.214 227.728 159.515 227.845 160.239C227.962 160.963 226.853 161.756 226.853 161.756L223.391 164.49C222.929 165.917 221.987 167.144 220.723 167.965C218.317 168.879 214.435 162.793 214.435 162.793Z" fill="#FFBE9D"/>
<path d="M217.074 158.687C217.109 158.687 217.103 158.831 216.998 159.005C216.868 159.236 216.662 159.416 216.414 159.515C216.157 159.6 215.878 159.6 215.62 159.515C215.428 159.451 215.334 159.358 215.352 159.318C215.369 159.277 215.825 159.382 216.303 159.196C216.782 159.011 216.992 158.646 217.074 158.687Z" fill="#EB996E"/>
<path d="M219.818 155.316C219.765 155.386 219.432 155.154 219.374 154.703C219.316 154.251 219.567 153.944 219.637 153.996C219.707 154.048 219.637 154.326 219.683 154.662C219.73 154.998 219.882 155.264 219.818 155.316Z" fill="#EB996E"/>
<path d="M225.603 156.781C225.603 156.781 225.358 157.135 224.839 157.58C224.152 158.143 223.433 158.665 222.684 159.144C222.281 159.459 221.809 159.678 221.307 159.781C221.091 159.817 220.869 159.796 220.664 159.72C220.459 159.643 220.278 159.515 220.139 159.347C220.051 159.226 219.995 159.085 219.979 158.936C219.963 158.788 219.986 158.638 220.046 158.501C220.139 158.316 220.256 158.27 220.267 158.287C220.279 158.304 220.203 158.38 220.156 158.548C220.13 158.664 220.13 158.785 220.157 158.901C220.184 159.018 220.238 159.127 220.314 159.219C220.44 159.343 220.595 159.434 220.765 159.483C220.936 159.531 221.116 159.536 221.289 159.497C221.742 159.385 222.166 159.177 222.533 158.889C223.402 158.31 224.179 157.806 224.722 157.407C224.995 157.17 225.29 156.961 225.603 156.781Z" fill="#EB996E"/>
<path d="M226.713 159.196C225.662 159.843 224.559 160.401 223.414 160.864C222.975 161.107 222.486 161.25 221.984 161.281C221.761 161.292 221.54 161.238 221.349 161.124C221.158 161.011 221.005 160.844 220.91 160.644C220.875 160.564 220.857 160.477 220.857 160.389C220.857 160.302 220.875 160.215 220.91 160.134C220.961 160.016 221.049 159.916 221.161 159.851C221.353 159.746 221.476 159.804 221.47 159.816C221.464 159.828 221.359 159.816 221.231 159.949C221.152 160.021 221.098 160.116 221.078 160.22C221.058 160.325 221.073 160.433 221.12 160.528C221.207 160.676 221.336 160.795 221.49 160.872C221.644 160.949 221.818 160.981 221.99 160.963C222.447 160.915 222.89 160.776 223.291 160.551C224.393 160.008 225.537 159.555 226.713 159.196Z" fill="#EB996E"/>
<path d="M225.031 162.283C225.031 162.318 224.844 162.463 224.447 162.555C224.222 162.608 223.99 162.631 223.759 162.625C223.461 162.631 223.167 162.565 222.9 162.434C222.816 162.383 222.748 162.31 222.704 162.223C222.659 162.136 222.641 162.039 222.649 161.941C222.669 161.786 222.734 161.639 222.836 161.519C222.982 161.339 223.148 161.178 223.332 161.038C223.648 160.806 223.881 160.731 223.916 160.766C223.951 160.801 223.753 160.945 223.496 161.206C223.346 161.354 223.209 161.515 223.087 161.687C222.953 161.878 222.906 162.075 223.087 162.173C223.309 162.274 223.549 162.331 223.794 162.341C224.005 162.361 224.218 162.361 224.43 162.341C224.792 162.306 225.014 162.243 225.031 162.283Z" fill="#EB996E"/>
<path d="M221.744 162.856C221.763 162.33 221.632 161.81 221.367 161.355C221.102 160.899 220.712 160.527 220.244 160.28C219.775 160.034 219.246 159.924 218.717 159.961C218.188 159.999 217.681 160.184 217.253 160.495C216.825 160.805 216.493 161.229 216.297 161.717C216.1 162.206 216.046 162.74 216.14 163.257C216.235 163.775 216.475 164.256 216.832 164.644C217.189 165.033 217.649 165.315 218.16 165.456L218.131 166.238L218.901 166.817L218.09 167.269L218.055 168.248L218.825 168.827L218.014 169.278L217.985 170.118L218.452 170.466L217.961 170.738V171.23L218.545 171.89L219.713 171.201L219.935 165.41C220.457 165.21 220.908 164.86 221.23 164.406C221.552 163.951 221.731 163.412 221.744 162.856ZM218.995 160.702C219.155 160.708 219.31 160.761 219.44 160.854C219.57 160.947 219.67 161.076 219.726 161.225C219.781 161.375 219.792 161.537 219.755 161.692C219.718 161.847 219.635 161.987 219.518 162.096C219.4 162.204 219.253 162.275 219.095 162.301C218.936 162.326 218.774 162.305 218.628 162.239C218.482 162.172 218.359 162.065 218.275 161.93C218.19 161.794 218.148 161.637 218.154 161.478C218.158 161.372 218.183 161.268 218.227 161.172C218.271 161.076 218.334 160.989 218.412 160.917C218.49 160.845 218.582 160.789 218.682 160.752C218.782 160.715 218.888 160.698 218.995 160.702Z" fill="#263238"/>
<path d="M218.995 160.702C218.995 160.702 218.925 160.702 218.802 160.737C218.627 160.779 218.471 160.876 218.358 161.015C218.271 161.128 218.217 161.263 218.202 161.405C218.187 161.547 218.212 161.69 218.273 161.819C218.335 161.948 218.431 162.057 218.552 162.135C218.672 162.213 218.811 162.257 218.955 162.262C219.099 162.266 219.241 162.232 219.366 162.161C219.491 162.091 219.594 161.988 219.664 161.863C219.734 161.739 219.768 161.597 219.762 161.455C219.756 161.312 219.711 161.174 219.631 161.056C219.529 160.909 219.381 160.799 219.211 160.743C219.094 160.708 219.018 160.708 219.018 160.697H219.047C219.098 160.69 219.149 160.69 219.199 160.697C219.38 160.744 219.539 160.853 219.649 161.004C219.731 161.117 219.784 161.249 219.801 161.388C219.818 161.526 219.8 161.667 219.748 161.797C219.686 161.951 219.578 162.083 219.438 162.173C219.291 162.274 219.115 162.324 218.936 162.318C218.756 162.312 218.582 162.249 218.44 162.139C218.309 162.033 218.212 161.892 218.16 161.733C218.12 161.6 218.113 161.459 218.141 161.323C218.168 161.187 218.229 161.059 218.317 160.951C218.441 160.81 218.61 160.714 218.796 160.679C218.845 160.675 218.894 160.675 218.942 160.679L218.995 160.702Z" fill="#263238"/>
<path d="M221.744 162.857V162.915V163.083C221.722 163.296 221.675 163.506 221.604 163.708C221.488 164.036 221.309 164.338 221.079 164.6C220.765 164.961 220.363 165.237 219.911 165.399C219.853 166.899 219.783 168.874 219.701 171.19L218.533 171.885L217.95 171.225C217.95 171.069 217.95 170.901 217.95 170.733L218.44 170.461V170.519L217.967 170.165C217.967 169.905 217.967 169.586 217.996 169.326L218.808 168.88V168.938L218.037 168.359V168.005C218.037 167.762 218.037 167.525 218.066 167.287L218.878 166.835V166.893L218.107 166.314C218.107 166.048 218.107 165.787 218.136 165.532V165.567C217.702 165.444 217.302 165.222 216.969 164.919C216.807 164.773 216.664 164.607 216.543 164.426C216.252 164.005 216.082 163.512 216.052 163.002C216.022 162.492 216.133 161.983 216.373 161.531C216.588 161.118 216.902 160.764 217.288 160.501C217.673 160.238 218.119 160.073 218.584 160.022C219.049 159.971 219.52 160.035 219.954 160.209C220.389 160.382 220.773 160.659 221.073 161.015C221.322 161.304 221.507 161.642 221.616 162.006L221.651 162.11V162.214C221.651 162.284 221.68 162.342 221.686 162.405C221.692 162.469 221.715 162.62 221.715 162.701V162.793C221.718 162.812 221.718 162.832 221.715 162.851V162.608C221.715 162.527 221.715 162.428 221.68 162.313C221.672 162.25 221.658 162.188 221.639 162.127V162.023L221.604 161.919C221.494 161.56 221.309 161.229 221.061 160.946C220.733 160.565 220.307 160.277 219.83 160.112C219.325 159.944 218.782 159.922 218.265 160.049C217.748 160.176 217.278 160.447 216.911 160.829C216.543 161.211 216.293 161.689 216.19 162.207C216.086 162.726 216.134 163.262 216.327 163.755C216.4 163.959 216.498 164.153 216.619 164.334C216.738 164.511 216.879 164.672 217.039 164.814C217.363 165.111 217.753 165.328 218.177 165.446H218.207C218.207 165.706 218.207 165.967 218.177 166.227L218.954 166.806H218.995L218.948 166.835L218.136 167.281V167.252C218.136 167.49 218.136 167.733 218.136 167.971V168.231L218.907 168.81L218.948 168.845H218.901L218.09 169.297C218.09 169.586 218.09 169.876 218.061 170.136L218.533 170.484L218.574 170.519H218.528L218.037 170.797C218.037 170.964 218.037 171.132 218.037 171.283L218.621 171.943H218.58L219.748 171.254V171.283C219.841 168.967 219.917 166.974 219.975 165.492C220.412 165.33 220.801 165.064 221.108 164.716C221.334 164.456 221.512 164.158 221.633 163.836C221.706 163.633 221.757 163.423 221.785 163.21V163.048C221.788 162.982 221.774 162.916 221.744 162.857Z" fill="#263238"/>
<path d="M221.452 162.701C221.473 162.173 221.343 161.651 221.077 161.193C220.812 160.736 220.422 160.362 219.952 160.114C219.482 159.866 218.952 159.755 218.421 159.792C217.89 159.83 217.381 160.015 216.952 160.327C216.522 160.638 216.19 161.063 215.993 161.554C215.796 162.044 215.742 162.579 215.838 163.099C215.933 163.618 216.174 164.1 216.534 164.489C216.893 164.879 217.355 165.16 217.868 165.301L217.839 166.077L218.609 166.656L217.798 167.102L217.763 168.08L218.533 168.66L217.722 169.106L217.687 169.945L218.16 170.298L217.663 170.571V171.057L218.247 171.717L219.415 171.028L219.637 165.237C220.158 165.039 220.609 164.693 220.932 164.242C221.255 163.79 221.436 163.254 221.452 162.701ZM218.703 160.546C218.809 160.55 218.914 160.575 219.011 160.619C219.108 160.662 219.195 160.725 219.268 160.802C219.341 160.88 219.397 160.971 219.434 161.07C219.472 161.169 219.489 161.274 219.485 161.38C219.481 161.486 219.456 161.59 219.411 161.686C219.366 161.782 219.303 161.868 219.225 161.94C219.146 162.012 219.054 162.068 218.954 162.104C218.854 162.141 218.748 162.158 218.641 162.153C218.535 162.149 218.43 162.124 218.333 162.08C218.236 162.036 218.149 161.973 218.077 161.895C218.005 161.817 217.948 161.726 217.911 161.627C217.875 161.528 217.858 161.422 217.862 161.317C217.871 161.104 217.965 160.904 218.122 160.759C218.28 160.615 218.488 160.538 218.703 160.546Z" fill="#0158A3"/>
<path d="M218.703 160.546C218.637 160.543 218.57 160.543 218.504 160.546C218.331 160.588 218.177 160.686 218.066 160.824C217.984 160.925 217.928 161.044 217.905 161.172C217.881 161.299 217.891 161.431 217.932 161.554C217.982 161.705 218.076 161.837 218.204 161.933C218.331 162.029 218.485 162.085 218.644 162.092C218.803 162.095 218.959 162.05 219.092 161.965C219.225 161.879 219.329 161.756 219.392 161.612C219.434 161.511 219.455 161.403 219.452 161.294C219.45 161.185 219.424 161.077 219.378 160.979C219.331 160.88 219.264 160.792 219.181 160.721C219.098 160.649 219.001 160.596 218.895 160.564C218.832 160.545 218.768 160.529 218.703 160.517H218.755C218.804 160.511 218.853 160.511 218.901 160.517C219.085 160.562 219.247 160.671 219.357 160.824C219.483 161.006 219.532 161.229 219.493 161.446C219.453 161.663 219.329 161.856 219.147 161.982C218.997 162.084 218.819 162.134 218.639 162.127C218.46 162.118 218.288 162.053 218.148 161.942C218.033 161.865 217.941 161.759 217.88 161.635C217.845 161.524 217.833 161.407 217.847 161.292C217.86 161.177 217.898 161.066 217.957 160.966C218.017 160.866 218.097 160.78 218.192 160.712C218.287 160.645 218.396 160.598 218.51 160.575C218.56 160.567 218.612 160.567 218.662 160.575L218.703 160.546Z" fill="#263238"/>
<path d="M221.452 162.701V162.759V162.921C221.429 163.136 221.382 163.347 221.312 163.552C221.191 163.877 221.013 164.179 220.787 164.444C220.47 164.801 220.069 165.076 219.619 165.243C219.567 166.743 219.497 168.718 219.415 171.034L218.247 171.723L217.664 171.063C217.664 170.912 217.664 170.744 217.664 170.576L218.154 170.298V170.356L217.687 170.009C217.687 169.743 217.687 169.459 217.716 169.169L218.528 168.718V168.775L217.757 168.196V167.936C217.757 167.698 217.757 167.455 217.786 167.218L218.598 166.772V166.83L217.827 166.251C217.827 165.99 217.827 165.729 217.856 165.469V165.503C217.42 165.385 217.019 165.162 216.689 164.855C216.525 164.709 216.38 164.544 216.257 164.363C216.135 164.182 216.035 163.988 215.959 163.784C215.82 163.426 215.755 163.045 215.768 162.662C215.781 162.28 215.872 161.903 216.036 161.557C216.199 161.21 216.432 160.899 216.72 160.644C217.008 160.389 217.345 160.194 217.71 160.071C218.309 159.874 218.956 159.874 219.555 160.071C220.022 160.196 220.449 160.435 220.799 160.766C221.045 161.057 221.23 161.394 221.342 161.757L221.377 161.867V161.971C221.377 162.035 221.406 162.098 221.412 162.156C221.417 162.214 221.441 162.376 221.441 162.452V162.701C221.442 162.679 221.442 162.658 221.441 162.637V162.457C221.441 162.376 221.441 162.278 221.412 162.156C221.382 162.035 221.382 162.04 221.371 161.971V161.872L221.336 161.762C221.221 161.405 221.034 161.074 220.787 160.79C220.46 160.407 220.034 160.12 219.555 159.961C218.968 159.764 218.332 159.764 217.745 159.961C217.067 160.198 216.505 160.68 216.169 161.311C215.986 161.661 215.88 162.047 215.858 162.441C215.836 162.835 215.898 163.23 216.041 163.598C216.119 163.801 216.218 163.996 216.338 164.177C216.457 164.355 216.599 164.516 216.759 164.658C217.083 164.954 217.473 165.17 217.897 165.289H217.88V165.318C217.88 165.573 217.88 165.834 217.88 166.1V166.071C218.136 166.256 218.393 166.453 218.65 166.65L218.697 166.685H218.65L217.839 167.137V167.108C217.839 167.345 217.839 167.582 217.81 167.826C217.81 167.913 217.81 167.999 217.81 168.081L218.58 168.66H218.627L218.58 168.689L217.769 169.134C217.769 169.424 217.769 169.714 217.734 169.974L218.207 170.327L218.247 170.356H218.201L217.704 170.629C217.704 170.797 217.704 170.964 217.704 171.115L218.288 171.781H218.247L219.415 171.092V171.121C219.503 168.804 219.584 166.812 219.643 165.33C220.08 165.163 220.47 164.895 220.781 164.548C221.006 164.286 221.183 163.989 221.307 163.668C221.38 163.467 221.431 163.26 221.458 163.048V162.88C221.442 162.853 221.432 162.823 221.431 162.791C221.43 162.76 221.437 162.728 221.452 162.701Z" fill="#263238"/>
<path d="M221.114 162.723C221.106 162.529 221.082 162.335 221.044 162.144C220.996 161.912 220.911 161.69 220.793 161.484C220.646 161.21 220.448 160.966 220.209 160.766C219.889 160.503 219.507 160.325 219.098 160.25C218.689 160.175 218.268 160.205 217.874 160.337C217.647 160.406 217.432 160.51 217.238 160.644C217.137 160.713 217.041 160.788 216.952 160.87C216.862 160.955 216.778 161.046 216.7 161.142C216.371 161.549 216.183 162.051 216.163 162.572C216.143 163.093 216.292 163.607 216.59 164.038C216.662 164.14 216.74 164.239 216.823 164.333C216.907 164.42 216.997 164.502 217.092 164.576C217.267 164.724 217.464 164.843 217.675 164.93C218.084 165.094 218.529 165.148 218.966 165.086C219.344 165.035 219.705 164.894 220.016 164.675C220.276 164.493 220.5 164.266 220.676 164.003C220.806 163.804 220.906 163.588 220.974 163.36C221.028 163.171 221.067 162.977 221.091 162.781V162.943C221.091 162.996 221.091 163.059 221.091 163.135C221.091 163.21 221.061 163.291 221.032 163.389C220.969 163.622 220.868 163.843 220.735 164.044C220.561 164.313 220.337 164.547 220.075 164.733C219.756 164.958 219.388 165.105 219.001 165.161C218.555 165.228 218.1 165.176 217.681 165.011C217.455 164.922 217.244 164.799 217.057 164.646C216.959 164.568 216.865 164.485 216.776 164.397C216.69 164.303 216.612 164.202 216.543 164.096C216.239 163.656 216.085 163.131 216.105 162.598C216.125 162.065 216.318 161.553 216.654 161.137C216.733 161.037 216.819 160.942 216.911 160.853C217.004 160.771 217.104 160.695 217.208 160.627C217.493 160.43 217.817 160.296 218.158 160.232C218.499 160.168 218.85 160.176 219.187 160.256C219.57 160.34 219.927 160.515 220.227 160.766C220.467 160.972 220.665 161.222 220.81 161.501C220.924 161.713 221.007 161.939 221.056 162.173C221.074 162.259 221.086 162.346 221.091 162.434C221.096 162.497 221.096 162.561 221.091 162.625V162.781L221.114 162.723Z" fill="#263238"/>
<path d="M219.631 161.392C219.624 161.316 219.612 161.24 219.596 161.166C219.552 160.961 219.436 160.778 219.269 160.65C219.156 160.56 219.025 160.497 218.884 160.465C218.722 160.432 218.555 160.442 218.399 160.494C218.225 160.546 218.071 160.651 217.961 160.795C217.841 160.946 217.774 161.13 217.769 161.322C217.761 161.511 217.813 161.698 217.918 161.855C218.023 162.013 218.175 162.135 218.352 162.202C218.496 162.259 218.651 162.28 218.805 162.264C218.958 162.248 219.106 162.195 219.234 162.11C219.407 161.991 219.534 161.817 219.596 161.618C219.619 161.544 219.636 161.468 219.649 161.392C219.649 161.392 219.649 161.392 219.649 161.455C219.645 161.514 219.635 161.572 219.619 161.629C219.563 161.839 219.435 162.023 219.257 162.15C219.133 162.238 218.989 162.296 218.837 162.318C218.655 162.347 218.468 162.323 218.298 162.25C218.129 162.178 217.984 162.059 217.88 161.907C217.76 161.738 217.699 161.535 217.704 161.328C217.713 161.117 217.788 160.914 217.92 160.749C218.042 160.597 218.207 160.486 218.393 160.43C218.563 160.381 218.743 160.381 218.913 160.43C219.06 160.465 219.198 160.532 219.316 160.627C219.49 160.775 219.605 160.981 219.637 161.206C219.645 161.264 219.645 161.322 219.637 161.38C219.631 161.374 219.631 161.392 219.631 161.392Z" fill="#263238"/>
<path d="M219.047 171.161C219.047 171.161 219.047 169.835 219.123 168.207C219.199 166.58 219.251 165.254 219.269 165.254C219.286 165.254 219.269 166.574 219.193 168.207C219.117 169.84 219.047 171.161 219.047 171.161Z" fill="#263238"/>
<path d="M218.948 160.824C218.889 160.853 218.824 160.868 218.758 160.868C218.692 160.868 218.627 160.853 218.568 160.824V157.263L218.948 157.292V160.824Z" fill="#E0E0E0"/>
<path d="M218.755 160.882C218.688 160.88 218.623 160.865 218.562 160.836V157.251L218.971 157.28V160.836C218.904 160.868 218.83 160.884 218.755 160.882ZM218.586 160.812C218.64 160.838 218.698 160.851 218.758 160.851C218.818 160.851 218.877 160.838 218.93 160.812V157.303H218.58L218.586 160.812Z" fill="#263238"/>
<path d="M217.296 155.514C217.614 155.783 217.951 156.029 218.306 156.249C218.483 156.363 218.63 156.516 218.738 156.695C218.845 156.875 218.909 157.077 218.925 157.286C218.894 157.498 218.809 157.7 218.678 157.871C218.548 158.042 218.375 158.177 218.177 158.264C217.907 158.409 217.611 158.499 217.306 158.529C217 158.56 216.692 158.531 216.398 158.443C216.104 158.355 215.831 158.211 215.593 158.018C215.355 157.826 215.158 157.589 215.013 157.32" fill="#FFBE9D"/>
<path d="M215.037 157.32C215.281 157.577 215.546 157.814 215.831 158.026C216.147 158.226 216.508 158.345 216.881 158.374C217.336 158.408 217.79 158.309 218.189 158.09C218.381 158.005 218.541 157.861 218.646 157.68C218.751 157.499 218.795 157.29 218.773 157.082C218.656 156.739 218.429 156.444 218.125 156.243C217.57 155.872 217.261 155.548 217.308 155.513C217.354 155.478 217.652 155.727 218.248 156.063C218.62 156.269 218.905 156.602 219.047 157.001C219.109 157.266 219.065 157.544 218.925 157.777C218.782 158.016 218.581 158.215 218.341 158.356C217.887 158.609 217.364 158.715 216.846 158.658C216.423 158.613 216.02 158.457 215.679 158.206C215.136 157.772 215.007 157.326 215.037 157.32Z" fill="#EB996E"/>
<path d="M220.892 154.037C220.213 154.818 219.626 155.673 219.141 156.585C218.985 156.864 218.895 157.175 218.878 157.494C218.871 157.654 218.907 157.814 218.981 157.956C219.056 158.098 219.167 158.219 219.304 158.305C219.429 158.363 219.566 158.394 219.704 158.394C219.842 158.394 219.979 158.363 220.104 158.305C220.35 158.185 220.575 158.027 220.769 157.836C221.572 157.11 222.299 156.307 222.941 155.438C223.108 155.236 223.239 155.007 223.326 154.761C223.373 154.638 223.393 154.507 223.384 154.376C223.376 154.246 223.341 154.118 223.28 154.002" fill="#FFBE9D"/>
<path d="M223.286 153.996C223.286 153.996 223.432 154.112 223.449 154.425C223.43 154.854 223.261 155.264 222.97 155.583C222.617 156.085 222.226 156.561 221.803 157.007C221.569 157.262 221.312 157.523 221.038 157.778C220.761 158.08 220.423 158.321 220.046 158.484C219.827 158.554 219.592 158.554 219.374 158.484C219.152 158.412 218.968 158.256 218.86 158.05C218.778 157.868 218.736 157.67 218.736 157.471C218.736 157.271 218.778 157.074 218.86 156.892C219.103 156.32 219.417 155.781 219.795 155.288C220.109 154.82 220.482 154.394 220.904 154.019C220.624 154.503 220.314 154.969 219.975 155.415C219.637 155.905 219.355 156.432 219.135 156.984C219.069 157.129 219.034 157.286 219.034 157.445C219.034 157.604 219.069 157.76 219.135 157.905C219.215 158.042 219.343 158.145 219.495 158.195C219.647 158.244 219.812 158.236 219.958 158.171C220.289 158.021 220.587 157.806 220.834 157.54C221.108 157.291 221.365 157.042 221.598 156.799C222.071 156.307 222.468 155.843 222.766 155.438C223.045 155.156 223.233 154.797 223.303 154.407C223.31 154.27 223.304 154.132 223.286 153.996Z" fill="#EB996E"/>
</svg>
