<svg width="331" height="337" viewBox="0 0 331 337" fill="none" xmlns="http://www.w3.org/2000/svg">
<path d="M193.838 280.31L196.777 279.589C221.542 273.488 241.149 254.771 247.021 230.542C247.78 227.42 248.304 224.246 248.587 221.045C250.63 197.977 239.874 174.072 221.035 159.764C209.957 151.339 195.951 145.692 188.739 133.922C179.341 118.642 184.924 99.2736 190.727 82.5218C196.529 65.77 202.061 46.3721 192.602 31.1316C186.677 21.5832 175.823 15.8063 164.765 13.0409C135.487 5.7499 103.582 17.6101 82.9564 38.8382C62.3312 60.0664 51.9643 89.3284 49.0261 118.571C44.9153 159.541 55.1642 202.835 81.7742 235.102C108.384 267.369 152.227 286.896 193.838 280.31Z" fill="#0158A3"/>
<path d="M203.357 335.733L104.315 335.673C98.5944 335.669 93.1093 333.413 89.0654 329.399C85.0216 325.385 82.75 319.943 82.75 314.268L82.797 67.957C82.7979 65.1455 83.3571 62.3617 84.4427 59.7646C85.5284 57.1675 87.1192 54.808 89.1243 52.8209C91.1293 50.8338 93.5094 49.258 96.1285 48.1835C98.7477 47.109 101.555 46.5568 104.389 46.5586L203.431 46.6118C209.152 46.6154 214.637 48.8721 218.68 52.8859C222.724 56.8998 224.996 62.3422 224.996 68.0169L224.949 314.334C224.948 317.146 224.389 319.93 223.303 322.527C222.217 325.124 220.627 327.483 218.622 329.47C216.617 331.458 214.236 333.033 211.617 334.108C208.998 335.182 206.191 335.735 203.357 335.733Z" fill="#263238"/>
<path d="M203.306 55.3241H184.116C183.49 55.3371 182.872 55.4724 182.299 55.7224C181.725 55.9724 181.207 56.332 180.774 56.7809C180.341 57.2297 180.001 57.7588 179.775 58.338C179.548 58.9172 179.438 59.5351 179.453 60.1562V63.5773C179.48 64.8313 179.004 66.0447 178.129 66.9508C177.255 67.8568 176.054 68.3815 174.789 68.4094H137.363C136.734 68.399 136.113 68.2655 135.536 68.0164C134.959 67.7673 134.437 67.4077 134.001 66.9581C133.564 66.5085 133.222 65.9778 132.993 65.3964C132.764 64.8151 132.653 64.1947 132.666 63.5706V60.1229C132.68 59.5015 132.571 58.8833 132.344 58.3037C132.117 57.7241 131.778 57.1945 131.345 56.7452C130.912 56.2958 130.394 55.9355 129.82 55.6848C129.247 55.4342 128.629 55.298 128.003 55.2842H104.472C100.469 55.2824 96.6297 56.8551 93.7946 59.6574C90.9595 62.4598 89.3604 66.263 89.348 70.2331L89.301 310.654C89.301 314.628 90.8921 318.439 93.7243 321.25C96.5566 324.061 100.398 325.641 104.405 325.642L203.252 325.702C205.237 325.704 207.203 325.318 209.038 324.565C210.872 323.813 212.539 322.709 213.943 321.317C215.347 319.924 216.46 318.271 217.22 316.452C217.979 314.633 218.37 312.683 218.369 310.714L218.416 70.2996C218.412 66.3267 216.819 62.5176 213.986 59.7095C211.152 56.9015 207.311 55.3241 203.306 55.3241Z" fill="white"/>
<path d="M144.7 307.344C144.704 307.717 144.596 308.082 144.391 308.394C144.186 308.706 143.892 308.95 143.546 309.096C143.201 309.243 142.82 309.284 142.45 309.215C142.081 309.146 141.741 308.971 141.473 308.71C141.204 308.449 141.02 308.116 140.943 307.751C140.866 307.386 140.899 307.007 141.039 306.662C141.179 306.316 141.419 306.019 141.73 305.809C142.04 305.599 142.405 305.484 142.781 305.481C143.284 305.477 143.768 305.671 144.128 306.02C144.487 306.369 144.693 306.845 144.7 307.344Z" fill="#263238"/>
<path d="M155.332 307.259C155.336 307.632 155.228 307.998 155.022 308.31C154.817 308.622 154.523 308.866 154.177 309.012C153.831 309.158 153.449 309.199 153.08 309.13C152.711 309.06 152.37 308.884 152.102 308.623C151.834 308.361 151.65 308.027 151.574 307.662C151.497 307.297 151.532 306.918 151.673 306.572C151.814 306.227 152.055 305.93 152.366 305.721C152.677 305.511 153.044 305.398 153.42 305.396C153.922 305.392 154.405 305.586 154.764 305.935C155.122 306.285 155.326 306.761 155.332 307.259Z" fill="#263238"/>
<path d="M165.971 307.179C165.975 307.552 165.868 307.917 165.662 308.23C165.456 308.542 165.162 308.786 164.816 308.932C164.47 309.078 164.089 309.119 163.719 309.05C163.35 308.98 163.01 308.804 162.742 308.543C162.474 308.281 162.29 307.947 162.213 307.582C162.137 307.217 162.171 306.838 162.312 306.492C162.453 306.147 162.695 305.85 163.006 305.641C163.316 305.431 163.683 305.318 164.059 305.315C164.561 305.312 165.045 305.506 165.403 305.855C165.762 306.205 165.966 306.681 165.971 307.179Z" fill="#263238"/>
<path d="M127.793 145.574C127.793 147.884 126.049 149.321 123.258 149.321H121.157V152.17H118.755V141.82H123.271C126.049 141.82 127.793 143.258 127.793 145.574ZM125.344 145.574C125.344 144.436 124.6 143.77 123.123 143.77H121.157V147.365H123.123C124.6 147.365 125.344 146.699 125.344 145.574Z" fill="#263238"/>
<path d="M136.365 147.633V152.173H134.191V151.181C133.922 151.566 133.553 151.873 133.123 152.068C132.693 152.264 132.219 152.341 131.749 152.292C129.87 152.292 128.749 151.261 128.749 149.883C128.749 148.505 129.749 147.5 132.191 147.5H134.043C134.043 146.509 133.446 145.936 132.191 145.936C131.362 145.929 130.552 146.188 129.883 146.675L129.044 145.064C130.076 144.408 131.282 144.072 132.507 144.099C134.949 144.112 136.365 145.224 136.365 147.633ZM134.043 149.663V148.851H132.446C131.359 148.851 131.017 149.244 131.017 149.777C131.017 150.309 131.507 150.768 132.326 150.768C132.694 150.792 133.06 150.698 133.369 150.499C133.679 150.3 133.915 150.007 134.043 149.663Z" fill="#263238"/>
<path d="M137.709 151.434L138.487 149.776C139.328 150.278 140.291 150.544 141.272 150.548C142.345 150.548 142.748 150.269 142.748 149.823C142.748 148.492 137.904 149.823 137.904 146.675C137.904 145.164 139.246 144.099 141.614 144.099C142.685 144.078 143.745 144.318 144.7 144.798L143.929 146.435C143.222 146.043 142.424 145.839 141.614 145.843C140.574 145.843 140.124 146.169 140.124 146.588C140.124 147.919 144.969 146.628 144.969 149.763C144.969 151.241 143.58 152.292 141.185 152.292C139.97 152.317 138.77 152.02 137.709 151.434Z" fill="#263238"/>
<path d="M145.595 151.434L146.367 149.776C147.211 150.277 148.175 150.543 149.158 150.548C150.232 150.548 150.634 150.269 150.634 149.823C150.634 148.492 145.79 149.823 145.79 146.675C145.79 145.164 147.132 144.099 149.5 144.099C150.571 144.079 151.631 144.319 152.587 144.798L151.808 146.435C151.104 146.041 150.309 145.837 149.5 145.843C148.454 145.843 148.011 146.169 148.011 146.588C148.011 147.919 152.855 146.628 152.855 149.763C152.855 151.24 151.466 152.292 149.071 152.292C147.856 152.318 146.656 152.021 145.595 151.434Z" fill="#263238"/>
<path d="M167.059 144.218L164.154 152.205H161.919L160.114 147.266L158.249 152.205H156.015L153.123 144.218H155.317L157.209 149.602L159.175 144.218H161.141L163.053 149.602L165.006 144.218H167.059Z" fill="#263238"/>
<path d="M167.334 148.198C167.334 145.802 169.192 144.098 171.742 144.098C174.292 144.098 176.144 145.802 176.144 148.198C176.144 150.594 174.292 152.291 171.742 152.291C169.192 152.291 167.334 150.594 167.334 148.198ZM173.788 148.198C173.756 147.803 173.608 147.427 173.363 147.114C173.119 146.802 172.787 146.567 172.41 146.438C172.033 146.309 171.626 146.292 171.239 146.389C170.853 146.486 170.503 146.693 170.232 146.984C169.962 147.275 169.783 147.638 169.717 148.028C169.651 148.418 169.702 148.819 169.862 149.182C170.022 149.544 170.285 149.852 170.619 150.069C170.953 150.285 171.343 150.401 171.742 150.401C172.029 150.41 172.315 150.358 172.581 150.248C172.846 150.139 173.084 149.974 173.28 149.765C173.476 149.556 173.624 149.309 173.716 149.038C173.807 148.768 173.838 148.481 173.809 148.198H173.788Z" fill="#263238"/>
<path d="M182.672 144.111V146.241C182.477 146.241 182.33 146.241 182.148 146.241C180.867 146.241 180.015 146.907 180.015 148.457V152.211H177.693V144.224H179.914V145.276C180.244 144.875 180.668 144.559 181.148 144.356C181.628 144.153 182.151 144.069 182.672 144.111Z" fill="#263238"/>
<path d="M192.118 141.202V152.171H189.877V151.259C189.566 151.608 189.179 151.883 188.746 152.061C188.312 152.24 187.843 152.318 187.374 152.291C186.308 152.248 185.299 151.798 184.56 151.034C183.821 150.271 183.408 149.253 183.408 148.194C183.408 147.135 183.821 146.118 184.56 145.354C185.299 144.59 186.308 144.14 187.374 144.097C187.82 144.076 188.266 144.151 188.68 144.317C189.093 144.484 189.465 144.738 189.77 145.062V141.202H192.118ZM189.837 148.197C189.804 147.802 189.655 147.424 189.409 147.111C189.163 146.798 188.83 146.563 188.45 146.435C188.071 146.308 187.663 146.293 187.275 146.393C186.888 146.492 186.538 146.702 186.269 146.996C186 147.291 185.824 147.656 185.762 148.049C185.7 148.441 185.755 148.843 185.92 149.204C186.086 149.566 186.354 149.872 186.692 150.085C187.03 150.297 187.424 150.407 187.824 150.4C188.107 150.402 188.387 150.344 188.645 150.231C188.904 150.118 189.136 149.953 189.326 149.745C189.516 149.537 189.66 149.292 189.748 149.025C189.836 148.758 189.866 148.476 189.837 148.197Z" fill="#263238"/>
<path d="M210.008 160.751C210.008 160.844 185.182 160.924 154.525 160.924C123.869 160.924 99.0295 160.844 99.0295 160.751C99.0295 160.658 123.855 160.578 154.525 160.578C185.196 160.578 210.008 160.638 210.008 160.751Z" fill="#E0E0E0"/>
<path d="M207.426 262.071C207.426 262.17 182.6 262.244 151.937 262.244C121.274 262.244 96.4478 262.17 96.4478 262.071C96.4478 261.971 121.274 261.897 151.937 261.897C182.6 261.897 207.426 261.977 207.426 262.071Z" fill="#E0E0E0"/>
<path d="M182.325 269.686C182.325 269.779 168.523 269.859 151.5 269.859C134.478 269.859 120.676 269.779 120.676 269.686C120.676 269.593 134.471 269.513 151.5 269.513C168.53 269.513 182.325 269.586 182.325 269.686Z" fill="#E0E0E0"/>
<path d="M109.029 190.236L111.129 191.361L110.183 192.932L108.063 191.687L108.103 194.004H106.291V191.667L104.164 192.932L103.259 191.368L105.339 190.236L103.232 189.085L104.158 187.521L106.285 188.779V186.449H108.096L108.056 188.779L110.176 187.521L111.122 189.085L109.029 190.236Z" fill="#0158A3"/>
<path d="M133.143 190.238L135.243 191.363L134.297 192.934L132.19 191.689V194.032H130.372V191.696L128.252 192.961L127.373 191.37L129.506 190.238L127.406 189.087L128.332 187.523L130.453 188.781V186.451H132.19L132.15 188.781L134.27 187.523L135.216 189.087L133.143 190.238Z" fill="#0158A3"/>
<path d="M156.619 190.237L158.719 191.361L157.773 192.932L155.653 191.688L155.693 194.03H153.881V191.694L151.754 192.959L150.848 191.368L152.955 190.243L150.848 189.092L151.774 187.528L153.901 188.786V186.456H155.693L155.653 188.786L157.773 187.528L158.719 189.092L156.619 190.237Z" fill="#0158A3"/>
<path d="M179.332 190.235L181.432 191.359L180.506 192.93L178.386 191.686L178.426 194.002H176.614V191.666L174.494 192.93L173.562 191.366L175.668 190.241L173.562 189.09L174.487 187.526L176.608 188.784V186.454H178.419L178.379 188.784L180.499 187.526L181.445 189.09L179.332 190.235Z" fill="#0158A3"/>
<path d="M201.885 190.237L203.999 191.368L203.053 192.939L200.933 191.694L200.966 194.01H199.155V191.674L197.034 192.939L196.122 191.368L198.222 190.243L196.122 189.092L197.048 187.528L199.168 188.786V186.456H200.98L200.946 188.786L203.066 187.528L204.012 189.092L201.885 190.237Z" fill="#0158A3"/>
<path d="M112.793 204.73H102.628C101.37 204.728 100.164 204.232 99.2752 203.349C98.3859 202.467 97.8856 201.271 97.8838 200.024V182.12C97.8856 180.873 98.3861 179.678 99.2756 178.797C100.165 177.916 101.371 177.421 102.628 177.421H112.793C114.05 177.421 115.255 177.916 116.145 178.797C117.034 179.678 117.535 180.873 117.537 182.12V200.017C117.537 201.266 117.037 202.464 116.148 203.347C115.258 204.231 114.051 204.728 112.793 204.73ZM102.628 177.754C101.46 177.754 100.339 178.213 99.5128 179.032C98.6863 179.851 98.2211 180.961 98.2193 182.12V200.017C98.221 201.177 98.6861 202.288 99.5124 203.107C100.339 203.927 101.459 204.388 102.628 204.39H112.793C113.962 204.39 115.083 203.929 115.91 203.109C116.737 202.289 117.201 201.177 117.201 200.017V182.113C117.199 180.955 116.734 179.844 115.908 179.025C115.081 178.207 113.961 177.747 112.793 177.747L102.628 177.754Z" fill="#263238"/>
<path d="M136.405 204.729H126.239C125.614 204.732 124.994 204.612 124.415 204.376C123.837 204.141 123.31 203.794 122.867 203.356C122.424 202.918 122.072 202.398 121.832 201.825C121.592 201.252 121.469 200.638 121.469 200.017V182.113C121.471 180.866 121.971 179.671 122.861 178.79C123.75 177.909 124.956 177.414 126.213 177.414H136.378C137.635 177.414 138.84 177.909 139.73 178.79C140.619 179.671 141.12 180.866 141.121 182.113V200.017C141.122 201.261 140.626 202.455 139.742 203.338C138.858 204.22 137.659 204.721 136.405 204.729ZM126.239 177.754C125.071 177.754 123.951 178.213 123.125 179.032C122.298 179.851 121.833 180.961 121.831 182.12V200.017C121.833 201.176 122.298 202.288 123.124 203.107C123.951 203.927 125.071 204.388 126.239 204.39H136.405C137.574 204.39 138.695 203.929 139.522 203.109C140.348 202.289 140.813 201.177 140.813 200.017V182.113C140.811 180.954 140.346 179.844 139.519 179.025C138.693 178.207 137.573 177.747 136.405 177.747L126.239 177.754Z" fill="#263238"/>
<path d="M159.366 204.73H149.194C147.936 204.728 146.731 204.232 145.842 203.349C144.952 202.467 144.452 201.271 144.45 200.024V182.12C144.452 180.873 144.953 179.678 145.842 178.797C146.731 177.916 147.937 177.421 149.194 177.421H159.366C160.622 177.423 161.826 177.918 162.714 178.799C163.602 179.68 164.101 180.874 164.103 182.12V200.017C164.104 200.635 163.982 201.247 163.744 201.819C163.507 202.39 163.158 202.909 162.718 203.347C162.278 203.784 161.756 204.132 161.181 204.369C160.606 204.606 159.989 204.729 159.366 204.73ZM149.194 177.754C148.026 177.754 146.906 178.213 146.079 179.032C145.253 179.851 144.787 180.961 144.786 182.12V200.017C144.787 201.177 145.252 202.288 146.079 203.107C146.905 203.927 148.025 204.388 149.194 204.39H159.366C160.534 204.388 161.653 203.927 162.479 203.107C163.304 202.287 163.767 201.176 163.767 200.017V182.113C163.767 180.955 163.304 179.845 162.478 179.026C161.653 178.207 160.533 177.747 159.366 177.747L149.194 177.754Z" fill="#263238"/>
<path d="M182.596 204.733H172.424C171.167 204.731 169.961 204.234 169.072 203.352C168.183 202.47 167.682 201.274 167.68 200.027V182.123C167.682 180.876 168.183 179.681 169.072 178.8C169.962 177.919 171.167 177.424 172.424 177.424H182.596C183.852 177.426 185.056 177.921 185.944 178.802C186.832 179.683 187.331 180.877 187.333 182.123V200.02C187.334 200.638 187.212 201.25 186.975 201.822C186.737 202.393 186.388 202.912 185.948 203.35C185.509 203.787 184.986 204.135 184.411 204.372C183.836 204.609 183.219 204.732 182.596 204.733ZM172.424 177.757C171.256 177.757 170.136 178.216 169.309 179.035C168.483 179.854 168.018 180.964 168.016 182.123V200.02C168.018 201.179 168.483 202.291 169.309 203.11C170.135 203.93 171.256 204.391 172.424 204.393H182.596C183.764 204.391 184.884 203.93 185.709 203.11C186.534 202.29 186.998 201.179 186.998 200.02V182.116C186.998 180.958 186.534 179.848 185.708 179.029C184.883 178.21 183.763 177.75 182.596 177.75L172.424 177.757Z" fill="#263238"/>
<path d="M205.109 204.733H194.943C193.686 204.731 192.48 204.234 191.591 203.352C190.702 202.47 190.201 201.274 190.2 200.027V182.123C190.201 180.876 190.702 179.681 191.591 178.8C192.481 177.919 193.686 177.424 194.943 177.424H205.109C206.366 177.424 207.571 177.919 208.461 178.8C209.35 179.681 209.851 180.876 209.852 182.123V200.02C209.852 201.269 209.353 202.466 208.463 203.35C207.574 204.234 206.367 204.731 205.109 204.733ZM194.943 177.757C193.775 177.757 192.655 178.216 191.829 179.035C191.002 179.854 190.537 180.964 190.535 182.123V200.02C190.535 201.18 191 202.292 191.826 203.112C192.653 203.932 193.774 204.393 194.943 204.393H205.109C206.277 204.391 207.398 203.93 208.224 203.11C209.05 202.291 209.515 201.179 209.517 200.02V182.116C209.515 180.958 209.05 179.847 208.223 179.028C207.397 178.21 206.277 177.75 205.109 177.75L194.943 177.757Z" fill="#263238"/>
<path d="M204.373 226.35H105.599C101.415 226.35 98.0237 229.714 98.0237 233.864V238.63C98.0237 242.78 101.415 246.144 105.599 246.144H204.373C208.556 246.144 211.948 242.78 211.948 238.63V233.864C211.948 229.714 208.556 226.35 204.373 226.35Z" fill="#0158A3"/>
<path d="M140.614 232.269H143.681C145.888 232.269 147.404 233.6 147.404 235.596C147.404 237.593 145.888 238.924 143.681 238.924H140.614V232.269ZM143.6 237.693C144.155 237.693 144.688 237.474 145.08 237.085C145.473 236.695 145.694 236.167 145.694 235.616C145.694 235.066 145.473 234.537 145.08 234.148C144.688 233.759 144.155 233.54 143.6 233.54H142.171V237.693H143.6Z" fill="white"/>
<path d="M148.085 236.394C148.05 235.827 148.188 235.263 148.48 234.775C148.772 234.286 149.205 233.896 149.724 233.655C150.242 233.413 150.821 233.332 151.387 233.421C151.952 233.51 152.478 233.765 152.895 234.154C153.312 234.543 153.602 235.047 153.728 235.601C153.853 236.155 153.807 236.734 153.597 237.262C153.387 237.791 153.021 238.244 152.548 238.564C152.075 238.884 151.516 239.055 150.944 239.056C150.577 239.08 150.209 239.029 149.863 238.906C149.517 238.783 149.2 238.59 148.932 238.341C148.664 238.091 148.451 237.789 148.305 237.455C148.159 237.12 148.085 236.759 148.085 236.394ZM152.266 236.394C152.266 236.041 152.124 235.703 151.873 235.453C151.621 235.203 151.28 235.063 150.924 235.063C150.568 235.063 150.226 235.203 149.975 235.453C149.723 235.703 149.582 236.041 149.582 236.394C149.582 236.747 149.723 237.086 149.975 237.335C150.226 237.585 150.568 237.725 150.924 237.725C151.28 237.725 151.621 237.585 151.873 237.335C152.124 237.086 152.266 236.747 152.266 236.394Z" fill="white"/>
<path d="M160.105 236.022V238.964H158.602V236.248C158.602 235.416 158.213 235.037 157.549 235.037C156.885 235.037 156.308 235.476 156.308 236.421V238.964H154.805V233.819H156.241V234.425C156.464 234.201 156.733 234.026 157.028 233.911C157.324 233.797 157.641 233.745 157.958 233.759C159.179 233.746 160.105 234.451 160.105 236.022Z" fill="white"/>
<path d="M166.554 236.816H162.629C162.711 237.136 162.905 237.415 163.177 237.605C163.449 237.794 163.781 237.88 164.112 237.848C164.351 237.858 164.591 237.819 164.815 237.733C165.039 237.648 165.243 237.517 165.413 237.349L166.218 238.214C165.945 238.499 165.611 238.722 165.241 238.865C164.871 239.009 164.474 239.071 164.078 239.046C162.28 239.046 161.112 237.928 161.112 236.384C161.105 236.025 161.173 235.668 161.311 235.336C161.449 235.004 161.654 234.704 161.914 234.455C162.174 234.205 162.483 234.011 162.822 233.885C163.161 233.759 163.522 233.703 163.883 233.721C164.24 233.704 164.597 233.761 164.931 233.889C165.264 234.017 165.567 234.212 165.82 234.463C166.072 234.714 166.269 235.014 166.398 235.345C166.527 235.676 166.585 236.029 166.567 236.384C166.581 236.53 166.561 236.69 166.554 236.816ZM162.609 235.964H165.165C165.116 235.663 164.96 235.389 164.726 235.192C164.492 234.994 164.194 234.886 163.887 234.886C163.579 234.886 163.282 234.994 163.048 235.192C162.814 235.389 162.658 235.663 162.609 235.964Z" fill="white"/>
<path d="M153.887 131.844C165.023 131.844 174.05 122.889 174.05 111.843C174.05 100.797 165.023 91.8428 153.887 91.8428C142.752 91.8428 133.724 100.797 133.724 111.843C133.724 122.889 142.752 131.844 153.887 131.844Z" fill="#0158A3"/>
<path d="M150.312 108.202H149.977V106.339C149.977 105.304 150.391 104.312 151.128 103.581C151.866 102.849 152.866 102.438 153.908 102.438C154.951 102.438 155.951 102.849 156.689 103.581C157.426 104.312 157.84 105.304 157.84 106.339V107.856H157.505V106.339C157.505 105.393 157.126 104.485 156.451 103.816C155.777 103.147 154.862 102.771 153.908 102.771C152.955 102.771 152.04 103.147 151.365 103.816C150.691 104.485 150.312 105.393 150.312 106.339V108.202Z" fill="white"/>
<path d="M158.852 121.249H148.855C148.416 121.247 147.996 121.073 147.685 120.765C147.375 120.457 147.2 120.04 147.198 119.605V109.681C147.2 109.246 147.375 108.828 147.685 108.521C147.996 108.213 148.416 108.039 148.855 108.037H158.852C159.291 108.039 159.712 108.213 160.022 108.521C160.333 108.828 160.508 109.246 160.51 109.681V119.605C160.508 120.04 160.333 120.457 160.022 120.765C159.712 121.073 159.291 121.247 158.852 121.249ZM148.855 108.37C148.499 108.37 148.158 108.51 147.906 108.76C147.654 109.009 147.513 109.348 147.513 109.701V119.625C147.513 119.978 147.654 120.316 147.906 120.566C148.158 120.816 148.499 120.956 148.855 120.956H158.852C159.208 120.956 159.55 120.816 159.801 120.566C160.053 120.316 160.194 119.978 160.194 119.625V109.681C160.194 109.328 160.053 108.989 159.801 108.74C159.55 108.49 159.208 108.35 158.852 108.35L148.855 108.37Z" fill="white"/>
<path d="M153.907 114.966C153.597 114.966 153.293 114.875 153.035 114.704C152.777 114.533 152.576 114.29 152.457 114.005C152.338 113.72 152.307 113.407 152.367 113.105C152.428 112.803 152.577 112.526 152.797 112.308C153.017 112.09 153.296 111.942 153.601 111.881C153.905 111.821 154.221 111.852 154.508 111.97C154.795 112.088 155.04 112.288 155.213 112.544C155.385 112.8 155.477 113.101 155.477 113.409C155.477 113.822 155.312 114.218 155.017 114.51C154.723 114.802 154.324 114.966 153.907 114.966ZM153.907 112.191C153.663 112.191 153.424 112.263 153.221 112.398C153.017 112.533 152.859 112.724 152.766 112.949C152.673 113.173 152.649 113.419 152.697 113.657C152.745 113.895 152.863 114.113 153.037 114.284C153.21 114.455 153.431 114.571 153.671 114.618C153.91 114.664 154.159 114.639 154.384 114.545C154.61 114.451 154.802 114.293 154.937 114.091C155.072 113.889 155.143 113.652 155.142 113.409C155.144 113.247 155.115 113.085 155.054 112.934C154.993 112.783 154.902 112.646 154.787 112.53C154.673 112.414 154.536 112.322 154.384 112.259C154.233 112.197 154.071 112.164 153.907 112.164V112.191Z" fill="white"/>
<path d="M154.062 114.735H153.726V117.544H154.062V114.735Z" fill="white"/>
<path d="M270.609 61.41L273.749 58.4681C277.148 58.9746 280.616 58.202 283.47 56.3019C286.325 54.4019 288.36 51.5118 289.176 48.1993C289.992 44.8868 289.53 41.3913 287.881 38.3995C286.232 35.4076 283.514 33.1356 280.263 32.0296C277.011 30.9237 273.46 31.0638 270.307 32.4224C267.154 33.781 264.627 36.26 263.222 39.3723C261.818 42.4846 261.637 46.0055 262.716 49.2432C263.795 52.4809 266.055 55.2016 269.052 56.8707L270.609 61.41Z" fill="#0158A3"/>
<path d="M270.609 61.4193L270.508 61.1132C270.441 60.9135 270.347 60.6206 270.226 60.2413C269.971 59.4692 269.596 58.3377 269.112 56.8601L269.059 56.9134C269.066 56.9199 269.076 56.9235 269.086 56.9235C269.095 56.9235 269.105 56.9199 269.112 56.9134C269.117 56.9066 269.12 56.8984 269.12 56.8901C269.12 56.8817 269.117 56.8736 269.112 56.8668C267.115 55.7437 265.433 54.1419 264.221 52.2077C263.845 51.6109 263.518 50.9855 263.241 50.3374C262.966 49.64 262.742 48.9238 262.57 48.1943C261.724 44.7705 262.254 41.1541 264.048 38.1114C265.843 35.0686 268.762 32.8385 272.186 31.8936C275.61 30.9487 279.27 31.3632 282.391 33.0492C285.512 34.7353 287.849 37.5604 288.906 40.9261C289.516 42.8159 289.693 44.8171 289.423 46.7832C288.96 50.2829 287.143 53.4668 284.357 55.6621L283.887 56.0148C283.741 56.137 283.583 56.2461 283.418 56.341L282.458 56.9333C281.824 57.2588 281.172 57.5498 280.506 57.8053C278.36 58.5778 276.053 58.8066 273.796 58.4708H273.762C272.756 59.4293 271.977 60.1614 271.454 60.6672L270.85 61.2396L270.649 61.4393L270.85 61.2596L271.447 60.7072L273.816 58.5307H273.782C276.057 58.8897 278.386 58.6722 280.552 57.8984C281.226 57.65 281.883 57.3588 282.518 57.0265L283.491 56.4408C283.661 56.346 283.823 56.2369 283.974 56.1147L284.444 55.7553C286.649 54.0289 288.274 51.6792 289.103 49.0169C289.932 46.3547 289.926 43.5054 289.087 40.8463C288.427 38.812 287.307 36.9543 285.813 35.4152C284.239 33.8066 282.293 32.6047 280.143 31.9142C279.879 31.8165 279.607 31.7386 279.331 31.6813L278.519 31.4882L277.701 31.3684C277.429 31.3166 277.153 31.2877 276.876 31.2819L276.057 31.242C275.782 31.2253 275.507 31.2253 275.232 31.242C274.963 31.242 274.688 31.242 274.42 31.2886L273.621 31.4084C271.535 31.7407 269.555 32.5496 267.838 33.7712C265.582 35.3602 263.861 37.5852 262.896 40.1572C261.932 42.7292 261.769 45.5294 262.43 48.1943C262.613 48.9316 262.851 49.6546 263.141 50.3574C263.423 51.0094 263.755 51.639 264.134 52.241C265.369 54.1826 267.076 55.7848 269.099 56.9001V56.8202C269.087 56.8181 269.076 56.8203 269.066 56.8265C269.056 56.8327 269.048 56.8423 269.045 56.8535L270.22 60.2479L270.515 61.1065C270.568 61.3528 270.609 61.4193 270.609 61.4193Z" fill="white"/>
<path d="M268.671 44.7521L270.744 42.9085L274.354 46.4494L280.903 40.3926L282.621 42.4359L273.871 50.1966L268.671 44.7521Z" fill="white"/>
<path d="M294.118 321.671L281.456 292.698L266.93 301.95L282.335 328.433L290.058 324.999L294.118 321.671Z" fill="#FFBE9D"/>
<path d="M293.838 320.051L294.254 320.876C294.254 320.876 311.129 319.445 312.625 322.014L284.686 335.798L280.438 326.387C285.551 326.254 290.007 324.324 293.838 320.051Z" fill="#0158A3"/>
<g opacity="0.6">
<path d="M284.744 327.954C284.516 328.167 284.375 328.456 284.349 328.766C284.323 329.075 284.414 329.384 284.603 329.631C284.81 329.865 285.099 330.012 285.411 330.04C285.723 330.069 286.035 329.977 286.281 329.784C286.522 329.558 286.669 329.251 286.695 328.922C286.721 328.594 286.624 328.268 286.422 328.007C286.184 327.781 285.868 327.655 285.539 327.655C285.21 327.655 284.894 327.781 284.657 328.007" fill="white"/>
</g>
<g opacity="0.6">
<path d="M284.689 335.8L283.669 333.537L310.816 321.158C310.816 321.158 312.333 321.084 312.628 322.023L284.689 335.8Z" fill="white"/>
</g>
<path d="M294.421 320.904C294.481 321.044 293.83 321.437 293.381 322.235C292.931 323.034 292.851 323.746 292.71 323.753C292.569 323.759 292.367 322.881 292.931 321.962C293.495 321.044 294.387 320.764 294.421 320.904Z" fill="#263238"/>
<path d="M297.952 320.657C298.052 320.777 297.576 321.323 297.401 322.095C297.227 322.867 297.401 323.573 297.254 323.633C297.106 323.693 296.643 322.967 296.885 321.975C297.126 320.984 297.871 320.531 297.952 320.657Z" fill="#263238"/>
<path d="M301.355 323.311C301.241 323.404 300.684 322.819 300.684 321.907C300.684 320.995 301.154 320.383 301.268 320.469C301.382 320.556 301.188 321.135 301.214 321.893C301.241 322.652 301.483 323.231 301.355 323.311Z" fill="#263238"/>
<path d="M270.33 326.703L270.813 295.121L253.737 297.624L256.783 328.054L265.251 328.074L270.33 326.703Z" fill="#FFBE9D"/>
<path d="M270.717 325.11L270.764 326.029C270.764 326.029 286.733 331.62 287.028 334.568L255.842 335.726L255.875 325.417C260.592 327.373 265.457 327.433 270.717 325.11Z" fill="#0158A3"/>
<g opacity="0.6">
<path d="M259.169 328.591C258.873 328.695 258.626 328.902 258.474 329.175C258.321 329.447 258.275 329.765 258.344 330.069C258.436 330.367 258.64 330.618 258.913 330.772C259.186 330.926 259.509 330.969 259.814 330.894C260.129 330.786 260.392 330.565 260.552 330.275C260.712 329.984 260.757 329.645 260.679 329.324C260.547 329.026 260.305 328.791 260.002 328.667C259.7 328.543 259.36 328.539 259.055 328.658" fill="white"/>
</g>
<g opacity="0.6">
<path d="M255.862 335.728V333.252L285.747 333.046C285.747 333.046 287.163 333.592 287.042 334.57L255.862 335.728Z" fill="white"/>
</g>
<path d="M270.877 326.109C270.877 326.262 270.119 326.362 269.388 326.874C268.656 327.387 268.287 328.032 268.14 327.979C267.992 327.926 268.193 327.047 269.086 326.441C269.978 325.836 270.904 325.969 270.877 326.109Z" fill="#263238"/>
<path d="M274.209 327.335C274.249 327.475 273.605 327.761 273.109 328.42C272.612 329.079 272.491 329.751 272.337 329.751C272.183 329.751 272.062 328.899 272.686 328.087C273.31 327.275 274.202 327.188 274.209 327.335Z" fill="#263238"/>
<path d="M276.193 331.141C276.058 331.174 275.817 330.429 276.193 329.59C276.568 328.751 277.253 328.392 277.327 328.512C277.4 328.632 276.971 329.097 276.656 329.79C276.34 330.482 276.347 331.141 276.193 331.141Z" fill="#263238"/>
<path d="M258.023 197.95L257.385 173.084L232.989 174.355L232.184 177.297C230.872 181.852 229.806 186.473 228.99 191.141C227.353 201.557 227.547 211.035 231.674 222.17C235.8 233.306 242.248 254.478 242.248 254.478L266.45 320.789L294.631 311.598L258.023 197.95Z" fill="#263238"/>
<path d="M272.791 172.28L274.918 179.169C278.044 181.166 283.097 190.95 283.56 194.957C284.023 198.963 284.902 212.681 283.982 228.761C283.197 241.986 276.602 319.393 276.602 319.393L249.937 320.791L252.715 195.622L253.889 173.272L272.791 172.28Z" fill="#263238"/>
<path d="M227.083 193.432C227.38 193.557 227.691 193.649 228.009 193.705C228.863 193.894 229.732 194.01 230.606 194.051C233.517 194.207 236.419 193.615 239.032 192.332C241.645 191.05 243.88 189.12 245.521 186.73C246.021 186.015 246.454 185.258 246.816 184.467C246.966 184.184 247.081 183.885 247.158 183.575C247.091 183.542 246.588 184.819 245.307 186.583C243.639 188.886 241.429 190.748 238.868 192.006C236.308 193.265 233.476 193.883 230.619 193.805C229.435 193.74 228.255 193.616 227.083 193.432Z" fill="#455A64"/>
<path d="M271.768 180.129C271.787 180.329 271.839 180.525 271.922 180.708C272.096 181.218 272.302 181.716 272.539 182.199C274.096 185.436 276.531 188.179 279.571 190.12C280.026 190.412 280.499 190.677 280.987 190.912C281.16 191.014 281.348 191.091 281.544 191.138C281.577 191.078 280.833 190.679 279.719 189.9C276.807 187.884 274.426 185.204 272.774 182.086C272.123 180.895 271.815 180.109 271.768 180.129Z" fill="#455A64"/>
<path d="M259.203 201.271C259.203 201.271 259.27 201.438 259.384 201.784L259.874 203.308C260.303 204.639 260.927 206.636 261.726 209.172C263.323 214.284 265.631 221.658 268.483 230.77C274.266 248.98 281.614 274.345 291.463 301.801C292.591 305.089 293.709 308.334 294.818 311.538L294.872 311.711L294.704 311.764L266.523 320.943L266.369 320.996L266.315 320.843L250.111 276.249L245.502 263.477C244.972 261.999 244.569 260.854 244.287 260.075C244.153 259.694 244.053 259.401 243.985 259.197L243.885 258.897C243.885 258.897 243.932 258.991 244.006 259.19C244.079 259.39 244.193 259.683 244.341 260.055L245.602 263.437C246.696 266.412 248.286 270.758 250.299 276.182L266.617 320.71L266.416 320.61L294.597 311.412L294.483 311.631C293.382 308.428 292.264 305.182 291.128 301.894C281.278 274.432 273.971 249.06 268.248 230.83C265.443 221.698 263.175 214.31 261.598 209.199C260.827 206.643 260.223 204.666 259.814 203.308C259.612 202.643 259.458 202.13 259.357 201.777C259.257 201.425 259.203 201.271 259.203 201.271Z" fill="#455A64"/>
<path d="M283.181 129.104C283.181 129.104 281.906 122.029 278.249 118.641C274.593 115.253 259.355 111.42 259.355 111.42C259.355 111.42 259.536 116.671 256.127 118.075C252.518 119.573 248.908 119.067 246.063 116.079C244.349 114.221 243.153 111.952 242.594 109.496C242.594 109.496 224.531 112.112 221.962 116.971C219.392 121.829 216.701 140.266 216.701 140.266L233.066 142.828L232.536 174.363L275.545 172.12L273.116 142.695L284.912 143.74L283.181 129.104Z" fill="#455A64"/>
<path d="M236.318 143.718C236.344 143.483 236.344 143.246 236.318 143.012C236.318 142.553 236.278 141.894 236.231 141.075C236.144 139.451 236.003 137.202 235.815 134.719C235.627 132.236 235.446 129.987 235.291 128.363C235.211 127.551 235.144 126.892 235.09 126.439C235.079 126.202 235.036 125.966 234.963 125.74C234.928 125.974 234.928 126.212 234.963 126.446C234.963 126.905 235.003 127.564 235.05 128.376C235.137 130.007 235.278 132.256 235.466 134.739C235.654 137.221 235.835 139.471 235.989 141.095C236.063 141.907 236.137 142.566 236.19 143.019C236.197 143.257 236.24 143.492 236.318 143.718Z" fill="#263238"/>
<path d="M276.374 128.649C276.273 128.649 275.434 131.864 274.495 135.884C273.867 138.298 273.361 140.742 272.979 143.206C273.727 140.827 274.354 138.412 274.857 135.971C275.486 133.557 275.992 131.113 276.374 128.649Z" fill="#263238"/>
<path d="M223.712 115.773C223.712 115.839 224.49 115.939 225.725 116.325C227.291 116.83 228.758 117.6 230.059 118.602C231.352 119.614 232.462 120.839 233.34 122.222C234.011 123.294 234.293 124.026 234.36 123.999C234.336 123.815 234.284 123.635 234.206 123.467C234.031 122.991 233.818 122.53 233.568 122.089C231.879 119.151 229.085 116.997 225.798 116.099C225.309 115.96 224.808 115.864 224.302 115.813C224.11 115.763 223.909 115.749 223.712 115.773Z" fill="#263238"/>
<path d="M278.609 120.071C278.267 120.784 278.04 121.545 277.938 122.328C277.724 123.083 277.631 123.867 277.663 124.65C277.991 123.938 278.206 123.179 278.3 122.401C278.526 121.645 278.63 120.859 278.609 120.071Z" fill="#263238"/>
<path d="M219.602 140.739C219.602 140.739 225.748 164.906 226.412 166.97C227.076 169.033 228.27 174.611 234.202 175.463C242.213 176.621 273.279 173.898 273.279 173.898L267.019 166.83L239.382 160.68L234.685 143.109L219.602 140.739Z" fill="#FFBE9D"/>
<path d="M267.305 162.684C267.2 162.861 267.131 163.058 267.103 163.263C266.968 163.801 266.892 164.352 266.875 164.907C266.808 166.757 267.293 168.587 268.271 170.165C268.794 171.035 269.437 171.829 270.183 172.521C270.802 173.086 271.534 173.517 272.33 173.785C272.867 173.956 273.425 174.051 273.988 174.065C274.193 174.088 274.4 174.069 274.598 174.012C273.861 173.921 273.133 173.763 272.424 173.539C271.675 173.252 270.99 172.82 270.411 172.268C269.707 171.582 269.094 170.811 268.586 169.972C267.651 168.444 267.15 166.694 267.137 164.907C267.13 163.536 267.372 162.697 267.305 162.684Z" fill="#EB996E"/>
<path d="M236.134 137.837C235.886 137.839 235.639 137.814 235.396 137.764L233.383 137.478C231.705 137.238 229.357 136.966 226.814 136.633C224.616 136.368 222.432 135.992 220.272 135.508C219.447 135.308 218.783 135.129 218.333 134.982C218.1 134.924 217.875 134.839 217.662 134.729C217.662 134.669 218.695 134.936 220.346 135.262C221.997 135.588 224.318 135.927 226.881 136.28C229.444 136.633 231.773 136.946 233.443 137.225C234.282 137.378 234.953 137.518 235.416 137.631C235.664 137.665 235.906 137.735 236.134 137.837Z" fill="#0158A3"/>
<path d="M234.879 129.789C234.671 129.827 234.459 129.838 234.248 129.822C233.839 129.822 233.248 129.822 232.517 129.769C231.061 129.696 229.048 129.536 226.834 129.263C224.62 128.99 222.627 128.651 221.198 128.365C220.48 128.218 219.903 128.092 219.507 127.992C219.296 127.964 219.092 127.901 218.903 127.806C219.69 127.855 220.473 127.959 221.245 128.118C222.681 128.338 224.673 128.638 226.874 128.911C229.075 129.183 231.081 129.383 232.537 129.516C233.323 129.551 234.106 129.642 234.879 129.789Z" fill="#0158A3"/>
<path d="M233.462 123.662C232.827 123.735 232.185 123.735 231.55 123.662C228.477 123.453 225.439 122.888 222.499 121.978C221.879 121.821 221.279 121.598 220.707 121.312C221.338 121.405 221.96 121.55 222.566 121.745C223.7 122.038 225.283 122.411 227.041 122.743C228.799 123.076 230.396 123.283 231.577 123.409C232.211 123.444 232.842 123.528 233.462 123.662Z" fill="#0158A3"/>
<path d="M244.949 114.941C244.249 115.224 243.527 115.446 242.789 115.607C241.447 115.953 239.575 116.379 237.501 116.792C235.428 117.204 233.529 117.517 232.134 117.717C231.395 117.86 230.645 117.938 229.893 117.95C230.611 117.738 231.345 117.578 232.087 117.471L237.401 116.446L242.708 115.361C243.443 115.163 244.192 115.023 244.949 114.941Z" fill="#0158A3"/>
<path d="M278.279 122.148C278.016 122.086 277.759 121.997 277.515 121.881L275.461 121.043C273.737 120.337 271.348 119.359 268.691 118.327C266.034 117.296 263.612 116.41 261.854 115.771L259.781 115.013C259.518 114.935 259.266 114.825 259.029 114.687C259.3 114.722 259.565 114.787 259.821 114.88C260.331 115.019 261.049 115.246 261.941 115.545C263.719 116.124 266.162 116.976 268.825 118.008C271.489 119.039 273.864 120.051 275.535 120.823C276.387 121.209 277.072 121.529 277.548 121.762C277.806 121.862 278.052 121.991 278.279 122.148Z" fill="#0158A3"/>
<path d="M276.387 128.35C276.247 128.349 276.108 128.334 275.971 128.303L274.777 128.117L270.416 127.358C266.732 126.692 261.639 125.834 255.976 125.155C253.145 124.829 250.441 124.596 247.972 124.449C245.503 124.303 243.275 124.27 241.416 124.303C240.484 124.303 239.638 124.343 238.893 124.363C238.149 124.383 237.518 124.41 236.995 124.449L235.794 124.509C235.653 124.525 235.511 124.525 235.371 124.509C235.507 124.472 235.646 124.45 235.787 124.443L236.981 124.316C237.505 124.256 238.142 124.203 238.887 124.17C239.632 124.137 240.477 124.063 241.41 124.057C243.282 123.997 245.516 124.023 247.992 124.13C250.468 124.236 253.178 124.483 256.043 124.796C261.713 125.461 266.779 126.4 270.483 127.105C272.314 127.458 273.838 127.771 274.824 127.97L276.005 128.23C276.137 128.254 276.265 128.294 276.387 128.35Z" fill="#0158A3"/>
<path d="M259.037 139.231C258.732 139.259 258.424 139.259 258.118 139.231C257.521 139.198 256.669 139.125 255.609 139.018C253.502 138.798 250.59 138.419 247.403 137.84C244.216 137.261 241.364 136.602 239.304 136.07C238.278 135.797 237.452 135.57 236.889 135.404C236.589 135.331 236.297 135.23 236.016 135.104C236.324 135.125 236.628 135.181 236.922 135.271L239.364 135.837C241.431 136.309 244.289 136.928 247.47 137.507C250.65 138.086 253.542 138.499 255.642 138.778L258.132 139.111C258.437 139.119 258.741 139.159 259.037 139.231Z" fill="#0158A3"/>
<path d="M273.625 139.454C271.356 139.649 269.078 139.729 266.801 139.693C264.528 139.769 262.253 139.732 259.984 139.58C262.251 139.38 264.526 139.3 266.801 139.34C269.076 139.256 271.354 139.294 273.625 139.454Z" fill="#0158A3"/>
<path d="M254.446 149.009C254.198 149.032 253.947 149.021 253.702 148.976C253.232 148.936 252.541 148.849 251.689 148.73C249.998 148.49 247.663 148.064 245.133 147.498C242.604 146.932 240.329 146.247 238.712 145.721C237.9 145.455 237.249 145.229 236.8 145.056C236.566 144.984 236.34 144.886 236.129 144.763C236.377 144.783 236.62 144.837 236.854 144.922L238.793 145.482C240.423 145.947 242.691 146.56 245.221 147.152C247.75 147.744 250.058 148.184 251.736 148.483L253.749 148.843C253.987 148.87 254.222 148.925 254.446 149.009Z" fill="#0158A3"/>
<path d="M270.266 149.7C269.548 149.771 268.824 149.771 268.106 149.7C266.764 149.653 264.932 149.52 262.912 149.26C260.893 149.001 259.075 148.661 257.773 148.375C257.062 148.253 256.365 148.061 255.693 147.803C256.411 147.857 257.125 147.966 257.827 148.129C259.135 148.355 260.947 148.648 262.959 148.908C264.972 149.167 266.797 149.34 268.119 149.453C268.84 149.485 269.557 149.567 270.266 149.7Z" fill="#0158A3"/>
<path d="M266.96 158.395C266.875 158.448 266.782 158.486 266.685 158.508C266.503 158.561 266.235 158.655 265.879 158.748C264.886 159.013 263.878 159.22 262.86 159.367C259.494 159.832 256.082 159.861 252.708 159.453C249.341 159.05 246.004 158.429 242.718 157.596C241.456 157.29 240.443 157.024 239.738 156.831C239.369 156.754 239.007 156.643 238.658 156.498C239.034 156.539 239.406 156.606 239.772 156.698L242.778 157.363C246.066 158.119 249.392 158.703 252.742 159.114C256.085 159.504 259.463 159.504 262.806 159.114C264.088 158.954 265.121 158.761 265.832 158.608C266.202 158.51 266.579 158.439 266.96 158.395Z" fill="#0158A3"/>
<path d="M282.458 133.413C281.333 133.594 280.195 133.685 279.056 133.686C277.917 133.806 276.766 133.779 275.634 133.606C276.759 133.425 277.896 133.334 279.036 133.333C280.175 133.213 281.325 133.24 282.458 133.413Z" fill="#0158A3"/>
<path d="M281.551 125.309C280.311 125.469 279.05 125.388 277.841 125.069C279.082 124.918 280.341 124.999 281.551 125.309Z" fill="#0158A3"/>
<path d="M253.159 149.589C253.126 149.529 253.864 149.163 254.87 148.338C255.452 147.851 255.986 147.312 256.467 146.727C257.64 145.282 258.464 143.591 258.876 141.782C259.039 141.042 259.131 140.289 259.151 139.532C259.184 138.241 259.01 137.442 259.077 137.429C259.161 137.603 259.215 137.79 259.238 137.981C259.291 138.2 259.326 138.423 259.345 138.647C259.381 138.941 259.401 139.236 259.406 139.532C259.421 140.309 259.352 141.086 259.198 141.848C258.811 143.721 257.96 145.468 256.722 146.933C256.217 147.528 255.648 148.066 255.024 148.537C254.789 148.721 254.542 148.889 254.286 149.043C254.098 149.166 253.9 149.275 253.696 149.369C253.531 149.472 253.349 149.546 253.159 149.589Z" fill="#263238"/>
<g opacity="0.3">
<path d="M258.904 143.109L256.294 146.956C254.529 149.146 252.062 150.67 249.303 151.276C250.512 151.697 251.811 151.795 253.07 151.56C254.33 151.325 255.504 150.766 256.477 149.939C257.45 149.111 258.186 148.045 258.612 146.846C259.038 145.648 259.139 144.359 258.904 143.109Z" fill="black"/>
</g>
<path d="M266.643 103.008C269.134 103.224 271.634 102.72 273.843 101.557C270.595 99.5605 268.549 96.0596 267.556 92.4056C266.563 88.7515 265.288 82.5217 265.254 78.7412L259.309 104.945C262.443 105.647 265.717 105.394 268.703 104.22C268.287 104.197 267.882 104.075 267.523 103.864C267.165 103.653 266.863 103.36 266.643 103.008Z" fill="#263238"/>
<path d="M249.687 106.177C248.394 103.233 247.899 100.005 248.251 96.8126L236.268 92.3066C235.716 95.5401 234.406 98.5998 232.443 101.239C231.712 102.224 230.839 103.369 231.182 104.567C231.331 104.964 231.58 105.318 231.905 105.594C232.23 105.87 232.621 106.059 233.04 106.144C233.884 106.287 234.746 106.287 235.59 106.144L234.06 107.801C239.213 106.819 244.441 106.275 249.687 106.177Z" fill="#263238"/>
<path d="M250.694 67.0124C246.917 66.6263 243.723 68.2703 240.71 70.5599C237.708 72.9156 235.503 76.125 234.39 79.7582C233.137 83.5641 233.166 87.6705 234.47 91.4591C235.137 93.337 236.18 95.0613 237.538 96.5279C238.895 97.9944 240.538 99.1728 242.368 99.9918C247.386 102.122 253.553 100.864 257.686 97.3295C261.819 93.7953 263.946 88.231 263.798 82.8066C263.751 79.044 262.509 75.392 260.249 72.3703C259.109 70.8806 257.673 69.6392 256.029 68.7233C254.386 67.8073 252.57 67.2363 250.694 67.0456" fill="#263238"/>
<path d="M240.924 80.3046C241.373 78.8536 241.058 77.2829 241.172 75.7654C241.434 72.4375 243.95 69.5954 246.969 68.1045C249.787 66.7135 253.337 66.7734 256.893 67.6386C259.362 68.207 261.615 69.4632 263.388 71.2594C264.523 72.4814 265.346 73.9556 265.789 75.5584C266.231 77.1611 266.28 78.8457 265.931 80.471L248.694 79.1398C247.259 80.6386 245.587 81.8933 243.742 82.8538C243.201 83.136 242.595 83.2736 241.984 83.2531C241.67 83.2366 241.367 83.1288 241.114 82.943C240.861 82.7571 240.669 82.5016 240.562 82.2082C240.36 81.5958 240.702 80.9369 240.924 80.3046Z" fill="#263238"/>
<path d="M257.53 72.3002L242.829 76.4002C242.136 76.4911 241.503 76.8361 241.055 77.3672C240.607 77.8982 240.375 78.5767 240.406 79.2688L242.701 111.263C242.859 113.447 243.736 115.519 245.197 117.16L246.74 118.884C250.256 122.824 256.805 121.979 258.965 117.18C259.096 116.907 259.191 116.619 259.247 116.322C259.295 116.08 259.327 115.835 259.341 115.589C259.493 113.97 259.473 112.339 259.281 110.724C259.24 107.869 259.207 106.697 259.207 106.731C259.207 106.764 265.246 105.566 266.306 97.6721C266.829 93.7385 266.46 87.3356 265.984 82.0975C265.561 77.3852 262.253 71.6745 257.53 72.3002Z" fill="#FFBE9D"/>
<path d="M263.159 87.1221C263.166 87.3856 263.07 87.6418 262.891 87.8366C262.712 88.0315 262.464 88.15 262.199 88.1671C262.071 88.1808 261.941 88.1689 261.817 88.1318C261.693 88.0948 261.578 88.0335 261.478 87.9516C261.379 87.8697 261.297 87.7688 261.238 87.6549C261.178 87.541 261.142 87.4164 261.132 87.2885C261.121 87.0263 261.214 86.7702 261.391 86.5749C261.568 86.3796 261.814 86.2607 262.078 86.2436C262.208 86.2289 262.339 86.2401 262.464 86.2766C262.589 86.3131 262.705 86.3741 262.806 86.4561C262.907 86.538 262.99 86.6392 263.05 86.7536C263.111 86.868 263.148 86.9933 263.159 87.1221Z" fill="#263238"/>
<path d="M264.691 85.4653C264.563 85.5985 263.778 85.0527 262.678 85.086C261.577 85.1192 260.799 85.685 260.665 85.5519C260.531 85.4188 260.725 85.2524 261.067 84.9928C261.531 84.6556 262.089 84.4695 262.664 84.4603C263.235 84.4424 263.797 84.6056 264.268 84.9262C264.63 85.1725 264.751 85.4054 264.691 85.4653Z" fill="#263238"/>
<path d="M252.799 87.6693C252.808 87.9321 252.714 88.1882 252.536 88.3833C252.358 88.5784 252.111 88.6971 251.846 88.7142C251.717 88.728 251.587 88.716 251.462 88.6791C251.338 88.6422 251.223 88.581 251.123 88.4991C251.023 88.4173 250.94 88.3164 250.88 88.2025C250.82 88.0885 250.783 87.9638 250.772 87.8357C250.763 87.5728 250.857 87.3167 251.035 87.1216C251.213 86.9265 251.461 86.8078 251.725 86.7907C251.854 86.7769 251.984 86.7889 252.109 86.8258C252.233 86.8628 252.348 86.924 252.448 87.0058C252.548 87.0877 252.631 87.1885 252.691 87.3024C252.751 87.4164 252.788 87.5411 252.799 87.6693Z" fill="#263238"/>
<path d="M253.943 85.9437C253.822 86.0768 253.037 85.5377 251.93 85.5643C250.823 85.5909 250.051 86.1633 249.917 86.0302C249.783 85.8971 249.978 85.7373 250.327 85.4711C250.79 85.1339 251.348 84.9479 251.923 84.9386C252.492 84.9221 253.051 85.0853 253.52 85.4045C253.883 85.6508 254.003 85.8838 253.943 85.9437Z" fill="#263238"/>
<path d="M258.125 93.8978C258.698 93.7022 259.293 93.5792 259.897 93.5317C260.179 93.5317 260.44 93.4319 260.481 93.2456C260.495 92.9582 260.423 92.673 260.273 92.4269L259.387 90.337C258.159 87.3618 257.267 84.9125 257.374 84.8659C257.481 84.8193 258.588 87.1888 259.816 90.1905L260.662 92.2938C260.848 92.6234 260.91 93.008 260.836 93.3787C260.801 93.4791 260.741 93.5697 260.663 93.6426C260.585 93.7156 260.49 93.7689 260.387 93.798C260.234 93.8425 260.076 93.8671 259.917 93.8712C259.323 93.9552 258.721 93.9641 258.125 93.8978Z" fill="#263238"/>
<path d="M259.204 106.716C255.474 106.869 251.774 105.993 248.515 104.187C248.515 104.187 251.327 109.558 259.251 108.613L259.204 106.716Z" fill="#EB996E"/>
<path d="M257.731 96.5215C257.515 96.2695 257.238 96.0761 256.926 95.9597C256.613 95.8433 256.277 95.8075 255.947 95.8559C255.707 95.8783 255.475 95.9489 255.264 96.0633C255.052 96.1778 254.867 96.3337 254.719 96.5215C254.571 96.7101 254.486 96.9398 254.477 97.1785C254.467 97.4172 254.533 97.653 254.665 97.8526C254.847 98.0401 255.081 98.1704 255.338 98.2272C255.594 98.284 255.862 98.2648 256.108 98.1721C256.622 97.9782 257.092 97.684 257.49 97.3069C257.607 97.2149 257.709 97.1048 257.792 96.9807C257.831 96.9203 257.852 96.8498 257.852 96.7777C257.852 96.7057 257.831 96.6352 257.792 96.5747" fill="#EB996E"/>
<path d="M254.93 94.7305C255.105 94.7305 255.138 95.8952 256.178 96.7272C257.218 97.5592 258.48 97.3928 258.493 97.5392C258.507 97.6856 258.218 97.7722 257.681 97.7988C256.985 97.8282 256.301 97.6138 255.749 97.1931C255.221 96.7867 254.875 96.192 254.783 95.5358C254.722 95.0233 254.843 94.7305 254.93 94.7305Z" fill="#263238"/>
<path d="M254.025 82.6591C253.925 82.9586 252.824 82.8455 251.549 83.0385C250.275 83.2315 249.241 83.5976 249.06 83.338C248.98 83.2115 249.154 82.932 249.563 82.6325C250.114 82.2729 250.741 82.045 251.395 81.9669C252.051 81.8724 252.72 81.934 253.348 82.1466C253.824 82.293 254.066 82.5193 254.025 82.6591Z" fill="#263238"/>
<path d="M264.223 80.7201C264.042 80.9731 263.277 80.7201 262.371 80.7201C261.466 80.7201 260.701 80.9331 260.519 80.6802C260.439 80.5537 260.553 80.3075 260.882 80.0612C261.324 79.7679 261.843 79.6113 262.375 79.6113C262.906 79.6113 263.426 79.7679 263.868 80.0612C264.196 80.3474 264.31 80.6003 264.223 80.7201Z" fill="#263238"/>
<path d="M238.024 78.2167C239.272 73.6109 245.613 67.0416 250.417 67.1548L258.274 71.3612C258.084 72.6663 257.543 73.8964 256.707 74.9215C255.871 75.9466 254.771 76.7286 253.524 77.185C252.182 77.6576 250.571 77.8506 249.82 79.0287C249.068 80.2068 249.612 81.9373 248.901 83.1886C247.921 84.9191 245.023 84.9723 244.311 86.8293C243.996 87.6346 244.224 88.5798 243.895 89.3851C243.466 90.4567 240.842 91.9143 239.715 91.6148C238.588 91.3153 238.501 89.4384 238.091 88.4733C237.583 87.3845 237.469 86.1547 237.769 84.9923C238.152 82.7426 237.427 80.3998 238.024 78.2167Z" fill="#263238"/>
<path d="M243.019 92.3834C243.019 91.7977 242.281 90.4333 241.677 90.3867C240.113 90.187 237.315 90.3867 237.389 94.3069C237.503 99.6715 242.905 98.4601 242.911 98.3004C242.918 98.1407 243.072 94.4068 243.019 92.3834Z" fill="#FFBE9D"/>
<path d="M241.225 96.2746C241.225 96.2746 241.131 96.3411 240.976 96.421C240.75 96.511 240.498 96.511 240.272 96.421C239.695 96.228 239.198 95.3361 239.151 94.371C239.127 93.9154 239.207 93.4602 239.386 93.0399C239.43 92.8731 239.514 92.7193 239.631 92.5918C239.748 92.4643 239.894 92.3668 240.057 92.3077C240.165 92.276 240.281 92.2833 240.384 92.3284C240.488 92.3735 240.571 92.4534 240.621 92.554C240.695 92.7004 240.668 92.8069 240.695 92.8202C240.721 92.8335 240.809 92.727 240.762 92.5074C240.727 92.3753 240.649 92.2583 240.54 92.1746C240.467 92.1188 240.382 92.0788 240.292 92.057C240.202 92.0352 240.108 92.0322 240.017 92.0481C239.797 92.098 239.592 92.2022 239.424 92.3511C239.255 92.5 239.126 92.6889 239.051 92.9001C238.829 93.3674 238.728 93.8819 238.755 94.3976C238.809 95.4825 239.386 96.4809 240.171 96.6872C240.317 96.7273 240.47 96.7338 240.619 96.7061C240.768 96.6784 240.909 96.6173 241.03 96.5275C241.218 96.4077 241.245 96.2879 241.225 96.2746Z" fill="#EB996E"/>
<path d="M236.764 76.8877C236.67 75.2105 234.496 74.2254 232.825 73.9792C231.128 73.8011 229.423 74.241 228.028 75.2171C227.196 75.7429 226.364 76.4684 226.236 77.4402C226.109 78.4119 227.115 79.4968 228.014 79.0908C227.578 79.2694 227.186 79.5415 226.868 79.8876C226.549 80.2338 226.312 80.6455 226.172 81.0932C226.033 81.541 225.995 82.0137 226.061 82.4778C226.127 82.9418 226.296 83.3856 226.555 83.7774C226.814 84.1692 227.157 84.4994 227.56 84.7444C227.963 84.9894 228.415 85.1431 228.885 85.1945C229.354 85.2459 229.829 85.1938 230.276 85.0419C230.723 84.8899 231.131 84.6419 231.47 84.3156C231.102 85.8972 230.2 87.3065 228.913 88.3091C230.321 88.412 231.732 88.1459 233.003 87.5375C234.274 86.9292 235.362 86 236.157 84.8431C236.953 83.6861 237.427 82.3422 237.534 80.9459C237.64 79.5496 237.375 78.1501 236.764 76.8877Z" fill="#263238"/>
<path d="M227.346 99.8644C227.346 99.6115 228.051 99.4917 229.01 99.1988C230.236 98.8615 231.386 98.2969 232.399 97.5349C233.392 96.7445 234.223 95.773 234.848 94.6729C235.365 93.8143 235.64 93.1953 235.895 93.2352C236.15 93.2752 236.297 93.9873 236.029 95.1321C235.629 96.6397 234.743 97.9761 233.506 98.9375C232.27 99.8989 230.749 100.432 229.178 100.457C227.991 100.437 227.32 100.097 227.346 99.8644Z" fill="#263238"/>
<path d="M233.571 85.6414C233.377 85.1326 233.273 84.5945 233.262 84.0507C233.073 81.4082 233.782 78.7791 235.275 76.5829C235.557 76.1149 235.918 75.6984 236.342 75.3516C235.308 76.8443 234.509 78.485 233.974 80.2169C233.563 81.9944 233.427 83.8235 233.571 85.6414Z" fill="#0158A3"/>
<path d="M256.575 69.8369C257.213 71.9801 260.735 74.5559 262.312 76.1599C265.318 79.2083 265.942 80.2466 266.392 87.4748C267.546 84.8923 268.405 82.3764 268.103 79.5677C267.851 76.724 266.563 74.0688 264.479 72.0999C263.43 71.1389 262.169 70.4335 260.798 70.0395C259.426 69.6456 257.98 69.574 256.575 69.8303" fill="#263238"/>
<path d="M291.846 132.421C291.846 132.421 288.236 147.303 286.753 153.72C285.203 160.555 281.755 176.063 272.603 173.8C265.638 172.096 267.188 163.151 267.188 163.151L273.126 142.698L278.628 143.317L283.68 130.977L289.129 125.286L291.846 132.421Z" fill="#FFBE9D"/>
<path d="M269.605 163.681C269.299 162.599 269.237 161.463 269.424 160.354C269.654 159.166 270.09 158.026 270.712 156.986C271.513 155.717 272.41 154.511 273.396 153.378C274.387 152.228 275.284 151.002 276.08 149.711C276.713 148.648 277.256 147.535 277.704 146.383C278.003 145.607 278.254 144.813 278.455 144.007C278.546 143.715 278.602 143.413 278.623 143.108C278.497 143.386 278.394 143.673 278.314 143.967C278.133 144.519 277.865 145.298 277.456 146.283C276.98 147.407 276.422 148.495 275.785 149.538C274.978 150.802 274.081 152.008 273.101 153.145C272.105 154.294 271.207 155.523 270.417 156.819C269.787 157.898 269.361 159.082 269.162 160.314C269.033 161.147 269.07 161.997 269.27 162.816C269.326 163.044 269.4 163.266 269.491 163.482C269.552 163.615 269.592 163.688 269.605 163.681Z" fill="#EB996E"/>
<path d="M283.252 132.133C283.252 131.867 283.386 127.534 283.473 126.402C283.543 125.686 283.746 124.989 284.071 124.346C284.195 124.11 284.373 123.906 284.59 123.749C284.807 123.592 285.057 123.486 285.321 123.44C285.585 123.394 285.857 123.408 286.114 123.482C286.372 123.556 286.609 123.687 286.808 123.866L286.909 123.953C287.426 122.947 288.162 122.068 289.063 121.377C290.344 120.545 291.398 119.979 292.498 120.632C292.799 120.779 293.055 121.003 293.241 121.279C293.427 121.556 293.536 121.877 293.558 122.209C293.558 122.209 295.189 121.989 295.893 122.642C296.598 123.294 295.893 125.264 295.893 125.264C295.893 125.264 297.342 124.825 297.698 125.876C297.876 126.604 297.765 127.371 297.389 128.02C297.389 128.02 298.53 128.366 298.664 129.198C298.798 130.03 297.524 130.941 297.524 130.941L293.545 134.083C293.014 135.723 291.932 137.133 290.478 138.076C287.714 139.128 283.252 132.133 283.252 132.133Z" fill="#FFBE9D"/>
<path d="M286.277 127.414C286.317 127.414 286.31 127.58 286.189 127.78C286.04 128.045 285.803 128.252 285.518 128.366C285.222 128.464 284.902 128.464 284.606 128.366C284.385 128.292 284.277 128.186 284.297 128.139C284.317 128.093 284.841 128.212 285.391 127.999C285.941 127.786 286.183 127.367 286.277 127.414Z" fill="#EB996E"/>
<path d="M289.428 123.544C289.368 123.624 288.986 123.357 288.918 122.838C288.851 122.319 289.14 121.966 289.22 122.026C289.301 122.086 289.22 122.406 289.274 122.792C289.328 123.178 289.502 123.484 289.428 123.544Z" fill="#EB996E"/>
<path d="M296.097 125.229C296.097 125.229 295.816 125.635 295.218 126.147C294.43 126.794 293.603 127.394 292.743 127.944C292.279 128.307 291.737 128.557 291.159 128.676C290.911 128.718 290.656 128.693 290.42 128.606C290.185 128.518 289.977 128.37 289.817 128.177C289.716 128.038 289.652 127.876 289.633 127.705C289.615 127.535 289.641 127.363 289.71 127.205C289.817 126.992 289.951 126.939 289.965 126.959C289.978 126.979 289.891 127.066 289.837 127.259C289.806 127.392 289.807 127.532 289.838 127.665C289.87 127.799 289.931 127.924 290.018 128.031C290.163 128.173 290.341 128.277 290.537 128.333C290.733 128.389 290.94 128.395 291.139 128.35C291.66 128.221 292.147 127.982 292.568 127.651C293.568 126.986 294.46 126.407 295.084 125.947C295.398 125.676 295.737 125.435 296.097 125.229Z" fill="#EB996E"/>
<path d="M297.367 128.002C296.16 128.745 294.892 129.386 293.576 129.919C293.071 130.198 292.51 130.362 291.932 130.398C291.677 130.411 291.423 130.348 291.203 130.218C290.984 130.087 290.808 129.895 290.698 129.666C290.658 129.573 290.637 129.474 290.637 129.373C290.637 129.272 290.658 129.173 290.698 129.08C290.757 128.944 290.858 128.83 290.986 128.754C291.208 128.634 291.349 128.701 291.342 128.714C291.335 128.727 291.215 128.714 291.067 128.867C290.976 128.95 290.915 129.059 290.892 129.179C290.869 129.299 290.885 129.423 290.939 129.533C291.04 129.702 291.188 129.84 291.365 129.928C291.543 130.017 291.742 130.053 291.939 130.032C292.465 129.978 292.975 129.817 293.435 129.559C294.701 128.935 296.016 128.414 297.367 128.002Z" fill="#EB996E"/>
<path d="M295.423 131.546C295.423 131.586 295.208 131.752 294.752 131.859C294.492 131.919 294.226 131.946 293.96 131.939C293.618 131.945 293.28 131.87 292.974 131.719C292.877 131.661 292.799 131.577 292.748 131.477C292.697 131.377 292.675 131.265 292.685 131.153C292.708 130.974 292.783 130.806 292.9 130.667C293.067 130.462 293.258 130.276 293.47 130.115C293.832 129.849 294.101 129.762 294.141 129.802C294.181 129.842 293.953 130.009 293.658 130.308C293.485 130.478 293.328 130.663 293.188 130.86C293.034 131.08 292.98 131.306 293.188 131.42C293.444 131.536 293.719 131.601 294 131.613C294.243 131.636 294.488 131.636 294.731 131.613C295.147 131.573 295.402 131.499 295.423 131.546Z" fill="#EB996E"/>
<path d="M291.659 132.204C291.68 131.599 291.53 131.001 291.225 130.478C290.92 129.954 290.473 129.526 289.934 129.243C289.396 128.96 288.788 128.833 288.18 128.877C287.572 128.92 286.988 129.132 286.496 129.489C286.004 129.846 285.623 130.333 285.397 130.895C285.171 131.456 285.109 132.07 285.218 132.664C285.327 133.259 285.602 133.812 286.012 134.259C286.423 134.706 286.952 135.029 287.539 135.192L287.505 136.091L288.391 136.756L287.458 137.275L287.418 138.4L288.304 139.066L287.371 139.585L287.338 140.55L287.874 140.949L287.311 141.262V141.828L287.982 142.587L289.324 141.795L289.579 135.139C290.179 134.909 290.697 134.507 291.068 133.984C291.438 133.462 291.644 132.842 291.659 132.204ZM288.498 129.728C288.683 129.734 288.861 129.795 289.01 129.902C289.16 130.009 289.274 130.158 289.338 130.329C289.403 130.501 289.414 130.687 289.372 130.865C289.329 131.043 289.235 131.205 289.1 131.329C288.965 131.454 288.795 131.536 288.613 131.565C288.431 131.595 288.245 131.57 288.077 131.494C287.909 131.418 287.768 131.294 287.671 131.139C287.574 130.983 287.526 130.802 287.532 130.62C287.537 130.498 287.565 130.379 287.616 130.268C287.667 130.157 287.739 130.058 287.829 129.975C287.919 129.892 288.024 129.828 288.139 129.785C288.254 129.743 288.376 129.723 288.498 129.728Z" fill="#263238"/>
<path d="M288.491 129.73C288.491 129.73 288.41 129.73 288.269 129.77C288.069 129.817 287.889 129.93 287.76 130.089C287.659 130.22 287.597 130.375 287.58 130.538C287.563 130.701 287.591 130.865 287.662 131.013C287.733 131.161 287.843 131.287 287.982 131.377C288.12 131.466 288.28 131.517 288.445 131.522C288.61 131.527 288.774 131.487 288.917 131.406C289.061 131.326 289.18 131.207 289.26 131.064C289.34 130.921 289.379 130.758 289.373 130.595C289.366 130.431 289.314 130.272 289.222 130.136C289.105 129.967 288.935 129.841 288.739 129.776C288.605 129.737 288.518 129.737 288.518 129.723H288.551C288.609 129.716 288.668 129.716 288.726 129.723C288.934 129.778 289.117 129.902 289.242 130.076C289.337 130.206 289.398 130.358 289.418 130.517C289.438 130.677 289.417 130.839 289.356 130.988C289.286 131.165 289.161 131.316 289.001 131.42C288.831 131.536 288.629 131.594 288.424 131.587C288.217 131.579 288.017 131.507 287.853 131.381C287.703 131.259 287.591 131.097 287.531 130.915C287.485 130.762 287.478 130.6 287.509 130.443C287.541 130.286 287.611 130.14 287.713 130.016C287.855 129.853 288.049 129.743 288.263 129.703C288.319 129.698 288.375 129.698 288.431 129.703L288.491 129.73Z" fill="#263238"/>
<path d="M291.667 132.202V132.269V132.462C291.641 132.707 291.587 132.948 291.506 133.181C291.372 133.557 291.167 133.905 290.902 134.206C290.542 134.621 290.08 134.937 289.56 135.124C289.493 136.848 289.413 139.118 289.319 141.78L287.977 142.579L287.306 141.82C287.306 141.64 287.306 141.447 287.306 141.254L287.87 140.942V141.008L287.326 140.602C287.326 140.303 287.326 139.936 287.36 139.637L288.292 139.124V139.191L287.407 138.525V138.119C287.407 137.84 287.407 137.567 287.44 137.294L288.373 136.775V136.842L287.487 136.176C287.487 135.87 287.487 135.57 287.521 135.277V135.317C287.021 135.175 286.562 134.92 286.179 134.572C285.992 134.404 285.828 134.214 285.689 134.006C285.354 133.522 285.159 132.956 285.125 132.369C285.091 131.783 285.218 131.198 285.494 130.678C285.741 130.204 286.102 129.797 286.545 129.495C286.988 129.192 287.5 129.003 288.035 128.945C288.57 128.886 289.111 128.96 289.61 129.159C290.109 129.358 290.551 129.676 290.896 130.086C291.181 130.418 291.394 130.806 291.52 131.224L291.56 131.344V131.464C291.56 131.544 291.593 131.61 291.6 131.683C291.607 131.757 291.634 131.93 291.634 132.023V132.129C291.637 132.151 291.637 132.174 291.634 132.196V131.916C291.634 131.823 291.634 131.71 291.593 131.577C291.584 131.505 291.568 131.433 291.547 131.364V131.244L291.506 131.124C291.38 130.712 291.167 130.331 290.882 130.006C290.504 129.568 290.016 129.237 289.466 129.048C288.886 128.855 288.263 128.83 287.668 128.975C287.074 129.121 286.535 129.432 286.112 129.871C285.69 130.311 285.402 130.86 285.283 131.456C285.164 132.051 285.219 132.668 285.441 133.234C285.524 133.469 285.637 133.692 285.776 133.9C285.913 134.103 286.075 134.289 286.259 134.452C286.631 134.793 287.08 135.042 287.568 135.178H287.601C287.601 135.477 287.601 135.777 287.568 136.076L288.46 136.742H288.507L288.453 136.775L287.521 137.287V137.254C287.521 137.527 287.521 137.807 287.521 138.08V138.379L288.406 139.045L288.453 139.085H288.4L287.467 139.604C287.467 139.936 287.467 140.269 287.433 140.569L287.977 140.968L288.024 141.008H287.97L287.407 141.328C287.407 141.521 287.407 141.714 287.407 141.887L288.078 142.645H288.031L289.373 141.853V141.887C289.48 139.224 289.567 136.935 289.634 135.231C290.136 135.045 290.583 134.739 290.936 134.339C291.196 134.04 291.401 133.697 291.54 133.327C291.624 133.095 291.682 132.854 291.714 132.608V132.422C291.718 132.346 291.702 132.27 291.667 132.202Z" fill="#263238"/>
<path d="M291.324 132.027C291.347 131.42 291.198 130.82 290.893 130.294C290.588 129.768 290.14 129.338 289.6 129.054C289.06 128.769 288.45 128.641 287.84 128.684C287.23 128.727 286.645 128.94 286.151 129.298C285.658 129.656 285.276 130.145 285.049 130.708C284.823 131.272 284.761 131.887 284.871 132.484C284.981 133.081 285.258 133.635 285.671 134.082C286.084 134.53 286.615 134.853 287.204 135.015L287.171 135.907L288.057 136.572L287.124 137.085L287.084 138.21L287.969 138.875L287.037 139.388L286.996 140.353L287.54 140.759L286.97 141.072V141.631L287.641 142.39L288.983 141.598L289.237 134.942C289.837 134.715 290.355 134.316 290.726 133.798C291.097 133.279 291.305 132.663 291.324 132.027ZM288.164 129.551C288.286 129.555 288.407 129.583 288.518 129.634C288.63 129.684 288.73 129.756 288.814 129.845C288.897 129.934 288.962 130.038 289.005 130.152C289.048 130.266 289.068 130.387 289.063 130.509C289.058 130.631 289.029 130.75 288.978 130.86C288.927 130.971 288.854 131.07 288.764 131.152C288.674 131.235 288.568 131.299 288.453 131.341C288.338 131.383 288.216 131.402 288.093 131.398C287.971 131.393 287.851 131.364 287.739 131.313C287.628 131.262 287.528 131.19 287.445 131.101C287.362 131.011 287.297 130.907 287.255 130.793C287.212 130.679 287.193 130.557 287.198 130.436C287.208 130.192 287.316 129.961 287.497 129.795C287.678 129.63 287.918 129.542 288.164 129.551Z" fill="#0158A3"/>
<path d="M288.151 129.549C288.075 129.545 287.999 129.545 287.923 129.549C287.724 129.597 287.547 129.71 287.42 129.869C287.325 129.984 287.261 130.122 287.234 130.268C287.207 130.415 287.218 130.566 287.266 130.707C287.323 130.881 287.431 131.033 287.578 131.143C287.724 131.254 287.901 131.318 288.084 131.326C288.266 131.329 288.445 131.278 288.598 131.18C288.751 131.081 288.871 130.94 288.943 130.774C288.992 130.658 289.015 130.534 289.013 130.408C289.01 130.283 288.981 130.16 288.927 130.046C288.873 129.933 288.796 129.832 288.701 129.75C288.605 129.667 288.494 129.606 288.373 129.569C288.3 129.548 288.226 129.53 288.151 129.516H288.212C288.267 129.509 288.324 129.509 288.379 129.516C288.591 129.568 288.776 129.693 288.903 129.869C289.048 130.077 289.104 130.334 289.059 130.584C289.014 130.833 288.871 131.055 288.661 131.2C288.49 131.316 288.285 131.374 288.077 131.366C287.872 131.355 287.675 131.281 287.514 131.153C287.382 131.065 287.275 130.943 287.205 130.801C287.165 130.673 287.152 130.539 287.167 130.407C287.183 130.274 287.226 130.146 287.294 130.032C287.363 129.917 287.455 129.817 287.564 129.74C287.673 129.663 287.798 129.609 287.93 129.583C287.988 129.573 288.047 129.573 288.104 129.583L288.151 129.549Z" fill="#263238"/>
<path d="M291.334 132.024V132.091V132.277C291.307 132.524 291.253 132.767 291.173 133.003C291.033 133.376 290.828 133.723 290.569 134.028C290.204 134.439 289.744 134.754 289.227 134.946C289.166 136.67 289.086 138.94 288.992 141.602L287.65 142.394L286.979 141.635C286.979 141.462 286.979 141.269 286.979 141.076L287.543 140.757V140.823L287.006 140.424C287.006 140.118 287.006 139.792 287.04 139.459L287.972 138.94V139.006L287.086 138.341V138.041C287.086 137.768 287.086 137.489 287.12 137.216L288.053 136.703V136.77L287.167 136.104C287.167 135.805 287.167 135.505 287.201 135.206V135.246C286.699 135.109 286.238 134.853 285.859 134.5C285.67 134.332 285.504 134.143 285.362 133.934C285.222 133.727 285.107 133.503 285.02 133.269C284.86 132.858 284.785 132.42 284.8 131.98C284.815 131.54 284.92 131.108 285.108 130.71C285.296 130.311 285.564 129.954 285.895 129.661C286.225 129.367 286.612 129.144 287.033 129.003C287.721 128.775 288.465 128.775 289.153 129.003C289.689 129.146 290.181 129.42 290.582 129.801C290.865 130.135 291.078 130.522 291.206 130.939L291.246 131.066V131.186C291.246 131.259 291.28 131.332 291.287 131.399C291.293 131.465 291.32 131.652 291.32 131.738V132.024C291.322 132 291.322 131.975 291.32 131.951V131.745C291.32 131.652 291.32 131.538 291.287 131.399C291.253 131.259 291.253 131.266 291.24 131.186V131.072L291.2 130.946C291.068 130.535 290.853 130.155 290.569 129.828C290.194 129.388 289.704 129.059 289.153 128.876C288.479 128.649 287.748 128.649 287.073 128.876C286.294 129.148 285.647 129.702 285.261 130.427C285.051 130.83 284.929 131.273 284.904 131.726C284.878 132.179 284.95 132.632 285.114 133.056C285.203 133.289 285.318 133.513 285.456 133.722C285.593 133.925 285.755 134.111 285.939 134.274C286.312 134.614 286.76 134.863 287.248 134.999H287.227V135.033C287.227 135.326 287.227 135.625 287.227 135.931V135.898C287.523 136.111 287.818 136.337 288.113 136.564L288.167 136.603H288.113L287.18 137.123V137.089C287.18 137.362 287.18 137.635 287.147 137.915C287.147 138.014 287.147 138.114 287.147 138.208L288.033 138.873H288.086L288.033 138.906L287.1 139.419C287.1 139.752 287.1 140.084 287.06 140.384L287.603 140.79L287.65 140.823H287.596L287.026 141.136C287.026 141.329 287.026 141.522 287.026 141.695L287.697 142.461H287.65L288.992 141.669V141.702C289.093 139.039 289.187 136.75 289.254 135.046C289.756 134.855 290.205 134.547 290.562 134.147C290.82 133.847 291.024 133.505 291.166 133.136C291.25 132.905 291.309 132.667 291.34 132.424V132.231C291.321 132.2 291.31 132.165 291.309 132.128C291.308 132.092 291.316 132.056 291.334 132.024Z" fill="#263238"/>
<path d="M290.934 132.053C290.925 131.829 290.898 131.607 290.854 131.387C290.799 131.121 290.701 130.865 290.565 130.629C290.397 130.313 290.169 130.033 289.894 129.803C289.527 129.501 289.087 129.296 288.617 129.21C288.147 129.124 287.663 129.159 287.211 129.311C286.95 129.39 286.703 129.509 286.479 129.663C286.363 129.742 286.254 129.829 286.15 129.923C286.047 130.021 285.951 130.125 285.862 130.236C285.484 130.704 285.267 131.28 285.244 131.879C285.221 132.478 285.393 133.069 285.734 133.564C285.818 133.681 285.908 133.795 286.003 133.903C286.099 134.003 286.202 134.097 286.311 134.183C286.513 134.352 286.739 134.489 286.982 134.589C287.452 134.778 287.964 134.84 288.465 134.768C288.9 134.709 289.314 134.547 289.673 134.296C289.972 134.087 290.229 133.825 290.431 133.524C290.58 133.295 290.695 133.046 290.773 132.785C290.835 132.567 290.88 132.344 290.908 132.119V132.306C290.908 132.366 290.908 132.439 290.908 132.525C290.908 132.612 290.874 132.705 290.84 132.818C290.768 133.085 290.652 133.339 290.498 133.57C290.299 133.88 290.041 134.149 289.74 134.362C289.374 134.621 288.951 134.79 288.505 134.855C287.994 134.931 287.47 134.872 286.989 134.682C286.729 134.58 286.487 134.439 286.271 134.263C286.159 134.173 286.052 134.077 285.949 133.976C285.85 133.869 285.76 133.753 285.681 133.63C285.331 133.125 285.155 132.521 285.178 131.909C285.201 131.296 285.422 130.707 285.808 130.229C285.899 130.114 285.998 130.005 286.103 129.903C286.211 129.809 286.326 129.722 286.446 129.643C286.773 129.418 287.145 129.263 287.537 129.189C287.929 129.116 288.332 129.126 288.72 129.217C289.16 129.314 289.57 129.515 289.915 129.803C290.19 130.04 290.418 130.327 290.585 130.648C290.716 130.891 290.811 131.151 290.867 131.421C290.889 131.519 290.902 131.619 290.908 131.72C290.913 131.793 290.913 131.867 290.908 131.94V132.119L290.934 132.053Z" fill="#263238"/>
<path d="M289.214 130.518C289.206 130.431 289.192 130.344 289.174 130.259C289.124 130.023 288.99 129.813 288.798 129.666C288.669 129.563 288.517 129.49 288.355 129.453C288.17 129.415 287.978 129.426 287.798 129.487C287.598 129.546 287.422 129.667 287.295 129.833C287.157 130.006 287.079 130.218 287.074 130.438C287.065 130.655 287.125 130.87 287.245 131.051C287.365 131.233 287.54 131.372 287.745 131.45C287.91 131.515 288.088 131.54 288.265 131.521C288.441 131.502 288.61 131.442 288.758 131.344C288.956 131.207 289.103 131.007 289.174 130.778C289.2 130.693 289.22 130.606 289.234 130.518C289.234 130.518 289.234 130.518 289.234 130.591C289.23 130.659 289.219 130.726 289.201 130.791C289.136 131.032 288.989 131.244 288.785 131.39C288.641 131.491 288.476 131.558 288.302 131.583C288.092 131.616 287.877 131.589 287.682 131.505C287.487 131.422 287.321 131.285 287.201 131.111C287.064 130.916 286.994 130.683 287 130.445C287.009 130.203 287.096 129.97 287.248 129.779C287.388 129.605 287.577 129.478 287.792 129.413C287.987 129.357 288.194 129.357 288.389 129.413C288.558 129.453 288.717 129.531 288.852 129.64C289.053 129.809 289.184 130.046 289.221 130.305C289.23 130.372 289.23 130.439 289.221 130.505C289.214 130.498 289.214 130.518 289.214 130.518Z" fill="#263238"/>
<path d="M288.545 141.753C288.545 141.753 288.545 140.229 288.632 138.358C288.719 136.488 288.78 134.964 288.8 134.964C288.82 134.964 288.8 136.481 288.713 138.358C288.625 140.235 288.545 141.753 288.545 141.753Z" fill="#263238"/>
<path d="M288.449 129.871C288.381 129.904 288.307 129.921 288.231 129.921C288.156 129.921 288.081 129.904 288.013 129.871V125.777L288.449 125.811V129.871Z" fill="#E0E0E0"/>
<path d="M288.23 129.938C288.153 129.936 288.077 129.918 288.008 129.885V125.765L288.478 125.798V129.885C288.401 129.922 288.316 129.94 288.23 129.938ZM288.035 129.858C288.097 129.887 288.165 129.903 288.233 129.903C288.302 129.903 288.369 129.887 288.431 129.858V125.825H288.028L288.035 129.858Z" fill="#263238"/>
<path d="M286.537 123.768C286.902 124.077 287.29 124.36 287.697 124.613C287.901 124.744 288.07 124.919 288.194 125.126C288.317 125.333 288.391 125.565 288.409 125.804C288.373 126.049 288.276 126.28 288.126 126.477C287.975 126.673 287.777 126.829 287.55 126.929C287.239 127.095 286.899 127.198 286.548 127.234C286.197 127.269 285.842 127.235 285.505 127.134C285.167 127.034 284.853 126.868 284.579 126.646C284.306 126.425 284.08 126.152 283.913 125.844" fill="#FFBE9D"/>
<path d="M283.939 125.842C284.22 126.138 284.525 126.409 284.852 126.654C285.215 126.884 285.63 127.021 286.059 127.053C286.582 127.093 287.104 126.979 287.562 126.727C287.783 126.629 287.967 126.464 288.087 126.256C288.208 126.048 288.259 125.808 288.233 125.569C288.099 125.175 287.837 124.835 287.488 124.604C286.851 124.178 286.495 123.805 286.549 123.765C286.603 123.726 286.945 124.012 287.629 124.398C288.058 124.634 288.385 125.018 288.549 125.476C288.619 125.78 288.569 126.1 288.408 126.368C288.243 126.642 288.013 126.871 287.737 127.033C287.215 127.324 286.614 127.445 286.019 127.38C285.533 127.329 285.07 127.149 284.677 126.86C284.053 126.361 283.905 125.849 283.939 125.842Z" fill="#EB996E"/>
<path d="M290.683 122.072C289.903 122.97 289.228 123.953 288.67 125.001C288.491 125.322 288.387 125.679 288.368 126.046C288.36 126.23 288.401 126.413 288.487 126.577C288.573 126.74 288.701 126.878 288.858 126.977C289.001 127.045 289.158 127.08 289.317 127.08C289.476 127.08 289.633 127.045 289.777 126.977C290.06 126.84 290.318 126.658 290.542 126.438C291.464 125.604 292.3 124.681 293.038 123.683C293.23 123.451 293.38 123.187 293.481 122.904C293.534 122.763 293.557 122.613 293.547 122.463C293.538 122.312 293.497 122.166 293.427 122.032" fill="#FFBE9D"/>
<path d="M293.413 122.021C293.413 122.021 293.58 122.154 293.601 122.513C293.579 123.007 293.384 123.478 293.05 123.844C292.644 124.422 292.195 124.969 291.708 125.482C291.44 125.774 291.145 126.074 290.829 126.367C290.511 126.714 290.123 126.991 289.689 127.179C289.438 127.259 289.168 127.259 288.917 127.179C288.662 127.095 288.45 126.916 288.327 126.68C288.232 126.47 288.184 126.243 288.184 126.014C288.184 125.785 288.232 125.558 288.327 125.348C288.606 124.692 288.966 124.072 289.4 123.505C289.762 122.968 290.19 122.478 290.675 122.047C290.353 122.603 289.997 123.139 289.608 123.651C289.219 124.215 288.895 124.82 288.642 125.455C288.566 125.621 288.527 125.801 288.527 125.984C288.527 126.167 288.566 126.347 288.642 126.513C288.734 126.671 288.881 126.789 289.056 126.846C289.231 126.903 289.42 126.893 289.588 126.819C289.969 126.647 290.311 126.4 290.595 126.094C290.91 125.808 291.205 125.521 291.474 125.242C292.017 124.676 292.473 124.144 292.816 123.678C293.137 123.353 293.352 122.941 293.433 122.493C293.441 122.335 293.434 122.177 293.413 122.021Z" fill="#EB996E"/>
<rect width="1.1493" height="0.574659" transform="matrix(1 0 0 -1 283.869 335.821)" fill="white"/>
<path d="M331 336.247C331 336.556 256.9 336.821 165.508 336.821C74.1158 336.821 0 336.578 0 336.247C0 335.915 74.0847 335.672 165.508 335.672C256.931 335.672 331 335.937 331 336.247Z" fill="#263238"/>
<path d="M39.8428 93.4839C35.6491 95.206 32.3098 98.5205 30.5574 102.7C28.8051 106.88 28.7827 111.584 30.4952 115.781L41.1125 141.686L45.8503 139.74L35.2377 113.829C34.0365 110.897 34.05 107.607 35.2752 104.684C36.5004 101.761 38.8371 99.4443 41.7711 98.2435C44.7051 97.0427 47.9961 97.0562 50.9202 98.281C53.8442 99.5058 56.1618 101.841 57.363 104.774L62.1245 102.823C60.4026 98.6361 57.0906 95.302 52.9141 93.5514C48.7376 91.8008 44.0372 91.7766 39.8428 93.4839Z" fill="#25272C"/>
<g opacity="0.3">
<path d="M39.8428 93.4839C35.6491 95.206 32.3098 98.5205 30.5574 102.7C28.8051 106.88 28.7827 111.584 30.4952 115.781L41.1125 141.686L45.8503 139.74L35.2377 113.829C34.0365 110.897 34.05 107.607 35.2752 104.684C36.5004 101.761 38.8371 99.4443 41.7711 98.2435C44.7051 97.0427 47.9961 97.0562 50.9202 98.281C53.8442 99.5058 56.1618 101.841 57.363 104.774L62.1245 102.823C60.4026 98.6361 57.0906 95.302 52.9141 93.5514C48.7376 91.8008 44.0372 91.7766 39.8428 93.4839Z" fill="#6B7280"/>
</g>
<path d="M64.936 101.127L27.3752 116.503C25.9684 117.079 25.2949 118.686 25.8711 120.092L34.9921 142.356C35.5682 143.762 37.1757 144.436 38.5826 143.86L76.1434 128.484C77.5502 127.908 78.2237 126.301 77.6475 124.895L68.5265 102.631C67.9504 101.225 66.3429 100.551 64.936 101.127Z" fill="#6B7280"/>
<g opacity="0.5">
<path d="M53.8131 117.526C53.5438 116.862 53.0943 116.285 52.5151 115.862C51.936 115.439 51.2502 115.187 50.535 115.132C49.8198 115.078 49.1036 115.224 48.4671 115.555C47.8306 115.885 47.2991 116.387 46.9324 117.003C46.5658 117.619 46.3785 118.326 46.3918 119.043C46.405 119.759 46.6183 120.458 47.0074 121.061C47.3966 121.663 47.9463 122.145 48.5946 122.451C49.2429 122.758 49.964 122.878 50.6767 122.797L52.856 128.125L54.8033 127.33L52.6191 122.002C53.2789 121.488 53.7526 120.772 53.9681 119.964C54.1836 119.156 54.1292 118.3 53.8131 117.526Z" fill="black"/>
</g>
<path d="M37.2154 141.35C37.1159 141.392 35.1687 136.86 32.8661 131.234C30.5636 125.607 28.768 121.014 28.8675 120.971C28.967 120.928 30.9142 125.461 33.2167 131.092C35.5193 136.723 37.3102 141.312 37.2154 141.35Z" fill="#FAFAFA"/>
<path d="M49.3774 124.597C49.2041 124.609 49.0302 124.586 48.8657 124.53C48.4059 124.408 47.9668 124.218 47.5628 123.967C46.8771 123.563 46.2895 123.012 45.842 122.354C45.3945 121.696 45.0983 120.947 44.9746 120.161C44.851 119.375 44.903 118.572 45.1268 117.808C45.3507 117.045 45.7409 116.34 46.2694 115.745C46.5722 115.375 46.932 115.055 47.3354 114.798C47.6197 114.623 47.8092 114.556 47.8092 114.575C47.334 114.981 46.8905 115.423 46.4826 115.897C46.0131 116.478 45.6706 117.15 45.4773 117.872C45.2839 118.593 45.244 119.347 45.3601 120.084C45.4761 120.822 45.7456 121.527 46.1512 122.154C46.5567 122.781 47.0892 123.316 47.7144 123.725C48.2461 124.057 48.802 124.348 49.3774 124.597Z" fill="#FAFAFA"/>
</svg>
