<svg width="144" height="44" viewBox="0 0 144 44" fill="none" xmlns="http://www.w3.org/2000/svg">
<path fill-rule="evenodd" clip-rule="evenodd" d="M24.285 38C33.2789 38 40.5698 30.8366 40.5698 22C40.5698 16.576 37.8228 11.7824 33.6212 8.88886L27.3571 19.5488L25.1126 19.4301L34.2658 24.6223L16.1487 35.8629C18.5426 37.2222 21.3213 38 24.285 38ZM15.5934 35.533L22.107 24.4484L24.406 24.5699L15.2088 19.3527L32.8648 8.39819C30.3734 6.87791 27.4336 6 24.285 6C15.2912 6 8.00024 13.1634 8.00024 22C8.00024 27.6967 11.0304 32.698 15.5934 35.533Z" fill="#000B14"/>
<path d="M77.8835 33.7282C76.1102 33.7282 74.5328 33.3636 73.1512 32.6343C71.7903 31.9051 70.7078 30.9125 69.9036 29.6565C69.12 28.3803 68.7283 26.9319 68.7283 25.3114C68.7283 23.6705 69.12 22.2222 69.9036 20.9662C70.7078 19.69 71.7903 18.6974 73.1512 17.9884C74.5328 17.2592 76.1102 16.8945 77.8835 16.8945C79.6362 16.8945 81.2033 17.2592 82.5849 17.9884C83.9664 18.6974 85.0489 19.6799 85.8325 20.9358C86.616 22.1918 87.0078 23.6503 87.0078 25.3114C87.0078 26.9319 86.616 28.3803 85.8325 29.6565C85.0489 30.9125 83.9664 31.9051 82.5849 32.6343C81.2033 33.3636 79.6362 33.7282 77.8835 33.7282ZM77.8835 29.8388C78.6877 29.8388 79.4094 29.6565 80.0486 29.2919C80.6878 28.9273 81.193 28.4107 81.5642 27.7422C81.9353 27.0535 82.1209 26.2432 82.1209 25.3114C82.1209 24.3593 81.9353 23.549 81.5642 22.8805C81.193 22.212 80.6878 21.6955 80.0486 21.3308C79.4094 20.9662 78.6877 20.7839 77.8835 20.7839C77.0793 20.7839 76.3576 20.9662 75.7184 21.3308C75.0792 21.6955 74.5637 22.212 74.1719 22.8805C73.8008 23.549 73.6152 24.3593 73.6152 25.3114C73.6152 26.2432 73.8008 27.0535 74.1719 27.7422C74.5637 28.4107 75.0792 28.9273 75.7184 29.2919C76.3576 29.6565 77.0793 29.8388 77.8835 29.8388Z" fill="#000B14"/>
<path d="M89.4202 33.4876V10.9414H94.2448V33.4876H89.4202Z" fill="#000B14"/>
<path fill-rule="evenodd" clip-rule="evenodd" d="M115.43 10.9375H110.606V15.6765H115.43V10.9375ZM110.606 17.1367V33.4842H115.431V17.1367H110.606Z" fill="#000B14"/>
<path fill-rule="evenodd" clip-rule="evenodd" d="M104.05 17.13H101.906L104.05 16.0606V13.5234H99.2246V17.1305H96.6575V20.7768H99.2246V27.8655C99.2246 29.8102 99.4052 31.3047 100.498 32.2973C101.591 33.2697 103.272 33.7299 106.122 33.7299H108.194V29.8658H106.122C105.483 29.8658 104.978 29.6835 104.606 29.3188C104.235 28.9339 104.05 28.4934 104.05 27.8047V20.7768H108.194V17.1305H104.05V17.13Z" fill="#000B14"/>
<path fill-rule="evenodd" clip-rule="evenodd" d="M125.95 23.2916L126.354 21.0324L123.473 17.1367H118.061L124.245 25.2383L117.844 33.4842H123.023L127.785 27.2474L127.43 29.2316L130.525 33.4842H136L129.562 25.1311L135.752 17.1367H130.649L127.004 21.9116L126.872 22.0843L125.95 23.2916Z" fill="#000B14"/>
<path fill-rule="evenodd" clip-rule="evenodd" d="M47.8044 10.9336L57.2565 33.4848H61.5993L71.0513 10.9336H65.7505L59.89 25.9713L58.7823 28.8314L58.2317 23.7602L53.233 10.9336H47.8044Z" fill="#000B14"/>
</svg>
