<svg width="175" height="44" viewBox="0 0 175 44" fill="none" xmlns="http://www.w3.org/2000/svg">
<path fill-rule="evenodd" clip-rule="evenodd" d="M22.1963 44C34.4549 44 44.3925 34.1503 44.3925 22C44.3925 14.5422 40.6486 7.95116 34.922 3.97252L26.3858 18.627L23.3249 18.4638L35.803 25.6043L11.1067 41.0617C14.3695 42.9305 18.1569 44 22.1963 44ZM10.3501 40.6082L19.2283 25.3665L22.3615 25.5335L9.82577 18.3601L33.8909 3.29772C30.4951 1.20721 26.4879 0 22.1963 0C9.93761 0 0 9.84974 0 22C0 29.8331 4.1303 36.7101 10.3501 40.6082Z" fill="white"/>
<path d="M95.2526 38.1258C92.8355 38.1258 90.6855 37.6244 88.8025 36.6217C86.9475 35.619 85.472 34.2541 84.3759 32.5272C83.3079 30.7724 82.7739 28.7809 82.7739 26.5526C82.7739 24.2965 83.3079 22.305 84.3759 20.5781C85.472 18.8233 86.9475 17.4585 88.8025 16.4836C90.6855 15.4809 92.8355 14.9795 95.2526 14.9795C97.6415 14.9795 99.7775 15.4809 101.661 16.4836C103.544 17.4585 105.019 18.8094 106.087 20.5363C107.155 22.2632 107.689 24.2686 107.689 26.5526C107.689 28.7809 107.155 30.7724 106.087 32.5272C105.019 34.2541 103.544 35.619 101.661 36.6217C99.7775 37.6244 97.6415 38.1258 95.2526 38.1258ZM95.2526 32.7779C96.3487 32.7779 97.3324 32.5272 98.2036 32.0259C99.0749 31.5245 99.7635 30.8142 100.269 29.8951C100.775 28.948 101.028 27.8339 101.028 26.5526C101.028 25.2435 100.775 24.1294 100.269 23.2102C99.7635 22.291 99.0749 21.5808 98.2036 21.0794C97.3324 20.5781 96.3487 20.3274 95.2526 20.3274C94.1565 20.3274 93.1728 20.5781 92.3016 21.0794C91.4303 21.5808 90.7277 22.291 90.1937 23.2102C89.6878 24.1294 89.4348 25.2435 89.4348 26.5526C89.4348 27.8339 89.6878 28.948 90.1937 29.8951C90.7277 30.8142 91.4303 31.5245 92.3016 32.0259C93.1728 32.5272 94.1565 32.7779 95.2526 32.7779Z" fill="white"/>
<path d="M110.977 37.792V6.79102H117.553V37.792H110.977Z" fill="white"/>
<path fill-rule="evenodd" clip-rule="evenodd" d="M146.428 6.79102H139.854V13.3072H146.428V6.79102ZM139.854 15.3149V37.7927H146.43V15.3149H139.854Z" fill="white"/>
<path fill-rule="evenodd" clip-rule="evenodd" d="M130.917 15.3008H127.995L130.917 13.8302V10.3418H124.34V15.3015H120.841V20.3152H124.34V30.0621C124.34 32.736 124.586 34.7911 126.076 36.1559C127.566 37.4929 129.858 38.1257 133.742 38.1257H136.566V32.8125H133.742C132.87 32.8125 132.182 32.5618 131.676 32.0605C131.17 31.5312 130.917 30.9256 130.917 29.9785V20.3152H136.566V15.3015H130.917V15.3008Z" fill="white"/>
<path fill-rule="evenodd" clip-rule="evenodd" d="M160.767 23.7728L161.317 20.6686L157.391 15.3125H150.013L158.444 26.4521L149.718 37.7903H156.776L163.267 29.212L162.784 31.9423L167.003 37.7903H174.465L165.691 26.3048L174.128 15.3125H167.17L162.266 21.7921L162.202 21.877L162.202 21.8767L160.767 23.7728Z" fill="white"/>
<path fill-rule="evenodd" clip-rule="evenodd" d="M54.2544 6.7832L67.1376 37.7911H73.0569L85.9401 6.7832H78.715L70.8703 27.0893L69.2171 31.3953L68.4663 24.4182L61.6535 6.7832H54.2544Z" fill="white"/>
</svg>
