<svg width="254" height="64" viewBox="0 0 254 64" fill="none" xmlns="http://www.w3.org/2000/svg">
<path fill-rule="evenodd" clip-rule="evenodd" d="M32.2855 64C50.1163 64 64.571 49.6731 64.571 32C64.571 21.1523 59.1252 11.5653 50.7956 5.7782L38.3793 27.0937L33.9271 26.8564L52.0771 37.2426L16.1552 59.7261C20.9011 62.4444 26.41 64 32.2855 64ZM15.0546 59.0664L27.9685 36.8967L32.5258 37.1397L14.292 26.7055L49.2959 4.79668C44.3565 1.75595 38.5279 0 32.2855 0C14.4547 0 0 14.3269 0 32C0 43.3937 6.00771 53.3965 15.0546 59.0664Z" fill="#0158A3"/>
<path d="M138.549 55.4564C135.033 55.4564 131.906 54.7271 129.167 53.2686C126.469 51.8101 124.322 49.8249 122.728 47.313C121.175 44.7606 120.398 41.8639 120.398 38.6227C120.398 35.3411 121.175 32.4443 122.728 29.9324C124.322 27.38 126.469 25.3948 129.167 23.9768C131.906 22.5183 135.033 21.7891 138.549 21.7891C142.024 21.7891 145.13 22.5183 147.869 23.9768C150.608 25.3948 152.755 27.3598 154.308 29.8717C155.861 32.3835 156.638 35.3006 156.638 38.6227C156.638 41.8639 155.861 44.7606 154.308 47.313C152.755 49.8249 150.608 51.8101 147.869 53.2686C145.13 54.7271 142.024 55.4564 138.549 55.4564ZM138.549 47.6777C140.143 47.6777 141.574 47.313 142.841 46.5838C144.108 45.8545 145.11 44.8214 145.846 43.4844C146.582 42.1069 146.95 40.4864 146.95 38.6227C146.95 36.7186 146.582 35.098 145.846 33.761C145.11 32.424 144.108 31.3909 142.841 30.6617C141.574 29.9324 140.143 29.5678 138.549 29.5678C136.954 29.5678 135.524 29.9324 134.256 30.6617C132.989 31.3909 131.967 32.424 131.19 33.761C130.454 35.098 130.087 36.7186 130.087 38.6227C130.087 40.4864 130.454 42.1069 131.19 43.4844C131.967 44.8214 132.989 45.8545 134.256 46.5838C135.524 47.313 136.954 47.6777 138.549 47.6777Z" fill="#0158A3"/>
<path d="M161.42 54.9712V9.87891H170.986V54.9712H161.42Z" fill="#0158A3"/>
<path fill-rule="evenodd" clip-rule="evenodd" d="M212.986 9.87891H203.424V19.357H212.986V9.87891ZM203.423 22.2773V54.9723H212.989V22.2773H203.423Z" fill="#0158A3"/>
<path fill-rule="evenodd" clip-rule="evenodd" d="M190.425 22.256H186.174L190.425 20.1171V15.043H180.859V22.2571H175.769V29.5497H180.859V43.727C180.859 47.6164 181.217 50.6055 183.383 52.5907C185.55 54.5354 188.884 55.4559 194.533 55.4559H198.641V47.7276H194.533C193.266 47.7276 192.264 47.363 191.528 46.6337C190.793 45.864 190.425 44.983 190.425 43.6055V29.5497H198.641V22.2571H190.425V22.256Z" fill="#0158A3"/>
<path fill-rule="evenodd" clip-rule="evenodd" d="M233.843 34.5794L234.643 30.0641L228.933 22.2734H218.202L230.464 38.4765L217.772 54.9684H228.038L237.48 42.4909L236.777 46.4622L242.914 54.9684H253.767L241.005 38.2623L253.277 22.2734H243.156L236.025 31.697L235.931 31.8219L235.931 31.8213L233.843 34.5794Z" fill="#0158A3"/>
<path fill-rule="evenodd" clip-rule="evenodd" d="M78.9155 9.86719L97.6547 54.9696H106.265L125.004 9.86719H114.495L103.086 39.3991L100.68 45.6667L99.5874 35.5181L89.6779 9.86719H78.9155Z" fill="#0158A3"/>
</svg>
