<svg width="16" height="24" viewBox="0 0 16 24" fill="none" xmlns="http://www.w3.org/2000/svg">
<path d="M15.7252 17.0248C15.2002 15.7123 15.0502 14.1748 15.0502 13.9873V10.2373C15.0502 6.6373 12.3127 3.63731 8.82522 3.2248V1.4998C8.82522 1.0498 8.45021 0.674805 8.00021 0.674805C7.55021 0.674805 7.17521 1.0498 7.17521 1.4998V3.2623C3.68771 3.6748 0.950215 6.67481 0.950215 10.2748V14.0248C0.950215 14.2123 0.800215 15.7498 0.275215 17.0623C-0.0247852 17.8498 0.0502149 18.7123 0.500215 19.3873C0.950215 20.0623 1.73772 20.4748 2.56272 20.4748H4.62521C4.92521 22.0873 6.31271 23.3248 8.00021 23.3248C9.68771 23.3248 11.1127 22.0873 11.3752 20.4748H13.4002C14.2252 20.4748 15.0127 20.0623 15.4627 19.3873C15.9502 18.6748 16.0627 17.8123 15.7252 17.0248ZM8.00021 21.6748C7.25021 21.6748 6.61271 21.1873 6.35021 20.5123H9.65022C9.38772 21.1498 8.75021 21.6748 8.00021 21.6748ZM14.0752 18.4498C13.9252 18.6748 13.6627 18.8248 13.4002 18.8248H2.60022C2.33772 18.8248 2.07522 18.7123 1.92522 18.4498C1.77522 18.2248 1.73772 17.9248 1.85022 17.6998C2.52522 16.0498 2.63772 14.1748 2.63772 14.0998V14.0623V10.2748C2.63772 7.31231 5.03771 4.8748 8.00021 4.8748C10.9627 4.8748 13.3627 7.27481 13.3627 10.2373V14.0248V14.0623C13.3627 14.1373 13.4752 16.0123 14.1502 17.6623C14.2627 17.9248 14.2627 18.2248 14.0752 18.4498Z" fill="white"/>
</svg>
