<svg width="24" height="24" viewBox="0 0 24 24" fill="none" xmlns="http://www.w3.org/2000/svg">
<path d="M20.4746 12.6748C20.1371 12.3373 19.6121 12.3373 19.2746 12.6748L12.8621 18.9748V2.9998C12.8621 2.5498 12.4871 2.1748 12.0371 2.1748C11.5871 2.1748 11.2121 2.5498 11.2121 2.9998V19.0123L4.72461 12.6373C4.38711 12.2998 3.86211 12.2998 3.52461 12.6373C3.18711 12.9748 3.18711 13.4998 3.52461 13.8373L11.3996 21.5998C11.5496 21.7498 11.7746 21.8248 11.9996 21.8248C12.2246 21.8248 12.4121 21.7498 12.5996 21.5998L20.4746 13.8373C20.8121 13.5373 20.8121 12.9748 20.4746 12.6748Z" fill="#111928"/>
</svg>
