<svg width="12" height="12" viewBox="0 0 12 12" fill="none" xmlns="http://www.w3.org/2000/svg">
<path d="M10.4998 5.5875H2.49355L5.68105 2.34375C5.8498 2.175 5.8498 1.9125 5.68105 1.74375C5.5123 1.575 5.2498 1.575 5.08105 1.74375L1.1998 5.68125C1.03105 5.85 1.03105 6.1125 1.1998 6.28125L5.08105 10.2188C5.15605 10.2937 5.26855 10.35 5.38105 10.35C5.49355 10.35 5.5873 10.3125 5.68105 10.2375C5.8498 10.0687 5.8498 9.80625 5.68105 9.6375L2.5123 6.43125H10.4998C10.7248 6.43125 10.9123 6.24375 10.9123 6.01875C10.9123 5.775 10.7248 5.5875 10.4998 5.5875Z" fill="#25272C"/>
</svg>