<svg width="12" height="13" viewBox="0 0 12 13" fill="none" xmlns="http://www.w3.org/2000/svg">
<path d="M10.8004 6.1998L6.91914 2.2623C6.75039 2.09355 6.48789 2.09355 6.31914 2.2623C6.15039 2.43105 6.15039 2.69355 6.31914 2.8623L9.46914 6.06855H1.50039C1.27539 6.06855 1.08789 6.25605 1.08789 6.48105C1.08789 6.70605 1.27539 6.9123 1.50039 6.9123H9.50664L6.31914 10.1561C6.15039 10.3248 6.15039 10.5873 6.31914 10.7561C6.39414 10.8311 6.50664 10.8686 6.61914 10.8686C6.73164 10.8686 6.84414 10.8311 6.91914 10.7373L10.8004 6.7998C10.9691 6.63105 10.9691 6.36855 10.8004 6.1998Z" fill="#25272C"/>
</svg>
