<svg width="12" height="12" viewBox="0 0 12 12" fill="none" xmlns="http://www.w3.org/2000/svg">
<path d="M10.8004 5.6998L6.91914 1.7623C6.75039 1.59355 6.48789 1.59355 6.31914 1.7623C6.15039 1.93105 6.15039 2.19355 6.31914 2.3623L9.46914 5.56855H1.50039C1.27539 5.56855 1.08789 5.75605 1.08789 5.98105C1.08789 6.20605 1.27539 6.4123 1.50039 6.4123H9.50664L6.31914 9.65606C6.15039 9.82481 6.15039 10.0873 6.31914 10.2561C6.39414 10.3311 6.50664 10.3686 6.61914 10.3686C6.73164 10.3686 6.84414 10.3311 6.91914 10.2373L10.8004 6.2998C10.9691 6.13105 10.9691 5.86855 10.8004 5.6998Z" fill="#25272C"/>
</svg>
