<svg width="24" height="24" viewBox="0 0 24 24" fill="#2F8902" xmlns="http://www.w3.org/2000/svg">
<path d="M20.4746 10.1626L12.5996 2.4001C12.2621 2.0626 11.7371 2.0626 11.3996 2.4001L3.52461 10.1626C3.18711 10.5001 3.18711 11.0251 3.52461 11.3626C3.86211 11.7001 4.38711 11.7001 4.72461 11.3626L11.1371 5.0626V21.0001C11.1371 21.4501 11.5121 21.8251 11.9621 21.8251C12.4121 21.8251 12.8246 21.4501 12.8246 21.0001V4.9876L19.3121 11.3626C19.4621 11.5126 19.6871 11.5876 19.9121 11.5876C20.1371 11.5876 20.3621 11.5126 20.5121 11.3251C20.8121 11.0251 20.8121 10.4626 20.4746 10.1626Z" fill="#2F8902"/>
</svg>
