<svg width="12" height="13" viewBox="0 0 12 13" fill="none" xmlns="http://www.w3.org/2000/svg">
<path d="M10.5008 6.0875H2.49453L5.68203 2.84375C5.85078 2.675 5.85078 2.4125 5.68203 2.24375C5.51328 2.075 5.25078 2.075 5.08203 2.24375L1.20078 6.18125C1.03203 6.35 1.03203 6.6125 1.20078 6.78125L5.08203 10.7188C5.15703 10.7937 5.26953 10.85 5.38203 10.85C5.49453 10.85 5.58828 10.8125 5.68203 10.7375C5.85078 10.5687 5.85078 10.3063 5.68203 10.1375L2.51328 6.93125H10.5008C10.7258 6.93125 10.9133 6.74375 10.9133 6.51875C10.9133 6.275 10.7258 6.0875 10.5008 6.0875Z" fill="#6B7280"/>
</svg>
