<svg width="66" height="66" viewBox="0 0 66 66" fill="none" xmlns="http://www.w3.org/2000/svg">
<g clip-path="url(#clip0_2859_5101)">
<path d="M46.635 21.7363H43.2153C42.4716 21.7363 41.7643 22.0936 41.3268 22.7061L29.8645 38.6016L24.6729 31.3976C24.2354 30.7924 23.5354 30.4278 22.7844 30.4278H19.3647C18.8907 30.4278 18.6137 30.9674 18.8907 31.3538L27.976 43.9536C28.1906 44.2531 28.4735 44.4972 28.8013 44.6656C29.1291 44.834 29.4923 44.9219 29.8608 44.9219C30.2294 44.9219 30.5926 44.834 30.9204 44.6656C31.2481 44.4972 31.5311 44.2531 31.7457 43.9536L47.1017 22.6623C47.3861 22.2759 47.109 21.7363 46.635 21.7363Z" fill="#3DB500"/>
<path d="M33.0001 0.666016C14.9608 0.666016 0.333984 15.2928 0.333984 33.3321C0.333984 51.3714 14.9608 65.9982 33.0001 65.9982C51.0393 65.9982 65.6662 51.3714 65.6662 33.3321C65.6662 15.2928 51.0393 0.666016 33.0001 0.666016ZM33.0001 60.4566C18.0233 60.4566 5.87555 48.3089 5.87555 33.3321C5.87555 18.3553 18.0233 6.20758 33.0001 6.20758C47.9769 6.20758 60.1246 18.3553 60.1246 33.3321C60.1246 48.3089 47.9769 60.4566 33.0001 60.4566Z" fill="#3DB500"/>
</g>
<defs>
<clipPath id="clip0_2859_5101">
<rect width="65.3322" height="65.3322" fill="white" transform="translate(0.333984 0.666016)"/>
</clipPath>
</defs>
</svg>
