<svg width="44" height="44" viewBox="0 0 44 44" fill="none" xmlns="http://www.w3.org/2000/svg">
<path d="M23.2001 21.9996L32.3501 12.8496C32.6876 12.5121 32.6876 11.9871 32.3501 11.6496C32.0126 11.3121 31.4876 11.3121 31.1501 11.6496L22.0001 20.7996L12.8501 11.6496C12.5126 11.3121 11.9876 11.3121 11.6501 11.6496C11.3126 11.9871 11.3126 12.5121 11.6501 12.8496L20.8001 21.9996L11.6501 31.1496C11.3126 31.4871 11.3126 32.0121 11.6501 32.3496C11.8001 32.4996 12.0251 32.6121 12.2501 32.6121C12.4751 32.6121 12.7001 32.5371 12.8501 32.3496L22.0001 23.1996L31.1501 32.3496C31.3001 32.4996 31.5251 32.6121 31.7501 32.6121C31.9751 32.6121 32.2001 32.5371 32.3501 32.3496C32.6876 32.0121 32.6876 31.4871 32.3501 31.1496L23.2001 21.9996Z" fill="white"/>
</svg>
