<svg width="18" height="18" viewBox="0 0 18 18" fill="none" xmlns="http://www.w3.org/2000/svg">
<path d="M9.89922 9.0002L16.7617 2.1377C17.0148 1.88457 17.0148 1.49082 16.7617 1.2377C16.5086 0.98457 16.1148 0.98457 15.8617 1.2377L8.99922 8.10019L2.13672 1.2377C1.88359 0.98457 1.48984 0.98457 1.23672 1.2377C0.983594 1.49082 0.983594 1.88457 1.23672 2.1377L8.09922 9.0002L1.23672 15.8627C0.983594 16.1158 0.983594 16.5096 1.23672 16.7627C1.34922 16.8752 1.51797 16.9596 1.68672 16.9596C1.85547 16.9596 2.02422 16.9033 2.13672 16.7627L8.99922 9.9002L15.8617 16.7627C15.9742 16.8752 16.143 16.9596 16.3117 16.9596C16.4805 16.9596 16.6492 16.9033 16.7617 16.7627C17.0148 16.5096 17.0148 16.1158 16.7617 15.8627L9.89922 9.0002Z" fill="#5B616E"/>
</svg>
