<svg width="24" height="24" viewBox="0 0 24 24" fill="none" xmlns="http://www.w3.org/2000/svg">
<path d="M20.1758 7.0875C18.1133 4.9125 15.2258 3.5625 12.0008 3.5625C5.73828 3.5625 0.675781 8.6625 0.675781 14.925C0.675781 16.6875 1.08828 18.4125 1.83828 19.95C1.95078 20.175 2.13828 20.325 2.36328 20.4C2.43828 20.4 2.47578 20.4375 2.55078 20.4375C2.55078 20.4375 2.55078 20.4375 2.58828 20.4375C2.58828 20.4375 2.58828 20.4375 2.62578 20.4375C2.66328 20.4375 2.70078 20.4375 2.73828 20.4375C2.81328 20.4375 2.92578 20.4 3.00078 20.3625L4.53828 19.6125C4.95078 19.425 5.13828 18.9 4.91328 18.4875C4.68828 18.075 4.20078 17.8875 3.78828 18.1125L3.03828 18.4875C2.58828 17.4 2.40078 16.2375 2.36328 15.0375H3.93828C4.38828 15.0375 4.80078 14.6625 4.80078 14.175C4.80078 13.6875 4.42578 13.3125 3.93828 13.3125H2.47578C2.73828 11.6625 3.45078 10.1625 4.46328 8.925L5.81328 10.275C5.96328 10.425 6.18828 10.5375 6.41328 10.5375C6.63828 10.5375 6.86328 10.4625 7.01328 10.275C7.35078 9.9375 7.35078 9.4125 7.01328 9.075L5.62578 7.6875C7.12578 6.375 9.03828 5.475 11.1758 5.325V7.6125C11.1758 8.0625 11.5508 8.475 12.0383 8.475C12.4883 8.475 12.9008 8.1 12.9008 7.6125V5.325C15.0008 5.5125 16.9508 6.375 18.4508 7.6875L17.4008 8.7375C17.0633 9.075 17.0633 9.6 17.4008 9.9375C17.5508 10.0875 17.7758 10.2 18.0008 10.2C18.2258 10.2 18.4508 10.125 18.6008 9.9375L19.6133 8.925C20.6258 10.1625 21.3008 11.6625 21.6008 13.3125H20.1383C19.6883 13.3125 19.2758 13.6875 19.2758 14.175C19.2758 14.6625 19.6508 15.0375 20.1383 15.0375H21.7133C21.7133 16.2375 21.4883 17.4 21.0383 18.525L20.2883 18.15C19.8758 17.925 19.3508 18.1125 19.1633 18.525C18.9758 18.9375 19.1258 19.4625 19.5383 19.65L21.0758 20.4C21.1883 20.475 21.3383 20.475 21.4508 20.475C21.4508 20.475 21.4508 20.475 21.4883 20.475C21.4883 20.475 21.4883 20.475 21.5258 20.475C21.8258 20.475 22.1258 20.2875 22.2758 20.025C23.0633 18.4875 23.4383 16.725 23.4383 15C23.3633 11.8875 22.1258 9.1125 20.1758 7.0875Z" fill="#0158A3"/>
<path d="M14.2885 12.9003L11.776 14.7753C11.326 14.8503 10.9135 15.1128 10.651 15.4878C10.6135 15.5628 10.576 15.6003 10.5385 15.6753L10.4635 15.7503H10.501C10.0885 16.5378 10.3135 17.5128 11.0635 18.0753C11.8135 18.6003 12.826 18.5253 13.426 17.8878H13.4635L13.501 17.8128C13.5385 17.7753 13.6135 17.7003 13.651 17.6253C13.951 17.2503 14.026 16.7628 13.9885 16.3128L14.9635 13.3128C15.076 12.9753 14.626 12.6753 14.2885 12.9003Z" fill="#0158A3"/>
</svg>
