<svg width="24" height="24" viewBox="0 0 24 24" fill="none" xmlns="http://www.w3.org/2000/svg">
<path d="M21.0373 4.1623H12.3748L11.5873 2.6623C11.1748 1.9123 10.4248 1.4248 9.56231 1.4248H2.9623C1.6873 1.4248 0.674805 2.4373 0.674805 3.7123V20.2873C0.674805 21.5623 1.6873 22.5748 2.9623 22.5748H21.0748C22.3498 22.5748 23.3623 21.5623 23.3623 20.2873V6.44981C23.3623 5.17481 22.3123 4.1623 21.0373 4.1623ZM21.6748 20.2873C21.6748 20.6248 21.4123 20.8873 21.0748 20.8873H2.9623C2.6248 20.8873 2.3623 20.6248 2.3623 20.2873V3.7123C2.3623 3.3748 2.6248 3.1123 2.9623 3.1123H9.56231C9.7873 3.1123 9.9748 3.2248 10.0873 3.4498L11.1373 5.3998C11.2873 5.6623 11.5873 5.8498 11.8873 5.8498H21.0748C21.4123 5.8498 21.6748 6.11231 21.6748 6.44981V20.2873Z" fill="#25272C"/>
<path d="M14.7002 13.4252L12.8627 15.2252V9.7502C12.8627 9.3002 12.4877 8.8877 12.0002 8.8877C11.5127 8.8877 11.1377 9.2627 11.1377 9.7502V15.2627L9.2627 13.4252C8.9252 13.0877 8.4002 13.0877 8.0627 13.4252C7.7252 13.7627 7.7252 14.2877 8.0627 14.6252L11.3627 17.8502C11.5127 18.0002 11.7377 18.0752 11.9627 18.0752C12.1877 18.0752 12.3752 18.0002 12.5627 17.8502L15.8627 14.6252C16.2002 14.2877 16.2002 13.7627 15.8627 13.4252C15.5627 13.0877 15.0377 13.0877 14.7002 13.4252Z" fill="#25272C"/>
</svg>
