<svg width="40" height="40" viewBox="0 0 40 40" fill="none" xmlns="http://www.w3.org/2000/svg">
<circle cx="20" cy="20" r="20" fill="#3DB500"/>
<g clip-path="url(#clip0_2909_21214)">
<path d="M20.0008 8.6748C13.7383 8.6748 8.67578 13.7373 8.67578 19.9998C8.67578 26.2623 13.7383 31.3623 20.0008 31.3623C26.2633 31.3623 31.3633 26.2623 31.3633 19.9998C31.3633 13.7373 26.2633 8.6748 20.0008 8.6748ZM20.0008 29.6748C14.6758 29.6748 10.3633 25.3248 10.3633 19.9998C10.3633 14.6748 14.6758 10.3623 20.0008 10.3623C25.3258 10.3623 29.6758 14.7123 29.6758 20.0373C29.6758 25.3248 25.3258 29.6748 20.0008 29.6748Z" fill="white"/>
<path d="M23.2256 16.5125L18.7631 20.8625L16.7381 18.875C16.4006 18.5375 15.8756 18.575 15.5381 18.875C15.2006 19.2125 15.2381 19.7375 15.5381 20.075L17.9381 22.4C18.1631 22.625 18.4631 22.7375 18.7631 22.7375C19.0631 22.7375 19.3631 22.625 19.5881 22.4L24.4256 17.75C24.7631 17.4125 24.7631 16.8875 24.4256 16.55C24.0881 16.2125 23.5631 16.2125 23.2256 16.5125Z" fill="white"/>
</g>
<defs>
<clipPath id="clip0_2909_21214">
<rect width="24" height="24" fill="white" transform="translate(8 8)"/>
</clipPath>
</defs>
</svg>
