<svg width="40" height="41" viewBox="0 0 40 41" fill="none" xmlns="http://www.w3.org/2000/svg">
<circle cx="20" cy="20.5" r="20" fill="#0158A3"/>
<path d="M30.4992 24.0625C30.0492 24.0625 29.6367 24.4375 29.6367 24.925V28.2625C29.6367 28.6 29.3742 28.8625 29.0367 28.8625H10.9617C10.6242 28.8625 10.3617 28.6 10.3617 28.2625V24.925C10.3617 24.475 9.98672 24.0625 9.49922 24.0625C9.01172 24.0625 8.63672 24.4375 8.63672 24.925V28.2625C8.63672 29.5375 9.64922 30.55 10.9242 30.55H29.0367C30.3117 30.55 31.3242 29.5375 31.3242 28.2625V24.925C31.3617 24.4375 30.9492 24.0625 30.4992 24.0625Z" fill="white"/>
<path d="M19.399 24.9627C19.549 25.1127 19.774 25.1877 19.999 25.1877C20.224 25.1877 20.4115 25.1127 20.599 24.9627L25.9615 19.7502C26.299 19.4127 26.299 18.8877 25.999 18.5502C25.6615 18.2127 25.1365 18.2127 24.799 18.5127L20.8615 22.3752V11.3127C20.8615 10.8627 20.4865 10.4502 19.999 10.4502C19.549 10.4502 19.1365 10.8252 19.1365 11.3127V22.3752L15.199 18.5502C14.8615 18.2127 14.3365 18.2502 13.999 18.5502C13.6615 18.8877 13.699 19.4127 13.999 19.7502L19.399 24.9627Z" fill="white"/>
</svg>
