<svg width="16" height="15" viewBox="0 0 16 15" fill="none" xmlns="http://www.w3.org/2000/svg">
<path d="M7.95113 4.70443H7.97537C8.10643 4.70443 8.19962 4.79761 8.19962 4.92867C8.19962 5.05042 8.09164 5.15291 7.97537 5.15291H7.95113C7.82007 5.15291 7.72689 5.05973 7.72689 4.92867C7.72689 4.80692 7.83487 4.70443 7.95113 4.70443Z" fill="#CC0000" stroke="#CC0000" stroke-width="0.666667"/>
<path d="M7.75106 6.84468C7.75106 6.72294 7.85904 6.62044 7.9753 6.62044C8.1161 6.62044 8.19954 6.72322 8.19954 6.82044V10.578C8.19954 10.6998 8.09156 10.8023 7.9753 10.8023C7.85355 10.8023 7.75106 10.6943 7.75106 10.578V6.84468Z" fill="#CC0000" stroke="#CC0000" stroke-width="0.666667"/>
<path d="M7.97558 0.177734C3.9271 0.177734 0.630127 3.45046 0.630127 7.49895C0.630127 11.5474 3.9271 14.8444 7.97558 14.8444C12.0241 14.8444 15.2968 11.5474 15.2968 7.49895C15.2968 3.45046 12.0241 0.177734 7.97558 0.177734ZM7.97558 13.7535C4.53316 13.7535 1.72104 10.9414 1.72104 7.49895C1.72104 4.05652 4.53316 1.2444 7.97558 1.2444C11.418 1.2444 14.2059 4.05652 14.2059 7.49895C14.2059 10.9414 11.418 13.7535 7.97558 13.7535Z" fill="#CC0000"/>
</svg>
