<svg width="24" height="24" viewBox="0 0 24 24" fill="none" xmlns="http://www.w3.org/2000/svg">
<path d="M16.9501 0.674805H12.7126C11.7376 0.674805 10.9126 1.4998 10.9126 2.4748V5.0623C10.9126 5.5123 11.2876 5.8873 11.7376 5.8873C12.1876 5.8873 12.6001 5.5123 12.6001 5.0623V2.4373C12.6001 2.3623 12.6376 2.3248 12.7126 2.3248H16.9501C17.8501 2.3248 18.5626 3.0373 18.5626 3.9373V20.0248C18.5626 20.9248 17.8501 21.6373 16.9501 21.6373H12.7126C12.6376 21.6373 12.6001 21.5998 12.6001 21.5248V18.9373C12.6001 18.4873 12.2251 18.1123 11.7376 18.1123C11.2501 18.1123 10.9126 18.4873 10.9126 18.9373V21.5248C10.9126 22.4998 11.7376 23.3248 12.7126 23.3248H16.9501C18.7876 23.3248 20.2501 21.8248 20.2501 20.0248V3.97481C20.2501 2.1373 18.7501 0.674805 16.9501 0.674805Z" fill="white"/>
<path d="M6.5999 12.825H13.3124C13.7624 12.825 14.1374 12.45 14.1374 12C14.1374 11.55 13.7624 11.175 13.3124 11.175H6.6374L8.9624 8.8125C9.2999 8.475 9.2999 7.95 8.9624 7.6125C8.6249 7.275 8.0999 7.275 7.7624 7.6125L4.0124 11.4375C3.6749 11.775 3.6749 12.3 4.0124 12.6375L7.7624 16.4625C7.9124 16.6125 8.1374 16.725 8.3624 16.725C8.5874 16.725 8.7749 16.65 8.9624 16.5C9.2999 16.1625 9.2999 15.6375 8.9624 15.3L6.5999 12.825Z" fill="white"/>
</svg>
