<svg width="16" height="16" viewBox="0 0 16 16" fill="none" xmlns="http://www.w3.org/2000/svg">
<g clip-path="url(#clip0_1706_4509)">
<path d="M5.01079 4.01424L5.02062 4.01031L5.03028 4.00596C5.97115 3.58257 6.97651 3.35 8.0001 3.35C10.3041 3.35 12.0363 4.44112 13.2217 5.58483C14.4101 6.73146 15.0174 7.90256 15.0529 7.97361C15.0519 7.97165 15.053 7.97321 15.0542 7.97878C15.0554 7.98428 15.0563 7.99162 15.0563 8C15.0563 8.00838 15.0554 8.01572 15.0542 8.02122C15.0538 8.02312 15.0534 8.02455 15.0531 8.02554C15.0483 8.03391 15.0431 8.04312 15.0375 8.05313C14.821 8.43764 13.9332 10.014 12.2359 11.2171L12.2014 11.2415L12.1715 11.2714L12.1465 11.2965L12.1215 11.3214L11.768 11.675L12.1215 12.0286L13.6965 13.6036C13.7151 13.6221 13.7188 13.6386 13.7188 13.65C13.7188 13.6614 13.7151 13.6779 13.6965 13.6964L13.677 13.716L13.671 13.7235C13.6664 13.7243 13.6603 13.7249 13.6528 13.725C13.6511 13.7246 13.6461 13.7234 13.6382 13.7198C13.6238 13.7132 13.611 13.7038 13.6037 13.6964L13.6033 13.6961L2.27865 2.39645C2.27861 2.39641 2.27858 2.39637 2.27854 2.39634C2.26009 2.37783 2.25635 2.36138 2.25635 2.35C2.25635 2.3386 2.2601 2.3221 2.27865 2.30355C2.2972 2.285 2.3137 2.28125 2.3251 2.28125C2.3365 2.28125 2.353 2.285 2.37154 2.30355L4.14654 4.07855L4.45318 4.38519L4.8001 4.125C4.85276 4.0855 4.90939 4.0548 5.01079 4.01424ZM8.62154 8.52855L9.4751 9.38211V9.38136L9.48931 9.39616L11.2643 11.2462L11.6177 11.6145L11.9787 11.2536C11.9783 11.2539 11.9783 11.2539 11.9787 11.2535C11.9805 11.252 11.9893 11.2443 12.0098 11.2294C12.0344 11.2115 12.0632 11.1922 12.1024 11.166L12.1095 11.1613L12.1164 11.1563C13.5227 10.1481 14.3896 8.8304 14.7252 8.28818L14.8849 8.03023L14.7299 7.76946C14.4385 7.27943 13.7301 6.21645 12.6101 5.27105C11.4872 4.32314 9.92699 3.475 7.9501 3.475C6.94929 3.475 6.00178 3.6922 5.0872 4.12259L4.43817 4.42802L4.9493 4.93128L6.5743 6.53128L6.829 6.78207L6.8597 6.76671L7.47154 7.37855L8.62154 8.52855ZM9.4751 8.68302V8.19963C9.47579 8.19609 9.47669 8.19153 9.47789 8.18556L9.47837 8.18314C9.48119 8.16909 9.48609 8.14461 9.49007 8.11939C9.49414 8.09362 9.5001 8.05027 9.5001 8C9.5001 7.17386 8.82624 6.5 8.0001 6.5C7.94983 6.5 7.90648 6.50596 7.88071 6.51003C7.85551 6.514 7.83105 6.5189 7.817 6.52172L7.81454 6.52221C7.80857 6.5234 7.80401 6.52431 7.80046 6.525H7.36679C7.40646 6.50959 7.44703 6.495 7.49053 6.48028L7.57137 6.46007L7.57945 6.45805L7.58746 6.45576C7.71362 6.41972 7.86701 6.4 8.0001 6.4C8.89896 6.4 9.6251 7.12614 9.6251 8.025C9.6251 8.18783 9.60417 8.34609 9.55854 8.4701C9.54135 8.51319 9.52692 8.55068 9.5141 8.58399C9.49958 8.62168 9.48714 8.65401 9.4751 8.68302ZM9.47289 8.21157C9.47292 8.21135 9.47296 8.2111 9.473 8.21084L9.47289 8.21157ZM7.78914 6.52711C7.78892 6.52715 7.78872 6.52718 7.78852 6.52721C7.78812 6.52728 7.78792 6.5273 7.78791 6.5273C7.7879 6.5273 7.78832 6.52723 7.78914 6.52711Z" fill="#25272C" stroke="#25272C"/>
<path d="M1.0692 8.00059L1.21913 7.74571C1.45093 7.35166 1.93313 6.63284 2.65222 5.88659L2.56252 5.79111C2.0914 6.28248 1.72051 6.76598 1.45237 7.1549C1.28652 7.39546 1.16092 7.59847 1.07607 7.74282C1.03367 7.81496 1.00154 7.87229 0.979734 7.91215C0.960073 7.9481 0.949535 7.96851 0.947614 7.97224C0.947387 7.97285 0.946727 7.97474 0.946004 7.978C0.94478 7.9835 0.943848 7.99084 0.943848 7.99922C0.943848 8.0076 0.94478 8.01493 0.946004 8.02044L1.0692 8.00059ZM1.0692 8.00059L1.22033 8.25476C1.5117 8.74479 2.2201 9.80777 3.34008 10.7532C4.46303 11.7011 6.0232 12.5492 8.0001 12.5492C8.4592 12.5492 8.91252 12.4913 9.34837 12.399L9.37856 12.5072M1.0692 8.00059L9.37856 12.5072M9.37856 12.5072C8.92251 12.5991 8.45991 12.6492 8.0001 12.6492C5.69608 12.6492 3.96392 11.5581 2.77852 10.4144C1.5936 9.27115 0.98644 8.1036 0.947642 8.02627L9.37856 12.5072Z" fill="#25272C" stroke="#25272C"/>
</g>
<defs>
<clipPath id="clip0_1706_4509">
<rect width="16" height="16" fill="white"/>
</clipPath>
</defs>
</svg>
