<svg width="16" height="16" viewBox="0 0 16 16" fill="none" xmlns="http://www.w3.org/2000/svg">
<g clip-path="url(#clip0_1706_3172)">
<path d="M6.2585 7.99883C6.2585 7.03292 7.03427 6.25716 8.00017 6.25716C8.96608 6.25716 9.74184 7.03292 9.74184 7.99883C9.74184 8.96473 8.96608 9.74049 8.00017 9.74049C7.03427 9.74049 6.2585 8.96473 6.2585 7.99883ZM6.71684 7.99883C6.71684 8.70792 7.29108 9.28216 8.00017 9.28216C8.70927 9.28216 9.2835 8.70792 9.2835 7.99883C9.2835 7.28973 8.70927 6.71549 8.00017 6.71549C7.29108 6.71549 6.71684 7.28973 6.71684 7.99883Z" fill="#25272C" stroke="#25272C" stroke-width="0.666667"/>
<path d="M14.6504 8.43747L14.6631 8.41884L14.6731 8.39868C14.7951 8.15484 14.7951 7.84438 14.6731 7.60054L14.6631 7.58037L14.6504 7.56175C13.7218 6.20077 12.7766 5.21526 11.6953 4.57246C10.6095 3.92694 9.41068 3.64128 8 3.64128C6.58932 3.64128 5.39046 3.92694 4.30466 4.57246C3.22345 5.21526 2.27816 6.20077 1.34965 7.56175L1.34963 7.56174L1.34765 7.56471C1.17301 7.82668 1.17301 8.17254 1.34765 8.43451L1.34763 8.43452L1.34965 8.43747C2.27816 9.79844 3.22345 10.784 4.30466 11.4268C5.39046 12.0723 6.58932 12.3579 8 12.3579C9.41068 12.3579 10.6095 12.0723 11.6953 11.4268C12.7766 10.784 13.7218 9.79844 14.6504 8.43747ZM8 3.18294C9.88299 3.18294 11.2854 3.70021 12.3883 4.46425C13.4973 5.23244 14.3195 6.2611 15.0228 7.30969C15.2955 7.71897 15.3009 8.24912 15.0213 8.6917C14.318 9.72763 13.4961 10.7553 12.3878 11.5259C11.2844 12.2933 9.88211 12.8163 8 12.8163C6.11789 12.8163 4.71558 12.2933 3.61219 11.5259C2.50285 10.7545 1.68039 9.72561 0.976641 8.68864C0.702075 8.27584 0.702231 7.72251 0.977108 7.30987C1.68036 6.26121 2.50268 5.23248 3.61169 4.46425C4.71463 3.70021 6.11701 3.18294 8 3.18294Z" fill="#25272C" stroke="#25272C" stroke-width="0.666667"/>
</g>
<defs>
<clipPath id="clip0_1706_3172">
<rect width="16" height="16" fill="white"/>
</clipPath>
</defs>
</svg>
