<svg width="16" height="16" viewBox="0 0 16 16" fill="none" xmlns="http://www.w3.org/2000/svg">
<g clip-path="url(#clip0_1796_11893)">
<path d="M8.00001 0.450195C3.82501 0.450195 0.450012 3.8252 0.450012 8.0002C0.450012 12.1752 3.82501 15.5752 8.00001 15.5752C12.175 15.5752 15.575 12.1752 15.575 8.0002C15.575 3.8252 12.175 0.450195 8.00001 0.450195ZM8.00001 14.4502C4.45001 14.4502 1.57501 11.5502 1.57501 8.0002C1.57501 4.4502 4.45001 1.5752 8.00001 1.5752C11.55 1.5752 14.45 4.47519 14.45 8.0252C14.45 11.5502 11.55 14.4502 8.00001 14.4502Z" fill="#2F8902"/>
<path d="M10.15 5.67533L7.17499 8.57533L5.82499 7.25033C5.59999 7.02533 5.24999 7.05033 5.02499 7.25033C4.79999 7.47533 4.82499 7.82533 5.02499 8.05033L6.62499 9.60033C6.77499 9.75033 6.97499 9.82533 7.17499 9.82533C7.37499 9.82533 7.57499 9.75033 7.72499 9.60033L10.95 6.50033C11.175 6.27533 11.175 5.92533 10.95 5.70033C10.725 5.47533 10.375 5.47533 10.15 5.67533Z" fill="#2F8902"/>
</g>
<defs>
<clipPath id="clip0_1796_11893">
<rect width="16" height="16" fill="white"/>
</clipPath>
</defs>
</svg>
