<svg width="80" height="80" viewBox="0 0 80 80" fill="none" xmlns="http://www.w3.org/2000/svg">
<rect width="80" height="80" rx="4" fill="#E0EFFE"/>
<path d="M61.0004 53.7252H60.5504V37.2252C60.5504 35.5002 59.1254 34.0002 57.3254 34.0002H53.2754C51.5504 34.0002 50.0504 35.4252 50.0504 37.2252V53.7252H45.2504V44.5002C45.2504 42.7752 43.8254 41.2752 42.0254 41.2752H37.9754C36.2504 41.3502 34.7504 42.7752 34.7504 44.5002V53.7252H29.8754V26.0502C29.8754 24.3252 28.4504 22.8252 26.6504 22.8252H22.6004C20.8754 22.8252 19.3754 24.2502 19.3754 26.0502V53.7252H19.0004C18.1004 53.7252 17.2754 54.4752 17.2754 55.4502C17.2754 56.4252 18.0254 57.1752 19.0004 57.1752H61.0004C61.9004 57.1752 62.7254 56.4252 62.7254 55.4502C62.7254 54.4752 61.9004 53.7252 61.0004 53.7252ZM22.8254 53.7252V26.2752H26.5004V53.8002H22.8254V53.7252ZM38.1254 53.7252V44.7252H41.8004V53.8002H38.1254V53.7252ZM53.5004 53.7252V37.4502H57.1754V53.7252H53.5004Z" fill="#0158A3"/>
</svg>
