<svg width="66" height="66" viewBox="0 0 66 66" fill="none" xmlns="http://www.w3.org/2000/svg">
<path d="M56.8105 29.1281L56.7978 29.077L49.6393 10.8874C49.3203 9.86017 48.3697 9.15198 47.2914 9.15198H18.2748C17.1902 9.15198 16.2268 9.87293 15.9205 10.9129L9.2278 28.9175L9.20866 28.9622L9.1959 29.0132C9.11296 29.3258 9.08744 29.6448 9.1321 29.9575C9.12572 30.0595 9.11934 30.1616 9.11934 30.2637V53.6085C9.12102 54.6368 9.53025 55.6224 10.2574 56.3495C10.9845 57.0767 11.9702 57.4859 12.9984 57.4876H53.0144C55.1517 57.4876 56.8935 55.7458 56.8999 53.6085V30.2637C56.8999 30.1808 56.8999 30.0978 56.8935 30.0276C56.919 29.715 56.8935 29.4152 56.8105 29.1281ZM37.9382 26.3846L37.9191 27.3863C37.868 30.2509 35.8902 32.1777 33 32.1777C31.59 32.1777 30.3778 31.7248 29.5037 30.8634C28.6297 30.0021 28.1512 28.8027 28.1256 27.3863L28.1065 26.3846H14.9763L20.0484 14.0519H45.5178L50.7303 26.3846H37.9382V26.3846ZM14.0129 31.2845H24.0488C25.5991 34.9276 28.8976 37.0777 33.0064 37.0777C35.1565 37.0777 37.1535 36.4779 38.7676 35.3423C40.184 34.347 41.2878 32.9561 42.0023 31.2845H51.9872V52.5877H14.0129V31.2845V31.2845Z" fill="#0158A3"/>
</svg>
