<svg width="24" height="24" viewBox="0 0 24 24" fill="none" xmlns="http://www.w3.org/2000/svg">
<path d="M17.5492 0.674805H6.44922C4.79922 0.674805 3.44922 2.0248 3.44922 3.6748V22.0498C3.44922 22.5373 3.78672 22.9873 4.27422 23.0998C4.76172 23.2498 5.24922 23.0248 5.51172 22.6123L6.82422 20.4373L8.51172 22.8748C8.69922 23.1748 9.07422 23.3623 9.41172 23.3623C9.78672 23.3623 10.1242 23.1748 10.3117 22.8748L12.0367 20.3623L13.7617 22.8748C13.9492 23.1748 14.3242 23.3623 14.6617 23.3623C14.9992 23.3623 15.3742 23.1748 15.5617 22.8748L17.2117 20.4373L18.5242 22.6498C18.7867 23.0623 19.2742 23.2873 19.7617 23.1373C20.2492 22.9873 20.5867 22.5748 20.5867 22.0873V3.6748C20.5492 2.0248 19.1992 0.674805 17.5492 0.674805ZM18.8617 19.9498L18.1492 18.7498C17.9617 18.4123 17.6242 18.2248 17.2492 18.2248C16.8742 18.2248 16.5367 18.4123 16.3117 18.7123L14.6242 21.1873L12.8992 18.6748C12.7117 18.3748 12.3742 18.1873 11.9992 18.1873C11.6242 18.1873 11.2867 18.3748 11.0992 18.6748L9.37422 21.1873L7.68672 18.6748C7.46172 18.3748 7.12422 18.1873 6.78672 18.1873H6.74922C6.37422 18.1873 6.03672 18.4123 5.84922 18.7123L5.17422 19.8748V3.6748C5.17422 2.9248 5.77422 2.3623 6.48672 2.3623H17.5492C18.2992 2.3623 18.8617 2.9623 18.8617 3.6748V19.9498Z" fill="#0158A3"/>
<path d="M15.8609 7.3877H8.13594C7.68594 7.3877 7.27344 7.7627 7.27344 8.2502C7.27344 8.73769 7.64844 9.11269 8.13594 9.11269H15.8609C16.3109 9.11269 16.7234 8.73769 16.7234 8.2502C16.7234 7.7627 16.3109 7.3877 15.8609 7.3877Z" fill="#0158A3"/>
<path d="M15.8609 11.25H8.13594C7.68594 11.25 7.27344 11.625 7.27344 12.1125C7.27344 12.5625 7.64844 12.975 8.13594 12.975H15.8609C16.3109 12.975 16.7234 12.6 16.7234 12.1125C16.6859 11.625 16.3109 11.25 15.8609 11.25Z" fill="#0158A3"/>
</svg>
