<svg width="80" height="80" viewBox="0 0 80 80" fill="none" xmlns="http://www.w3.org/2000/svg">
<rect width="80" height="80" rx="4" fill="#E0EFFE"/>
<path d="M48.6997 32.4242C46.1497 30.0242 42.8497 28.8242 39.2497 29.0492C32.7247 29.4242 27.5497 34.8242 27.4747 41.2742C27.3997 45.3992 29.3497 49.1492 32.5747 51.4742V56.8742C32.5747 59.6492 34.8247 61.8242 37.5997 61.8242H42.2497C45.0247 61.8242 47.2747 59.5742 47.2747 56.8742V51.5492C50.5747 49.2242 52.5247 45.4742 52.5247 41.4242C52.5997 38.0492 51.1747 34.8242 48.6997 32.4242ZM42.3247 58.5242H37.6747C36.7747 58.5242 36.0247 57.7742 36.0247 56.9492V52.3742H44.0497V56.9492C43.9747 57.7742 43.2247 58.5242 42.3247 58.5242ZM45.1747 48.9242H41.6497V46.8992C41.6497 45.9992 40.8997 45.1742 39.9247 45.1742C39.0247 45.1742 38.1997 45.9242 38.1997 46.8992V48.9242H34.7497C32.1997 47.1992 30.6997 44.4242 30.7747 41.2742C30.8497 36.5492 34.5997 32.6492 39.3997 32.3492C39.5497 32.3492 39.7747 32.3492 39.9247 32.3492C42.3997 32.3492 44.5747 33.1742 46.2997 34.8242C48.0997 36.5492 49.1497 38.9492 49.1497 41.4242C49.2247 44.4992 47.7247 47.2742 45.1747 48.9242Z" fill="#0158A3"/>
<path d="M40.0004 25.8246C40.9004 25.8246 41.7254 25.0746 41.7254 24.0996V19.8246C41.7254 18.9246 40.9754 18.0996 40.0004 18.0996C39.1004 18.0996 38.2754 18.8496 38.2754 19.8246V24.1746C38.3504 25.0746 39.1004 25.8246 40.0004 25.8246Z" fill="#36A9FA"/>
<path d="M59.5 28.2998C60.175 27.6248 60.175 26.5748 59.5 25.8998C58.825 25.2248 57.775 25.2248 57.1 25.8998L54.1 28.8248C53.425 29.4998 53.425 30.5498 54.1 31.2248C54.4 31.5248 54.85 31.7498 55.3 31.7498C55.75 31.7498 56.125 31.5998 56.5 31.2998L59.5 28.2998Z" fill="#36A9FA"/>
<path d="M22.9004 25.8998C22.2254 25.2248 21.1754 25.2248 20.5004 25.8998C19.8254 26.5748 19.8254 27.6248 20.5004 28.2998L23.4254 31.2248C23.7254 31.5248 24.1754 31.7498 24.6254 31.7498C25.0754 31.7498 25.5254 31.5998 25.8254 31.2248C26.5004 30.5498 26.5004 29.4998 25.8254 28.8248L22.9004 25.8998Z" fill="#36A9FA"/>
<path d="M22.6004 42.9248H18.2504C17.3504 42.9248 16.5254 43.6748 16.5254 44.6498C16.5254 45.6248 17.2754 46.3748 18.2504 46.3748H22.6004C23.5004 46.3748 24.3254 45.6248 24.3254 44.6498C24.3254 43.6748 23.5004 42.9248 22.6004 42.9248Z" fill="#36A9FA"/>
<path d="M61.7508 42.9248H57.4008C56.5008 42.9248 55.6758 43.6748 55.6758 44.6498C55.6758 45.6248 56.4258 46.3748 57.4008 46.3748H61.7508C62.6508 46.3748 63.4758 45.6248 63.4758 44.6498C63.4758 43.6748 62.6508 42.9248 61.7508 42.9248Z" fill="#36A9FA"/>
</svg>
