<svg width="25" height="24" viewBox="0 0 25 24" fill="none" xmlns="http://www.w3.org/2000/svg">
<path d="M20.6758 7.0875C18.6133 4.9125 15.7258 3.5625 12.5008 3.5625C6.23828 3.5625 1.17578 8.6625 1.17578 14.925C1.17578 16.6875 1.58828 18.4125 2.33828 19.95C2.45078 20.175 2.63828 20.325 2.86328 20.4C2.93828 20.4 2.97578 20.4375 3.05078 20.4375C3.05078 20.4375 3.05078 20.4375 3.08828 20.4375C3.08828 20.4375 3.08828 20.4375 3.12578 20.4375C3.16328 20.4375 3.20078 20.4375 3.23828 20.4375C3.31328 20.4375 3.42578 20.4 3.50078 20.3625L5.03828 19.6125C5.45078 19.425 5.63828 18.9 5.41328 18.4875C5.18828 18.075 4.70078 17.8875 4.28828 18.1125L3.53828 18.4875C3.08828 17.4 2.90078 16.2375 2.86328 15.0375H4.43828C4.88828 15.0375 5.30078 14.6625 5.30078 14.175C5.30078 13.6875 4.92578 13.3125 4.43828 13.3125H2.97578C3.23828 11.6625 3.95078 10.1625 4.96328 8.925L6.31328 10.275C6.46328 10.425 6.68828 10.5375 6.91328 10.5375C7.13828 10.5375 7.36328 10.4625 7.51328 10.275C7.85078 9.9375 7.85078 9.4125 7.51328 9.075L6.12578 7.6875C7.62578 6.375 9.53828 5.475 11.6758 5.325V7.6125C11.6758 8.0625 12.0508 8.475 12.5383 8.475C12.9883 8.475 13.4008 8.1 13.4008 7.6125V5.325C15.5008 5.5125 17.4508 6.375 18.9508 7.6875L17.9008 8.7375C17.5633 9.075 17.5633 9.6 17.9008 9.9375C18.0508 10.0875 18.2758 10.2 18.5008 10.2C18.7258 10.2 18.9508 10.125 19.1008 9.9375L20.1133 8.925C21.1258 10.1625 21.8008 11.6625 22.1008 13.3125H20.6383C20.1883 13.3125 19.7758 13.6875 19.7758 14.175C19.7758 14.6625 20.1508 15.0375 20.6383 15.0375H22.2133C22.2133 16.2375 21.9883 17.4 21.5383 18.525L20.7883 18.15C20.3758 17.925 19.8508 18.1125 19.6633 18.525C19.4758 18.9375 19.6258 19.4625 20.0383 19.65L21.5758 20.4C21.6883 20.475 21.8383 20.475 21.9508 20.475C21.9508 20.475 21.9508 20.475 21.9883 20.475C21.9883 20.475 21.9883 20.475 22.0258 20.475C22.3258 20.475 22.6258 20.2875 22.7758 20.025C23.5633 18.4875 23.9383 16.725 23.9383 15C23.8633 11.8875 22.6258 9.1125 20.6758 7.0875Z" fill="#0158A3"/>
<path d="M14.7885 12.9003L12.276 14.7753C11.826 14.8503 11.4135 15.1128 11.151 15.4878C11.1135 15.5628 11.076 15.6003 11.0385 15.6753L10.9635 15.7503H11.001C10.5885 16.5378 10.8135 17.5128 11.5635 18.0753C12.3135 18.6003 13.326 18.5253 13.926 17.8878H13.9635L14.001 17.8128C14.0385 17.7753 14.1135 17.7003 14.151 17.6253C14.451 17.2503 14.526 16.7628 14.4885 16.3128L15.4635 13.3128C15.576 12.9753 15.126 12.6753 14.7885 12.9003Z" fill="#0158A3"/>
</svg>
