<svg width="52" height="52" viewBox="0 0 52 52" fill="none" xmlns="http://www.w3.org/2000/svg">
<g filter="url(#filter0_d_1664_20726)">
<rect x="4" y="3" width="44" height="44" rx="22" fill="white"/>
<path d="M34.5873 19.375H31.7748L31.0998 18.025C30.6123 17.0875 29.6748 16.4875 28.6248 16.4875H23.3748C22.3248 16.4875 21.3873 17.0875 20.8998 18.025L20.2248 19.375H17.4123C15.9123 19.375 14.6748 20.6125 14.6748 22.1125V30.7C14.6748 32.2 15.9123 33.4375 17.4123 33.4375H34.5873C36.0873 33.4375 37.3248 32.2 37.3248 30.7V22.15C37.3623 20.6125 36.1248 19.375 34.5873 19.375ZM35.6748 30.7375C35.6748 31.3375 35.1873 31.7875 34.6248 31.7875H17.4123C16.8123 31.7875 16.3623 31.3 16.3623 30.7375V22.15C16.3623 21.55 16.8498 21.1 17.4123 21.1H20.7498C21.0873 21.1 21.3498 20.9125 21.4998 20.65L22.3998 18.85C22.5873 18.475 22.9623 18.25 23.3373 18.25H28.6248C29.0373 18.25 29.4123 18.475 29.5623 18.85L30.4623 20.65C30.6123 20.95 30.9123 21.1 31.2123 21.1H34.5498C35.1498 21.1 35.5998 21.5875 35.5998 22.15V30.7375H35.6748Z" fill="#111928"/>
<path d="M25.9996 22.2625C23.9371 22.2625 22.2871 23.9125 22.2871 25.975C22.2871 28.0375 23.9371 29.6875 25.9996 29.6875C28.0621 29.6875 29.7121 28.0375 29.7121 25.975C29.7121 23.9125 28.0621 22.2625 25.9996 22.2625ZM25.9996 27.9625C24.8746 27.9625 23.9746 27.0625 23.9746 25.9375C23.9746 24.8125 24.8746 23.9125 25.9996 23.9125C27.1246 23.9125 28.0246 24.8125 28.0246 25.9375C28.0246 27.0625 27.1246 27.9625 25.9996 27.9625Z" fill="#111928"/>
<path d="M20.2623 22.2625H18.3498C17.8998 22.2625 17.4873 22.6375 17.4873 23.125C17.4873 23.6125 17.8623 23.9875 18.3498 23.9875H20.2623C20.7123 23.9875 21.1248 23.6125 21.1248 23.125C21.1248 22.6375 20.7498 22.2625 20.2623 22.2625Z" fill="#111928"/>
</g>
<defs>
<filter id="filter0_d_1664_20726" x="0" y="0" width="52" height="52" filterUnits="userSpaceOnUse" color-interpolation-filters="sRGB">
<feFlood flood-opacity="0" result="BackgroundImageFix"/>
<feColorMatrix in="SourceAlpha" type="matrix" values="0 0 0 0 0 0 0 0 0 0 0 0 0 0 0 0 0 0 127 0" result="hardAlpha"/>
<feOffset dy="1"/>
<feGaussianBlur stdDeviation="2"/>
<feComposite in2="hardAlpha" operator="out"/>
<feColorMatrix type="matrix" values="0 0 0 0 0.145098 0 0 0 0 0.152941 0 0 0 0 0.172549 0 0 0 0.28 0"/>
<feBlend mode="normal" in2="BackgroundImageFix" result="effect1_dropShadow_1664_20726"/>
<feBlend mode="normal" in="SourceGraphic" in2="effect1_dropShadow_1664_20726" result="shape"/>
</filter>
</defs>
</svg>
