<svg width="24" height="24" viewBox="0 0 24 24" fill="none" xmlns="http://www.w3.org/2000/svg">
<g clip-path="url(#clip0_3258_29049)">
<path d="M11.9998 0.674805C5.7373 0.674805 0.674805 5.7373 0.674805 11.9998C0.674805 18.2623 5.7373 23.3623 11.9998 23.3623C18.2623 23.3623 23.3623 18.2623 23.3623 11.9998C23.3623 5.7373 18.2623 0.674805 11.9998 0.674805ZM11.9998 21.6748C6.67481 21.6748 2.3623 17.3248 2.3623 11.9998C2.3623 6.67481 6.67481 2.3623 11.9998 2.3623C17.3248 2.3623 21.6748 6.7123 21.6748 12.0373C21.6748 17.3248 17.3248 21.6748 11.9998 21.6748Z" fill="white"/>
<path d="M12.6747 4.53705C11.5872 4.34955 10.4622 4.64955 9.63721 5.36205C8.81221 6.07455 8.32471 7.08705 8.32471 8.21205C8.32471 8.62455 8.39971 9.03705 8.54971 9.44955C8.69971 9.89955 9.18721 10.1246 9.63721 9.97455C10.0872 9.82455 10.3122 9.33705 10.1622 8.88705C10.0872 8.66205 10.0497 8.43705 10.0497 8.21205C10.0497 7.61205 10.3122 7.04955 10.7622 6.67455C11.2122 6.29955 11.8122 6.11205 12.4497 6.22455C13.2372 6.37455 13.9122 7.04955 14.0622 7.83705C14.2122 8.77455 13.7247 9.71205 12.8622 10.0871C11.8872 10.4996 11.2497 11.4746 11.2497 12.5996V14.9246C11.2497 15.3746 11.6247 15.7871 12.1122 15.7871C12.5622 15.7871 12.9747 15.4121 12.9747 14.9246V12.5996C12.9747 12.1871 13.1997 11.8121 13.5372 11.6621C15.1497 10.9871 16.0872 9.29955 15.7872 7.57455C15.3747 6.03705 14.1747 4.79955 12.6747 4.53705Z" fill="white"/>
<path d="M12.0375 17.1748H11.925C11.475 17.1748 11.0625 17.5498 11.0625 18.0373C11.0625 18.5248 11.4375 18.8998 11.925 18.8998H12.0375C12.4875 18.8998 12.8625 18.5248 12.8625 18.0373C12.8625 17.5498 12.525 17.1748 12.0375 17.1748Z" fill="white"/>
</g>
<defs>
<clipPath id="clip0_3258_29049">
<rect width="24" height="24" fill="white"/>
</clipPath>
</defs>
</svg>
