<svg width="16" height="16" viewBox="0 0 16 16" fill="none" xmlns="http://www.w3.org/2000/svg">
<g clip-path="url(#clip0_1796_11899)">
<path d="M8.00001 0.450195C3.82501 0.450195 0.450012 3.8252 0.450012 8.0002C0.450012 12.1752 3.82501 15.5752 8.00001 15.5752C12.175 15.5752 15.575 12.1752 15.575 8.0002C15.575 3.8252 12.175 0.450195 8.00001 0.450195ZM8.00001 14.4502C4.45001 14.4502 1.57501 11.5502 1.57501 8.0002C1.57501 4.4502 4.45001 1.5752 8.00001 1.5752C11.55 1.5752 14.45 4.47519 14.45 8.0252C14.45 11.5502 11.55 14.4502 8.00001 14.4502Z" fill="#CC0000"/>
<path d="M10.3 5.67559C10.075 5.45059 9.72504 5.45059 9.50004 5.67559L8.00004 7.20059L6.47504 5.67559C6.25004 5.45059 5.90004 5.45059 5.67504 5.67559C5.45004 5.90059 5.45004 6.25059 5.67504 6.47559L7.20004 8.00059L5.67504 9.52559C5.45004 9.75059 5.45004 10.1006 5.67504 10.3256C5.77504 10.4256 5.92504 10.5006 6.07504 10.5006C6.22504 10.5006 6.37504 10.4506 6.47504 10.3256L8.00004 8.80059L9.52504 10.3256C9.62504 10.4256 9.77504 10.5006 9.92504 10.5006C10.075 10.5006 10.225 10.4506 10.325 10.3256C10.55 10.1006 10.55 9.75059 10.325 9.52559L8.80004 8.00059L10.325 6.47559C10.525 6.25059 10.525 5.90059 10.3 5.67559Z" fill="#CC0000"/>
</g>
<defs>
<clipPath id="clip0_1796_11899">
<rect width="16" height="16" fill="white"/>
</clipPath>
</defs>
</svg>
