<svg width="16" height="16" viewBox="0 0 16 16" fill="none" xmlns="http://www.w3.org/2000/svg">
<path d="M15.3504 13.9252L11.2254 10.5752C12.9254 8.2502 12.7504 4.9252 10.6254 2.8252C9.50039 1.7002 8.00039 1.0752 6.40039 1.0752C4.80039 1.0752 3.30039 1.7002 2.17539 2.8252C-0.149609 5.1502 -0.149609 8.9502 2.17539 11.2752C3.30039 12.4002 4.80039 13.0252 6.40039 13.0252C7.92539 13.0252 9.35039 12.4502 10.4754 11.4252L14.6504 14.8002C14.7504 14.8752 14.8754 14.9252 15.0004 14.9252C15.1754 14.9252 15.3254 14.8502 15.4254 14.7252C15.6254 14.4752 15.6004 14.1252 15.3504 13.9252ZM6.40039 11.9002C5.10039 11.9002 3.90039 11.4002 2.97539 10.4752C1.07539 8.5752 1.07539 5.5002 2.97539 3.6252C3.90039 2.7002 5.10039 2.2002 6.40039 2.2002C7.70039 2.2002 8.90039 2.7002 9.82539 3.6252C11.7254 5.5252 11.7254 8.6002 9.82539 10.4752C8.92539 11.4002 7.70039 11.9002 6.40039 11.9002Z" fill="#6B7280"/>
</svg>
