<svg width="16" height="16" viewBox="0 0 16 16" fill="none" xmlns="http://www.w3.org/2000/svg">
<path d="M0.783529 7.99922C0.783529 4.00831 4.00929 0.782552 8.0002 0.782552C11.9925 0.782552 15.2419 4.00975 15.2419 7.99922C15.2419 11.9901 11.9911 15.2409 8.0002 15.2409C4.01072 15.2409 0.783529 11.9916 0.783529 7.99922ZM1.24186 7.99922C1.24186 11.7316 4.26442 14.7826 8.0002 14.7826C11.7334 14.7826 14.7835 11.7342 14.7835 8.02422C14.7835 4.29012 11.7343 1.24089 8.0002 1.24089C4.2661 1.24089 1.24186 4.26512 1.24186 7.99922Z" fill="#2F8902" stroke="#2F8902" stroke-width="0.666667"/>
<path d="M6.94175 8.81225L7.17444 9.04063L7.40791 8.81305L10.3763 5.91952C10.473 5.83767 10.6191 5.83967 10.7145 5.93506C10.8087 6.02926 10.8094 6.167 10.7164 6.26178L7.49424 9.35904L7.49419 9.359L7.48953 9.36365C7.40613 9.44706 7.29278 9.49102 7.17524 9.49102C7.05769 9.49102 6.94434 9.44706 6.86094 9.36366L6.86097 9.36363L6.85717 9.35994L5.26761 7.82006C5.17356 7.70756 5.18332 7.56989 5.2547 7.49159C5.37037 7.39502 5.51259 7.40811 5.58953 7.48506L5.59175 7.48725L6.94175 8.81225Z" fill="#2F8902" stroke="#2F8902" stroke-width="0.666667"/>
</svg>
