<svg width="25" height="24" viewBox="0 0 25 24" fill="none" xmlns="http://www.w3.org/2000/svg">
<path d="M18.0492 0.674805H6.94922C5.29922 0.674805 3.94922 2.0248 3.94922 3.6748V22.0498C3.94922 22.5373 4.28672 22.9873 4.77422 23.0998C5.26172 23.2498 5.74922 23.0248 6.01172 22.6123L7.32422 20.4373L9.01172 22.8748C9.19922 23.1748 9.57422 23.3623 9.91172 23.3623C10.2867 23.3623 10.6242 23.1748 10.8117 22.8748L12.5367 20.3623L14.2617 22.8748C14.4492 23.1748 14.8242 23.3623 15.1617 23.3623C15.4992 23.3623 15.8742 23.1748 16.0617 22.8748L17.7117 20.4373L19.0242 22.6498C19.2867 23.0623 19.7742 23.2873 20.2617 23.1373C20.7492 22.9873 21.0867 22.5748 21.0867 22.0873V3.6748C21.0492 2.0248 19.6992 0.674805 18.0492 0.674805ZM19.3617 19.9498L18.6492 18.7498C18.4617 18.4123 18.1242 18.2248 17.7492 18.2248C17.3742 18.2248 17.0367 18.4123 16.8117 18.7123L15.1242 21.1873L13.3992 18.6748C13.2117 18.3748 12.8742 18.1873 12.4992 18.1873C12.1242 18.1873 11.7867 18.3748 11.5992 18.6748L9.87422 21.1873L8.18672 18.6748C7.96172 18.3748 7.62422 18.1873 7.28672 18.1873H7.24922C6.87422 18.1873 6.53672 18.4123 6.34922 18.7123L5.67422 19.8748V3.6748C5.67422 2.9248 6.27422 2.3623 6.98672 2.3623H18.0492C18.7992 2.3623 19.3617 2.9623 19.3617 3.6748V19.9498Z" fill="#0158A3"/>
<path d="M16.3609 7.3877H8.63594C8.18594 7.3877 7.77344 7.7627 7.77344 8.2502C7.77344 8.73769 8.14844 9.11269 8.63594 9.11269H16.3609C16.8109 9.11269 17.2234 8.73769 17.2234 8.2502C17.2234 7.7627 16.8109 7.3877 16.3609 7.3877Z" fill="#0158A3"/>
<path d="M16.3609 11.25H8.63594C8.18594 11.25 7.77344 11.625 7.77344 12.1125C7.77344 12.5625 8.14844 12.975 8.63594 12.975H16.3609C16.8109 12.975 17.2234 12.6 17.2234 12.1125C17.1859 11.625 16.8109 11.25 16.3609 11.25Z" fill="#0158A3"/>
</svg>
