<svg width="24" height="24" viewBox="0 0 24 24" fill="none" xmlns="http://www.w3.org/2000/svg">
<path d="M18.3367 3.3002H15.4492V2.66269C15.4492 1.5377 14.5492 0.637695 13.4242 0.637695H10.5367C9.41172 0.637695 8.51172 1.5377 8.51172 2.66269V3.3002H5.62422C4.53672 3.3002 3.63672 4.2002 3.63672 5.28769V6.41269C3.63672 7.2377 4.12422 7.91269 4.83672 8.21269L5.43672 21.1877C5.51172 22.4252 6.48672 23.3627 7.72422 23.3627H16.1617C17.3992 23.3627 18.4117 22.3877 18.4492 21.1877L19.1242 8.17519C19.8367 7.87519 20.3242 7.16269 20.3242 6.3752V5.2502C20.3242 4.2002 19.4242 3.3002 18.3367 3.3002ZM10.2367 2.66269C10.2367 2.4752 10.3867 2.3252 10.5742 2.3252H13.4617C13.6492 2.3252 13.7992 2.4752 13.7992 2.66269V3.3002H10.2742V2.66269H10.2367ZM5.36172 5.28769C5.36172 5.1377 5.47422 4.9877 5.66172 4.9877H18.3367C18.4867 4.9877 18.6367 5.1002 18.6367 5.28769V6.41269C18.6367 6.5627 18.5242 6.71269 18.3367 6.71269H5.66172C5.51172 6.71269 5.36172 6.60019 5.36172 6.41269V5.28769ZM16.1992 21.6752H7.79922C7.46172 21.6752 7.19922 21.4127 7.19922 21.1127L6.59922 8.40019H17.4367L16.8367 21.1127C16.7992 21.4127 16.5367 21.6752 16.1992 21.6752Z" fill="#25272C"/>
<path d="M11.9992 11.6631C11.5492 11.6631 11.1367 12.0381 11.1367 12.5256V18.3381C11.1367 18.7881 11.5117 19.2006 11.9992 19.2006C12.4492 19.2006 12.8617 18.8256 12.8617 18.3381V12.4881C12.8617 12.0381 12.4492 11.6631 11.9992 11.6631Z" fill="#25272C"/>
<path d="M15.487 12.3756C15.037 12.3381 14.6245 12.7131 14.587 13.1631L14.362 17.4756C14.3245 17.9256 14.6995 18.3381 15.1495 18.3756H15.187C15.637 18.3756 16.012 18.0381 16.012 17.5881L16.237 13.2756C16.312 12.7881 15.937 12.4131 15.487 12.3756Z" fill="#25272C"/>
<path d="M8.47368 12.3756C8.02368 12.4131 7.64868 12.7881 7.68618 13.2756L7.94868 17.6256C7.98618 18.0756 8.36118 18.4131 8.77368 18.4131H8.81118C9.26118 18.3756 9.63618 18.0006 9.59868 17.5131L9.37368 13.1631C9.33618 12.7131 8.92368 12.3381 8.47368 12.3756Z" fill="#25272C"/>
</svg>
