<svg width="20" height="24" viewBox="0 0 20 24" fill="none" xmlns="http://www.w3.org/2000/svg">
<path d="M16.4502 12.7496C15.3252 11.3996 13.9002 10.4621 12.3252 9.97461C13.9002 9.14961 14.9502 7.49961 14.9502 5.58711C14.9502 2.84961 12.7377 0.599609 9.9627 0.599609C7.1877 0.599609 5.0127 2.88711 5.0127 5.62461C5.0127 7.49961 6.0627 9.14961 7.6377 10.0121C6.0627 10.4996 4.6752 11.4371 3.5127 12.7871C1.8627 14.7371 0.925195 17.4371 0.887695 20.3996C0.887695 20.7371 1.0752 21.0371 1.3377 21.1496C2.3502 21.6746 6.0252 23.3246 9.9627 23.3246C14.2377 23.3246 17.6502 21.6371 18.6252 21.1121C18.8877 20.9621 19.0752 20.6621 19.0752 20.3621C19.0377 17.4371 18.1002 14.7371 16.4502 12.7496ZM10.0002 2.36211C11.8002 2.36211 13.3002 3.82461 13.3002 5.66211C13.3002 7.49961 11.8377 8.96211 10.0002 8.96211C8.16269 8.96211 6.7002 7.49961 6.7002 5.66211C6.7002 3.82461 8.20019 2.36211 10.0002 2.36211ZM10.0002 21.6746C6.88769 21.6746 3.8502 20.4746 2.6127 19.8746C2.7627 17.5121 3.5127 15.4121 4.8252 13.8371C6.1752 12.2246 8.01269 11.3246 10.0002 11.3246C11.9877 11.3246 13.8252 12.2246 15.1752 13.8371C16.4877 15.3746 17.2752 17.5121 17.3877 19.8746C16.2252 20.4746 13.3752 21.6746 10.0002 21.6746Z" fill="white"/>
</svg>
